solid Exported from Blender-2.93.0
facet normal -0.907453 0.420154 0.000000
outer loop
vertex -0.170817 0.123305 -0.018569
vertex -0.181830 0.099519 0.443306
vertex -0.170817 0.123305 0.443306
endloop
endfacet
facet normal 0.000000 0.000000 -1.000000
outer loop
vertex -0.139967 -0.155350 -0.018569
vertex -0.148450 -0.150084 -0.018569
vertex -0.057567 -0.155350 -0.018569
endloop
endfacet
facet normal -0.000000 0.000000 -1.000000
outer loop
vertex -0.149933 -0.152834 -0.018569
vertex -0.148450 -0.150084 -0.018569
vertex -0.139967 -0.155350 -0.018569
endloop
endfacet
facet normal 0.000000 0.000000 -1.000000
outer loop
vertex -0.187446 -0.073882 -0.018569
vertex -0.187446 0.073882 -0.018569
vertex -0.057567 -0.155350 -0.018569
endloop
endfacet
facet normal 0.258866 -0.000001 -0.965913
outer loop
vertex -0.057566 0.152225 -0.018569
vertex -0.056067 -0.155350 -0.018167
vertex -0.057567 -0.155350 -0.018569
endloop
endfacet
facet normal 0.000027 0.000000 1.000000
outer loop
vertex -0.181830 0.099519 0.443306
vertex -0.157511 0.145890 0.443306
vertex -0.170817 0.123305 0.443306
endloop
endfacet
facet normal -0.861589 0.507606 0.000000
outer loop
vertex -0.170817 0.123305 0.443306
vertex -0.157511 0.145890 0.443306
vertex -0.170817 0.123305 -0.018569
endloop
endfacet
facet normal -0.861606 0.507578 0.000002
outer loop
vertex -0.157511 0.145890 0.443306
vertex -0.157512 0.145890 -0.018569
vertex -0.170817 0.123305 -0.018569
endloop
endfacet
facet normal 0.000000 0.000000 -1.000000
outer loop
vertex -0.057566 0.155350 -0.018569
vertex -0.148450 0.150084 -0.018569
vertex -0.139966 0.155350 -0.018569
endloop
endfacet
facet normal -0.244756 -0.969585 0.000000
outer loop
vertex -0.149933 -0.152834 -0.018569
vertex -0.139966 -0.155350 0.443306
vertex -0.149933 -0.152834 0.443306
endloop
endfacet
facet normal -0.244778 -0.969579 0.000000
outer loop
vertex -0.139967 -0.155350 -0.018569
vertex -0.139966 -0.155350 0.443306
vertex -0.149933 -0.152834 -0.018569
endloop
endfacet
facet normal 0.000000 0.000000 -1.000000
outer loop
vertex -0.187446 -0.073882 -0.018569
vertex -0.181831 -0.099519 -0.018569
vertex -0.190789 -0.072369 -0.018569
endloop
endfacet
facet normal 0.000000 0.000000 -1.000000
outer loop
vertex -0.157512 0.145890 -0.018569
vertex -0.181831 0.099519 -0.018569
vertex -0.170817 0.123305 -0.018569
endloop
endfacet
facet normal -0.000001 0.000000 -1.000000
outer loop
vertex -0.190789 0.072368 -0.018569
vertex -0.181831 0.099519 -0.018569
vertex -0.187446 0.073882 -0.018569
endloop
endfacet
facet normal -0.907438 0.420186 0.000002
outer loop
vertex -0.170817 0.123305 -0.018569
vertex -0.181831 0.099519 -0.018569
vertex -0.181830 0.099519 0.443306
endloop
endfacet
facet normal 0.706783 0.000000 -0.707430
outer loop
vertex -0.056067 -0.155350 -0.018167
vertex -0.054968 0.152225 -0.017069
vertex -0.054968 -0.155350 -0.017069
endloop
endfacet
facet normal -0.861589 -0.507606 0.000000
outer loop
vertex -0.170817 -0.123305 -0.018569
vertex -0.157511 -0.145890 0.443306
vertex -0.170817 -0.123305 0.443306
endloop
endfacet
facet normal 0.000000 0.000000 1.000000
outer loop
vertex -0.181830 0.099519 0.443306
vertex -0.149933 0.152834 0.443306
vertex -0.157511 0.145890 0.443306
endloop
endfacet
facet normal 0.000000 0.000000 1.000000
outer loop
vertex -0.139966 0.155350 0.443306
vertex -0.149933 0.152834 0.443306
vertex -0.181830 0.099519 0.443306
endloop
endfacet
facet normal 0.965915 0.000000 0.258859
outer loop
vertex -0.054968 0.152225 0.441806
vertex -0.054566 -0.155350 0.440306
vertex -0.054566 0.152225 0.440306
endloop
endfacet
facet normal 0.000008 0.000000 1.000000
outer loop
vertex -0.139966 0.155350 0.443306
vertex -0.181830 0.099519 0.443306
vertex -0.178933 0.098347 0.443306
endloop
endfacet
facet normal 0.000000 0.000000 1.000000
outer loop
vertex -0.139966 -0.155350 0.443306
vertex -0.181830 -0.099519 0.443306
vertex -0.149933 -0.152834 0.443306
endloop
endfacet
facet normal 0.000000 0.000000 1.000000
outer loop
vertex -0.181830 -0.099519 0.443306
vertex -0.157511 -0.145890 0.443306
vertex -0.149933 -0.152834 0.443306
endloop
endfacet
facet normal 0.000027 0.000000 1.000000
outer loop
vertex -0.157511 -0.145890 0.443306
vertex -0.181830 -0.099519 0.443306
vertex -0.170817 -0.123305 0.443306
endloop
endfacet
facet normal -0.907453 -0.420154 0.000000
outer loop
vertex -0.170817 -0.123305 0.443306
vertex -0.181830 -0.099519 0.443306
vertex -0.170817 -0.123305 -0.018569
endloop
endfacet
facet normal -0.907438 -0.420186 0.000002
outer loop
vertex -0.170817 -0.123305 -0.018569
vertex -0.181830 -0.099519 0.443306
vertex -0.181831 -0.099519 -0.018569
endloop
endfacet
facet normal 0.000001 0.000000 -1.000000
outer loop
vertex -0.181831 -0.099519 -0.018569
vertex -0.190445 -0.074762 -0.018569
vertex -0.190789 -0.072369 -0.018569
endloop
endfacet
facet normal -0.944463 -0.328619 0.000002
outer loop
vertex -0.190444 -0.074762 0.443306
vertex -0.190445 -0.074762 -0.018569
vertex -0.181830 -0.099519 0.443306
endloop
endfacet
facet normal -0.944463 -0.328617 0.000002
outer loop
vertex -0.181830 -0.099519 0.443306
vertex -0.190445 -0.074762 -0.018569
vertex -0.181831 -0.099519 -0.018569
endloop
endfacet
facet normal 0.000000 0.000000 -1.000000
outer loop
vertex -0.168050 -0.121854 -0.018569
vertex -0.181831 -0.099519 -0.018569
vertex -0.187446 -0.073882 -0.018569
endloop
endfacet
facet normal 0.000000 0.000000 -1.000000
outer loop
vertex -0.168050 -0.121854 -0.018569
vertex -0.187446 -0.073882 -0.018569
vertex -0.057567 -0.155350 -0.018569
endloop
endfacet
facet normal 0.000000 0.000000 -1.000000
outer loop
vertex -0.148450 -0.150084 -0.018569
vertex -0.168050 -0.121854 -0.018569
vertex -0.057567 -0.155350 -0.018569
endloop
endfacet
facet normal -0.944463 0.328617 0.000002
outer loop
vertex -0.181831 0.099519 -0.018569
vertex -0.190445 0.074762 -0.018569
vertex -0.181830 0.099519 0.443306
endloop
endfacet
facet normal 0.000005 0.000000 -1.000000
outer loop
vertex -0.181831 0.099519 -0.018569
vertex -0.190789 0.072368 -0.018569
vertex -0.190445 0.074762 -0.018569
endloop
endfacet
facet normal 0.000000 0.000000 -1.000000
outer loop
vertex -0.148450 0.150084 -0.018569
vertex -0.168050 0.121854 -0.018569
vertex -0.157512 0.145890 -0.018569
endloop
endfacet
facet normal 0.000000 0.000000 -1.000000
outer loop
vertex -0.168050 0.121854 -0.018569
vertex -0.181831 0.099519 -0.018569
vertex -0.157512 0.145890 -0.018569
endloop
endfacet
facet normal 0.000000 0.000000 -1.000000
outer loop
vertex -0.181831 0.099519 -0.018569
vertex -0.168050 0.121854 -0.018569
vertex -0.187446 0.073882 -0.018569
endloop
endfacet
facet normal 0.000000 0.000000 -1.000000
outer loop
vertex -0.187446 0.073882 -0.018569
vertex -0.168050 0.121854 -0.018569
vertex -0.057566 0.155350 -0.018569
endloop
endfacet
facet normal 0.000000 0.000000 -1.000000
outer loop
vertex -0.148450 0.150084 -0.018569
vertex -0.057566 0.155350 -0.018569
vertex -0.168050 0.121854 -0.018569
endloop
endfacet
facet normal 0.707107 -0.000002 -0.707107
outer loop
vertex -0.054968 0.152225 -0.017069
vertex -0.056067 -0.155350 -0.018167
vertex -0.056066 0.152225 -0.018167
endloop
endfacet
facet normal 0.258864 -0.000001 -0.965914
outer loop
vertex -0.056067 -0.155350 -0.018167
vertex -0.057566 0.152225 -0.018569
vertex -0.056066 0.152225 -0.018167
endloop
endfacet
facet normal -0.244754 0.969585 0.000000
outer loop
vertex -0.139966 0.155350 0.443306
vertex -0.139966 0.155350 -0.018569
vertex -0.149933 0.152834 -0.018569
endloop
endfacet
facet normal -0.244756 0.969585 0.000000
outer loop
vertex -0.149933 0.152834 -0.018569
vertex -0.149933 0.152834 0.443306
vertex -0.139966 0.155350 0.443306
endloop
endfacet
facet normal -0.000000 0.000000 -1.000000
outer loop
vertex -0.148450 0.150084 -0.018569
vertex -0.149933 0.152834 -0.018569
vertex -0.139966 0.155350 -0.018569
endloop
endfacet
facet normal 0.000000 0.000000 -1.000000
outer loop
vertex -0.148450 0.150084 -0.018569
vertex -0.157512 0.145890 -0.018569
vertex -0.149933 0.152834 -0.018569
endloop
endfacet
facet normal 0.000000 0.000000 1.000000
outer loop
vertex -0.139966 -0.155350 0.443306
vertex -0.057566 -0.155350 0.443306
vertex -0.057566 0.152225 0.443306
endloop
endfacet
facet normal 0.000000 0.000000 1.000000
outer loop
vertex -0.181830 -0.099519 0.443306
vertex -0.139966 -0.155350 0.443306
vertex -0.178933 -0.098347 0.443306
endloop
endfacet
facet normal 0.000000 0.000000 1.000000
outer loop
vertex -0.139966 0.155350 0.443306
vertex -0.178933 -0.098347 0.443306
vertex -0.139966 -0.155350 0.443306
endloop
endfacet
facet normal -0.000002 0.000000 1.000000
outer loop
vertex -0.178933 0.098347 0.443306
vertex -0.178933 -0.098347 0.443306
vertex -0.139966 0.155350 0.443306
endloop
endfacet
facet normal 0.000000 0.000000 -1.000000
outer loop
vertex -0.148450 -0.150084 -0.018569
vertex -0.149933 -0.152834 -0.018569
vertex -0.157512 -0.145890 -0.018569
endloop
endfacet
facet normal 0.000000 0.000000 -1.000000
outer loop
vertex -0.168050 -0.121854 -0.018569
vertex -0.148450 -0.150084 -0.018569
vertex -0.157512 -0.145890 -0.018569
endloop
endfacet
facet normal -0.861606 -0.507578 0.000002
outer loop
vertex -0.157511 -0.145890 0.443306
vertex -0.170817 -0.123305 -0.018569
vertex -0.157512 -0.145890 -0.018569
endloop
endfacet
facet normal 0.000000 0.000000 -1.000000
outer loop
vertex -0.181831 -0.099519 -0.018569
vertex -0.157512 -0.145890 -0.018569
vertex -0.170817 -0.123305 -0.018569
endloop
endfacet
facet normal 0.000000 0.000000 -1.000000
outer loop
vertex -0.168050 -0.121854 -0.018569
vertex -0.157512 -0.145890 -0.018569
vertex -0.181831 -0.099519 -0.018569
endloop
endfacet
facet normal -0.675544 -0.737320 0.000000
outer loop
vertex -0.149933 -0.152834 0.443306
vertex -0.157512 -0.145890 -0.018569
vertex -0.149933 -0.152834 -0.018569
endloop
endfacet
facet normal -0.675592 -0.737275 0.000001
outer loop
vertex -0.157511 -0.145890 0.443306
vertex -0.157512 -0.145890 -0.018569
vertex -0.149933 -0.152834 0.443306
endloop
endfacet
facet normal -0.944463 0.328619 0.000002
outer loop
vertex -0.190445 0.074762 -0.018569
vertex -0.190444 0.074762 0.443306
vertex -0.181830 0.099519 0.443306
endloop
endfacet
facet normal 0.965914 -0.000003 -0.258863
outer loop
vertex -0.054566 0.152225 -0.015569
vertex -0.054567 -0.155350 -0.015569
vertex -0.054968 0.152225 -0.017069
endloop
endfacet
facet normal 0.966075 0.000000 -0.258262
outer loop
vertex -0.054968 0.152225 -0.017069
vertex -0.054567 -0.155350 -0.015569
vertex -0.054968 -0.155350 -0.017069
endloop
endfacet
facet normal 0.258815 0.000000 0.965927
outer loop
vertex -0.057566 0.152225 0.443306
vertex -0.056066 -0.155350 0.442904
vertex -0.056066 0.152225 0.442904
endloop
endfacet
facet normal 0.258932 0.000000 0.965896
outer loop
vertex -0.057566 -0.155350 0.443306
vertex -0.056066 -0.155350 0.442904
vertex -0.057566 0.152225 0.443306
endloop
endfacet
facet normal 0.707110 0.000000 0.707104
outer loop
vertex -0.056066 -0.155350 0.442904
vertex -0.054968 0.152225 0.441806
vertex -0.056066 0.152225 0.442904
endloop
endfacet
facet normal 0.965911 0.000000 0.258874
outer loop
vertex -0.054566 -0.155350 0.440306
vertex -0.054968 0.152225 0.441806
vertex -0.054968 -0.155350 0.441806
endloop
endfacet
facet normal 0.707110 0.000000 0.707104
outer loop
vertex -0.056066 -0.155350 0.442904
vertex -0.054968 -0.155350 0.441806
vertex -0.054968 0.152225 0.441806
endloop
endfacet
facet normal -0.000000 0.000000 -1.000000
outer loop
vertex -0.187446 0.073882 -0.018569
vertex -0.057566 0.155350 -0.018569
vertex -0.057566 0.152225 -0.018569
endloop
endfacet
facet normal 0.000000 0.000000 -1.000000
outer loop
vertex -0.187446 0.073882 -0.018569
vertex -0.057566 0.152225 -0.018569
vertex -0.057567 -0.155350 -0.018569
endloop
endfacet
facet normal -1.000000 0.000000 0.000002
outer loop
vertex -0.190788 0.072368 0.443306
vertex -0.190789 0.072368 -0.018569
vertex -0.190788 -0.072369 0.443306
endloop
endfacet
facet normal -1.000000 0.000000 0.000002
outer loop
vertex -0.190788 -0.072369 0.443306
vertex -0.190789 0.072368 -0.018569
vertex -0.190789 -0.072369 -0.018569
endloop
endfacet
facet normal -0.000001 0.000000 -1.000000
outer loop
vertex -0.187446 -0.073882 -0.018569
vertex -0.190789 -0.072369 -0.018569
vertex -0.190789 0.072368 -0.018569
endloop
endfacet
facet normal 0.000000 0.000000 -1.000000
outer loop
vertex -0.190789 0.072368 -0.018569
vertex -0.187446 0.073882 -0.018569
vertex -0.187446 -0.073882 -0.018569
endloop
endfacet
facet normal 0.000000 0.000000 1.000000
outer loop
vertex -0.139966 0.155350 0.443306
vertex -0.057566 0.152225 0.443306
vertex -0.057566 0.155350 0.443306
endloop
endfacet
facet normal 0.000000 0.000000 1.000000
outer loop
vertex -0.139966 -0.155350 0.443306
vertex -0.057566 0.152225 0.443306
vertex -0.139966 0.155350 0.443306
endloop
endfacet
facet normal 0.258884 0.000000 0.965908
outer loop
vertex -0.057566 0.152225 0.443306
vertex -0.056066 0.155350 0.442904
vertex -0.057566 0.155350 0.443306
endloop
endfacet
facet normal 0.258842 0.000000 0.965920
outer loop
vertex -0.056066 0.155350 0.442904
vertex -0.057566 0.152225 0.443306
vertex -0.056066 0.152225 0.442904
endloop
endfacet
facet normal 0.707104 0.000000 0.707110
outer loop
vertex -0.056066 0.155350 0.442904
vertex -0.054968 0.152225 0.441806
vertex -0.054968 0.155350 0.441806
endloop
endfacet
facet normal 0.707107 0.000000 0.707107
outer loop
vertex -0.056066 0.155350 0.442904
vertex -0.056066 0.152225 0.442904
vertex -0.054968 0.152225 0.441806
endloop
endfacet
facet normal 0.000000 1.000000 0.000000
outer loop
vertex -0.057566 0.155350 -0.018569
vertex -0.139966 0.155350 -0.018569
vertex -0.054566 0.155350 0.440306
endloop
endfacet
facet normal 0.000000 1.000000 0.000000
outer loop
vertex -0.139966 0.155350 0.443306
vertex -0.054566 0.155350 0.440306
vertex -0.139966 0.155350 -0.018569
endloop
endfacet
facet normal 0.000000 1.000000 0.000000
outer loop
vertex -0.054968 0.155350 -0.017069
vertex -0.054566 0.155350 0.440306
vertex -0.054566 0.155350 -0.015569
endloop
endfacet
facet normal 0.000000 1.000000 -0.000000
outer loop
vertex -0.057566 0.155350 -0.018569
vertex -0.054566 0.155350 0.440306
vertex -0.056066 0.155350 -0.018167
endloop
endfacet
facet normal 0.000000 1.000000 -0.000000
outer loop
vertex -0.054968 0.155350 -0.017069
vertex -0.056066 0.155350 -0.018167
vertex -0.054566 0.155350 0.440306
endloop
endfacet
facet normal 0.000000 1.000000 0.000000
outer loop
vertex -0.054566 0.155350 0.440306
vertex -0.139966 0.155350 0.443306
vertex -0.057566 0.155350 0.443306
endloop
endfacet
facet normal 0.000000 1.000000 0.000012
outer loop
vertex -0.056066 0.155350 0.442904
vertex -0.054968 0.155350 0.441806
vertex -0.054566 0.155350 0.440306
endloop
endfacet
facet normal 0.000000 1.000000 0.000018
outer loop
vertex -0.056066 0.155350 0.442904
vertex -0.054566 0.155350 0.440306
vertex -0.057566 0.155350 0.443306
endloop
endfacet
facet normal 0.965912 0.000000 0.258870
outer loop
vertex -0.054968 0.152225 0.441806
vertex -0.054566 0.155350 0.440306
vertex -0.054968 0.155350 0.441806
endloop
endfacet
facet normal 0.965915 0.000000 0.258858
outer loop
vertex -0.054968 0.152225 0.441806
vertex -0.054566 0.152225 0.440306
vertex -0.054566 0.155350 0.440306
endloop
endfacet
facet normal -0.989826 -0.142282 0.000002
outer loop
vertex -0.190788 -0.072369 0.443306
vertex -0.190445 -0.074762 -0.018569
vertex -0.190444 -0.074762 0.443306
endloop
endfacet
facet normal -0.989824 -0.142295 0.000002
outer loop
vertex -0.190788 -0.072369 0.443306
vertex -0.190789 -0.072369 -0.018569
vertex -0.190445 -0.074762 -0.018569
endloop
endfacet
facet normal 0.707106 0.000000 -0.707108
outer loop
vertex -0.054968 0.155350 -0.017069
vertex -0.056066 0.152225 -0.018167
vertex -0.056066 0.155350 -0.018167
endloop
endfacet
facet normal 0.707109 0.000000 -0.707105
outer loop
vertex -0.054968 0.152225 -0.017069
vertex -0.056066 0.152225 -0.018167
vertex -0.054968 0.155350 -0.017069
endloop
endfacet
facet normal 0.258863 0.000000 -0.965914
outer loop
vertex -0.056066 0.155350 -0.018167
vertex -0.056066 0.152225 -0.018167
vertex -0.057566 0.155350 -0.018569
endloop
endfacet
facet normal 0.258866 0.000000 -0.965913
outer loop
vertex -0.057566 0.155350 -0.018569
vertex -0.056066 0.152225 -0.018167
vertex -0.057566 0.152225 -0.018569
endloop
endfacet
facet normal 0.965914 0.000000 -0.258863
outer loop
vertex -0.054566 0.155350 -0.015569
vertex -0.054566 0.152225 -0.015569
vertex -0.054968 0.155350 -0.017069
endloop
endfacet
facet normal 0.965914 0.000000 -0.258862
outer loop
vertex -0.054968 0.155350 -0.017069
vertex -0.054566 0.152225 -0.015569
vertex -0.054968 0.152225 -0.017069
endloop
endfacet
facet normal 1.000000 0.000000 0.000000
outer loop
vertex -0.054566 0.155350 0.440306
vertex -0.054566 0.152225 -0.015569
vertex -0.054566 0.155350 -0.015569
endloop
endfacet
facet normal 1.000000 0.000000 0.000000
outer loop
vertex -0.054566 0.152225 -0.015569
vertex -0.054566 0.155350 0.440306
vertex -0.054566 0.152225 0.440306
endloop
endfacet
facet normal -0.675542 0.737321 0.000001
outer loop
vertex -0.157511 0.145890 0.443306
vertex -0.149933 0.152834 -0.018569
vertex -0.157512 0.145890 -0.018569
endloop
endfacet
facet normal -0.675594 0.737274 0.000000
outer loop
vertex -0.149933 0.152834 0.443306
vertex -0.149933 0.152834 -0.018569
vertex -0.157511 0.145890 0.443306
endloop
endfacet
facet normal 0.000224 0.000000 1.000000
outer loop
vertex -0.190788 -0.072369 0.443306
vertex -0.190444 0.074762 0.443306
vertex -0.190788 0.072368 0.443306
endloop
endfacet
facet normal 0.000029 0.000000 1.000000
outer loop
vertex -0.178933 -0.098347 0.443306
vertex -0.190444 0.074762 0.443306
vertex -0.181830 -0.099519 0.443306
endloop
endfacet
facet normal -0.000290 0.000000 1.000000
outer loop
vertex -0.190444 -0.074762 0.443306
vertex -0.190444 0.074762 0.443306
vertex -0.190788 -0.072369 0.443306
endloop
endfacet
facet normal 0.000000 0.000000 1.000000
outer loop
vertex -0.178933 0.098347 0.443306
vertex -0.181830 0.099519 0.443306
vertex -0.190444 0.074762 0.443306
endloop
endfacet
facet normal 0.000000 0.000000 1.000000
outer loop
vertex -0.181830 -0.099519 0.443306
vertex -0.190444 0.074762 0.443306
vertex -0.190444 -0.074762 0.443306
endloop
endfacet
facet normal 0.000000 0.000000 1.000000
outer loop
vertex -0.190444 0.074762 0.443306
vertex -0.178933 -0.098347 0.443306
vertex -0.178933 0.098347 0.443306
endloop
endfacet
facet normal -0.989833 0.142237 0.000002
outer loop
vertex -0.190789 0.072368 -0.018569
vertex -0.190788 0.072368 0.443306
vertex -0.190444 0.074762 0.443306
endloop
endfacet
facet normal -0.989834 0.142224 0.000002
outer loop
vertex -0.190445 0.074762 -0.018569
vertex -0.190789 0.072368 -0.018569
vertex -0.190444 0.074762 0.443306
endloop
endfacet
facet normal 1.000000 -0.000003 0.000000
outer loop
vertex -0.054566 0.152225 0.440306
vertex -0.054567 -0.155350 -0.015569
vertex -0.054566 0.152225 -0.015569
endloop
endfacet
facet normal 1.000000 0.000000 -0.000002
outer loop
vertex -0.054566 -0.155350 0.440306
vertex -0.054567 -0.155350 -0.015569
vertex -0.054566 0.152225 0.440306
endloop
endfacet
facet normal 0.000000 -1.000000 0.000000
outer loop
vertex -0.056067 -0.155350 -0.018167
vertex -0.054968 -0.155350 -0.017069
vertex -0.054968 -0.155350 0.441806
endloop
endfacet
facet normal 0.000000 -1.000000 0.000000
outer loop
vertex -0.139967 -0.155350 -0.018569
vertex -0.057567 -0.155350 -0.018569
vertex -0.054968 -0.155350 0.441806
endloop
endfacet
facet normal 0.000000 -1.000000 0.000000
outer loop
vertex -0.056067 -0.155350 -0.018167
vertex -0.054968 -0.155350 0.441806
vertex -0.057567 -0.155350 -0.018569
endloop
endfacet
facet normal 0.000000 -1.000000 0.000000
outer loop
vertex -0.139966 -0.155350 0.443306
vertex -0.139967 -0.155350 -0.018569
vertex -0.054968 -0.155350 0.441806
endloop
endfacet
facet normal 0.000000 -1.000000 0.000000
outer loop
vertex -0.054567 -0.155350 -0.015569
vertex -0.054968 -0.155350 0.441806
vertex -0.054968 -0.155350 -0.017069
endloop
endfacet
facet normal 0.000000 -1.000000 0.000000
outer loop
vertex -0.057566 -0.155350 0.443306
vertex -0.139966 -0.155350 0.443306
vertex -0.054968 -0.155350 0.441806
endloop
endfacet
facet normal 0.000000 -1.000000 0.000000
outer loop
vertex -0.054968 -0.155350 0.441806
vertex -0.054567 -0.155350 -0.015569
vertex -0.054566 -0.155350 0.440306
endloop
endfacet
facet normal 0.000000 -1.000000 0.000000
outer loop
vertex -0.056066 -0.155350 0.442904
vertex -0.057566 -0.155350 0.443306
vertex -0.054968 -0.155350 0.441806
endloop
endfacet
endsolid Exported from Blender-2.93.0
