solid Exported from Blender-2.93.0
facet normal -0.907449 0.420162 0.000001
outer loop
vertex -0.148316 0.123305 -0.018569
vertex -0.159329 0.099519 0.443306
vertex -0.148316 0.123305 0.443306
endloop
endfacet
facet normal -0.000001 -0.000001 -1.000000
outer loop
vertex -0.117466 -0.155350 -0.018569
vertex -0.125949 -0.150084 -0.018569
vertex -0.035066 -0.155350 -0.018569
endloop
endfacet
facet normal 0.000000 0.000000 -1.000000
outer loop
vertex -0.127432 -0.152834 -0.018569
vertex -0.125949 -0.150084 -0.018569
vertex -0.117466 -0.155350 -0.018569
endloop
endfacet
facet normal -0.000000 0.000000 -1.000000
outer loop
vertex -0.164945 -0.073882 -0.018569
vertex -0.164945 0.073882 -0.018569
vertex -0.035066 -0.155350 -0.018569
endloop
endfacet
facet normal 0.258813 -0.000000 -0.965927
outer loop
vertex -0.035065 0.152225 -0.018569
vertex -0.033566 -0.155350 -0.018167
vertex -0.035066 -0.155350 -0.018569
endloop
endfacet
facet normal 0.000027 0.000000 1.000000
outer loop
vertex -0.159329 0.099519 0.443306
vertex -0.135010 0.145890 0.443306
vertex -0.148316 0.123305 0.443306
endloop
endfacet
facet normal -0.861595 0.507597 0.000001
outer loop
vertex -0.148316 0.123305 0.443306
vertex -0.135010 0.145890 0.443306
vertex -0.148316 0.123305 -0.018569
endloop
endfacet
facet normal -0.861593 0.507599 0.000001
outer loop
vertex -0.135010 0.145890 0.443306
vertex -0.135011 0.145890 -0.018569
vertex -0.148316 0.123305 -0.018569
endloop
endfacet
facet normal -0.000001 0.000001 -1.000000
outer loop
vertex -0.035065 0.155350 -0.018569
vertex -0.125949 0.150084 -0.018569
vertex -0.117465 0.155350 -0.018569
endloop
endfacet
facet normal -0.244746 -0.969587 0.000000
outer loop
vertex -0.127432 -0.152834 -0.018569
vertex -0.117465 -0.155350 0.443306
vertex -0.127432 -0.152834 0.443306
endloop
endfacet
facet normal -0.244745 -0.969587 0.000000
outer loop
vertex -0.117466 -0.155350 -0.018569
vertex -0.117465 -0.155350 0.443306
vertex -0.127432 -0.152834 -0.018569
endloop
endfacet
facet normal 0.000000 0.000000 -1.000000
outer loop
vertex -0.164945 -0.073882 -0.018569
vertex -0.159330 -0.099519 -0.018569
vertex -0.168288 -0.072369 -0.018569
endloop
endfacet
facet normal 0.000000 0.000000 -1.000000
outer loop
vertex -0.135011 0.145890 -0.018569
vertex -0.159330 0.099519 -0.018569
vertex -0.148316 0.123305 -0.018569
endloop
endfacet
facet normal 0.000000 0.000000 -1.000000
outer loop
vertex -0.168288 0.072368 -0.018569
vertex -0.159330 0.099519 -0.018569
vertex -0.164945 0.073882 -0.018569
endloop
endfacet
facet normal -0.907450 0.420161 0.000001
outer loop
vertex -0.148316 0.123305 -0.018569
vertex -0.159330 0.099519 -0.018569
vertex -0.159329 0.099519 0.443306
endloop
endfacet
facet normal 0.707084 -0.000000 -0.707130
outer loop
vertex -0.033566 -0.155350 -0.018167
vertex -0.032467 0.152225 -0.017069
vertex -0.032467 -0.155350 -0.017069
endloop
endfacet
facet normal -0.861594 -0.507598 0.000001
outer loop
vertex -0.148316 -0.123305 -0.018569
vertex -0.135010 -0.145890 0.443306
vertex -0.148316 -0.123305 0.443306
endloop
endfacet
facet normal -0.000003 0.000000 1.000000
outer loop
vertex -0.159329 0.099519 0.443306
vertex -0.127432 0.152834 0.443306
vertex -0.135010 0.145890 0.443306
endloop
endfacet
facet normal 0.000000 0.000000 1.000000
outer loop
vertex -0.117465 0.155350 0.443306
vertex -0.127432 0.152834 0.443306
vertex -0.159329 0.099519 0.443306
endloop
endfacet
facet normal 0.965929 -0.000000 0.258807
outer loop
vertex -0.032467 0.152225 0.441806
vertex -0.032065 -0.155350 0.440306
vertex -0.032065 0.152225 0.440306
endloop
endfacet
facet normal 0.000004 0.000000 1.000000
outer loop
vertex -0.117465 0.155350 0.443306
vertex -0.159329 0.099519 0.443306
vertex -0.156432 0.098347 0.443306
endloop
endfacet
facet normal 0.000000 0.000000 1.000000
outer loop
vertex -0.117465 -0.155350 0.443306
vertex -0.159329 -0.099519 0.443306
vertex -0.127432 -0.152834 0.443306
endloop
endfacet
facet normal -0.000003 0.000000 1.000000
outer loop
vertex -0.159329 -0.099519 0.443306
vertex -0.135010 -0.145890 0.443306
vertex -0.127432 -0.152834 0.443306
endloop
endfacet
facet normal 0.000000 0.000000 1.000000
outer loop
vertex -0.135010 -0.145890 0.443306
vertex -0.159329 -0.099519 0.443306
vertex -0.148316 -0.123305 0.443306
endloop
endfacet
facet normal -0.907449 -0.420162 0.000001
outer loop
vertex -0.148316 -0.123305 0.443306
vertex -0.159329 -0.099519 0.443306
vertex -0.148316 -0.123305 -0.018569
endloop
endfacet
facet normal -0.907450 -0.420161 0.000001
outer loop
vertex -0.148316 -0.123305 -0.018569
vertex -0.159329 -0.099519 0.443306
vertex -0.159330 -0.099519 -0.018569
endloop
endfacet
facet normal -0.000004 0.000000 -1.000000
outer loop
vertex -0.159330 -0.099519 -0.018569
vertex -0.167944 -0.074762 -0.018569
vertex -0.168288 -0.072369 -0.018569
endloop
endfacet
facet normal -0.944459 -0.328630 0.000001
outer loop
vertex -0.167943 -0.074762 0.443306
vertex -0.167944 -0.074762 -0.018569
vertex -0.159329 -0.099519 0.443306
endloop
endfacet
facet normal -0.944460 -0.328625 0.000001
outer loop
vertex -0.159329 -0.099519 0.443306
vertex -0.167944 -0.074762 -0.018569
vertex -0.159330 -0.099519 -0.018569
endloop
endfacet
facet normal 0.000000 0.000000 -1.000000
outer loop
vertex -0.145549 -0.121854 -0.018569
vertex -0.159330 -0.099519 -0.018569
vertex -0.164945 -0.073882 -0.018569
endloop
endfacet
facet normal -0.000001 -0.000000 -1.000000
outer loop
vertex -0.145549 -0.121854 -0.018569
vertex -0.164945 -0.073882 -0.018569
vertex -0.035066 -0.155350 -0.018569
endloop
endfacet
facet normal -0.000001 -0.000000 -1.000000
outer loop
vertex -0.125949 -0.150084 -0.018569
vertex -0.145549 -0.121854 -0.018569
vertex -0.035066 -0.155350 -0.018569
endloop
endfacet
facet normal -0.944461 0.328624 0.000001
outer loop
vertex -0.159330 0.099519 -0.018569
vertex -0.167944 0.074762 -0.018569
vertex -0.159329 0.099519 0.443306
endloop
endfacet
facet normal 0.000000 0.000000 -1.000000
outer loop
vertex -0.159330 0.099519 -0.018569
vertex -0.168288 0.072368 -0.018569
vertex -0.167944 0.074762 -0.018569
endloop
endfacet
facet normal 0.000000 0.000000 -1.000000
outer loop
vertex -0.125949 0.150084 -0.018569
vertex -0.145549 0.121854 -0.018569
vertex -0.135011 0.145890 -0.018569
endloop
endfacet
facet normal 0.000000 0.000000 -1.000000
outer loop
vertex -0.145549 0.121854 -0.018569
vertex -0.159330 0.099519 -0.018569
vertex -0.135011 0.145890 -0.018569
endloop
endfacet
facet normal 0.000001 0.000000 -1.000000
outer loop
vertex -0.159330 0.099519 -0.018569
vertex -0.145549 0.121854 -0.018569
vertex -0.164945 0.073882 -0.018569
endloop
endfacet
facet normal -0.000001 0.000000 -1.000000
outer loop
vertex -0.164945 0.073882 -0.018569
vertex -0.145549 0.121854 -0.018569
vertex -0.035065 0.155350 -0.018569
endloop
endfacet
facet normal -0.000001 0.000000 -1.000000
outer loop
vertex -0.125949 0.150084 -0.018569
vertex -0.035065 0.155350 -0.018569
vertex -0.145549 0.121854 -0.018569
endloop
endfacet
facet normal 0.707084 -0.000000 -0.707130
outer loop
vertex -0.032467 0.152225 -0.017069
vertex -0.033566 -0.155350 -0.018167
vertex -0.033565 0.152225 -0.018167
endloop
endfacet
facet normal 0.258816 -0.000000 -0.965926
outer loop
vertex -0.033566 -0.155350 -0.018167
vertex -0.035065 0.152225 -0.018569
vertex -0.033565 0.152225 -0.018167
endloop
endfacet
facet normal -0.244745 0.969587 0.000000
outer loop
vertex -0.117465 0.155350 0.443306
vertex -0.117465 0.155350 -0.018569
vertex -0.127432 0.152834 -0.018569
endloop
endfacet
facet normal -0.244747 0.969587 0.000000
outer loop
vertex -0.127432 0.152834 -0.018569
vertex -0.127432 0.152834 0.443306
vertex -0.117465 0.155350 0.443306
endloop
endfacet
facet normal 0.000000 0.000000 -1.000000
outer loop
vertex -0.125949 0.150084 -0.018569
vertex -0.127432 0.152834 -0.018569
vertex -0.117465 0.155350 -0.018569
endloop
endfacet
facet normal 0.000000 0.000000 -1.000000
outer loop
vertex -0.125949 0.150084 -0.018569
vertex -0.135011 0.145890 -0.018569
vertex -0.127432 0.152834 -0.018569
endloop
endfacet
facet normal 0.000000 0.000000 1.000000
outer loop
vertex -0.117465 -0.155350 0.443306
vertex -0.035065 -0.155350 0.443306
vertex -0.035065 0.152225 0.443306
endloop
endfacet
facet normal 0.000000 0.000000 1.000000
outer loop
vertex -0.159329 -0.099519 0.443306
vertex -0.117465 -0.155350 0.443306
vertex -0.156432 -0.098347 0.443306
endloop
endfacet
facet normal 0.000000 0.000000 1.000000
outer loop
vertex -0.117465 0.155350 0.443306
vertex -0.156432 -0.098347 0.443306
vertex -0.117465 -0.155350 0.443306
endloop
endfacet
facet normal 0.000000 0.000000 1.000000
outer loop
vertex -0.156432 0.098347 0.443306
vertex -0.156432 -0.098347 0.443306
vertex -0.117465 0.155350 0.443306
endloop
endfacet
facet normal 0.000000 0.000000 -1.000000
outer loop
vertex -0.125949 -0.150084 -0.018569
vertex -0.127432 -0.152834 -0.018569
vertex -0.135011 -0.145890 -0.018569
endloop
endfacet
facet normal 0.000000 0.000000 -1.000000
outer loop
vertex -0.145549 -0.121854 -0.018569
vertex -0.125949 -0.150084 -0.018569
vertex -0.135011 -0.145890 -0.018569
endloop
endfacet
facet normal -0.861594 -0.507598 0.000001
outer loop
vertex -0.135010 -0.145890 0.443306
vertex -0.148316 -0.123305 -0.018569
vertex -0.135011 -0.145890 -0.018569
endloop
endfacet
facet normal 0.000000 0.000000 -1.000000
outer loop
vertex -0.159330 -0.099519 -0.018569
vertex -0.135011 -0.145890 -0.018569
vertex -0.148316 -0.123305 -0.018569
endloop
endfacet
facet normal 0.000000 0.000000 -1.000000
outer loop
vertex -0.145549 -0.121854 -0.018569
vertex -0.135011 -0.145890 -0.018569
vertex -0.159330 -0.099519 -0.018569
endloop
endfacet
facet normal -0.675585 -0.737282 0.000001
outer loop
vertex -0.127432 -0.152834 0.443306
vertex -0.135011 -0.145890 -0.018569
vertex -0.127432 -0.152834 -0.018569
endloop
endfacet
facet normal -0.675584 -0.737283 0.000001
outer loop
vertex -0.135010 -0.145890 0.443306
vertex -0.135011 -0.145890 -0.018569
vertex -0.127432 -0.152834 0.443306
endloop
endfacet
facet normal -0.944459 0.328628 0.000001
outer loop
vertex -0.167944 0.074762 -0.018569
vertex -0.167943 0.074762 0.443306
vertex -0.159329 0.099519 0.443306
endloop
endfacet
facet normal 0.965929 -0.000000 -0.258807
outer loop
vertex -0.032065 0.152225 -0.015569
vertex -0.032066 -0.155350 -0.015569
vertex -0.032467 0.152225 -0.017069
endloop
endfacet
facet normal 0.965929 -0.000000 -0.258808
outer loop
vertex -0.032467 0.152225 -0.017069
vertex -0.032066 -0.155350 -0.015569
vertex -0.032467 -0.155350 -0.017069
endloop
endfacet
facet normal 0.258814 -0.000000 0.965927
outer loop
vertex -0.035065 0.152225 0.443306
vertex -0.033565 -0.155350 0.442904
vertex -0.033565 0.152225 0.442904
endloop
endfacet
facet normal 0.258824 0.000000 0.965925
outer loop
vertex -0.035065 -0.155350 0.443306
vertex -0.033565 -0.155350 0.442904
vertex -0.035065 0.152225 0.443306
endloop
endfacet
facet normal 0.707108 -0.000000 0.707105
outer loop
vertex -0.033565 -0.155350 0.442904
vertex -0.032467 0.152225 0.441806
vertex -0.033565 0.152225 0.442904
endloop
endfacet
facet normal 0.965925 -0.000000 0.258823
outer loop
vertex -0.032065 -0.155350 0.440306
vertex -0.032467 0.152225 0.441806
vertex -0.032467 -0.155350 0.441806
endloop
endfacet
facet normal 0.707108 -0.000000 0.707105
outer loop
vertex -0.033565 -0.155350 0.442904
vertex -0.032467 -0.155350 0.441806
vertex -0.032467 0.152225 0.441806
endloop
endfacet
facet normal -0.000000 0.000000 -1.000000
outer loop
vertex -0.164945 0.073882 -0.018569
vertex -0.035065 0.155350 -0.018569
vertex -0.035065 0.152225 -0.018569
endloop
endfacet
facet normal -0.000000 0.000000 -1.000000
outer loop
vertex -0.164945 0.073882 -0.018569
vertex -0.035065 0.152225 -0.018569
vertex -0.035066 -0.155350 -0.018569
endloop
endfacet
facet normal -1.000000 0.000000 0.000001
outer loop
vertex -0.168287 0.072368 0.443306
vertex -0.168288 0.072368 -0.018569
vertex -0.168287 -0.072369 0.443306
endloop
endfacet
facet normal -1.000000 0.000000 0.000001
outer loop
vertex -0.168287 -0.072369 0.443306
vertex -0.168288 0.072368 -0.018569
vertex -0.168288 -0.072369 -0.018569
endloop
endfacet
facet normal 0.000000 0.000000 -1.000000
outer loop
vertex -0.164945 -0.073882 -0.018569
vertex -0.168288 -0.072369 -0.018569
vertex -0.168288 0.072368 -0.018569
endloop
endfacet
facet normal 0.000000 0.000000 -1.000000
outer loop
vertex -0.168288 0.072368 -0.018569
vertex -0.164945 0.073882 -0.018569
vertex -0.164945 -0.073882 -0.018569
endloop
endfacet
facet normal 0.000001 0.000000 1.000000
outer loop
vertex -0.117465 0.155350 0.443306
vertex -0.035065 0.152225 0.443306
vertex -0.035065 0.155350 0.443306
endloop
endfacet
facet normal 0.000002 0.000000 1.000000
outer loop
vertex -0.117465 -0.155350 0.443306
vertex -0.035065 0.152225 0.443306
vertex -0.117465 0.155350 0.443306
endloop
endfacet
facet normal 0.258793 0.000000 0.965933
outer loop
vertex -0.035065 0.152225 0.443306
vertex -0.033565 0.155350 0.442904
vertex -0.035065 0.155350 0.443306
endloop
endfacet
facet normal 0.258796 0.000000 0.965932
outer loop
vertex -0.033565 0.155350 0.442904
vertex -0.035065 0.152225 0.443306
vertex -0.033565 0.152225 0.442904
endloop
endfacet
facet normal 0.707095 0.000000 0.707119
outer loop
vertex -0.033565 0.155350 0.442904
vertex -0.032467 0.152225 0.441806
vertex -0.032467 0.155350 0.441806
endloop
endfacet
facet normal 0.707122 0.000000 0.707092
outer loop
vertex -0.033565 0.155350 0.442904
vertex -0.033565 0.152225 0.442904
vertex -0.032467 0.152225 0.441806
endloop
endfacet
facet normal 0.000000 1.000000 0.000000
outer loop
vertex -0.035065 0.155350 -0.018569
vertex -0.117465 0.155350 -0.018569
vertex -0.032065 0.155350 0.440306
endloop
endfacet
facet normal 0.000000 1.000000 0.000000
outer loop
vertex -0.117465 0.155350 0.443306
vertex -0.032065 0.155350 0.440306
vertex -0.117465 0.155350 -0.018569
endloop
endfacet
facet normal 0.000000 1.000000 0.000000
outer loop
vertex -0.032467 0.155350 -0.017069
vertex -0.032065 0.155350 0.440306
vertex -0.032065 0.155350 -0.015569
endloop
endfacet
facet normal 0.000000 1.000000 0.000000
outer loop
vertex -0.035065 0.155350 -0.018569
vertex -0.032065 0.155350 0.440306
vertex -0.033565 0.155350 -0.018167
endloop
endfacet
facet normal 0.000000 1.000000 0.000000
outer loop
vertex -0.032467 0.155350 -0.017069
vertex -0.033565 0.155350 -0.018167
vertex -0.032065 0.155350 0.440306
endloop
endfacet
facet normal 0.000000 1.000000 0.000000
outer loop
vertex -0.032065 0.155350 0.440306
vertex -0.117465 0.155350 0.443306
vertex -0.035065 0.155350 0.443306
endloop
endfacet
facet normal 0.000000 1.000000 0.000000
outer loop
vertex -0.033565 0.155350 0.442904
vertex -0.032467 0.155350 0.441806
vertex -0.032065 0.155350 0.440306
endloop
endfacet
facet normal 0.000000 1.000000 0.000000
outer loop
vertex -0.033565 0.155350 0.442904
vertex -0.032065 0.155350 0.440306
vertex -0.035065 0.155350 0.443306
endloop
endfacet
facet normal 0.965926 0.000000 0.258820
outer loop
vertex -0.032467 0.152225 0.441806
vertex -0.032065 0.155350 0.440306
vertex -0.032467 0.155350 0.441806
endloop
endfacet
facet normal 0.965930 0.000000 0.258805
outer loop
vertex -0.032467 0.152225 0.441806
vertex -0.032065 0.152225 0.440306
vertex -0.032065 0.155350 0.440306
endloop
endfacet
facet normal -0.989835 -0.142221 0.000001
outer loop
vertex -0.168287 -0.072369 0.443306
vertex -0.167944 -0.074762 -0.018569
vertex -0.167943 -0.074762 0.443306
endloop
endfacet
facet normal -0.989829 -0.142261 0.000001
outer loop
vertex -0.168287 -0.072369 0.443306
vertex -0.168288 -0.072369 -0.018569
vertex -0.167944 -0.074762 -0.018569
endloop
endfacet
facet normal 0.707082 0.000000 -0.707132
outer loop
vertex -0.032467 0.155350 -0.017069
vertex -0.033565 0.152225 -0.018167
vertex -0.033565 0.155350 -0.018167
endloop
endfacet
facet normal 0.707086 0.000000 -0.707128
outer loop
vertex -0.032467 0.152225 -0.017069
vertex -0.033565 0.152225 -0.018167
vertex -0.032467 0.155350 -0.017069
endloop
endfacet
facet normal 0.258817 0.000000 -0.965926
outer loop
vertex -0.033565 0.155350 -0.018167
vertex -0.033565 0.152225 -0.018167
vertex -0.035065 0.155350 -0.018569
endloop
endfacet
facet normal 0.258815 0.000000 -0.965927
outer loop
vertex -0.035065 0.155350 -0.018569
vertex -0.033565 0.152225 -0.018167
vertex -0.035065 0.152225 -0.018569
endloop
endfacet
facet normal 0.965929 0.000000 -0.258809
outer loop
vertex -0.032065 0.155350 -0.015569
vertex -0.032065 0.152225 -0.015569
vertex -0.032467 0.155350 -0.017069
endloop
endfacet
facet normal 0.965929 0.000000 -0.258807
outer loop
vertex -0.032467 0.155350 -0.017069
vertex -0.032065 0.152225 -0.015569
vertex -0.032467 0.152225 -0.017069
endloop
endfacet
facet normal 1.000000 0.000000 -0.000001
outer loop
vertex -0.032065 0.155350 0.440306
vertex -0.032065 0.152225 -0.015569
vertex -0.032065 0.155350 -0.015569
endloop
endfacet
facet normal 1.000000 0.000000 -0.000001
outer loop
vertex -0.032065 0.152225 -0.015569
vertex -0.032065 0.155350 0.440306
vertex -0.032065 0.152225 0.440306
endloop
endfacet
facet normal -0.675584 0.737283 0.000000
outer loop
vertex -0.135010 0.145890 0.443306
vertex -0.127432 0.152834 -0.018569
vertex -0.135011 0.145890 -0.018569
endloop
endfacet
facet normal -0.675582 0.737285 0.000001
outer loop
vertex -0.127432 0.152834 0.443306
vertex -0.127432 0.152834 -0.018569
vertex -0.135010 0.145890 0.443306
endloop
endfacet
facet normal 0.000192 0.000000 1.000000
outer loop
vertex -0.168287 -0.072369 0.443306
vertex -0.167943 0.074762 0.443306
vertex -0.168287 0.072368 0.443306
endloop
endfacet
facet normal 0.000029 0.000000 1.000000
outer loop
vertex -0.156432 -0.098347 0.443306
vertex -0.167943 0.074762 0.443306
vertex -0.159329 -0.099519 0.443306
endloop
endfacet
facet normal 0.000000 0.000000 1.000000
outer loop
vertex -0.167943 -0.074762 0.443306
vertex -0.167943 0.074762 0.443306
vertex -0.168287 -0.072369 0.443306
endloop
endfacet
facet normal -0.000023 0.000000 1.000000
outer loop
vertex -0.156432 0.098347 0.443306
vertex -0.159329 0.099519 0.443306
vertex -0.167943 0.074762 0.443306
endloop
endfacet
facet normal 0.000000 0.000000 1.000000
outer loop
vertex -0.159329 -0.099519 0.443306
vertex -0.167943 0.074762 0.443306
vertex -0.167943 -0.074762 0.443306
endloop
endfacet
facet normal 0.000000 0.000000 1.000000
outer loop
vertex -0.167943 0.074762 0.443306
vertex -0.156432 -0.098347 0.443306
vertex -0.156432 0.098347 0.443306
endloop
endfacet
facet normal -0.989834 0.142224 0.000001
outer loop
vertex -0.168288 0.072368 -0.018569
vertex -0.168287 0.072368 0.443306
vertex -0.167943 0.074762 0.443306
endloop
endfacet
facet normal -0.989829 0.142264 0.000001
outer loop
vertex -0.167944 0.074762 -0.018569
vertex -0.168288 0.072368 -0.018569
vertex -0.167943 0.074762 0.443306
endloop
endfacet
facet normal 1.000000 -0.000000 -0.000001
outer loop
vertex -0.032065 0.152225 0.440306
vertex -0.032066 -0.155350 -0.015569
vertex -0.032065 0.152225 -0.015569
endloop
endfacet
facet normal 1.000000 -0.000000 -0.000001
outer loop
vertex -0.032065 -0.155350 0.440306
vertex -0.032066 -0.155350 -0.015569
vertex -0.032065 0.152225 0.440306
endloop
endfacet
facet normal 0.000000 -1.000000 -0.000000
outer loop
vertex -0.033566 -0.155350 -0.018167
vertex -0.032467 -0.155350 -0.017069
vertex -0.032467 -0.155350 0.441806
endloop
endfacet
facet normal 0.000000 -1.000000 0.000000
outer loop
vertex -0.117466 -0.155350 -0.018569
vertex -0.035066 -0.155350 -0.018569
vertex -0.032467 -0.155350 0.441806
endloop
endfacet
facet normal 0.000000 -1.000000 0.000000
outer loop
vertex -0.033566 -0.155350 -0.018167
vertex -0.032467 -0.155350 0.441806
vertex -0.035066 -0.155350 -0.018569
endloop
endfacet
facet normal 0.000000 -1.000000 0.000000
outer loop
vertex -0.117465 -0.155350 0.443306
vertex -0.117466 -0.155350 -0.018569
vertex -0.032467 -0.155350 0.441806
endloop
endfacet
facet normal 0.000000 -1.000000 0.000000
outer loop
vertex -0.032066 -0.155350 -0.015569
vertex -0.032467 -0.155350 0.441806
vertex -0.032467 -0.155350 -0.017069
endloop
endfacet
facet normal 0.000000 -1.000000 0.000000
outer loop
vertex -0.035065 -0.155350 0.443306
vertex -0.117465 -0.155350 0.443306
vertex -0.032467 -0.155350 0.441806
endloop
endfacet
facet normal 0.000000 -1.000000 -0.000000
outer loop
vertex -0.032467 -0.155350 0.441806
vertex -0.032066 -0.155350 -0.015569
vertex -0.032065 -0.155350 0.440306
endloop
endfacet
facet normal 0.000000 -1.000000 0.000000
outer loop
vertex -0.033565 -0.155350 0.442904
vertex -0.035065 -0.155350 0.443306
vertex -0.032467 -0.155350 0.441806
endloop
endfacet
endsolid Exported from Blender-2.93.0
