solid Exported from Blender-2.93.0
facet normal 0.871053 -0.288713 -0.397380
outer loop
vertex 0.019500 -0.015375 -0.026630
vertex 0.019500 -0.020576 -0.022852
vertex 0.008055 -0.028910 -0.041884
endloop
endfacet
facet normal 0.871190 0.364844 -0.328507
outer loop
vertex 0.008055 0.038094 -0.033748
vertex 0.019500 0.024877 -0.018074
vertex 0.019500 0.020576 -0.022852
endloop
endfacet
facet normal 0.871053 -0.488498 -0.051344
outer loop
vertex 0.019500 -0.030750 0.000000
vertex 0.008055 -0.050728 -0.004095
vertex 0.019500 -0.030078 -0.006393
endloop
endfacet
facet normal 0.248068 -0.960832 -0.123546
outer loop
vertex 0.005000 -0.050852 -0.010868
vertex 0.007711 -0.050494 -0.008206
vertex 0.005000 -0.051947 -0.002350
endloop
endfacet
facet normal 0.239294 0.202931 -0.949504
outer loop
vertex 0.005000 0.006632 -0.051575
vertex 0.005000 0.015030 -0.049780
vertex 0.007711 0.010233 -0.050122
endloop
endfacet
facet normal 0.871190 0.466917 0.151711
outer loop
vertex 0.019500 0.028092 0.012507
vertex 0.019500 0.030078 0.006393
vertex 0.008055 0.048274 0.016116
endloop
endfacet
facet normal 0.871053 0.488498 0.051344
outer loop
vertex 0.019500 0.030750 0.000000
vertex 0.008055 0.050728 0.004095
vertex 0.019500 0.030078 0.006393
endloop
endfacet
facet normal 0.871190 0.364844 0.328507
outer loop
vertex 0.019500 0.024877 0.018074
vertex 0.008055 0.038094 0.033748
vertex 0.019500 0.020576 0.022852
endloop
endfacet
facet normal 0.869108 0.407066 -0.280978
outer loop
vertex 0.019500 0.024877 -0.018074
vertex 0.008055 0.040686 -0.030573
vertex 0.008055 0.043014 -0.027200
endloop
endfacet
facet normal 0.869529 0.382563 -0.312352
outer loop
vertex 0.008055 0.040686 -0.030573
vertex 0.019500 0.024877 -0.018074
vertex 0.008055 0.038094 -0.033748
endloop
endfacet
facet normal 0.608454 0.614718 -0.501901
outer loop
vertex 0.007711 0.040897 -0.030732
vertex 0.008055 0.040686 -0.030573
vertex 0.008055 0.038094 -0.033748
endloop
endfacet
facet normal 0.871054 -0.288713 0.397380
outer loop
vertex 0.008055 -0.028910 0.041884
vertex 0.019500 -0.020576 0.022852
vertex 0.019500 -0.015375 0.026630
endloop
endfacet
facet normal 0.309651 -0.931634 -0.190196
outer loop
vertex 0.005000 -0.050852 -0.010868
vertex 0.007711 -0.049670 -0.012243
vertex 0.007711 -0.050494 -0.008206
endloop
endfacet
facet normal 0.871190 -0.364844 -0.328507
outer loop
vertex 0.019500 -0.024877 -0.018074
vertex 0.008055 -0.038094 -0.033748
vertex 0.019500 -0.020576 -0.022852
endloop
endfacet
facet normal 0.870282 -0.488963 -0.059371
outer loop
vertex 0.008055 -0.050728 -0.004095
vertex 0.008055 -0.050234 -0.008164
vertex 0.019500 -0.030078 -0.006393
endloop
endfacet
facet normal 0.608452 -0.777553 -0.158739
outer loop
vertex 0.007711 -0.049670 -0.012243
vertex 0.008055 -0.050234 -0.008164
vertex 0.007711 -0.050494 -0.008206
endloop
endfacet
facet normal 0.871053 -0.488498 0.051344
outer loop
vertex 0.008055 -0.050728 0.004095
vertex 0.019500 -0.030750 0.000000
vertex 0.019500 -0.030078 0.006393
endloop
endfacet
facet normal 0.870282 -0.488963 0.059371
outer loop
vertex 0.008055 -0.050728 0.004095
vertex 0.019500 -0.030078 0.006393
vertex 0.008055 -0.050234 0.008164
endloop
endfacet
facet normal 0.871190 -0.466917 0.151711
outer loop
vertex 0.019500 -0.030078 0.006393
vertex 0.019500 -0.028092 0.012507
vertex 0.008055 -0.048274 0.016116
endloop
endfacet
facet normal 0.870780 -0.425802 0.245837
outer loop
vertex 0.019500 -0.024877 0.018074
vertex 0.008055 -0.045063 0.023651
vertex 0.019500 -0.028092 0.012507
endloop
endfacet
facet normal 0.608449 -0.526250 0.594013
outer loop
vertex 0.008055 -0.035255 0.036704
vertex 0.007711 -0.032354 0.039626
vertex 0.007711 -0.035437 0.036894
endloop
endfacet
facet normal 0.242700 -0.629837 0.737836
outer loop
vertex 0.005000 -0.036912 0.036627
vertex 0.007711 -0.032354 0.039626
vertex 0.005000 -0.030380 0.042203
endloop
endfacet
facet normal 0.275730 -0.637418 0.719494
outer loop
vertex 0.007711 -0.035437 0.036894
vertex 0.007711 -0.032354 0.039626
vertex 0.005000 -0.036912 0.036627
endloop
endfacet
facet normal 0.871053 0.288713 -0.397380
outer loop
vertex 0.019500 0.015375 -0.026630
vertex 0.008055 0.028910 -0.041884
vertex 0.019500 0.020576 -0.022852
endloop
endfacet
facet normal 0.244453 0.742353 -0.623822
outer loop
vertex 0.005000 0.042437 -0.030052
vertex 0.007711 0.038291 -0.033923
vertex 0.005000 0.036912 -0.036627
endloop
endfacet
facet normal 0.270928 0.745635 -0.608791
outer loop
vertex 0.007711 0.040897 -0.030732
vertex 0.007711 0.038291 -0.033923
vertex 0.005000 0.042437 -0.030052
endloop
endfacet
facet normal 0.608449 0.614720 -0.501906
outer loop
vertex 0.008055 0.038094 -0.033748
vertex 0.007711 0.038291 -0.033923
vertex 0.007711 0.040897 -0.030732
endloop
endfacet
facet normal 0.251539 0.948010 -0.194948
outer loop
vertex 0.005000 0.051625 -0.006232
vertex 0.007711 0.049670 -0.012243
vertex 0.005000 0.049895 -0.014644
endloop
endfacet
facet normal 0.288199 0.229162 -0.929745
outer loop
vertex 0.005000 0.015030 -0.049780
vertex 0.007711 0.014233 -0.049137
vertex 0.007711 0.010233 -0.050122
endloop
endfacet
facet normal 0.239090 -0.423078 -0.873980
outer loop
vertex 0.005000 -0.018715 -0.048516
vertex 0.007711 -0.021930 -0.046217
vertex 0.005000 -0.026445 -0.044774
endloop
endfacet
facet normal 0.301208 0.152961 -0.941210
outer loop
vertex 0.005000 0.006632 -0.051575
vertex 0.007711 0.010233 -0.050122
vertex 0.007711 0.006166 -0.050783
endloop
endfacet
facet normal 0.238676 -0.273485 -0.931794
outer loop
vertex 0.005000 -0.010474 -0.050934
vertex 0.007711 -0.014233 -0.049137
vertex 0.005000 -0.018715 -0.048516
endloop
endfacet
facet normal 0.871190 -0.466917 -0.151711
outer loop
vertex 0.008055 -0.048274 -0.016116
vertex 0.019500 -0.028092 -0.012507
vertex 0.019500 -0.030078 -0.006393
endloop
endfacet
facet normal 0.238571 0.116389 0.964125
outer loop
vertex 0.005000 0.001948 0.051964
vertex 0.007711 0.006166 0.050783
vertex 0.005000 0.010474 0.050934
endloop
endfacet
facet normal 0.239294 -0.202931 0.949504
outer loop
vertex 0.005000 -0.015030 0.049780
vertex 0.007711 -0.010233 0.050122
vertex 0.005000 -0.006632 0.051575
endloop
endfacet
facet normal 0.250636 0.967402 -0.036260
outer loop
vertex 0.005000 0.051947 0.002350
vertex 0.007711 0.051156 0.000000
vertex 0.005000 0.051625 -0.006232
endloop
endfacet
facet normal 0.310144 0.949919 0.038277
outer loop
vertex 0.005000 0.051947 0.002350
vertex 0.007711 0.050990 0.004116
vertex 0.007711 0.051156 0.000000
endloop
endfacet
facet normal 0.870780 0.425802 0.245837
outer loop
vertex 0.019500 0.028092 0.012507
vertex 0.008055 0.045063 0.023651
vertex 0.019500 0.024877 0.018074
endloop
endfacet
facet normal 0.870780 0.425802 0.245837
outer loop
vertex 0.019500 0.024877 0.018074
vertex 0.008055 0.045063 0.023651
vertex 0.008055 0.043014 0.027200
endloop
endfacet
facet normal 0.608452 0.687270 0.396795
outer loop
vertex 0.008055 0.043014 0.027200
vertex 0.008055 0.045063 0.023651
vertex 0.007711 0.045297 0.023774
endloop
endfacet
facet normal 0.870282 0.488963 0.059371
outer loop
vertex 0.008055 0.050728 0.004095
vertex 0.008055 0.050234 0.008164
vertex 0.019500 0.030078 0.006393
endloop
endfacet
facet normal 0.608451 0.787805 0.095658
outer loop
vertex 0.008055 0.050234 0.008164
vertex 0.008055 0.050728 0.004095
vertex 0.007711 0.050990 0.004116
endloop
endfacet
facet normal 0.869108 0.407066 0.280978
outer loop
vertex 0.008055 0.043014 0.027200
vertex 0.008055 0.040686 0.030573
vertex 0.019500 0.024877 0.018074
endloop
endfacet
facet normal 0.869529 0.382563 0.312352
outer loop
vertex 0.008055 0.038094 0.033748
vertex 0.019500 0.024877 0.018074
vertex 0.008055 0.040686 0.030573
endloop
endfacet
facet normal 0.240850 0.683629 0.688943
outer loop
vertex 0.005000 0.033454 0.039810
vertex 0.007711 0.035437 0.036894
vertex 0.005000 0.039550 0.033761
endloop
endfacet
facet normal 0.248068 0.960832 0.123546
outer loop
vertex 0.005000 0.051947 0.002350
vertex 0.005000 0.050852 0.010868
vertex 0.007711 0.050494 0.008206
endloop
endfacet
facet normal 0.262152 0.957990 0.116324
outer loop
vertex 0.005000 0.051947 0.002350
vertex 0.007711 0.050494 0.008206
vertex 0.007711 0.050990 0.004116
endloop
endfacet
facet normal 0.608451 0.787805 0.095657
outer loop
vertex 0.007711 0.050494 0.008206
vertex 0.008055 0.050234 0.008164
vertex 0.007711 0.050990 0.004116
endloop
endfacet
facet normal 0.245805 0.927944 0.280177
outer loop
vertex 0.005000 0.048369 0.019090
vertex 0.007711 0.048524 0.016200
vertex 0.005000 0.050852 0.010868
endloop
endfacet
facet normal 0.241256 -0.499989 0.831749
outer loop
vertex 0.005000 -0.030380 0.042203
vertex 0.007711 -0.025578 0.044303
vertex 0.005000 -0.023019 0.046628
endloop
endfacet
facet normal 0.305289 -0.442537 0.843184
outer loop
vertex 0.007711 -0.025578 0.044303
vertex 0.007711 -0.021930 0.046217
vertex 0.005000 -0.023019 0.046628
endloop
endfacet
facet normal 0.240122 -0.356371 0.902962
outer loop
vertex 0.005000 -0.023019 0.046628
vertex 0.007711 -0.018140 0.047832
vertex 0.005000 -0.015030 0.049780
endloop
endfacet
facet normal 0.284358 -0.375786 0.882001
outer loop
vertex 0.007711 -0.021930 0.046217
vertex 0.007711 -0.018140 0.047832
vertex 0.005000 -0.023019 0.046628
endloop
endfacet
facet normal 0.308162 -0.686104 0.659012
outer loop
vertex 0.005000 -0.036912 0.036627
vertex 0.007711 -0.038291 0.033923
vertex 0.007711 -0.035437 0.036894
endloop
endfacet
facet normal 0.608450 -0.572340 0.549742
outer loop
vertex 0.007711 -0.035437 0.036894
vertex 0.007711 -0.038291 0.033923
vertex 0.008055 -0.035255 0.036704
endloop
endfacet
facet normal 0.244454 -0.742353 0.623822
outer loop
vertex 0.005000 -0.036912 0.036627
vertex 0.005000 -0.042437 0.030052
vertex 0.007711 -0.038291 0.033923
endloop
endfacet
facet normal 0.869277 -0.264200 0.417799
outer loop
vertex 0.019500 -0.015375 0.026630
vertex 0.008055 -0.025446 0.044074
vertex 0.008055 -0.028910 0.041884
endloop
endfacet
facet normal 0.869108 -0.407066 -0.280978
outer loop
vertex 0.008055 -0.040686 -0.030573
vertex 0.019500 -0.024877 -0.018074
vertex 0.008055 -0.043014 -0.027200
endloop
endfacet
facet normal 0.869529 -0.382563 -0.312352
outer loop
vertex 0.008055 -0.040686 -0.030573
vertex 0.008055 -0.038094 -0.033748
vertex 0.019500 -0.024877 -0.018074
endloop
endfacet
facet normal 0.608454 -0.653111 -0.450810
outer loop
vertex 0.007711 -0.043237 -0.027341
vertex 0.008055 -0.040686 -0.030573
vertex 0.008055 -0.043014 -0.027200
endloop
endfacet
facet normal 0.869865 -0.355762 -0.341714
outer loop
vertex 0.008055 -0.038094 -0.033748
vertex 0.008055 -0.035255 -0.036704
vertex 0.019500 -0.020576 -0.022852
endloop
endfacet
facet normal 0.608449 -0.572342 -0.549740
outer loop
vertex 0.008055 -0.038094 -0.033748
vertex 0.007711 -0.038291 -0.033923
vertex 0.008055 -0.035255 -0.036704
endloop
endfacet
facet normal 0.608451 -0.762260 -0.220790
outer loop
vertex 0.008055 -0.048274 -0.016116
vertex 0.008055 -0.049414 -0.012179
vertex 0.007711 -0.049670 -0.012243
endloop
endfacet
facet normal 0.608450 -0.777554 -0.158738
outer loop
vertex 0.008055 -0.050234 -0.008164
vertex 0.007711 -0.049670 -0.012243
vertex 0.008055 -0.049414 -0.012179
endloop
endfacet
facet normal 0.869865 -0.473815 -0.137241
outer loop
vertex 0.008055 -0.049414 -0.012179
vertex 0.008055 -0.048274 -0.016116
vertex 0.019500 -0.030078 -0.006393
endloop
endfacet
facet normal 0.869024 -0.484771 -0.098967
outer loop
vertex 0.008055 -0.050234 -0.008164
vertex 0.008055 -0.049414 -0.012179
vertex 0.019500 -0.030078 -0.006393
endloop
endfacet
facet normal 0.869865 -0.473815 0.137241
outer loop
vertex 0.008055 -0.049414 0.012179
vertex 0.019500 -0.030078 0.006393
vertex 0.008055 -0.048274 0.016116
endloop
endfacet
facet normal 0.869024 -0.484771 0.098967
outer loop
vertex 0.019500 -0.030078 0.006393
vertex 0.008055 -0.049414 0.012179
vertex 0.008055 -0.050234 0.008164
endloop
endfacet
facet normal 0.310144 -0.949919 -0.038277
outer loop
vertex 0.007711 -0.051156 0.000000
vertex 0.005000 -0.051947 -0.002350
vertex 0.007711 -0.050990 -0.004116
endloop
endfacet
facet normal 0.262152 -0.957990 -0.116324
outer loop
vertex 0.005000 -0.051947 -0.002350
vertex 0.007711 -0.050494 -0.008206
vertex 0.007711 -0.050990 -0.004116
endloop
endfacet
facet normal 0.608451 -0.787805 -0.095657
outer loop
vertex 0.008055 -0.050234 -0.008164
vertex 0.007711 -0.050990 -0.004116
vertex 0.007711 -0.050494 -0.008206
endloop
endfacet
facet normal 0.608452 -0.787805 -0.095658
outer loop
vertex 0.008055 -0.050728 -0.004095
vertex 0.007711 -0.050990 -0.004116
vertex 0.008055 -0.050234 -0.008164
endloop
endfacet
facet normal 0.869277 -0.493924 0.019904
outer loop
vertex 0.008055 -0.050728 0.004095
vertex 0.008055 -0.050893 0.000000
vertex 0.019500 -0.030750 0.000000
endloop
endfacet
facet normal 0.869277 -0.493924 -0.019904
outer loop
vertex 0.008055 -0.050728 -0.004095
vertex 0.019500 -0.030750 0.000000
vertex 0.008055 -0.050893 0.000000
endloop
endfacet
facet normal 0.608449 -0.792950 -0.031955
outer loop
vertex 0.008055 -0.050728 -0.004095
vertex 0.008055 -0.050893 0.000000
vertex 0.007711 -0.050990 -0.004116
endloop
endfacet
facet normal 0.608452 -0.792947 -0.031954
outer loop
vertex 0.007711 -0.050990 -0.004116
vertex 0.008055 -0.050893 0.000000
vertex 0.007711 -0.051156 0.000000
endloop
endfacet
facet normal 0.871190 -0.364844 0.328507
outer loop
vertex 0.019500 -0.020576 0.022852
vertex 0.008055 -0.038094 0.033748
vertex 0.019500 -0.024877 0.018074
endloop
endfacet
facet normal 0.869865 -0.355762 0.341714
outer loop
vertex 0.019500 -0.020576 0.022852
vertex 0.008055 -0.035255 0.036704
vertex 0.008055 -0.038094 0.033748
endloop
endfacet
facet normal 0.869529 -0.382563 0.312353
outer loop
vertex 0.019500 -0.024877 0.018074
vertex 0.008055 -0.038094 0.033748
vertex 0.008055 -0.040686 0.030573
endloop
endfacet
facet normal 0.608449 -0.572342 0.549740
outer loop
vertex 0.007711 -0.038291 0.033923
vertex 0.008055 -0.038094 0.033748
vertex 0.008055 -0.035255 0.036704
endloop
endfacet
facet normal 0.869529 -0.461787 0.175133
outer loop
vertex 0.019500 -0.028092 0.012507
vertex 0.008055 -0.046820 0.019948
vertex 0.008055 -0.048274 0.016116
endloop
endfacet
facet normal 0.869108 -0.446866 0.212041
outer loop
vertex 0.008055 -0.045063 0.023651
vertex 0.008055 -0.046820 0.019948
vertex 0.019500 -0.028092 0.012507
endloop
endfacet
facet normal 0.869108 -0.407066 0.280978
outer loop
vertex 0.008055 -0.043014 0.027200
vertex 0.019500 -0.024877 0.018074
vertex 0.008055 -0.040686 0.030573
endloop
endfacet
facet normal 0.870780 -0.425802 0.245837
outer loop
vertex 0.008055 -0.043014 0.027200
vertex 0.008055 -0.045063 0.023651
vertex 0.019500 -0.024877 0.018074
endloop
endfacet
facet normal 0.250636 -0.967402 0.036260
outer loop
vertex 0.007711 -0.051156 0.000000
vertex 0.005000 -0.051625 0.006232
vertex 0.005000 -0.051947 -0.002350
endloop
endfacet
facet normal 0.608449 -0.526251 0.594012
outer loop
vertex 0.007711 -0.032354 0.039626
vertex 0.008055 -0.035255 0.036704
vertex 0.008055 -0.032187 0.039422
endloop
endfacet
facet normal 0.869024 -0.328093 0.370341
outer loop
vertex 0.019500 -0.020576 0.022852
vertex 0.008055 -0.032187 0.039422
vertex 0.008055 -0.035255 0.036704
endloop
endfacet
facet normal 0.608454 -0.476743 0.634429
outer loop
vertex 0.007711 -0.032354 0.039626
vertex 0.008055 -0.032187 0.039422
vertex 0.008055 -0.028910 0.041884
endloop
endfacet
facet normal 0.870281 -0.295898 0.393769
outer loop
vertex 0.008055 -0.028910 0.041884
vertex 0.008055 -0.032187 0.039422
vertex 0.019500 -0.020576 0.022852
endloop
endfacet
facet normal 0.869277 0.229725 -0.437703
outer loop
vertex 0.008055 0.021817 -0.045979
vertex 0.008055 0.025446 -0.044074
vertex 0.019500 0.015375 -0.026630
endloop
endfacet
facet normal 0.869277 0.264200 -0.417799
outer loop
vertex 0.008055 0.028910 -0.041884
vertex 0.019500 0.015375 -0.026630
vertex 0.008055 0.025446 -0.044074
endloop
endfacet
facet normal 0.870281 0.295898 -0.393769
outer loop
vertex 0.008055 0.028910 -0.041884
vertex 0.008055 0.032187 -0.039422
vertex 0.019500 0.020576 -0.022852
endloop
endfacet
facet normal 0.248873 0.903636 -0.348575
outer loop
vertex 0.005000 0.049895 -0.014644
vertex 0.007711 0.047063 -0.020052
vertex 0.005000 0.046804 -0.022657
endloop
endfacet
facet normal 0.608434 0.189921 -0.770544
outer loop
vertex 0.007711 0.014233 -0.049137
vertex 0.008055 0.014159 -0.048883
vertex 0.007711 0.010233 -0.050122
endloop
endfacet
facet normal 0.240122 0.356371 -0.902962
outer loop
vertex 0.005000 0.015030 -0.049780
vertex 0.005000 0.023019 -0.046628
vertex 0.007711 0.018140 -0.047832
endloop
endfacet
facet normal 0.303401 0.301741 -0.903825
outer loop
vertex 0.007711 0.014233 -0.049137
vertex 0.005000 0.015030 -0.049780
vertex 0.007711 0.018140 -0.047832
endloop
endfacet
facet normal 0.289385 -0.444839 -0.847570
outer loop
vertex 0.007711 -0.021930 -0.046217
vertex 0.007711 -0.025578 -0.044303
vertex 0.005000 -0.026445 -0.044774
endloop
endfacet
facet normal 0.608444 -0.368802 -0.702695
outer loop
vertex 0.008055 -0.021817 -0.045979
vertex 0.007711 -0.025578 -0.044303
vertex 0.007711 -0.021930 -0.046217
endloop
endfacet
facet normal 0.292806 -0.302789 -0.906964
outer loop
vertex 0.007711 -0.014233 -0.049137
vertex 0.007711 -0.018140 -0.047832
vertex 0.005000 -0.018715 -0.048516
endloop
endfacet
facet normal 0.608455 -0.251304 -0.752748
outer loop
vertex 0.008055 -0.018047 -0.047586
vertex 0.007711 -0.018140 -0.047832
vertex 0.007711 -0.014233 -0.049137
endloop
endfacet
facet normal 0.300428 -0.373860 -0.877481
outer loop
vertex 0.005000 -0.018715 -0.048516
vertex 0.007711 -0.018140 -0.047832
vertex 0.007711 -0.021930 -0.046217
endloop
endfacet
facet normal 0.608456 -0.311061 -0.730084
outer loop
vertex 0.008055 -0.021817 -0.045979
vertex 0.007711 -0.018140 -0.047832
vertex 0.008055 -0.018047 -0.047586
endloop
endfacet
facet normal 0.608455 -0.311059 -0.730086
outer loop
vertex 0.008055 -0.021817 -0.045979
vertex 0.007711 -0.021930 -0.046217
vertex 0.007711 -0.018140 -0.047832
endloop
endfacet
facet normal 0.608444 -0.251307 -0.752755
outer loop
vertex 0.007711 -0.014233 -0.049137
vertex 0.008055 -0.014159 -0.048883
vertex 0.008055 -0.018047 -0.047586
endloop
endfacet
facet normal 0.869529 -0.461787 -0.175133
outer loop
vertex 0.019500 -0.028092 -0.012507
vertex 0.008055 -0.048274 -0.016116
vertex 0.008055 -0.046820 -0.019948
endloop
endfacet
facet normal 0.870780 -0.425802 -0.245837
outer loop
vertex 0.019500 -0.028092 -0.012507
vertex 0.008055 -0.045063 -0.023651
vertex 0.019500 -0.024877 -0.018074
endloop
endfacet
facet normal 0.870780 -0.425802 -0.245837
outer loop
vertex 0.019500 -0.024877 -0.018074
vertex 0.008055 -0.045063 -0.023651
vertex 0.008055 -0.043014 -0.027200
endloop
endfacet
facet normal 0.869108 -0.446866 -0.212041
outer loop
vertex 0.008055 -0.046820 -0.019948
vertex 0.008055 -0.045063 -0.023651
vertex 0.019500 -0.028092 -0.012507
endloop
endfacet
facet normal 0.239090 0.423078 0.873980
outer loop
vertex 0.005000 0.018715 0.048516
vertex 0.007711 0.021930 0.046217
vertex 0.005000 0.026445 0.044774
endloop
endfacet
facet normal 0.304704 0.631589 0.712917
outer loop
vertex 0.005000 0.033454 0.039810
vertex 0.007711 0.032354 0.039626
vertex 0.007711 0.035437 0.036894
endloop
endfacet
facet normal 0.869865 0.355762 0.341714
outer loop
vertex 0.008055 0.038094 0.033748
vertex 0.008055 0.035255 0.036704
vertex 0.019500 0.020576 0.022852
endloop
endfacet
facet normal 0.869024 0.328093 0.370341
outer loop
vertex 0.019500 0.020576 0.022852
vertex 0.008055 0.035255 0.036704
vertex 0.008055 0.032187 0.039422
endloop
endfacet
facet normal 0.608451 0.526248 0.594012
outer loop
vertex 0.007711 0.032354 0.039626
vertex 0.008055 0.035255 0.036704
vertex 0.007711 0.035437 0.036894
endloop
endfacet
facet normal 0.608449 0.526251 0.594012
outer loop
vertex 0.008055 0.032187 0.039422
vertex 0.008055 0.035255 0.036704
vertex 0.007711 0.032354 0.039626
endloop
endfacet
facet normal 0.871053 0.288713 0.397380
outer loop
vertex 0.019500 0.020576 0.022852
vertex 0.008055 0.028910 0.041884
vertex 0.019500 0.015375 0.026630
endloop
endfacet
facet normal 0.870281 0.295898 0.393769
outer loop
vertex 0.008055 0.032187 0.039422
vertex 0.008055 0.028910 0.041884
vertex 0.019500 0.020576 0.022852
endloop
endfacet
facet normal 0.869277 0.264200 0.417799
outer loop
vertex 0.019500 0.015375 0.026630
vertex 0.008055 0.028910 0.041884
vertex 0.008055 0.025446 0.044074
endloop
endfacet
facet normal 0.608454 0.476743 0.634429
outer loop
vertex 0.007711 0.032354 0.039626
vertex 0.008055 0.028910 0.041884
vertex 0.008055 0.032187 0.039422
endloop
endfacet
facet normal 0.256463 0.965770 -0.038918
outer loop
vertex 0.007711 0.051156 0.000000
vertex 0.007711 0.050990 -0.004116
vertex 0.005000 0.051625 -0.006232
endloop
endfacet
facet normal 0.869529 0.461787 0.175133
outer loop
vertex 0.019500 0.028092 0.012507
vertex 0.008055 0.048274 0.016116
vertex 0.008055 0.046820 0.019948
endloop
endfacet
facet normal 0.869108 0.446866 0.212041
outer loop
vertex 0.008055 0.046820 0.019948
vertex 0.008055 0.045063 0.023651
vertex 0.019500 0.028092 0.012507
endloop
endfacet
facet normal 0.608453 0.716969 0.340206
outer loop
vertex 0.008055 0.045063 0.023651
vertex 0.008055 0.046820 0.019948
vertex 0.007711 0.045297 0.023774
endloop
endfacet
facet normal 0.608454 0.742019 0.281410
outer loop
vertex 0.007711 0.048524 0.016200
vertex 0.008055 0.046820 0.019948
vertex 0.008055 0.048274 0.016116
endloop
endfacet
facet normal 0.608453 0.762257 0.220791
outer loop
vertex 0.007711 0.049670 0.012243
vertex 0.007711 0.048524 0.016200
vertex 0.008055 0.048274 0.016116
endloop
endfacet
facet normal 0.608452 0.777552 0.158739
outer loop
vertex 0.007711 0.050494 0.008206
vertex 0.007711 0.049670 0.012243
vertex 0.008055 0.050234 0.008164
endloop
endfacet
facet normal 0.267506 0.925514 0.268076
outer loop
vertex 0.007711 0.048524 0.016200
vertex 0.007711 0.049670 0.012243
vertex 0.005000 0.050852 0.010868
endloop
endfacet
facet normal 0.309651 0.931634 0.190196
outer loop
vertex 0.007711 0.050494 0.008206
vertex 0.005000 0.050852 0.010868
vertex 0.007711 0.049670 0.012243
endloop
endfacet
facet normal 0.281598 0.692017 0.664691
outer loop
vertex 0.005000 0.039550 0.033761
vertex 0.007711 0.035437 0.036894
vertex 0.007711 0.038291 0.033923
endloop
endfacet
facet normal 0.608450 0.572340 0.549742
outer loop
vertex 0.008055 0.035255 0.036704
vertex 0.007711 0.038291 0.033923
vertex 0.007711 0.035437 0.036894
endloop
endfacet
facet normal 0.608449 0.572342 0.549740
outer loop
vertex 0.008055 0.038094 0.033748
vertex 0.007711 0.038291 0.033923
vertex 0.008055 0.035255 0.036704
endloop
endfacet
facet normal 0.243847 0.869616 0.429310
outer loop
vertex 0.005000 0.048369 0.019090
vertex 0.005000 0.044567 0.026791
vertex 0.007711 0.045297 0.023774
endloop
endfacet
facet normal 0.280207 -0.513055 0.811331
outer loop
vertex 0.007711 -0.025578 0.044303
vertex 0.005000 -0.030380 0.042203
vertex 0.007711 -0.029060 0.042101
endloop
endfacet
facet normal 0.608455 -0.476741 0.634429
outer loop
vertex 0.008055 -0.028910 0.041884
vertex 0.007711 -0.029060 0.042101
vertex 0.007711 -0.032354 0.039626
endloop
endfacet
facet normal 0.306874 -0.571756 0.760870
outer loop
vertex 0.007711 -0.032354 0.039626
vertex 0.007711 -0.029060 0.042101
vertex 0.005000 -0.030380 0.042203
endloop
endfacet
facet normal 0.608454 -0.424148 0.670733
outer loop
vertex 0.008055 -0.025446 0.044074
vertex 0.007711 -0.029060 0.042101
vertex 0.008055 -0.028910 0.041884
endloop
endfacet
facet normal 0.608445 -0.424149 0.670740
outer loop
vertex 0.008055 -0.025446 0.044074
vertex 0.007711 -0.025578 0.044303
vertex 0.007711 -0.029060 0.042101
endloop
endfacet
facet normal 0.288199 -0.229162 0.929745
outer loop
vertex 0.007711 -0.014233 0.049137
vertex 0.007711 -0.010233 0.050122
vertex 0.005000 -0.015030 0.049780
endloop
endfacet
facet normal 0.303402 -0.301741 0.903825
outer loop
vertex 0.007711 -0.018140 0.047832
vertex 0.007711 -0.014233 0.049137
vertex 0.005000 -0.015030 0.049780
endloop
endfacet
facet normal 0.608453 -0.251304 0.752749
outer loop
vertex 0.007711 -0.014233 0.049137
vertex 0.007711 -0.018140 0.047832
vertex 0.008055 -0.018047 0.047586
endloop
endfacet
facet normal 0.270927 -0.745635 0.608791
outer loop
vertex 0.007711 -0.038291 0.033923
vertex 0.005000 -0.042437 0.030052
vertex 0.007711 -0.040897 0.030732
endloop
endfacet
facet normal 0.608455 -0.614718 0.501901
outer loop
vertex 0.008055 -0.038094 0.033748
vertex 0.007711 -0.040897 0.030732
vertex 0.008055 -0.040686 0.030573
endloop
endfacet
facet normal 0.608450 -0.614719 0.501905
outer loop
vertex 0.007711 -0.040897 0.030732
vertex 0.008055 -0.038094 0.033748
vertex 0.007711 -0.038291 0.033923
endloop
endfacet
facet normal 0.243846 -0.869616 -0.429310
outer loop
vertex 0.005000 -0.044567 -0.026791
vertex 0.007711 -0.045297 -0.023774
vertex 0.005000 -0.048369 -0.019090
endloop
endfacet
facet normal 0.307775 -0.823988 -0.475728
outer loop
vertex 0.007711 -0.043237 -0.027341
vertex 0.007711 -0.045297 -0.023774
vertex 0.005000 -0.044567 -0.026791
endloop
endfacet
facet normal 0.608453 -0.716969 -0.340206
outer loop
vertex 0.008055 -0.045063 -0.023651
vertex 0.008055 -0.046820 -0.019948
vertex 0.007711 -0.045297 -0.023774
endloop
endfacet
facet normal 0.608453 -0.687269 -0.396796
outer loop
vertex 0.007711 -0.043237 -0.027341
vertex 0.008055 -0.043014 -0.027200
vertex 0.007711 -0.045297 -0.023774
endloop
endfacet
facet normal 0.608451 -0.687271 -0.396795
outer loop
vertex 0.008055 -0.045063 -0.023651
vertex 0.007711 -0.045297 -0.023774
vertex 0.008055 -0.043014 -0.027200
endloop
endfacet
facet normal 0.608450 -0.653113 -0.450812
outer loop
vertex 0.008055 -0.040686 -0.030573
vertex 0.007711 -0.043237 -0.027341
vertex 0.007711 -0.040897 -0.030732
endloop
endfacet
facet normal 0.277225 -0.790727 -0.545800
outer loop
vertex 0.007711 -0.043237 -0.027341
vertex 0.005000 -0.044567 -0.026791
vertex 0.007711 -0.040897 -0.030732
endloop
endfacet
facet normal 0.242194 -0.787430 -0.566830
outer loop
vertex 0.005000 -0.044567 -0.026791
vertex 0.005000 -0.039550 -0.033761
vertex 0.007711 -0.040897 -0.030732
endloop
endfacet
facet normal 0.306390 -0.737352 -0.602028
outer loop
vertex 0.007711 -0.038291 -0.033923
vertex 0.007711 -0.040897 -0.030732
vertex 0.005000 -0.039550 -0.033761
endloop
endfacet
facet normal 0.608454 -0.614718 -0.501901
outer loop
vertex 0.008055 -0.040686 -0.030573
vertex 0.007711 -0.040897 -0.030732
vertex 0.008055 -0.038094 -0.033748
endloop
endfacet
facet normal 0.608450 -0.614719 -0.501905
outer loop
vertex 0.007711 -0.040897 -0.030732
vertex 0.007711 -0.038291 -0.033923
vertex 0.008055 -0.038094 -0.033748
endloop
endfacet
facet normal 0.281600 -0.692017 -0.664691
outer loop
vertex 0.007711 -0.038291 -0.033923
vertex 0.005000 -0.039550 -0.033761
vertex 0.007711 -0.035437 -0.036894
endloop
endfacet
facet normal 0.240850 -0.683629 -0.688943
outer loop
vertex 0.005000 -0.033454 -0.039810
vertex 0.007711 -0.035437 -0.036894
vertex 0.005000 -0.039550 -0.033761
endloop
endfacet
facet normal 0.608448 -0.572341 -0.549743
outer loop
vertex 0.007711 -0.038291 -0.033923
vertex 0.007711 -0.035437 -0.036894
vertex 0.008055 -0.035255 -0.036704
endloop
endfacet
facet normal 0.304704 -0.631589 -0.712917
outer loop
vertex 0.007711 -0.032354 -0.039626
vertex 0.007711 -0.035437 -0.036894
vertex 0.005000 -0.033454 -0.039810
endloop
endfacet
facet normal 0.608449 -0.526250 -0.594013
outer loop
vertex 0.008055 -0.035255 -0.036704
vertex 0.007711 -0.035437 -0.036894
vertex 0.007711 -0.032354 -0.039626
endloop
endfacet
facet normal 0.608450 -0.762260 0.220790
outer loop
vertex 0.007711 -0.049670 0.012243
vertex 0.008055 -0.049414 0.012179
vertex 0.008055 -0.048274 0.016116
endloop
endfacet
facet normal 0.251539 -0.948010 0.194948
outer loop
vertex 0.005000 -0.051625 0.006232
vertex 0.007711 -0.049670 0.012243
vertex 0.005000 -0.049895 0.014644
endloop
endfacet
facet normal 0.254534 -0.947520 0.193437
outer loop
vertex 0.007711 -0.050494 0.008206
vertex 0.007711 -0.049670 0.012243
vertex 0.005000 -0.051625 0.006232
endloop
endfacet
facet normal 0.608451 -0.777554 0.158738
outer loop
vertex 0.008055 -0.049414 0.012179
vertex 0.007711 -0.049670 0.012243
vertex 0.008055 -0.050234 0.008164
endloop
endfacet
facet normal 0.608452 -0.777552 0.158739
outer loop
vertex 0.008055 -0.050234 0.008164
vertex 0.007711 -0.049670 0.012243
vertex 0.007711 -0.050494 0.008206
endloop
endfacet
facet normal 0.608453 -0.716969 0.340206
outer loop
vertex 0.007711 -0.045297 0.023774
vertex 0.008055 -0.046820 0.019948
vertex 0.008055 -0.045063 0.023651
endloop
endfacet
facet normal 0.608452 -0.687270 0.396795
outer loop
vertex 0.008055 -0.043014 0.027200
vertex 0.007711 -0.045297 0.023774
vertex 0.008055 -0.045063 0.023651
endloop
endfacet
facet normal 0.608454 -0.742019 0.281410
outer loop
vertex 0.008055 -0.046820 0.019948
vertex 0.007711 -0.048524 0.016200
vertex 0.008055 -0.048274 0.016116
endloop
endfacet
facet normal 0.608453 -0.762257 0.220791
outer loop
vertex 0.008055 -0.048274 0.016116
vertex 0.007711 -0.048524 0.016200
vertex 0.007711 -0.049670 0.012243
endloop
endfacet
facet normal 0.310240 -0.913124 0.264490
outer loop
vertex 0.007711 -0.049670 0.012243
vertex 0.007711 -0.048524 0.016200
vertex 0.005000 -0.049895 0.014644
endloop
endfacet
facet normal 0.256463 -0.965770 0.038918
outer loop
vertex 0.005000 -0.051625 0.006232
vertex 0.007711 -0.051156 0.000000
vertex 0.007711 -0.050990 0.004116
endloop
endfacet
facet normal 0.310341 -0.943694 0.114586
outer loop
vertex 0.005000 -0.051625 0.006232
vertex 0.007711 -0.050990 0.004116
vertex 0.007711 -0.050494 0.008206
endloop
endfacet
facet normal 0.608449 -0.792950 0.031955
outer loop
vertex 0.007711 -0.050990 0.004116
vertex 0.008055 -0.050893 0.000000
vertex 0.008055 -0.050728 0.004095
endloop
endfacet
facet normal 0.608452 -0.792947 0.031954
outer loop
vertex 0.008055 -0.050893 0.000000
vertex 0.007711 -0.050990 0.004116
vertex 0.007711 -0.051156 0.000000
endloop
endfacet
facet normal 0.608451 -0.787805 0.095658
outer loop
vertex 0.008055 -0.050234 0.008164
vertex 0.007711 -0.050990 0.004116
vertex 0.008055 -0.050728 0.004095
endloop
endfacet
facet normal 0.608451 -0.787805 0.095657
outer loop
vertex 0.007711 -0.050494 0.008206
vertex 0.007711 -0.050990 0.004116
vertex 0.008055 -0.050234 0.008164
endloop
endfacet
facet normal 0.242700 0.629837 -0.737836
outer loop
vertex 0.005000 0.030380 -0.042203
vertex 0.005000 0.036912 -0.036627
vertex 0.007711 0.032354 -0.039626
endloop
endfacet
facet normal 0.608454 0.476743 -0.634429
outer loop
vertex 0.007711 0.032354 -0.039626
vertex 0.008055 0.032187 -0.039422
vertex 0.008055 0.028910 -0.041884
endloop
endfacet
facet normal 0.241256 0.499989 -0.831749
outer loop
vertex 0.005000 0.030380 -0.042203
vertex 0.007711 0.025578 -0.044303
vertex 0.005000 0.023019 -0.046628
endloop
endfacet
facet normal 0.608444 0.368804 -0.702695
outer loop
vertex 0.007711 0.025578 -0.044303
vertex 0.008055 0.025446 -0.044074
vertex 0.008055 0.021817 -0.045979
endloop
endfacet
facet normal 0.310240 0.913124 -0.264490
outer loop
vertex 0.007711 0.049670 -0.012243
vertex 0.007711 0.048524 -0.016200
vertex 0.005000 0.049895 -0.014644
endloop
endfacet
facet normal 0.260332 0.902776 -0.342378
outer loop
vertex 0.007711 0.048524 -0.016200
vertex 0.007711 0.047063 -0.020052
vertex 0.005000 0.049895 -0.014644
endloop
endfacet
facet normal 0.309845 0.858989 -0.407595
outer loop
vertex 0.007711 0.047063 -0.020052
vertex 0.007711 0.045297 -0.023774
vertex 0.005000 0.046804 -0.022657
endloop
endfacet
facet normal 0.608461 0.189918 -0.770524
outer loop
vertex 0.008055 0.014159 -0.048883
vertex 0.008055 0.010180 -0.049864
vertex 0.007711 0.010233 -0.050122
endloop
endfacet
facet normal 0.608448 0.127301 -0.783317
outer loop
vertex 0.007711 0.006166 -0.050783
vertex 0.007711 0.010233 -0.050122
vertex 0.008055 0.010180 -0.049864
endloop
endfacet
facet normal 0.871190 0.102073 -0.480218
outer loop
vertex 0.008055 0.010180 -0.049864
vertex 0.019500 0.009502 -0.029245
vertex 0.019500 0.003214 -0.030582
endloop
endfacet
facet normal 0.869864 0.118052 -0.478957
outer loop
vertex 0.008055 0.010180 -0.049864
vertex 0.008055 0.014159 -0.048883
vertex 0.019500 0.009502 -0.029245
endloop
endfacet
facet normal 0.871054 0.199784 -0.448723
outer loop
vertex 0.008055 0.021817 -0.045979
vertex 0.019500 0.015375 -0.026630
vertex 0.019500 0.009502 -0.029245
endloop
endfacet
facet normal 0.284359 0.375786 -0.882001
outer loop
vertex 0.007711 0.018140 -0.047832
vertex 0.005000 0.023019 -0.046628
vertex 0.007711 0.021930 -0.046217
endloop
endfacet
facet normal 0.608453 0.311060 -0.730087
outer loop
vertex 0.007711 0.018140 -0.047832
vertex 0.007711 0.021930 -0.046217
vertex 0.008055 0.021817 -0.045979
endloop
endfacet
facet normal 0.305289 0.442537 -0.843184
outer loop
vertex 0.007711 0.025578 -0.044303
vertex 0.007711 0.021930 -0.046217
vertex 0.005000 0.023019 -0.046628
endloop
endfacet
facet normal 0.608444 0.368802 -0.702695
outer loop
vertex 0.008055 0.021817 -0.045979
vertex 0.007711 0.021930 -0.046217
vertex 0.007711 0.025578 -0.044303
endloop
endfacet
facet normal 0.608444 0.251307 -0.752755
outer loop
vertex 0.008055 0.014159 -0.048883
vertex 0.007711 0.014233 -0.049137
vertex 0.008055 0.018047 -0.047586
endloop
endfacet
facet normal 0.608455 0.251304 -0.752748
outer loop
vertex 0.007711 0.018140 -0.047832
vertex 0.008055 0.018047 -0.047586
vertex 0.007711 0.014233 -0.049137
endloop
endfacet
facet normal 0.869024 0.156678 -0.469307
outer loop
vertex 0.019500 0.009502 -0.029245
vertex 0.008055 0.014159 -0.048883
vertex 0.008055 0.018047 -0.047586
endloop
endfacet
facet normal 0.608454 0.311062 -0.730085
outer loop
vertex 0.008055 0.018047 -0.047586
vertex 0.007711 0.018140 -0.047832
vertex 0.008055 0.021817 -0.045979
endloop
endfacet
facet normal 0.870281 0.193065 -0.453140
outer loop
vertex 0.019500 0.009502 -0.029245
vertex 0.008055 0.018047 -0.047586
vertex 0.008055 0.021817 -0.045979
endloop
endfacet
facet normal 0.869277 -0.264200 -0.417799
outer loop
vertex 0.008055 -0.028910 -0.041884
vertex 0.008055 -0.025446 -0.044074
vertex 0.019500 -0.015375 -0.026630
endloop
endfacet
facet normal 0.608447 -0.368802 -0.702693
outer loop
vertex 0.008055 -0.021817 -0.045979
vertex 0.008055 -0.025446 -0.044074
vertex 0.007711 -0.025578 -0.044303
endloop
endfacet
facet normal 0.869277 -0.229725 -0.437703
outer loop
vertex 0.019500 -0.015375 -0.026630
vertex 0.008055 -0.025446 -0.044074
vertex 0.008055 -0.021817 -0.045979
endloop
endfacet
facet normal 0.608434 -0.189921 -0.770544
outer loop
vertex 0.008055 -0.014159 -0.048883
vertex 0.007711 -0.014233 -0.049137
vertex 0.007711 -0.010233 -0.050122
endloop
endfacet
facet normal 0.297836 -0.228455 -0.926878
outer loop
vertex 0.007711 -0.014233 -0.049137
vertex 0.005000 -0.010474 -0.050934
vertex 0.007711 -0.010233 -0.050122
endloop
endfacet
facet normal 0.238778 0.043886 -0.970082
outer loop
vertex 0.007711 0.002060 -0.051115
vertex 0.005000 -0.001948 -0.051964
vertex 0.005000 0.006632 -0.051575
endloop
endfacet
facet normal 0.291725 0.076966 -0.953400
outer loop
vertex 0.007711 0.006166 -0.050783
vertex 0.007711 0.002060 -0.051115
vertex 0.005000 0.006632 -0.051575
endloop
endfacet
facet normal 0.608456 0.063857 -0.791015
outer loop
vertex 0.007711 0.006166 -0.050783
vertex 0.008055 0.002049 -0.050852
vertex 0.007711 0.002060 -0.051115
endloop
endfacet
facet normal 0.608454 -0.742019 -0.281410
outer loop
vertex 0.008055 -0.046820 -0.019948
vertex 0.008055 -0.048274 -0.016116
vertex 0.007711 -0.048524 -0.016200
endloop
endfacet
facet normal 0.608453 -0.762257 -0.220791
outer loop
vertex 0.007711 -0.049670 -0.012243
vertex 0.007711 -0.048524 -0.016200
vertex 0.008055 -0.048274 -0.016116
endloop
endfacet
facet normal 0.245805 -0.927944 -0.280177
outer loop
vertex 0.005000 -0.048369 -0.019090
vertex 0.007711 -0.048524 -0.016200
vertex 0.005000 -0.050852 -0.010868
endloop
endfacet
facet normal 0.267506 -0.925514 -0.268076
outer loop
vertex 0.007711 -0.049670 -0.012243
vertex 0.005000 -0.050852 -0.010868
vertex 0.007711 -0.048524 -0.016200
endloop
endfacet
facet normal 0.289385 0.444839 0.847570
outer loop
vertex 0.007711 0.021930 0.046217
vertex 0.007711 0.025578 0.044303
vertex 0.005000 0.026445 0.044774
endloop
endfacet
facet normal 0.869277 0.229725 0.437703
outer loop
vertex 0.019500 0.015375 0.026630
vertex 0.008055 0.025446 0.044074
vertex 0.008055 0.021817 0.045979
endloop
endfacet
facet normal 0.608444 0.368804 0.702695
outer loop
vertex 0.007711 0.025578 0.044303
vertex 0.008055 0.021817 0.045979
vertex 0.008055 0.025446 0.044074
endloop
endfacet
facet normal 0.608446 0.368802 0.702694
outer loop
vertex 0.007711 0.025578 0.044303
vertex 0.007711 0.021930 0.046217
vertex 0.008055 0.021817 0.045979
endloop
endfacet
facet normal 0.871054 0.199784 0.448723
outer loop
vertex 0.019500 0.015375 0.026630
vertex 0.008055 0.021817 0.045979
vertex 0.019500 0.009502 0.029245
endloop
endfacet
facet normal 0.238676 0.273485 0.931794
outer loop
vertex 0.005000 0.010474 0.050934
vertex 0.007711 0.014233 0.049137
vertex 0.005000 0.018715 0.048516
endloop
endfacet
facet normal 0.254534 0.947520 -0.193437
outer loop
vertex 0.007711 0.050494 -0.008206
vertex 0.007711 0.049670 -0.012243
vertex 0.005000 0.051625 -0.006232
endloop
endfacet
facet normal 0.310341 0.943694 -0.114586
outer loop
vertex 0.007711 0.050990 -0.004116
vertex 0.007711 0.050494 -0.008206
vertex 0.005000 0.051625 -0.006232
endloop
endfacet
facet normal 0.308863 0.889300 0.337267
outer loop
vertex 0.005000 0.048369 0.019090
vertex 0.007711 0.047063 0.020052
vertex 0.007711 0.048524 0.016200
endloop
endfacet
facet normal 0.608445 0.742025 0.281414
outer loop
vertex 0.007711 0.047063 0.020052
vertex 0.008055 0.046820 0.019948
vertex 0.007711 0.048524 0.016200
endloop
endfacet
facet normal 0.272530 0.869253 0.412465
outer loop
vertex 0.005000 0.048369 0.019090
vertex 0.007711 0.045297 0.023774
vertex 0.007711 0.047063 0.020052
endloop
endfacet
facet normal 0.608448 0.716972 0.340208
outer loop
vertex 0.008055 0.046820 0.019948
vertex 0.007711 0.047063 0.020052
vertex 0.007711 0.045297 0.023774
endloop
endfacet
facet normal 0.608450 0.762260 0.220790
outer loop
vertex 0.008055 0.049414 0.012179
vertex 0.007711 0.049670 0.012243
vertex 0.008055 0.048274 0.016116
endloop
endfacet
facet normal 0.869864 0.473815 0.137241
outer loop
vertex 0.019500 0.030078 0.006393
vertex 0.008055 0.049414 0.012179
vertex 0.008055 0.048274 0.016116
endloop
endfacet
facet normal 0.608451 0.777554 0.158738
outer loop
vertex 0.007711 0.049670 0.012243
vertex 0.008055 0.049414 0.012179
vertex 0.008055 0.050234 0.008164
endloop
endfacet
facet normal 0.869024 0.484771 0.098967
outer loop
vertex 0.008055 0.050234 0.008164
vertex 0.008055 0.049414 0.012179
vertex 0.019500 0.030078 0.006393
endloop
endfacet
facet normal 0.306390 0.737352 0.602028
outer loop
vertex 0.007711 0.038291 0.033923
vertex 0.007711 0.040897 0.030732
vertex 0.005000 0.039550 0.033761
endloop
endfacet
facet normal 0.242194 0.787430 0.566830
outer loop
vertex 0.005000 0.044567 0.026791
vertex 0.005000 0.039550 0.033761
vertex 0.007711 0.040897 0.030732
endloop
endfacet
facet normal 0.608454 0.614718 0.501901
outer loop
vertex 0.008055 0.040686 0.030573
vertex 0.007711 0.040897 0.030732
vertex 0.008055 0.038094 0.033748
endloop
endfacet
facet normal 0.608449 0.614720 0.501906
outer loop
vertex 0.008055 0.038094 0.033748
vertex 0.007711 0.040897 0.030732
vertex 0.007711 0.038291 0.033923
endloop
endfacet
facet normal 0.239817 -0.561057 -0.792277
outer loop
vertex 0.005000 -0.033454 -0.039810
vertex 0.005000 -0.026445 -0.044774
vertex 0.007711 -0.029060 -0.042101
endloop
endfacet
facet normal 0.302719 -0.509388 -0.805534
outer loop
vertex 0.007711 -0.025578 -0.044303
vertex 0.007711 -0.029060 -0.042101
vertex 0.005000 -0.026445 -0.044774
endloop
endfacet
facet normal 0.285648 -0.575713 -0.766133
outer loop
vertex 0.005000 -0.033454 -0.039810
vertex 0.007711 -0.029060 -0.042101
vertex 0.007711 -0.032354 -0.039626
endloop
endfacet
facet normal 0.608455 -0.476741 -0.634429
outer loop
vertex 0.007711 -0.032354 -0.039626
vertex 0.007711 -0.029060 -0.042101
vertex 0.008055 -0.028910 -0.041884
endloop
endfacet
facet normal 0.608454 -0.424148 -0.670733
outer loop
vertex 0.007711 -0.029060 -0.042101
vertex 0.008055 -0.025446 -0.044074
vertex 0.008055 -0.028910 -0.041884
endloop
endfacet
facet normal 0.608445 -0.424149 -0.670740
outer loop
vertex 0.008055 -0.025446 -0.044074
vertex 0.007711 -0.029060 -0.042101
vertex 0.007711 -0.025578 -0.044303
endloop
endfacet
facet normal 0.608446 -0.368802 0.702694
outer loop
vertex 0.007711 -0.025578 0.044303
vertex 0.008055 -0.021817 0.045979
vertex 0.007711 -0.021930 0.046217
endloop
endfacet
facet normal 0.608444 -0.368804 0.702695
outer loop
vertex 0.008055 -0.025446 0.044074
vertex 0.008055 -0.021817 0.045979
vertex 0.007711 -0.025578 0.044303
endloop
endfacet
facet normal 0.608453 -0.311060 0.730087
outer loop
vertex 0.007711 -0.018140 0.047832
vertex 0.007711 -0.021930 0.046217
vertex 0.008055 -0.021817 0.045979
endloop
endfacet
facet normal 0.608454 -0.311062 0.730085
outer loop
vertex 0.008055 -0.018047 0.047586
vertex 0.007711 -0.018140 0.047832
vertex 0.008055 -0.021817 0.045979
endloop
endfacet
facet normal 0.869277 -0.229725 0.437703
outer loop
vertex 0.008055 -0.021817 0.045979
vertex 0.008055 -0.025446 0.044074
vertex 0.019500 -0.015375 0.026630
endloop
endfacet
facet normal 0.870281 -0.193065 0.453140
outer loop
vertex 0.008055 -0.018047 0.047586
vertex 0.008055 -0.021817 0.045979
vertex 0.019500 -0.009502 0.029245
endloop
endfacet
facet normal 0.871054 -0.199784 0.448723
outer loop
vertex 0.019500 -0.009502 0.029245
vertex 0.008055 -0.021817 0.045979
vertex 0.019500 -0.015375 0.026630
endloop
endfacet
facet normal 0.608434 -0.189921 0.770544
outer loop
vertex 0.007711 -0.014233 0.049137
vertex 0.008055 -0.014159 0.048883
vertex 0.007711 -0.010233 0.050122
endloop
endfacet
facet normal 0.608440 -0.251308 0.752759
outer loop
vertex 0.008055 -0.018047 0.047586
vertex 0.008055 -0.014159 0.048883
vertex 0.007711 -0.014233 0.049137
endloop
endfacet
facet normal 0.869024 -0.156678 0.469307
outer loop
vertex 0.019500 -0.009502 0.029245
vertex 0.008055 -0.014159 0.048883
vertex 0.008055 -0.018047 0.047586
endloop
endfacet
facet normal 0.272530 -0.869253 -0.412465
outer loop
vertex 0.007711 -0.045297 -0.023774
vertex 0.007711 -0.047063 -0.020052
vertex 0.005000 -0.048369 -0.019090
endloop
endfacet
facet normal 0.608449 -0.716972 -0.340208
outer loop
vertex 0.007711 -0.045297 -0.023774
vertex 0.008055 -0.046820 -0.019948
vertex 0.007711 -0.047063 -0.020052
endloop
endfacet
facet normal 0.308863 -0.889300 -0.337267
outer loop
vertex 0.005000 -0.048369 -0.019090
vertex 0.007711 -0.047063 -0.020052
vertex 0.007711 -0.048524 -0.016200
endloop
endfacet
facet normal 0.608445 -0.742024 -0.281415
outer loop
vertex 0.007711 -0.048524 -0.016200
vertex 0.007711 -0.047063 -0.020052
vertex 0.008055 -0.046820 -0.019948
endloop
endfacet
facet normal 0.608454 -0.476743 -0.634429
outer loop
vertex 0.007711 -0.032354 -0.039626
vertex 0.008055 -0.028910 -0.041884
vertex 0.008055 -0.032187 -0.039422
endloop
endfacet
facet normal 0.870281 -0.295898 -0.393769
outer loop
vertex 0.019500 -0.020576 -0.022852
vertex 0.008055 -0.032187 -0.039422
vertex 0.008055 -0.028910 -0.041884
endloop
endfacet
facet normal 0.608449 -0.526251 -0.594012
outer loop
vertex 0.007711 -0.032354 -0.039626
vertex 0.008055 -0.032187 -0.039422
vertex 0.008055 -0.035255 -0.036704
endloop
endfacet
facet normal 0.869024 -0.328093 -0.370341
outer loop
vertex 0.008055 -0.035255 -0.036704
vertex 0.008055 -0.032187 -0.039422
vertex 0.019500 -0.020576 -0.022852
endloop
endfacet
facet normal 0.309845 -0.858989 0.407595
outer loop
vertex 0.007711 -0.045297 0.023774
vertex 0.005000 -0.046804 0.022657
vertex 0.007711 -0.047063 0.020052
endloop
endfacet
facet normal 0.608449 -0.716972 0.340208
outer loop
vertex 0.007711 -0.045297 0.023774
vertex 0.007711 -0.047063 0.020052
vertex 0.008055 -0.046820 0.019948
endloop
endfacet
facet normal 0.608445 -0.742025 0.281414
outer loop
vertex 0.007711 -0.047063 0.020052
vertex 0.007711 -0.048524 0.016200
vertex 0.008055 -0.046820 0.019948
endloop
endfacet
facet normal 0.248873 -0.903636 0.348575
outer loop
vertex 0.005000 -0.049895 0.014644
vertex 0.007711 -0.047063 0.020052
vertex 0.005000 -0.046804 0.022657
endloop
endfacet
facet normal 0.260332 -0.902776 0.342378
outer loop
vertex 0.007711 -0.048524 0.016200
vertex 0.007711 -0.047063 0.020052
vertex 0.005000 -0.049895 0.014644
endloop
endfacet
facet normal 0.246511 -0.834458 0.492861
outer loop
vertex 0.005000 -0.046804 0.022657
vertex 0.007711 -0.043237 0.027341
vertex 0.005000 -0.042437 0.030052
endloop
endfacet
facet normal 0.265795 -0.834874 0.482015
outer loop
vertex 0.007711 -0.045297 0.023774
vertex 0.007711 -0.043237 0.027341
vertex 0.005000 -0.046804 0.022657
endloop
endfacet
facet normal 0.608453 -0.687269 0.396796
outer loop
vertex 0.008055 -0.043014 0.027200
vertex 0.007711 -0.043237 0.027341
vertex 0.007711 -0.045297 0.023774
endloop
endfacet
facet normal 0.309153 -0.782667 0.540237
outer loop
vertex 0.007711 -0.043237 0.027341
vertex 0.007711 -0.040897 0.030732
vertex 0.005000 -0.042437 0.030052
endloop
endfacet
facet normal 0.608452 -0.653112 0.450811
outer loop
vertex 0.008055 -0.040686 0.030573
vertex 0.007711 -0.043237 0.027341
vertex 0.008055 -0.043014 0.027200
endloop
endfacet
facet normal 0.608450 -0.653113 0.450812
outer loop
vertex 0.007711 -0.040897 0.030732
vertex 0.007711 -0.043237 0.027341
vertex 0.008055 -0.040686 0.030573
endloop
endfacet
facet normal 0.275731 0.637418 -0.719494
outer loop
vertex 0.007711 0.032354 -0.039626
vertex 0.005000 0.036912 -0.036627
vertex 0.007711 0.035437 -0.036894
endloop
endfacet
facet normal 0.308162 0.686104 -0.659012
outer loop
vertex 0.007711 0.038291 -0.033923
vertex 0.007711 0.035437 -0.036894
vertex 0.005000 0.036912 -0.036627
endloop
endfacet
facet normal 0.306874 0.571756 -0.760870
outer loop
vertex 0.007711 0.032354 -0.039626
vertex 0.007711 0.029060 -0.042101
vertex 0.005000 0.030380 -0.042203
endloop
endfacet
facet normal 0.608455 0.476741 -0.634429
outer loop
vertex 0.008055 0.028910 -0.041884
vertex 0.007711 0.029060 -0.042101
vertex 0.007711 0.032354 -0.039626
endloop
endfacet
facet normal 0.280207 0.513055 -0.811331
outer loop
vertex 0.007711 0.025578 -0.044303
vertex 0.005000 0.030380 -0.042203
vertex 0.007711 0.029060 -0.042101
endloop
endfacet
facet normal 0.608454 0.424148 -0.670733
outer loop
vertex 0.008055 0.025446 -0.044074
vertex 0.007711 0.029060 -0.042101
vertex 0.008055 0.028910 -0.041884
endloop
endfacet
facet normal 0.608445 0.424149 -0.670740
outer loop
vertex 0.007711 0.025578 -0.044303
vertex 0.007711 0.029060 -0.042101
vertex 0.008055 0.025446 -0.044074
endloop
endfacet
facet normal 0.869024 -0.156678 -0.469307
outer loop
vertex 0.008055 -0.014159 -0.048883
vertex 0.019500 -0.009502 -0.029245
vertex 0.008055 -0.018047 -0.047586
endloop
endfacet
facet normal 0.871054 -0.199784 -0.448723
outer loop
vertex 0.008055 -0.021817 -0.045979
vertex 0.019500 -0.009502 -0.029245
vertex 0.019500 -0.015375 -0.026630
endloop
endfacet
facet normal 0.870281 -0.193065 -0.453140
outer loop
vertex 0.008055 -0.021817 -0.045979
vertex 0.008055 -0.018047 -0.047586
vertex 0.019500 -0.009502 -0.029245
endloop
endfacet
facet normal 0.869529 -0.079224 -0.487486
outer loop
vertex 0.019500 -0.003214 -0.030582
vertex 0.008055 -0.010180 -0.049864
vertex 0.008055 -0.006134 -0.050522
endloop
endfacet
facet normal 0.608465 -0.189917 -0.770521
outer loop
vertex 0.007711 -0.010233 -0.050122
vertex 0.008055 -0.010180 -0.049864
vertex 0.008055 -0.014159 -0.048883
endloop
endfacet
facet normal 0.871190 -0.102073 -0.480218
outer loop
vertex 0.019500 -0.009502 -0.029245
vertex 0.008055 -0.010180 -0.049864
vertex 0.019500 -0.003214 -0.030582
endloop
endfacet
facet normal 0.869864 -0.118052 -0.478957
outer loop
vertex 0.008055 -0.010180 -0.049864
vertex 0.019500 -0.009502 -0.029245
vertex 0.008055 -0.014159 -0.048883
endloop
endfacet
facet normal 0.869108 -0.039801 -0.493018
outer loop
vertex 0.008055 -0.006134 -0.050522
vertex 0.008055 -0.002049 -0.050852
vertex 0.019500 -0.003214 -0.030582
endloop
endfacet
facet normal 0.608450 0.762260 -0.220790
outer loop
vertex 0.008055 0.049414 -0.012179
vertex 0.008055 0.048274 -0.016116
vertex 0.007711 0.049670 -0.012243
endloop
endfacet
facet normal 0.608453 0.762257 -0.220791
outer loop
vertex 0.007711 0.048524 -0.016200
vertex 0.007711 0.049670 -0.012243
vertex 0.008055 0.048274 -0.016116
endloop
endfacet
facet normal 0.871190 0.466917 -0.151711
outer loop
vertex 0.019500 0.028092 -0.012507
vertex 0.008055 0.048274 -0.016116
vertex 0.019500 0.030078 -0.006393
endloop
endfacet
facet normal 0.869864 0.473815 -0.137241
outer loop
vertex 0.019500 0.030078 -0.006393
vertex 0.008055 0.048274 -0.016116
vertex 0.008055 0.049414 -0.012179
endloop
endfacet
facet normal 0.265795 0.834874 -0.482015
outer loop
vertex 0.007711 0.045297 -0.023774
vertex 0.007711 0.043237 -0.027341
vertex 0.005000 0.046804 -0.022657
endloop
endfacet
facet normal 0.246511 0.834458 -0.492861
outer loop
vertex 0.005000 0.046804 -0.022657
vertex 0.007711 0.043237 -0.027341
vertex 0.005000 0.042437 -0.030052
endloop
endfacet
facet normal 0.608453 0.687269 -0.396796
outer loop
vertex 0.008055 0.043014 -0.027200
vertex 0.007711 0.043237 -0.027341
vertex 0.007711 0.045297 -0.023774
endloop
endfacet
facet normal 0.309153 0.782667 -0.540237
outer loop
vertex 0.007711 0.043237 -0.027341
vertex 0.007711 0.040897 -0.030732
vertex 0.005000 0.042437 -0.030052
endloop
endfacet
facet normal 0.608452 0.653112 -0.450811
outer loop
vertex 0.008055 0.040686 -0.030573
vertex 0.007711 0.043237 -0.027341
vertex 0.008055 0.043014 -0.027200
endloop
endfacet
facet normal 0.608450 0.653113 -0.450812
outer loop
vertex 0.007711 0.043237 -0.027341
vertex 0.008055 0.040686 -0.030573
vertex 0.007711 0.040897 -0.030732
endloop
endfacet
facet normal 0.608451 0.687271 -0.396795
outer loop
vertex 0.007711 0.045297 -0.023774
vertex 0.008055 0.045063 -0.023651
vertex 0.008055 0.043014 -0.027200
endloop
endfacet
facet normal 0.870780 0.425802 -0.245837
outer loop
vertex 0.019500 0.024877 -0.018074
vertex 0.008055 0.045063 -0.023651
vertex 0.019500 0.028092 -0.012507
endloop
endfacet
facet normal 0.870780 0.425802 -0.245837
outer loop
vertex 0.019500 0.024877 -0.018074
vertex 0.008055 0.043014 -0.027200
vertex 0.008055 0.045063 -0.023651
endloop
endfacet
facet normal 0.608444 0.063858 -0.791023
outer loop
vertex 0.007711 0.006166 -0.050783
vertex 0.008055 0.006134 -0.050522
vertex 0.008055 0.002049 -0.050852
endloop
endfacet
facet normal 0.608460 0.127300 -0.783308
outer loop
vertex 0.008055 0.010180 -0.049864
vertex 0.008055 0.006134 -0.050522
vertex 0.007711 0.006166 -0.050783
endloop
endfacet
facet normal 0.869108 0.039801 -0.493018
outer loop
vertex 0.019500 0.003214 -0.030582
vertex 0.008055 0.002049 -0.050852
vertex 0.008055 0.006134 -0.050522
endloop
endfacet
facet normal 0.869529 0.079224 -0.487486
outer loop
vertex 0.008055 0.006134 -0.050522
vertex 0.008055 0.010180 -0.049864
vertex 0.019500 0.003214 -0.030582
endloop
endfacet
facet normal 0.295914 -0.153227 -0.942845
outer loop
vertex 0.007711 -0.010233 -0.050122
vertex 0.005000 -0.010474 -0.050934
vertex 0.007711 -0.006166 -0.050783
endloop
endfacet
facet normal 0.238571 -0.116389 -0.964125
outer loop
vertex 0.005000 -0.001948 -0.051964
vertex 0.007711 -0.006166 -0.050783
vertex 0.005000 -0.010474 -0.050934
endloop
endfacet
facet normal 0.608460 -0.127300 -0.783308
outer loop
vertex 0.008055 -0.010180 -0.049864
vertex 0.007711 -0.006166 -0.050783
vertex 0.008055 -0.006134 -0.050522
endloop
endfacet
facet normal 0.608448 -0.127301 -0.783317
outer loop
vertex 0.007711 -0.006166 -0.050783
vertex 0.008055 -0.010180 -0.049864
vertex 0.007711 -0.010233 -0.050122
endloop
endfacet
facet normal 0.608449 -0.063858 -0.791019
outer loop
vertex 0.008055 -0.002049 -0.050852
vertex 0.008055 -0.006134 -0.050522
vertex 0.007711 -0.006166 -0.050783
endloop
endfacet
facet normal 0.608455 0.476741 0.634429
outer loop
vertex 0.007711 0.029060 0.042101
vertex 0.008055 0.028910 0.041884
vertex 0.007711 0.032354 0.039626
endloop
endfacet
facet normal 0.302719 0.509388 0.805534
outer loop
vertex 0.007711 0.025578 0.044303
vertex 0.007711 0.029060 0.042101
vertex 0.005000 0.026445 0.044774
endloop
endfacet
facet normal 0.608454 0.424148 0.670733
outer loop
vertex 0.008055 0.028910 0.041884
vertex 0.007711 0.029060 0.042101
vertex 0.008055 0.025446 0.044074
endloop
endfacet
facet normal 0.608445 0.424149 0.670740
outer loop
vertex 0.008055 0.025446 0.044074
vertex 0.007711 0.029060 0.042101
vertex 0.007711 0.025578 0.044303
endloop
endfacet
facet normal 0.285648 0.575713 0.766133
outer loop
vertex 0.007711 0.029060 0.042101
vertex 0.007711 0.032354 0.039626
vertex 0.005000 0.033454 0.039810
endloop
endfacet
facet normal 0.239817 0.561057 0.792277
outer loop
vertex 0.005000 0.026445 0.044774
vertex 0.007711 0.029060 0.042101
vertex 0.005000 0.033454 0.039810
endloop
endfacet
facet normal 0.300428 0.373860 0.877481
outer loop
vertex 0.007711 0.018140 0.047832
vertex 0.007711 0.021930 0.046217
vertex 0.005000 0.018715 0.048516
endloop
endfacet
facet normal 0.292806 0.302789 0.906964
outer loop
vertex 0.007711 0.014233 0.049137
vertex 0.007711 0.018140 0.047832
vertex 0.005000 0.018715 0.048516
endloop
endfacet
facet normal 0.608453 0.311060 0.730087
outer loop
vertex 0.007711 0.018140 0.047832
vertex 0.008055 0.021817 0.045979
vertex 0.007711 0.021930 0.046217
endloop
endfacet
facet normal 0.295915 0.153227 0.942845
outer loop
vertex 0.007711 0.006166 0.050783
vertex 0.007711 0.010233 0.050122
vertex 0.005000 0.010474 0.050934
endloop
endfacet
facet normal 0.297836 0.228455 0.926878
outer loop
vertex 0.007711 0.010233 0.050122
vertex 0.007711 0.014233 0.049137
vertex 0.005000 0.010474 0.050934
endloop
endfacet
facet normal 0.301208 -0.152961 0.941210
outer loop
vertex 0.007711 -0.010233 0.050122
vertex 0.007711 -0.006166 0.050783
vertex 0.005000 -0.006632 0.051575
endloop
endfacet
facet normal 0.869108 -0.039801 0.493018
outer loop
vertex 0.019500 -0.003214 0.030582
vertex 0.008055 -0.002049 0.050852
vertex 0.008055 -0.006134 0.050522
endloop
endfacet
facet normal 0.608444 -0.063858 0.791023
outer loop
vertex 0.008055 -0.006134 0.050522
vertex 0.008055 -0.002049 0.050852
vertex 0.007711 -0.006166 0.050783
endloop
endfacet
facet normal 0.871053 0.488498 -0.051344
outer loop
vertex 0.019500 0.030078 -0.006393
vertex 0.008055 0.050728 -0.004095
vertex 0.019500 0.030750 0.000000
endloop
endfacet
facet normal 0.608452 0.653112 0.450811
outer loop
vertex 0.008055 0.040686 0.030573
vertex 0.008055 0.043014 0.027200
vertex 0.007711 0.043237 0.027341
endloop
endfacet
facet normal 0.608450 0.653113 0.450812
outer loop
vertex 0.007711 0.043237 0.027341
vertex 0.007711 0.040897 0.030732
vertex 0.008055 0.040686 0.030573
endloop
endfacet
facet normal 0.277225 0.790727 0.545800
outer loop
vertex 0.007711 0.040897 0.030732
vertex 0.007711 0.043237 0.027341
vertex 0.005000 0.044567 0.026791
endloop
endfacet
facet normal 0.608452 0.687269 0.396797
outer loop
vertex 0.007711 0.045297 0.023774
vertex 0.007711 0.043237 0.027341
vertex 0.008055 0.043014 0.027200
endloop
endfacet
facet normal 0.307775 0.823988 0.475728
outer loop
vertex 0.005000 0.044567 0.026791
vertex 0.007711 0.043237 0.027341
vertex 0.007711 0.045297 0.023774
endloop
endfacet
facet normal 0.608461 -0.189918 0.770524
outer loop
vertex 0.008055 -0.014159 0.048883
vertex 0.008055 -0.010180 0.049864
vertex 0.007711 -0.010233 0.050122
endloop
endfacet
facet normal 0.608448 -0.127301 0.783317
outer loop
vertex 0.007711 -0.006166 0.050783
vertex 0.007711 -0.010233 0.050122
vertex 0.008055 -0.010180 0.049864
endloop
endfacet
facet normal 0.608465 -0.127300 0.783304
outer loop
vertex 0.007711 -0.006166 0.050783
vertex 0.008055 -0.010180 0.049864
vertex 0.008055 -0.006134 0.050522
endloop
endfacet
facet normal 0.869529 -0.079224 0.487486
outer loop
vertex 0.008055 -0.006134 0.050522
vertex 0.008055 -0.010180 0.049864
vertex 0.019500 -0.003214 0.030582
endloop
endfacet
facet normal 0.871190 -0.102073 0.480218
outer loop
vertex 0.019500 -0.003214 0.030582
vertex 0.008055 -0.010180 0.049864
vertex 0.019500 -0.009502 0.029245
endloop
endfacet
facet normal 0.869864 -0.118052 0.478957
outer loop
vertex 0.019500 -0.009502 0.029245
vertex 0.008055 -0.010180 0.049864
vertex 0.008055 -0.014159 0.048883
endloop
endfacet
facet normal 0.608449 0.572342 -0.549740
outer loop
vertex 0.008055 0.038094 -0.033748
vertex 0.008055 0.035255 -0.036704
vertex 0.007711 0.038291 -0.033923
endloop
endfacet
facet normal 0.608448 0.572341 -0.549743
outer loop
vertex 0.007711 0.038291 -0.033923
vertex 0.008055 0.035255 -0.036704
vertex 0.007711 0.035437 -0.036894
endloop
endfacet
facet normal 0.869865 0.355762 -0.341714
outer loop
vertex 0.008055 0.038094 -0.033748
vertex 0.019500 0.020576 -0.022852
vertex 0.008055 0.035255 -0.036704
endloop
endfacet
facet normal 0.869024 0.328093 -0.370341
outer loop
vertex 0.008055 0.032187 -0.039422
vertex 0.008055 0.035255 -0.036704
vertex 0.019500 0.020576 -0.022852
endloop
endfacet
facet normal 0.608449 0.526251 -0.594012
outer loop
vertex 0.007711 0.032354 -0.039626
vertex 0.008055 0.035255 -0.036704
vertex 0.008055 0.032187 -0.039422
endloop
endfacet
facet normal 0.608449 0.526250 -0.594013
outer loop
vertex 0.007711 0.035437 -0.036894
vertex 0.008055 0.035255 -0.036704
vertex 0.007711 0.032354 -0.039626
endloop
endfacet
facet normal 0.298715 0.000000 -0.954342
outer loop
vertex 0.007711 0.002060 -0.051115
vertex 0.007711 -0.002060 -0.051115
vertex 0.005000 -0.001948 -0.051964
endloop
endfacet
facet normal 0.294933 -0.076887 -0.952420
outer loop
vertex 0.007711 -0.002060 -0.051115
vertex 0.007711 -0.006166 -0.050783
vertex 0.005000 -0.001948 -0.051964
endloop
endfacet
facet normal 0.608456 -0.063857 -0.791015
outer loop
vertex 0.007711 -0.006166 -0.050783
vertex 0.007711 -0.002060 -0.051115
vertex 0.008055 -0.002049 -0.050852
endloop
endfacet
facet normal 0.608445 0.742024 -0.281415
outer loop
vertex 0.007711 0.048524 -0.016200
vertex 0.008055 0.046820 -0.019948
vertex 0.007711 0.047063 -0.020052
endloop
endfacet
facet normal 0.608454 0.742019 -0.281410
outer loop
vertex 0.008055 0.048274 -0.016116
vertex 0.008055 0.046820 -0.019948
vertex 0.007711 0.048524 -0.016200
endloop
endfacet
facet normal 0.869529 0.461787 -0.175133
outer loop
vertex 0.008055 0.046820 -0.019948
vertex 0.008055 0.048274 -0.016116
vertex 0.019500 0.028092 -0.012507
endloop
endfacet
facet normal 0.608449 0.716972 -0.340208
outer loop
vertex 0.007711 0.045297 -0.023774
vertex 0.007711 0.047063 -0.020052
vertex 0.008055 0.046820 -0.019948
endloop
endfacet
facet normal 0.608453 0.716969 -0.340206
outer loop
vertex 0.008055 0.045063 -0.023651
vertex 0.007711 0.045297 -0.023774
vertex 0.008055 0.046820 -0.019948
endloop
endfacet
facet normal 0.869108 0.446866 -0.212041
outer loop
vertex 0.008055 0.045063 -0.023651
vertex 0.008055 0.046820 -0.019948
vertex 0.019500 0.028092 -0.012507
endloop
endfacet
facet normal 0.608454 0.311062 0.730085
outer loop
vertex 0.007711 0.018140 0.047832
vertex 0.008055 0.018047 0.047586
vertex 0.008055 0.021817 0.045979
endloop
endfacet
facet normal 0.870281 0.193065 0.453140
outer loop
vertex 0.008055 0.021817 0.045979
vertex 0.008055 0.018047 0.047586
vertex 0.019500 0.009502 0.029245
endloop
endfacet
facet normal 0.608455 0.251304 0.752748
outer loop
vertex 0.007711 0.018140 0.047832
vertex 0.007711 0.014233 0.049137
vertex 0.008055 0.018047 0.047586
endloop
endfacet
facet normal 0.608465 0.127300 0.783304
outer loop
vertex 0.008055 0.006134 0.050522
vertex 0.008055 0.010180 0.049864
vertex 0.007711 0.006166 0.050783
endloop
endfacet
facet normal 0.608444 0.127301 0.783320
outer loop
vertex 0.007711 0.010233 0.050122
vertex 0.007711 0.006166 0.050783
vertex 0.008055 0.010180 0.049864
endloop
endfacet
facet normal 0.869529 0.079224 0.487486
outer loop
vertex 0.019500 0.003214 0.030582
vertex 0.008055 0.010180 0.049864
vertex 0.008055 0.006134 0.050522
endloop
endfacet
facet normal 0.871190 0.102073 0.480218
outer loop
vertex 0.019500 0.009502 0.029245
vertex 0.008055 0.010180 0.049864
vertex 0.019500 0.003214 0.030582
endloop
endfacet
facet normal 0.294933 0.076887 0.952420
outer loop
vertex 0.007711 0.002060 0.051115
vertex 0.007711 0.006166 0.050783
vertex 0.005000 0.001948 0.051964
endloop
endfacet
facet normal 0.869277 0.493924 0.019904
outer loop
vertex 0.008055 0.050893 0.000000
vertex 0.008055 0.050728 0.004095
vertex 0.019500 0.030750 0.000000
endloop
endfacet
facet normal 0.869277 0.493924 -0.019904
outer loop
vertex 0.008055 0.050728 -0.004095
vertex 0.008055 0.050893 0.000000
vertex 0.019500 0.030750 0.000000
endloop
endfacet
facet normal 0.608449 0.792950 0.031955
outer loop
vertex 0.008055 0.050728 0.004095
vertex 0.008055 0.050893 0.000000
vertex 0.007711 0.050990 0.004116
endloop
endfacet
facet normal 0.608452 0.792947 0.031954
outer loop
vertex 0.007711 0.051156 0.000000
vertex 0.007711 0.050990 0.004116
vertex 0.008055 0.050893 0.000000
endloop
endfacet
facet normal 0.608452 0.792947 -0.031954
outer loop
vertex 0.007711 0.050990 -0.004116
vertex 0.007711 0.051156 0.000000
vertex 0.008055 0.050893 0.000000
endloop
endfacet
facet normal 0.608449 0.792950 -0.031955
outer loop
vertex 0.008055 0.050728 -0.004095
vertex 0.007711 0.050990 -0.004116
vertex 0.008055 0.050893 0.000000
endloop
endfacet
facet normal 0.869024 0.484771 -0.098967
outer loop
vertex 0.008055 0.049414 -0.012179
vertex 0.008055 0.050234 -0.008164
vertex 0.019500 0.030078 -0.006393
endloop
endfacet
facet normal 0.870282 0.488963 -0.059371
outer loop
vertex 0.008055 0.050234 -0.008164
vertex 0.008055 0.050728 -0.004095
vertex 0.019500 0.030078 -0.006393
endloop
endfacet
facet normal 0.608451 0.777554 -0.158738
outer loop
vertex 0.007711 0.049670 -0.012243
vertex 0.008055 0.050234 -0.008164
vertex 0.008055 0.049414 -0.012179
endloop
endfacet
facet normal 0.608452 0.777552 -0.158739
outer loop
vertex 0.007711 0.050494 -0.008206
vertex 0.008055 0.050234 -0.008164
vertex 0.007711 0.049670 -0.012243
endloop
endfacet
facet normal 0.608451 0.787805 -0.095657
outer loop
vertex 0.007711 0.050494 -0.008206
vertex 0.007711 0.050990 -0.004116
vertex 0.008055 0.050234 -0.008164
endloop
endfacet
facet normal 0.608452 0.787805 -0.095658
outer loop
vertex 0.008055 0.050728 -0.004095
vertex 0.008055 0.050234 -0.008164
vertex 0.007711 0.050990 -0.004116
endloop
endfacet
facet normal 0.608438 0.189921 0.770541
outer loop
vertex 0.007711 0.010233 0.050122
vertex 0.008055 0.014159 0.048883
vertex 0.007711 0.014233 0.049137
endloop
endfacet
facet normal 0.608465 0.189917 0.770521
outer loop
vertex 0.008055 0.010180 0.049864
vertex 0.008055 0.014159 0.048883
vertex 0.007711 0.010233 0.050122
endloop
endfacet
facet normal 0.608440 0.251308 0.752759
outer loop
vertex 0.008055 0.018047 0.047586
vertex 0.007711 0.014233 0.049137
vertex 0.008055 0.014159 0.048883
endloop
endfacet
facet normal 0.869864 0.118052 0.478957
outer loop
vertex 0.008055 0.014159 0.048883
vertex 0.008055 0.010180 0.049864
vertex 0.019500 0.009502 0.029245
endloop
endfacet
facet normal 0.869024 0.156678 0.469307
outer loop
vertex 0.008055 0.018047 0.047586
vertex 0.008055 0.014159 0.048883
vertex 0.019500 0.009502 0.029245
endloop
endfacet
facet normal 0.608454 -0.063857 0.791015
outer loop
vertex 0.008055 -0.002049 0.050852
vertex 0.007711 -0.002060 0.051115
vertex 0.007711 -0.006166 0.050783
endloop
endfacet
facet normal 0.298715 0.000000 0.954342
outer loop
vertex 0.007711 -0.002060 0.051115
vertex 0.007711 0.002060 0.051115
vertex 0.005000 0.001948 0.051964
endloop
endfacet
facet normal 0.291725 -0.076966 0.953400
outer loop
vertex 0.007711 -0.006166 0.050783
vertex 0.007711 -0.002060 0.051115
vertex 0.005000 -0.006632 0.051575
endloop
endfacet
facet normal 0.238778 -0.043886 0.970082
outer loop
vertex 0.005000 -0.006632 0.051575
vertex 0.007711 -0.002060 0.051115
vertex 0.005000 0.001948 0.051964
endloop
endfacet
facet normal 0.608444 0.063858 0.791023
outer loop
vertex 0.007711 0.006166 0.050783
vertex 0.008055 0.002049 0.050852
vertex 0.008055 0.006134 0.050522
endloop
endfacet
facet normal 0.608454 0.063857 0.791015
outer loop
vertex 0.007711 0.002060 0.051115
vertex 0.008055 0.002049 0.050852
vertex 0.007711 0.006166 0.050783
endloop
endfacet
facet normal 0.869108 0.039801 0.493018
outer loop
vertex 0.008055 0.006134 0.050522
vertex 0.008055 0.002049 0.050852
vertex 0.019500 0.003214 0.030582
endloop
endfacet
facet normal 0.000000 0.765581 -0.643340
outer loop
vertex 0.005000 0.042437 -0.030052
vertex -0.023000 0.036912 -0.036627
vertex -0.023000 0.042437 -0.030052
endloop
endfacet
facet normal 0.000000 0.765581 -0.643340
outer loop
vertex 0.005000 0.036912 -0.036627
vertex -0.023000 0.036912 -0.036627
vertex 0.005000 0.042437 -0.030052
endloop
endfacet
facet normal 0.000000 0.979504 -0.201424
outer loop
vertex -0.023000 0.051625 -0.006232
vertex 0.005000 0.049895 -0.014644
vertex -0.023000 0.049895 -0.014644
endloop
endfacet
facet normal 0.000000 0.979504 -0.201425
outer loop
vertex 0.005000 0.051625 -0.006232
vertex 0.005000 0.049895 -0.014644
vertex -0.023000 0.051625 -0.006232
endloop
endfacet
facet normal 0.000000 0.577922 0.816092
outer loop
vertex 0.005000 0.033454 0.039810
vertex -0.023000 0.033454 0.039810
vertex -0.023000 0.026445 0.044774
endloop
endfacet
facet normal 0.000000 0.577922 0.816092
outer loop
vertex 0.005000 0.033454 0.039810
vertex -0.023000 0.026445 0.044774
vertex 0.005000 0.026445 0.044774
endloop
endfacet
facet normal 0.000000 0.999298 -0.037457
outer loop
vertex -0.023000 0.051947 0.002350
vertex 0.005000 0.051947 0.002350
vertex -0.023000 0.051625 -0.006232
endloop
endfacet
facet normal 0.000000 0.999298 -0.037457
outer loop
vertex -0.023000 0.051625 -0.006232
vertex 0.005000 0.051947 0.002350
vertex 0.005000 0.051625 -0.006232
endloop
endfacet
facet normal 0.000000 0.991834 0.127535
outer loop
vertex -0.023000 0.050852 0.010868
vertex 0.005000 0.051947 0.002350
vertex -0.023000 0.051947 0.002350
endloop
endfacet
facet normal 0.000000 0.991834 0.127533
outer loop
vertex 0.005000 0.051947 0.002350
vertex -0.023000 0.050852 0.010868
vertex 0.005000 0.050852 0.010868
endloop
endfacet
facet normal 0.000000 -0.435715 -0.900085
outer loop
vertex -0.023000 -0.018715 -0.048516
vertex 0.005000 -0.026445 -0.044774
vertex -0.023000 -0.026445 -0.044774
endloop
endfacet
facet normal 0.000000 -0.435715 -0.900085
outer loop
vertex 0.005000 -0.026445 -0.044774
vertex -0.023000 -0.018715 -0.048516
vertex 0.005000 -0.018715 -0.048516
endloop
endfacet
facet normal 0.000000 -0.811593 -0.584223
outer loop
vertex 0.005000 -0.044567 -0.026791
vertex -0.023000 -0.044567 -0.026791
vertex -0.023000 -0.039550 -0.033761
endloop
endfacet
facet normal 0.000000 -0.811593 -0.584223
outer loop
vertex 0.005000 -0.044567 -0.026791
vertex -0.023000 -0.039550 -0.033761
vertex 0.005000 -0.039550 -0.033761
endloop
endfacet
facet normal 0.000000 -0.991834 -0.127535
outer loop
vertex -0.023000 -0.050852 -0.010868
vertex 0.005000 -0.051947 -0.002350
vertex -0.023000 -0.051947 -0.002350
endloop
endfacet
facet normal 0.000000 -0.991834 -0.127533
outer loop
vertex 0.005000 -0.050852 -0.010868
vertex 0.005000 -0.051947 -0.002350
vertex -0.023000 -0.050852 -0.010868
endloop
endfacet
facet normal 0.000000 -0.861029 0.508556
outer loop
vertex -0.023000 -0.046804 0.022657
vertex 0.005000 -0.046804 0.022657
vertex -0.023000 -0.042437 0.030052
endloop
endfacet
facet normal 0.000000 -0.861030 0.508555
outer loop
vertex 0.005000 -0.042437 0.030052
vertex -0.023000 -0.042437 0.030052
vertex 0.005000 -0.046804 0.022657
endloop
endfacet
facet normal 0.000000 0.649249 -0.760576
outer loop
vertex -0.023000 0.036912 -0.036627
vertex 0.005000 0.030380 -0.042203
vertex -0.023000 0.030380 -0.042203
endloop
endfacet
facet normal 0.000000 0.649248 -0.760577
outer loop
vertex 0.005000 0.030380 -0.042203
vertex -0.023000 0.036912 -0.036627
vertex 0.005000 0.036912 -0.036627
endloop
endfacet
facet normal 0.000000 0.515207 -0.857066
outer loop
vertex -0.023000 0.030380 -0.042203
vertex 0.005000 0.030380 -0.042203
vertex -0.023000 0.023019 -0.046628
endloop
endfacet
facet normal 0.000000 0.515207 -0.857066
outer loop
vertex -0.023000 0.023019 -0.046628
vertex 0.005000 0.030380 -0.042203
vertex 0.005000 0.023019 -0.046628
endloop
endfacet
facet normal 0.000000 0.861030 -0.508555
outer loop
vertex 0.005000 0.042437 -0.030052
vertex -0.023000 0.042437 -0.030052
vertex 0.005000 0.046804 -0.022657
endloop
endfacet
facet normal 0.000000 0.861029 -0.508556
outer loop
vertex -0.023000 0.046804 -0.022657
vertex 0.005000 0.046804 -0.022657
vertex -0.023000 0.042437 -0.030052
endloop
endfacet
facet normal 0.000000 0.932991 -0.359899
outer loop
vertex -0.023000 0.049895 -0.014644
vertex 0.005000 0.046804 -0.022657
vertex -0.023000 0.046804 -0.022657
endloop
endfacet
facet normal 0.000000 0.932992 -0.359898
outer loop
vertex 0.005000 0.049895 -0.014644
vertex 0.005000 0.046804 -0.022657
vertex -0.023000 0.049895 -0.014644
endloop
endfacet
facet normal 0.000000 0.367112 -0.930177
outer loop
vertex -0.023000 0.023019 -0.046628
vertex 0.005000 0.015030 -0.049780
vertex -0.023000 0.015030 -0.049780
endloop
endfacet
facet normal 0.000000 0.367112 -0.930177
outer loop
vertex -0.023000 0.023019 -0.046628
vertex 0.005000 0.023019 -0.046628
vertex 0.005000 0.015030 -0.049780
endloop
endfacet
facet normal 0.000000 0.209003 -0.977915
outer loop
vertex -0.023000 0.006632 -0.051575
vertex -0.023000 0.015030 -0.049780
vertex 0.005000 0.015030 -0.049780
endloop
endfacet
facet normal 0.000000 0.209003 -0.977915
outer loop
vertex -0.023000 0.006632 -0.051575
vertex 0.005000 0.015030 -0.049780
vertex 0.005000 0.006632 -0.051575
endloop
endfacet
facet normal 0.000000 -0.281624 -0.959525
outer loop
vertex -0.023000 -0.018715 -0.048516
vertex -0.023000 -0.010474 -0.050934
vertex 0.005000 -0.010474 -0.050934
endloop
endfacet
facet normal 0.000000 -0.281624 -0.959525
outer loop
vertex -0.023000 -0.018715 -0.048516
vertex 0.005000 -0.010474 -0.050934
vertex 0.005000 -0.018715 -0.048516
endloop
endfacet
facet normal 0.000000 0.119850 0.992792
outer loop
vertex -0.023000 0.001948 0.051964
vertex 0.005000 0.010474 0.050934
vertex -0.023000 0.010474 0.050934
endloop
endfacet
facet normal 0.000000 0.119850 0.992792
outer loop
vertex 0.005000 0.001948 0.051964
vertex 0.005000 0.010474 0.050934
vertex -0.023000 0.001948 0.051964
endloop
endfacet
facet normal 0.000000 -0.045193 0.998978
outer loop
vertex 0.005000 0.001948 0.051964
vertex -0.023000 0.001948 0.051964
vertex -0.023000 -0.006632 0.051575
endloop
endfacet
facet normal 0.000000 -0.045193 0.998978
outer loop
vertex -0.023000 -0.006632 0.051575
vertex 0.005000 -0.006632 0.051575
vertex 0.005000 0.001948 0.051964
endloop
endfacet
facet normal 0.000000 -0.367112 0.930177
outer loop
vertex -0.023000 -0.023019 0.046628
vertex 0.005000 -0.015030 0.049780
vertex -0.023000 -0.015030 0.049780
endloop
endfacet
facet normal 0.000000 -0.367112 0.930177
outer loop
vertex 0.005000 -0.023019 0.046628
vertex 0.005000 -0.015030 0.049780
vertex -0.023000 -0.023019 0.046628
endloop
endfacet
facet normal 0.000000 -0.209003 0.977915
outer loop
vertex -0.023000 -0.015030 0.049780
vertex 0.005000 -0.015030 0.049780
vertex -0.023000 -0.006632 0.051575
endloop
endfacet
facet normal 0.000000 -0.209003 0.977915
outer loop
vertex -0.023000 -0.006632 0.051575
vertex 0.005000 -0.015030 0.049780
vertex 0.005000 -0.006632 0.051575
endloop
endfacet
facet normal 0.000000 -0.704364 -0.709839
outer loop
vertex -0.023000 -0.039550 -0.033761
vertex -0.023000 -0.033454 -0.039810
vertex 0.005000 -0.033454 -0.039810
endloop
endfacet
facet normal 0.000000 -0.704364 -0.709839
outer loop
vertex -0.023000 -0.039550 -0.033761
vertex 0.005000 -0.033454 -0.039810
vertex 0.005000 -0.039550 -0.033761
endloop
endfacet
facet normal 0.000000 -0.577922 -0.816092
outer loop
vertex -0.023000 -0.033454 -0.039810
vertex -0.023000 -0.026445 -0.044774
vertex 0.005000 -0.033454 -0.039810
endloop
endfacet
facet normal 0.000000 -0.577922 -0.816092
outer loop
vertex 0.005000 -0.026445 -0.044774
vertex 0.005000 -0.033454 -0.039810
vertex -0.023000 -0.026445 -0.044774
endloop
endfacet
facet normal 0.000000 -0.515207 0.857066
outer loop
vertex -0.023000 -0.023019 0.046628
vertex -0.023000 -0.030380 0.042203
vertex 0.005000 -0.023019 0.046628
endloop
endfacet
facet normal 0.000000 -0.515207 0.857066
outer loop
vertex -0.023000 -0.030380 0.042203
vertex 0.005000 -0.030380 0.042203
vertex 0.005000 -0.023019 0.046628
endloop
endfacet
facet normal 0.000000 -0.765581 0.643340
outer loop
vertex -0.023000 -0.042437 0.030052
vertex 0.005000 -0.036912 0.036627
vertex -0.023000 -0.036912 0.036627
endloop
endfacet
facet normal 0.000000 -0.765581 0.643340
outer loop
vertex 0.005000 -0.042437 0.030052
vertex 0.005000 -0.036912 0.036627
vertex -0.023000 -0.042437 0.030052
endloop
endfacet
facet normal 0.000000 -0.649248 0.760577
outer loop
vertex -0.023000 -0.036912 0.036627
vertex 0.005000 -0.036912 0.036627
vertex -0.023000 -0.030380 0.042203
endloop
endfacet
facet normal 0.000000 -0.649249 0.760576
outer loop
vertex -0.023000 -0.030380 0.042203
vertex 0.005000 -0.036912 0.036627
vertex 0.005000 -0.030380 0.042203
endloop
endfacet
facet normal 0.000000 -0.957316 -0.289044
outer loop
vertex -0.023000 -0.050852 -0.010868
vertex -0.023000 -0.048369 -0.019090
vertex 0.005000 -0.048369 -0.019090
endloop
endfacet
facet normal 0.000000 -0.957316 -0.289044
outer loop
vertex -0.023000 -0.050852 -0.010868
vertex 0.005000 -0.048369 -0.019090
vertex 0.005000 -0.050852 -0.010868
endloop
endfacet
facet normal 0.000000 -0.896683 -0.442672
outer loop
vertex -0.023000 -0.048369 -0.019090
vertex -0.023000 -0.044567 -0.026791
vertex 0.005000 -0.048369 -0.019090
endloop
endfacet
facet normal 0.000000 -0.896684 -0.442672
outer loop
vertex 0.005000 -0.044567 -0.026791
vertex 0.005000 -0.048369 -0.019090
vertex -0.023000 -0.044567 -0.026791
endloop
endfacet
facet normal 0.000000 0.045193 -0.998978
outer loop
vertex -0.023000 0.006632 -0.051575
vertex 0.005000 -0.001948 -0.051964
vertex -0.023000 -0.001948 -0.051964
endloop
endfacet
facet normal 0.000000 0.045193 -0.998978
outer loop
vertex -0.023000 0.006632 -0.051575
vertex 0.005000 0.006632 -0.051575
vertex 0.005000 -0.001948 -0.051964
endloop
endfacet
facet normal 0.000000 -0.119850 -0.992792
outer loop
vertex -0.023000 -0.001948 -0.051964
vertex 0.005000 -0.001948 -0.051964
vertex -0.023000 -0.010474 -0.050934
endloop
endfacet
facet normal 0.000000 -0.119850 -0.992792
outer loop
vertex 0.005000 -0.010474 -0.050934
vertex -0.023000 -0.010474 -0.050934
vertex 0.005000 -0.001948 -0.051964
endloop
endfacet
facet normal 0.000000 0.435715 0.900085
outer loop
vertex -0.023000 0.018715 0.048516
vertex 0.005000 0.018715 0.048516
vertex -0.023000 0.026445 0.044774
endloop
endfacet
facet normal 0.000000 0.435715 0.900085
outer loop
vertex -0.023000 0.026445 0.044774
vertex 0.005000 0.018715 0.048516
vertex 0.005000 0.026445 0.044774
endloop
endfacet
facet normal 0.000000 0.281624 0.959525
outer loop
vertex -0.023000 0.010474 0.050934
vertex 0.005000 0.018715 0.048516
vertex -0.023000 0.018715 0.048516
endloop
endfacet
facet normal 0.000000 0.281624 0.959525
outer loop
vertex 0.005000 0.010474 0.050934
vertex 0.005000 0.018715 0.048516
vertex -0.023000 0.010474 0.050934
endloop
endfacet
facet normal 0.000000 0.704364 0.709839
outer loop
vertex 0.005000 0.033454 0.039810
vertex 0.005000 0.039550 0.033761
vertex -0.023000 0.033454 0.039810
endloop
endfacet
facet normal 0.000000 0.704364 0.709839
outer loop
vertex -0.023000 0.033454 0.039810
vertex 0.005000 0.039550 0.033761
vertex -0.023000 0.039550 0.033761
endloop
endfacet
facet normal 0.000000 0.957316 0.289044
outer loop
vertex -0.023000 0.048369 0.019090
vertex 0.005000 0.048369 0.019090
vertex -0.023000 0.050852 0.010868
endloop
endfacet
facet normal 0.000000 0.957316 0.289044
outer loop
vertex -0.023000 0.050852 0.010868
vertex 0.005000 0.048369 0.019090
vertex 0.005000 0.050852 0.010868
endloop
endfacet
facet normal -1.000000 0.000000 0.000000
outer loop
vertex -0.023000 0.051625 -0.006232
vertex -0.023000 0.049895 -0.014644
vertex -0.023000 -0.049895 0.014644
endloop
endfacet
facet normal -1.000000 -0.000001 0.000000
outer loop
vertex -0.023000 -0.018715 -0.048516
vertex -0.023000 -0.049895 0.014644
vertex -0.023000 -0.010474 -0.050934
endloop
endfacet
facet normal -1.000000 0.000000 0.000000
outer loop
vertex -0.023000 0.050852 0.010868
vertex -0.023000 -0.049895 0.014644
vertex -0.023000 0.048369 0.019090
endloop
endfacet
facet normal -1.000000 0.000000 0.000000
outer loop
vertex -0.023000 0.036912 -0.036627
vertex -0.023000 0.030380 -0.042203
vertex -0.023000 -0.049895 0.014644
endloop
endfacet
facet normal -1.000000 0.000000 0.000000
outer loop
vertex -0.023000 0.026445 0.044774
vertex -0.023000 -0.049895 0.014644
vertex -0.023000 0.018715 0.048516
endloop
endfacet
facet normal -1.000000 -0.000001 0.000000
outer loop
vertex -0.023000 -0.048369 -0.019090
vertex -0.023000 -0.049895 0.014644
vertex -0.023000 -0.044567 -0.026791
endloop
endfacet
facet normal -1.000000 0.000000 0.000000
outer loop
vertex -0.023000 -0.010474 -0.050934
vertex -0.023000 -0.049895 0.014644
vertex -0.023000 -0.001948 -0.051964
endloop
endfacet
facet normal -1.000000 0.000000 0.000000
outer loop
vertex -0.023000 -0.042437 0.030052
vertex -0.023000 -0.049895 0.014644
vertex -0.023000 -0.046804 0.022657
endloop
endfacet
facet normal -1.000000 0.000000 0.000000
outer loop
vertex -0.023000 -0.023019 0.046628
vertex -0.023000 -0.015030 0.049780
vertex -0.023000 -0.049895 0.014644
endloop
endfacet
facet normal -1.000000 0.000000 0.000000
outer loop
vertex -0.023000 -0.001948 -0.051964
vertex -0.023000 -0.049895 0.014644
vertex -0.023000 0.006632 -0.051575
endloop
endfacet
facet normal -1.000000 0.000000 0.000000
outer loop
vertex -0.023000 0.046804 -0.022657
vertex -0.023000 -0.049895 0.014644
vertex -0.023000 0.049895 -0.014644
endloop
endfacet
facet normal -1.000000 0.000000 0.000000
outer loop
vertex -0.023000 -0.030380 0.042203
vertex -0.023000 -0.023019 0.046628
vertex -0.023000 -0.049895 0.014644
endloop
endfacet
facet normal -1.000000 0.000000 0.000000
outer loop
vertex -0.023000 0.010474 0.050934
vertex -0.023000 0.018715 0.048516
vertex -0.023000 -0.049895 0.014644
endloop
endfacet
facet normal -1.000000 0.000000 0.000000
outer loop
vertex -0.023000 -0.033454 -0.039810
vertex -0.023000 -0.049895 0.014644
vertex -0.023000 -0.026445 -0.044774
endloop
endfacet
facet normal -1.000000 0.000000 0.000000
outer loop
vertex -0.023000 -0.042437 0.030052
vertex -0.023000 -0.036912 0.036627
vertex -0.023000 -0.049895 0.014644
endloop
endfacet
facet normal -1.000000 0.000000 0.000000
outer loop
vertex -0.023000 -0.039550 -0.033761
vertex -0.023000 -0.049895 0.014644
vertex -0.023000 -0.033454 -0.039810
endloop
endfacet
facet normal -1.000000 0.000000 0.000000
outer loop
vertex -0.023000 -0.050852 -0.010868
vertex -0.023000 -0.049895 0.014644
vertex -0.023000 -0.048369 -0.019090
endloop
endfacet
facet normal -1.000000 0.000000 0.000000
outer loop
vertex -0.023000 0.023019 -0.046628
vertex -0.023000 -0.049895 0.014644
vertex -0.023000 0.030380 -0.042203
endloop
endfacet
facet normal -1.000000 0.000000 0.000000
outer loop
vertex -0.023000 -0.006632 0.051575
vertex -0.023000 -0.049895 0.014644
vertex -0.023000 -0.015030 0.049780
endloop
endfacet
facet normal -1.000000 0.000000 0.000000
outer loop
vertex -0.023000 0.044567 0.026791
vertex -0.023000 -0.049895 0.014644
vertex -0.023000 0.039550 0.033761
endloop
endfacet
facet normal -1.000000 -0.000005 0.000000
outer loop
vertex -0.023000 -0.051625 0.006232
vertex -0.023000 -0.049895 0.014644
vertex -0.023000 -0.051947 -0.002350
endloop
endfacet
facet normal -1.000000 0.000000 0.000000
outer loop
vertex -0.023000 0.036912 -0.036627
vertex -0.023000 -0.049895 0.014644
vertex -0.023000 0.042437 -0.030052
endloop
endfacet
facet normal -1.000000 0.000000 0.000000
outer loop
vertex -0.023000 0.046804 -0.022657
vertex -0.023000 0.042437 -0.030052
vertex -0.023000 -0.049895 0.014644
endloop
endfacet
facet normal -1.000000 0.000000 0.000000
outer loop
vertex -0.023000 0.051625 -0.006232
vertex -0.023000 -0.049895 0.014644
vertex -0.023000 0.051947 0.002350
endloop
endfacet
facet normal -1.000000 0.000001 0.000000
outer loop
vertex -0.023000 -0.018715 -0.048516
vertex -0.023000 -0.026445 -0.044774
vertex -0.023000 -0.049895 0.014644
endloop
endfacet
facet normal -1.000000 -0.000000 0.000000
outer loop
vertex -0.023000 0.026445 0.044774
vertex -0.023000 0.033454 0.039810
vertex -0.023000 -0.049895 0.014644
endloop
endfacet
facet normal -1.000000 0.000000 0.000000
outer loop
vertex -0.023000 0.039550 0.033761
vertex -0.023000 -0.049895 0.014644
vertex -0.023000 0.033454 0.039810
endloop
endfacet
facet normal -1.000000 0.000000 0.000000
outer loop
vertex -0.023000 0.010474 0.050934
vertex -0.023000 -0.049895 0.014644
vertex -0.023000 0.001948 0.051964
endloop
endfacet
facet normal -1.000000 -0.000000 0.000000
outer loop
vertex -0.023000 0.050852 0.010868
vertex -0.023000 0.051947 0.002350
vertex -0.023000 -0.049895 0.014644
endloop
endfacet
facet normal -1.000000 0.000000 0.000000
outer loop
vertex -0.023000 -0.049895 0.014644
vertex -0.023000 -0.039550 -0.033761
vertex -0.023000 -0.044567 -0.026791
endloop
endfacet
facet normal -1.000000 0.000002 0.000000
outer loop
vertex -0.023000 -0.050852 -0.010868
vertex -0.023000 -0.051947 -0.002350
vertex -0.023000 -0.049895 0.014644
endloop
endfacet
facet normal -1.000000 0.000000 0.000000
outer loop
vertex -0.023000 0.015030 -0.049780
vertex -0.023000 -0.049895 0.014644
vertex -0.023000 0.023019 -0.046628
endloop
endfacet
facet normal -1.000000 0.000000 0.000000
outer loop
vertex -0.023000 0.006632 -0.051575
vertex -0.023000 -0.049895 0.014644
vertex -0.023000 0.015030 -0.049780
endloop
endfacet
facet normal -1.000000 0.000000 0.000000
outer loop
vertex -0.023000 -0.006632 0.051575
vertex -0.023000 0.001948 0.051964
vertex -0.023000 -0.049895 0.014644
endloop
endfacet
facet normal -1.000000 0.000000 0.000000
outer loop
vertex -0.023000 0.044567 0.026791
vertex -0.023000 0.048369 0.019090
vertex -0.023000 -0.049895 0.014644
endloop
endfacet
facet normal -1.000000 0.000000 0.000000
outer loop
vertex -0.023000 -0.030380 0.042203
vertex -0.023000 -0.049895 0.014644
vertex -0.023000 -0.036912 0.036627
endloop
endfacet
facet normal 0.000000 -0.932991 0.359899
outer loop
vertex 0.005000 -0.046804 0.022657
vertex -0.023000 -0.046804 0.022657
vertex -0.023000 -0.049895 0.014644
endloop
endfacet
facet normal 0.000000 -0.932992 0.359898
outer loop
vertex 0.005000 -0.046804 0.022657
vertex -0.023000 -0.049895 0.014644
vertex 0.005000 -0.049895 0.014644
endloop
endfacet
facet normal 0.000000 -0.999298 0.037457
outer loop
vertex 0.005000 -0.051625 0.006232
vertex -0.023000 -0.051625 0.006232
vertex -0.023000 -0.051947 -0.002350
endloop
endfacet
facet normal 0.000000 -0.999298 0.037457
outer loop
vertex 0.005000 -0.051947 -0.002350
vertex 0.005000 -0.051625 0.006232
vertex -0.023000 -0.051947 -0.002350
endloop
endfacet
facet normal 0.000000 -0.979504 0.201425
outer loop
vertex 0.005000 -0.051625 0.006232
vertex -0.023000 -0.049895 0.014644
vertex -0.023000 -0.051625 0.006232
endloop
endfacet
facet normal 0.000000 -0.979504 0.201424
outer loop
vertex -0.023000 -0.049895 0.014644
vertex 0.005000 -0.051625 0.006232
vertex 0.005000 -0.049895 0.014644
endloop
endfacet
facet normal 0.000000 0.811593 0.584223
outer loop
vertex -0.023000 0.039550 0.033761
vertex 0.005000 0.044567 0.026791
vertex -0.023000 0.044567 0.026791
endloop
endfacet
facet normal 0.000000 0.811593 0.584223
outer loop
vertex 0.005000 0.039550 0.033761
vertex 0.005000 0.044567 0.026791
vertex -0.023000 0.039550 0.033761
endloop
endfacet
facet normal 0.000000 0.896684 0.442672
outer loop
vertex -0.023000 0.044567 0.026791
vertex 0.005000 0.044567 0.026791
vertex -0.023000 0.048369 0.019090
endloop
endfacet
facet normal 0.000000 0.896683 0.442672
outer loop
vertex 0.005000 0.048369 0.019090
vertex -0.023000 0.048369 0.019090
vertex 0.005000 0.044567 0.026791
endloop
endfacet
facet normal 1.000000 -0.000000 0.000000
outer loop
vertex 0.019500 0.028092 0.012507
vertex 0.019500 -0.009502 -0.029245
vertex 0.019500 0.030078 0.006393
endloop
endfacet
facet normal 1.000000 0.000000 0.000000
outer loop
vertex 0.019500 0.030078 -0.006393
vertex 0.019500 -0.009502 -0.029245
vertex 0.019500 0.028092 -0.012507
endloop
endfacet
facet normal 1.000000 0.000001 0.000000
outer loop
vertex 0.019500 -0.030078 0.006393
vertex 0.019500 -0.009502 -0.029245
vertex 0.019500 -0.028092 0.012507
endloop
endfacet
facet normal 1.000000 0.000000 0.000000
outer loop
vertex 0.019500 -0.020576 -0.022852
vertex 0.019500 -0.009502 -0.029245
vertex 0.019500 -0.024877 -0.018074
endloop
endfacet
facet normal 1.000000 0.000000 0.000000
outer loop
vertex 0.019500 -0.028092 -0.012507
vertex 0.019500 -0.024877 -0.018074
vertex 0.019500 -0.009502 -0.029245
endloop
endfacet
facet normal 1.000000 0.000000 0.000000
outer loop
vertex 0.019500 0.009502 0.029245
vertex 0.019500 -0.009502 -0.029245
vertex 0.019500 0.015375 0.026630
endloop
endfacet
facet normal 1.000000 0.000000 0.000000
outer loop
vertex 0.019500 0.024877 -0.018074
vertex 0.019500 0.028092 -0.012507
vertex 0.019500 -0.009502 -0.029245
endloop
endfacet
facet normal 1.000000 -0.000001 0.000000
outer loop
vertex 0.019500 -0.030078 -0.006393
vertex 0.019500 -0.009502 -0.029245
vertex 0.019500 -0.030750 0.000000
endloop
endfacet
facet normal 1.000000 0.000000 0.000000
outer loop
vertex 0.019500 -0.015375 0.026630
vertex 0.019500 -0.009502 -0.029245
vertex 0.019500 -0.009502 0.029245
endloop
endfacet
facet normal 1.000000 0.000000 0.000000
outer loop
vertex 0.019500 0.015375 -0.026630
vertex 0.019500 0.020576 -0.022852
vertex 0.019500 -0.009502 -0.029245
endloop
endfacet
facet normal 1.000000 -0.000003 0.000000
outer loop
vertex 0.019500 -0.015375 -0.026630
vertex 0.019500 -0.009502 -0.029245
vertex 0.019500 -0.020576 -0.022852
endloop
endfacet
facet normal 1.000000 0.000000 0.000000
outer loop
vertex 0.019500 0.020576 0.022852
vertex 0.019500 0.015375 0.026630
vertex 0.019500 -0.009502 -0.029245
endloop
endfacet
facet normal 1.000000 0.000000 0.000000
outer loop
vertex 0.019500 0.030078 0.006393
vertex 0.019500 -0.009502 -0.029245
vertex 0.019500 0.030750 0.000000
endloop
endfacet
facet normal 1.000000 -0.000000 0.000000
outer loop
vertex 0.019500 0.024877 -0.018074
vertex 0.019500 -0.009502 -0.029245
vertex 0.019500 0.020576 -0.022852
endloop
endfacet
facet normal 1.000000 0.000000 0.000000
outer loop
vertex 0.019500 0.030078 -0.006393
vertex 0.019500 0.030750 0.000000
vertex 0.019500 -0.009502 -0.029245
endloop
endfacet
facet normal 1.000000 0.000000 0.000000
outer loop
vertex 0.019500 -0.003214 -0.030582
vertex 0.019500 0.003214 -0.030582
vertex 0.019500 -0.009502 -0.029245
endloop
endfacet
facet normal 1.000000 0.000000 0.000000
outer loop
vertex 0.019500 -0.024877 0.018074
vertex 0.019500 -0.028092 0.012507
vertex 0.019500 -0.009502 -0.029245
endloop
endfacet
facet normal 1.000000 0.000000 0.000000
outer loop
vertex 0.019500 0.020576 0.022852
vertex 0.019500 -0.009502 -0.029245
vertex 0.019500 0.024877 0.018074
endloop
endfacet
facet normal 1.000000 0.000000 0.000000
outer loop
vertex 0.019500 0.009502 0.029245
vertex 0.019500 0.003214 0.030582
vertex 0.019500 -0.009502 -0.029245
endloop
endfacet
facet normal 1.000000 0.000000 0.000000
outer loop
vertex 0.019500 0.028092 0.012507
vertex 0.019500 0.024877 0.018074
vertex 0.019500 -0.009502 -0.029245
endloop
endfacet
facet normal 1.000000 0.000000 0.000000
outer loop
vertex 0.019500 -0.015375 0.026630
vertex 0.019500 -0.020576 0.022852
vertex 0.019500 -0.009502 -0.029245
endloop
endfacet
facet normal 1.000000 0.000000 0.000000
outer loop
vertex 0.019500 -0.030078 0.006393
vertex 0.019500 -0.030750 0.000000
vertex 0.019500 -0.009502 -0.029245
endloop
endfacet
facet normal 1.000000 0.000000 0.000000
outer loop
vertex 0.019500 -0.024877 0.018074
vertex 0.019500 -0.009502 -0.029245
vertex 0.019500 -0.020576 0.022852
endloop
endfacet
facet normal 1.000000 0.000000 0.000000
outer loop
vertex 0.019500 -0.028092 -0.012507
vertex 0.019500 -0.009502 -0.029245
vertex 0.019500 -0.030078 -0.006393
endloop
endfacet
facet normal 1.000000 0.000000 0.000000
outer loop
vertex 0.019500 -0.003214 0.030582
vertex 0.019500 -0.009502 0.029245
vertex 0.019500 -0.009502 -0.029245
endloop
endfacet
facet normal 1.000000 0.000000 0.000000
outer loop
vertex 0.019500 -0.003214 0.030582
vertex 0.019500 -0.009502 -0.029245
vertex 0.019500 0.003214 0.030582
endloop
endfacet
facet normal 1.000000 0.000000 0.000000
outer loop
vertex 0.019500 0.009502 -0.029245
vertex 0.019500 -0.009502 -0.029245
vertex 0.019500 0.003214 -0.030582
endloop
endfacet
facet normal 1.000000 0.000000 0.000000
outer loop
vertex 0.019500 0.009502 -0.029245
vertex 0.019500 0.015375 -0.026630
vertex 0.019500 -0.009502 -0.029245
endloop
endfacet
facet normal 0.870779 0.000000 -0.491674
outer loop
vertex 0.019500 -0.003214 -0.030582
vertex 0.008055 -0.002049 -0.050852
vertex 0.019500 0.003214 -0.030582
endloop
endfacet
facet normal 0.870780 0.000000 -0.491674
outer loop
vertex 0.019500 0.003214 -0.030582
vertex 0.008055 -0.002049 -0.050852
vertex 0.008055 0.002049 -0.050852
endloop
endfacet
facet normal 0.608454 0.000000 -0.793589
outer loop
vertex 0.008055 -0.002049 -0.050852
vertex 0.007711 -0.002060 -0.051115
vertex 0.008055 0.002049 -0.050852
endloop
endfacet
facet normal 0.608444 0.000000 -0.793597
outer loop
vertex 0.007711 0.002060 -0.051115
vertex 0.008055 0.002049 -0.050852
vertex 0.007711 -0.002060 -0.051115
endloop
endfacet
facet normal 0.608443 0.000000 0.793598
outer loop
vertex 0.007711 -0.002060 0.051115
vertex 0.008055 0.002049 0.050852
vertex 0.007711 0.002060 0.051115
endloop
endfacet
facet normal 0.608454 0.000000 0.793589
outer loop
vertex 0.007711 -0.002060 0.051115
vertex 0.008055 -0.002049 0.050852
vertex 0.008055 0.002049 0.050852
endloop
endfacet
facet normal 0.870779 0.000000 0.491674
outer loop
vertex 0.019500 0.003214 0.030582
vertex 0.008055 0.002049 0.050852
vertex 0.019500 -0.003214 0.030582
endloop
endfacet
facet normal 0.870780 0.000000 0.491674
outer loop
vertex 0.019500 -0.003214 0.030582
vertex 0.008055 0.002049 0.050852
vertex 0.008055 -0.002049 0.050852
endloop
endfacet
endsolid Exported from Blender-2.93.0
