solid Exported from Blender-2.93.0
facet normal -1.000000 0.000000 0.000000
outer loop
vertex -0.033208 0.149400 0.028500
vertex -0.033208 0.149400 -0.298308
vertex -0.033208 -0.149400 0.028500
endloop
endfacet
facet normal -1.000000 0.000000 0.000000
outer loop
vertex -0.033208 -0.149400 -0.298308
vertex -0.033208 -0.149400 0.028500
vertex -0.033208 0.149400 -0.298308
endloop
endfacet
facet normal 0.906308 0.422618 0.000000
outer loop
vertex 0.043147 0.098631 -0.298308
vertex 0.019473 0.149400 0.028500
vertex 0.043147 0.098631 0.028500
endloop
endfacet
facet normal 0.906308 0.422618 0.000000
outer loop
vertex 0.019473 0.149400 -0.298308
vertex 0.019473 0.149400 0.028500
vertex 0.043147 0.098631 -0.298308
endloop
endfacet
facet normal 0.000000 1.000000 0.000000
outer loop
vertex -0.033208 0.149400 0.028500
vertex 0.019473 0.149400 0.028500
vertex -0.033208 0.149400 -0.298308
endloop
endfacet
facet normal 0.000000 1.000000 0.000000
outer loop
vertex -0.033208 0.149400 -0.298308
vertex 0.019473 0.149400 0.028500
vertex 0.019473 0.149400 -0.298308
endloop
endfacet
facet normal 1.000000 0.000000 0.000000
outer loop
vertex 0.043147 0.098631 0.028500
vertex 0.043147 -0.098631 0.028500
vertex 0.043147 0.098631 -0.298308
endloop
endfacet
facet normal 1.000000 0.000000 0.000000
outer loop
vertex 0.043147 0.098631 -0.298308
vertex 0.043147 -0.098631 0.028500
vertex 0.043147 -0.098631 -0.298308
endloop
endfacet
facet normal 0.000000 0.000000 -1.000000
outer loop
vertex -0.033208 0.149400 -0.298308
vertex 0.019473 -0.149400 -0.298308
vertex -0.033208 -0.149400 -0.298308
endloop
endfacet
facet normal 0.000000 0.000000 -1.000000
outer loop
vertex 0.019473 -0.149400 -0.298308
vertex -0.033208 0.149400 -0.298308
vertex 0.019473 0.149400 -0.298308
endloop
endfacet
facet normal 0.000000 0.000000 -1.000000
outer loop
vertex 0.043147 0.098631 -0.298308
vertex 0.019473 -0.149400 -0.298308
vertex 0.019473 0.149400 -0.298308
endloop
endfacet
facet normal 0.000003 0.000000 -1.000000
outer loop
vertex 0.043147 -0.098631 -0.298308
vertex 0.019473 -0.149400 -0.298308
vertex 0.043147 0.098631 -0.298308
endloop
endfacet
facet normal 0.000000 0.000000 1.000000
outer loop
vertex -0.033208 -0.149400 0.028500
vertex 0.019473 -0.149400 0.028500
vertex -0.033208 0.149400 0.028500
endloop
endfacet
facet normal -0.000000 0.000000 1.000000
outer loop
vertex 0.019473 0.149400 0.028500
vertex 0.019473 -0.149400 0.028500
vertex 0.043147 0.098631 0.028500
endloop
endfacet
facet normal 0.000000 0.000000 1.000000
outer loop
vertex 0.019473 -0.149400 0.028500
vertex 0.019473 0.149400 0.028500
vertex -0.033208 0.149400 0.028500
endloop
endfacet
facet normal 0.000000 0.000000 1.000000
outer loop
vertex 0.043147 -0.098631 0.028500
vertex 0.043147 0.098631 0.028500
vertex 0.019473 -0.149400 0.028500
endloop
endfacet
facet normal 0.906308 -0.422618 0.000000
outer loop
vertex 0.043147 -0.098631 0.028500
vertex 0.019473 -0.149400 0.028500
vertex 0.043147 -0.098631 -0.298308
endloop
endfacet
facet normal 0.906308 -0.422618 0.000000
outer loop
vertex 0.019473 -0.149400 0.028500
vertex 0.019473 -0.149400 -0.298308
vertex 0.043147 -0.098631 -0.298308
endloop
endfacet
facet normal 0.000000 -1.000000 0.000000
outer loop
vertex -0.033208 -0.149400 -0.298308
vertex 0.019473 -0.149400 0.028500
vertex -0.033208 -0.149400 0.028500
endloop
endfacet
facet normal 0.000000 -1.000000 0.000000
outer loop
vertex 0.019473 -0.149400 -0.298308
vertex 0.019473 -0.149400 0.028500
vertex -0.033208 -0.149400 -0.298308
endloop
endfacet
endsolid Exported from Blender-2.93.0
