solid Exported from Blender-2.93.0
facet normal 0.000000 -0.980786 0.195088
outer loop
vertex 0.029000 0.102850 0.011150
vertex 0.029000 0.103002 0.011915
vertex -0.029000 0.102850 0.011150
endloop
endfacet
facet normal -0.001175 0.707098 0.707114
outer loop
vertex -0.029000 0.116150 0.012882
vertex 0.029000 0.116564 0.012564
vertex -0.029000 0.116882 0.012150
endloop
endfacet
facet normal -0.000880 0.258819 -0.965925
outer loop
vertex 0.029000 0.115915 -0.012998
vertex -0.029000 0.115150 -0.013150
vertex -0.029000 0.116150 -0.012882
endloop
endfacet
facet normal -0.001175 0.707098 -0.707114
outer loop
vertex -0.029000 0.116882 -0.012150
vertex 0.029000 0.116564 -0.012564
vertex -0.029000 0.116150 -0.012882
endloop
endfacet
facet normal 0.000000 0.195089 -0.980786
outer loop
vertex 0.029000 0.115915 -0.012998
vertex 0.029000 0.115150 -0.013150
vertex -0.029000 0.115150 -0.013150
endloop
endfacet
facet normal 0.816084 -0.191484 0.545290
outer loop
vertex 0.030707 0.104085 0.011857
vertex 0.030414 0.104850 0.012564
vertex 0.030307 0.104085 0.012457
endloop
endfacet
facet normal 0.962636 0.191480 0.191486
outer loop
vertex 0.030707 0.115915 0.011857
vertex 0.030848 0.115150 0.011915
vertex 0.031000 0.115150 0.011150
endloop
endfacet
facet normal -0.000880 -0.258819 0.965925
outer loop
vertex -0.029000 0.103850 0.012882
vertex 0.029000 0.104085 0.012998
vertex -0.029000 0.104850 0.013150
endloop
endfacet
facet normal 0.000000 -0.195089 0.980786
outer loop
vertex -0.029000 0.104850 0.013150
vertex 0.029000 0.104085 0.012998
vertex 0.029000 0.104850 0.013150
endloop
endfacet
facet normal -0.000880 -0.965926 0.258818
outer loop
vertex 0.029000 0.103002 0.011915
vertex -0.029000 0.103118 0.012150
vertex -0.029000 0.102850 0.011150
endloop
endfacet
facet normal -0.001175 -0.707098 0.707114
outer loop
vertex -0.029000 0.103850 0.012882
vertex -0.029000 0.103118 0.012150
vertex 0.029000 0.103436 0.012564
endloop
endfacet
facet normal 0.000589 -0.831478 0.555557
outer loop
vertex -0.029000 0.103118 0.012150
vertex 0.029000 0.103002 0.011915
vertex 0.029000 0.103436 0.012564
endloop
endfacet
facet normal 0.695439 0.548118 0.464684
outer loop
vertex 0.030707 0.115915 0.011857
vertex 0.030000 0.116564 0.012150
vertex 0.030307 0.115915 0.012457
endloop
endfacet
facet normal 0.816085 0.191484 0.545287
outer loop
vertex 0.030707 0.115915 0.011857
vertex 0.030307 0.115915 0.012457
vertex 0.030414 0.115150 0.012564
endloop
endfacet
facet normal 0.962638 0.191482 0.191475
outer loop
vertex 0.031000 0.115150 0.011150
vertex 0.030848 0.115915 0.011150
vertex 0.030707 0.115915 0.011857
endloop
endfacet
facet normal 0.191481 -0.191480 0.962637
outer loop
vertex 0.029000 0.104085 0.012998
vertex 0.029765 0.104850 0.012998
vertex 0.029000 0.104850 0.013150
endloop
endfacet
facet normal -0.000880 0.965922 0.258832
outer loop
vertex -0.029000 0.116882 0.012150
vertex 0.029000 0.116998 0.011915
vertex -0.029000 0.117150 0.011150
endloop
endfacet
facet normal 0.000000 0.980786 0.195088
outer loop
vertex -0.029000 0.117150 0.011150
vertex 0.029000 0.116998 0.011915
vertex 0.029000 0.117150 0.011150
endloop
endfacet
facet normal -0.000880 -0.258819 -0.965925
outer loop
vertex -0.029000 0.104850 -0.013150
vertex 0.029000 0.104085 -0.012998
vertex -0.029000 0.103850 -0.012882
endloop
endfacet
facet normal -0.001175 -0.707098 -0.707114
outer loop
vertex 0.029000 0.103436 -0.012564
vertex -0.029000 0.103118 -0.012150
vertex -0.029000 0.103850 -0.012882
endloop
endfacet
facet normal 0.194950 -0.980048 -0.038744
outer loop
vertex 0.029707 0.103002 -0.011443
vertex 0.029765 0.103002 -0.011150
vertex 0.029000 0.102850 -0.011150
endloop
endfacet
facet normal 0.552202 -0.826441 -0.109857
outer loop
vertex 0.029765 0.103002 -0.011150
vertex 0.029707 0.103002 -0.011443
vertex 0.030414 0.103436 -0.011150
endloop
endfacet
facet normal -0.000880 0.965922 -0.258832
outer loop
vertex -0.029000 0.117150 -0.011150
vertex 0.029000 0.116998 -0.011915
vertex -0.029000 0.116882 -0.012150
endloop
endfacet
facet normal 0.000000 0.980786 -0.195088
outer loop
vertex 0.029000 0.117150 -0.011150
vertex 0.029000 0.116998 -0.011915
vertex -0.029000 0.117150 -0.011150
endloop
endfacet
facet normal 0.038778 0.980051 -0.194929
outer loop
vertex 0.029000 0.117150 -0.011150
vertex 0.029293 0.116998 -0.011857
vertex 0.029000 0.116998 -0.011915
endloop
endfacet
facet normal 0.962636 -0.191481 0.191488
outer loop
vertex 0.030707 0.104085 0.011857
vertex 0.030848 0.104085 0.011150
vertex 0.031000 0.104850 0.011150
endloop
endfacet
facet normal 0.816089 0.191484 0.545282
outer loop
vertex 0.030414 0.115150 0.012564
vertex 0.030704 0.115150 0.012131
vertex 0.030707 0.115915 0.011857
endloop
endfacet
facet normal 0.816091 0.191481 0.545280
outer loop
vertex 0.030848 0.115150 0.011915
vertex 0.030707 0.115915 0.011857
vertex 0.030704 0.115150 0.012131
endloop
endfacet
facet normal 0.962638 -0.191481 0.191475
outer loop
vertex 0.030848 0.104850 0.011915
vertex 0.030707 0.104085 0.011857
vertex 0.031000 0.104850 0.011150
endloop
endfacet
facet normal 0.000589 -0.555577 0.831465
outer loop
vertex -0.029000 0.103850 0.012882
vertex 0.029000 0.103436 0.012564
vertex 0.029000 0.103869 0.012854
endloop
endfacet
facet normal 0.000589 -0.555564 0.831473
outer loop
vertex -0.029000 0.103850 0.012882
vertex 0.029000 0.103869 0.012854
vertex 0.029000 0.104085 0.012998
endloop
endfacet
facet normal 0.165268 -0.980042 0.110473
outer loop
vertex 0.029707 0.103002 0.011443
vertex 0.029541 0.103002 0.011691
vertex 0.029000 0.102850 0.011150
endloop
endfacet
facet normal 0.468137 -0.826439 0.312803
outer loop
vertex 0.029541 0.103002 0.011691
vertex 0.029707 0.103002 0.011443
vertex 0.030307 0.103436 0.011691
endloop
endfacet
facet normal -0.000880 0.258819 0.965925
outer loop
vertex -0.029000 0.115150 0.013150
vertex 0.029000 0.115915 0.012998
vertex -0.029000 0.116150 0.012882
endloop
endfacet
facet normal 0.000000 0.195089 0.980786
outer loop
vertex 0.029000 0.115150 0.013150
vertex 0.029000 0.115915 0.012998
vertex -0.029000 0.115150 0.013150
endloop
endfacet
facet normal 0.191481 0.191480 0.962637
outer loop
vertex 0.029765 0.115150 0.012998
vertex 0.029000 0.115915 0.012998
vertex 0.029000 0.115150 0.013150
endloop
endfacet
facet normal 0.000589 0.831481 0.555554
outer loop
vertex 0.029000 0.116564 0.012564
vertex 0.029000 0.116854 0.012131
vertex -0.029000 0.116882 0.012150
endloop
endfacet
facet normal 0.000589 0.831474 0.555564
outer loop
vertex 0.029000 0.116998 0.011915
vertex -0.029000 0.116882 0.012150
vertex 0.029000 0.116854 0.012131
endloop
endfacet
facet normal 0.000589 -0.555577 -0.831465
outer loop
vertex 0.029000 0.103869 -0.012854
vertex 0.029000 0.103436 -0.012564
vertex -0.029000 0.103850 -0.012882
endloop
endfacet
facet normal 0.000589 -0.555564 -0.831473
outer loop
vertex 0.029000 0.104085 -0.012998
vertex 0.029000 0.103869 -0.012854
vertex -0.029000 0.103850 -0.012882
endloop
endfacet
facet normal 0.163173 -0.548134 -0.820320
outer loop
vertex 0.029000 0.103436 -0.012564
vertex 0.029000 0.103869 -0.012854
vertex 0.029541 0.103436 -0.012457
endloop
endfacet
facet normal 0.000000 -0.195089 -0.980786
outer loop
vertex 0.029000 0.104850 -0.013150
vertex 0.029000 0.104085 -0.012998
vertex -0.029000 0.104850 -0.013150
endloop
endfacet
facet normal 0.000000 -0.980786 -0.195088
outer loop
vertex 0.029000 0.102850 -0.011150
vertex -0.029000 0.102850 -0.011150
vertex 0.029000 0.103002 -0.011915
endloop
endfacet
facet normal -0.000880 -0.965926 -0.258818
outer loop
vertex -0.029000 0.103118 -0.012150
vertex 0.029000 0.103002 -0.011915
vertex -0.029000 0.102850 -0.011150
endloop
endfacet
facet normal 0.000589 -0.831478 -0.555557
outer loop
vertex 0.029000 0.103002 -0.011915
vertex -0.029000 0.103118 -0.012150
vertex 0.029000 0.103436 -0.012564
endloop
endfacet
facet normal 0.109842 -0.826446 -0.552197
outer loop
vertex 0.029541 0.103436 -0.012457
vertex 0.029000 0.103002 -0.011915
vertex 0.029000 0.103436 -0.012564
endloop
endfacet
facet normal 0.194949 -0.980047 0.038760
outer loop
vertex 0.029000 0.102850 0.011150
vertex 0.029765 0.103002 0.011150
vertex 0.029707 0.103002 0.011443
endloop
endfacet
facet normal 0.000589 0.831481 -0.555554
outer loop
vertex 0.029000 0.116564 -0.012564
vertex -0.029000 0.116882 -0.012150
vertex 0.029000 0.116854 -0.012131
endloop
endfacet
facet normal 0.000589 0.831474 -0.555564
outer loop
vertex 0.029000 0.116998 -0.011915
vertex 0.029000 0.116854 -0.012131
vertex -0.029000 0.116882 -0.012150
endloop
endfacet
facet normal 0.109844 0.826456 -0.552182
outer loop
vertex 0.029000 0.116854 -0.012131
vertex 0.029541 0.116564 -0.012457
vertex 0.029000 0.116564 -0.012564
endloop
endfacet
facet normal 0.109834 0.826430 -0.552223
outer loop
vertex 0.029000 0.116998 -0.011915
vertex 0.029293 0.116998 -0.011857
vertex 0.029000 0.116854 -0.012131
endloop
endfacet
facet normal 0.109850 0.826428 -0.552223
outer loop
vertex 0.029541 0.116564 -0.012457
vertex 0.029000 0.116854 -0.012131
vertex 0.029293 0.116998 -0.011857
endloop
endfacet
facet normal 0.163173 0.548134 -0.820320
outer loop
vertex 0.029541 0.116564 -0.012457
vertex 0.029000 0.116131 -0.012854
vertex 0.029000 0.116564 -0.012564
endloop
endfacet
facet normal 0.000589 0.555564 -0.831473
outer loop
vertex -0.029000 0.116150 -0.012882
vertex 0.029000 0.116131 -0.012854
vertex 0.029000 0.115915 -0.012998
endloop
endfacet
facet normal 0.000589 0.555577 -0.831465
outer loop
vertex 0.029000 0.116564 -0.012564
vertex 0.029000 0.116131 -0.012854
vertex -0.029000 0.116150 -0.012882
endloop
endfacet
facet normal 0.163178 0.548142 -0.820313
outer loop
vertex 0.029000 0.116131 -0.012854
vertex 0.029707 0.115915 -0.012857
vertex 0.029000 0.115915 -0.012998
endloop
endfacet
facet normal 0.163173 0.548112 -0.820334
outer loop
vertex 0.029541 0.116564 -0.012457
vertex 0.029707 0.115915 -0.012857
vertex 0.029000 0.116131 -0.012854
endloop
endfacet
facet normal 0.820335 -0.548113 -0.163164
outer loop
vertex 0.030707 0.104085 -0.011857
vertex 0.030848 0.104085 -0.011150
vertex 0.030704 0.103869 -0.011150
endloop
endfacet
facet normal 0.962636 -0.191481 -0.191488
outer loop
vertex 0.030848 0.104085 -0.011150
vertex 0.030707 0.104085 -0.011857
vertex 0.031000 0.104850 -0.011150
endloop
endfacet
facet normal 0.820323 -0.548124 0.163190
outer loop
vertex 0.030707 0.104085 0.011857
vertex 0.030307 0.103436 0.011691
vertex 0.030704 0.103869 0.011150
endloop
endfacet
facet normal 0.820335 -0.548113 0.163164
outer loop
vertex 0.030707 0.104085 0.011857
vertex 0.030704 0.103869 0.011150
vertex 0.030848 0.104085 0.011150
endloop
endfacet
facet normal 0.816085 -0.191483 0.545289
outer loop
vertex 0.030707 0.104085 0.011857
vertex 0.030704 0.104850 0.012131
vertex 0.030414 0.104850 0.012564
endloop
endfacet
facet normal 0.816087 -0.191480 0.545286
outer loop
vertex 0.030848 0.104850 0.011915
vertex 0.030704 0.104850 0.012131
vertex 0.030707 0.104085 0.011857
endloop
endfacet
facet normal 0.820333 -0.548121 -0.163146
outer loop
vertex 0.030414 0.103436 -0.011150
vertex 0.030307 0.103436 -0.011691
vertex 0.030704 0.103869 -0.011150
endloop
endfacet
facet normal 0.820323 -0.548124 -0.163190
outer loop
vertex 0.030707 0.104085 -0.011857
vertex 0.030704 0.103869 -0.011150
vertex 0.030307 0.103436 -0.011691
endloop
endfacet
facet normal 0.695435 -0.548121 -0.464686
outer loop
vertex 0.030707 0.104085 -0.011857
vertex 0.030307 0.103436 -0.011691
vertex 0.030000 0.103436 -0.012150
endloop
endfacet
facet normal 0.552206 -0.826438 -0.109859
outer loop
vertex 0.029707 0.103002 -0.011443
vertex 0.030307 0.103436 -0.011691
vertex 0.030414 0.103436 -0.011150
endloop
endfacet
facet normal 0.464680 -0.548129 -0.695433
outer loop
vertex 0.029541 0.103436 -0.012457
vertex 0.030307 0.104085 -0.012457
vertex 0.030000 0.103436 -0.012150
endloop
endfacet
facet normal 0.695443 -0.548121 -0.464674
outer loop
vertex 0.030000 0.103436 -0.012150
vertex 0.030307 0.104085 -0.012457
vertex 0.030707 0.104085 -0.011857
endloop
endfacet
facet normal 0.962638 -0.191481 -0.191475
outer loop
vertex 0.030707 0.104085 -0.011857
vertex 0.030848 0.104850 -0.011915
vertex 0.031000 0.104850 -0.011150
endloop
endfacet
facet normal 0.163167 -0.548107 0.820338
outer loop
vertex 0.029000 0.103869 0.012854
vertex 0.029707 0.104085 0.012857
vertex 0.029000 0.104085 0.012998
endloop
endfacet
facet normal 0.191482 -0.191482 0.962637
outer loop
vertex 0.029000 0.104085 0.012998
vertex 0.029707 0.104085 0.012857
vertex 0.029765 0.104850 0.012998
endloop
endfacet
facet normal 0.545296 -0.191480 0.816081
outer loop
vertex 0.029765 0.104850 0.012998
vertex 0.029707 0.104085 0.012857
vertex 0.030414 0.104850 0.012564
endloop
endfacet
facet normal 0.545288 -0.191481 0.816086
outer loop
vertex 0.030307 0.104085 0.012457
vertex 0.030414 0.104850 0.012564
vertex 0.029707 0.104085 0.012857
endloop
endfacet
facet normal 0.038778 -0.980048 0.194944
outer loop
vertex 0.029000 0.102850 0.011150
vertex 0.029293 0.103002 0.011857
vertex 0.029000 0.103002 0.011915
endloop
endfacet
facet normal 0.110428 -0.980045 0.165281
outer loop
vertex 0.029541 0.103002 0.011691
vertex 0.029293 0.103002 0.011857
vertex 0.029000 0.102850 0.011150
endloop
endfacet
facet normal 0.468139 -0.826444 0.312789
outer loop
vertex 0.030000 0.103436 0.012150
vertex 0.029541 0.103002 0.011691
vertex 0.030307 0.103436 0.011691
endloop
endfacet
facet normal 0.695435 -0.548121 0.464686
outer loop
vertex 0.030707 0.104085 0.011857
vertex 0.030000 0.103436 0.012150
vertex 0.030307 0.103436 0.011691
endloop
endfacet
facet normal 0.695439 -0.548118 0.464684
outer loop
vertex 0.030307 0.104085 0.012457
vertex 0.030000 0.103436 0.012150
vertex 0.030707 0.104085 0.011857
endloop
endfacet
facet normal 0.312790 0.826435 -0.468153
outer loop
vertex 0.029541 0.116998 -0.011691
vertex 0.029541 0.116564 -0.012457
vertex 0.029293 0.116998 -0.011857
endloop
endfacet
facet normal 0.110428 0.980042 -0.165297
outer loop
vertex 0.029000 0.117150 -0.011150
vertex 0.029541 0.116998 -0.011691
vertex 0.029293 0.116998 -0.011857
endloop
endfacet
facet normal 0.820332 0.548111 0.163186
outer loop
vertex 0.030848 0.115915 0.011150
vertex 0.030704 0.116131 0.011150
vertex 0.030707 0.115915 0.011857
endloop
endfacet
facet normal 0.000589 0.555577 0.831465
outer loop
vertex 0.029000 0.116131 0.012854
vertex 0.029000 0.116564 0.012564
vertex -0.029000 0.116150 0.012882
endloop
endfacet
facet normal 0.000589 0.555564 0.831473
outer loop
vertex 0.029000 0.115915 0.012998
vertex 0.029000 0.116131 0.012854
vertex -0.029000 0.116150 0.012882
endloop
endfacet
facet normal 0.194950 0.980048 0.038744
outer loop
vertex 0.029707 0.116998 0.011443
vertex 0.029765 0.116998 0.011150
vertex 0.029000 0.117150 0.011150
endloop
endfacet
facet normal 0.165270 0.980045 0.110443
outer loop
vertex 0.029541 0.116998 0.011691
vertex 0.029707 0.116998 0.011443
vertex 0.029000 0.117150 0.011150
endloop
endfacet
facet normal 0.552194 0.826459 0.109763
outer loop
vertex 0.029765 0.116998 0.011150
vertex 0.029707 0.116998 0.011443
vertex 0.029981 0.116854 0.011150
endloop
endfacet
facet normal 0.038778 0.980051 0.194929
outer loop
vertex 0.029000 0.116998 0.011915
vertex 0.029293 0.116998 0.011857
vertex 0.029000 0.117150 0.011150
endloop
endfacet
facet normal 0.110428 0.980045 0.165281
outer loop
vertex 0.029541 0.116998 0.011691
vertex 0.029000 0.117150 0.011150
vertex 0.029293 0.116998 0.011857
endloop
endfacet
facet normal 0.109833 0.826432 0.552220
outer loop
vertex 0.029000 0.116854 0.012131
vertex 0.029293 0.116998 0.011857
vertex 0.029000 0.116998 0.011915
endloop
endfacet
facet normal 0.165268 -0.980042 -0.110473
outer loop
vertex 0.029707 0.103002 -0.011443
vertex 0.029000 0.102850 -0.011150
vertex 0.029541 0.103002 -0.011691
endloop
endfacet
facet normal 0.312802 -0.826440 -0.468137
outer loop
vertex 0.030000 0.103436 -0.012150
vertex 0.029541 0.103002 -0.011691
vertex 0.029541 0.103436 -0.012457
endloop
endfacet
facet normal 0.468137 -0.826439 -0.312803
outer loop
vertex 0.029707 0.103002 -0.011443
vertex 0.029541 0.103002 -0.011691
vertex 0.030307 0.103436 -0.011691
endloop
endfacet
facet normal 0.468141 -0.826448 -0.312773
outer loop
vertex 0.030307 0.103436 -0.011691
vertex 0.029541 0.103002 -0.011691
vertex 0.030000 0.103436 -0.012150
endloop
endfacet
facet normal 0.191481 0.191480 -0.962637
outer loop
vertex 0.029765 0.115150 -0.012998
vertex 0.029000 0.115150 -0.013150
vertex 0.029000 0.115915 -0.012998
endloop
endfacet
facet normal 0.191476 0.191476 -0.962639
outer loop
vertex 0.029707 0.115915 -0.012857
vertex 0.029765 0.115150 -0.012998
vertex 0.029000 0.115915 -0.012998
endloop
endfacet
facet normal 0.820331 -0.548120 0.163158
outer loop
vertex 0.030704 0.103869 0.011150
vertex 0.030307 0.103436 0.011691
vertex 0.030414 0.103436 0.011150
endloop
endfacet
facet normal 0.552206 -0.826438 0.109859
outer loop
vertex 0.029707 0.103002 0.011443
vertex 0.030414 0.103436 0.011150
vertex 0.030307 0.103436 0.011691
endloop
endfacet
facet normal 0.552202 -0.826441 0.109857
outer loop
vertex 0.029765 0.103002 0.011150
vertex 0.030414 0.103436 0.011150
vertex 0.029707 0.103002 0.011443
endloop
endfacet
facet normal 0.464676 -0.548120 -0.695442
outer loop
vertex 0.029541 0.103436 -0.012457
vertex 0.029707 0.104085 -0.012857
vertex 0.030307 0.104085 -0.012457
endloop
endfacet
facet normal 0.163175 -0.548122 -0.820327
outer loop
vertex 0.029000 0.103869 -0.012854
vertex 0.029707 0.104085 -0.012857
vertex 0.029541 0.103436 -0.012457
endloop
endfacet
facet normal 0.163167 -0.548107 -0.820338
outer loop
vertex 0.029000 0.103869 -0.012854
vertex 0.029000 0.104085 -0.012998
vertex 0.029707 0.104085 -0.012857
endloop
endfacet
facet normal 0.816087 -0.191480 -0.545286
outer loop
vertex 0.030848 0.104850 -0.011915
vertex 0.030707 0.104085 -0.011857
vertex 0.030704 0.104850 -0.012131
endloop
endfacet
facet normal 0.312793 -0.826441 0.468141
outer loop
vertex 0.029293 0.103002 0.011857
vertex 0.029541 0.103002 0.011691
vertex 0.029541 0.103436 0.012457
endloop
endfacet
facet normal 0.312802 -0.826440 0.468137
outer loop
vertex 0.030000 0.103436 0.012150
vertex 0.029541 0.103436 0.012457
vertex 0.029541 0.103002 0.011691
endloop
endfacet
facet normal 0.109842 -0.826446 0.552198
outer loop
vertex 0.029000 0.103002 0.011915
vertex 0.029541 0.103436 0.012457
vertex 0.029000 0.103436 0.012564
endloop
endfacet
facet normal 0.109840 -0.826431 0.552220
outer loop
vertex 0.029293 0.103002 0.011857
vertex 0.029541 0.103436 0.012457
vertex 0.029000 0.103002 0.011915
endloop
endfacet
facet normal 0.163173 -0.548135 0.820319
outer loop
vertex 0.029000 0.103869 0.012854
vertex 0.029000 0.103436 0.012564
vertex 0.029541 0.103436 0.012457
endloop
endfacet
facet normal 0.163177 -0.548125 0.820325
outer loop
vertex 0.029541 0.103436 0.012457
vertex 0.029707 0.104085 0.012857
vertex 0.029000 0.103869 0.012854
endloop
endfacet
facet normal 0.464676 -0.548120 0.695442
outer loop
vertex 0.029707 0.104085 0.012857
vertex 0.029541 0.103436 0.012457
vertex 0.030307 0.104085 0.012457
endloop
endfacet
facet normal 0.464680 -0.548129 0.695433
outer loop
vertex 0.030000 0.103436 0.012150
vertex 0.030307 0.104085 0.012457
vertex 0.029541 0.103436 0.012457
endloop
endfacet
facet normal 0.552191 0.826454 -0.109810
outer loop
vertex 0.029707 0.116998 -0.011443
vertex 0.029765 0.116998 -0.011150
vertex 0.029981 0.116854 -0.011150
endloop
endfacet
facet normal 0.194950 0.980048 -0.038744
outer loop
vertex 0.029765 0.116998 -0.011150
vertex 0.029707 0.116998 -0.011443
vertex 0.029000 0.117150 -0.011150
endloop
endfacet
facet normal 0.165270 0.980049 -0.110411
outer loop
vertex 0.029000 0.117150 -0.011150
vertex 0.029707 0.116998 -0.011443
vertex 0.029541 0.116998 -0.011691
endloop
endfacet
facet normal 0.163178 0.548142 0.820313
outer loop
vertex 0.029707 0.115915 0.012857
vertex 0.029000 0.116131 0.012854
vertex 0.029000 0.115915 0.012998
endloop
endfacet
facet normal 0.191476 0.191476 0.962639
outer loop
vertex 0.029707 0.115915 0.012857
vertex 0.029000 0.115915 0.012998
vertex 0.029765 0.115150 0.012998
endloop
endfacet
facet normal 0.545281 0.191476 0.816092
outer loop
vertex 0.030414 0.115150 0.012564
vertex 0.029707 0.115915 0.012857
vertex 0.029765 0.115150 0.012998
endloop
endfacet
facet normal 0.545288 0.191481 0.816086
outer loop
vertex 0.030307 0.115915 0.012457
vertex 0.029707 0.115915 0.012857
vertex 0.030414 0.115150 0.012564
endloop
endfacet
facet normal 0.552212 0.826437 0.109829
outer loop
vertex 0.029981 0.116854 0.011150
vertex 0.030307 0.116564 0.011691
vertex 0.030414 0.116564 0.011150
endloop
endfacet
facet normal 0.552202 0.826442 0.109850
outer loop
vertex 0.029707 0.116998 0.011443
vertex 0.030307 0.116564 0.011691
vertex 0.029981 0.116854 0.011150
endloop
endfacet
facet normal 0.695441 0.548125 0.464673
outer loop
vertex 0.030707 0.115915 0.011857
vertex 0.030307 0.116564 0.011691
vertex 0.030000 0.116564 0.012150
endloop
endfacet
facet normal 0.468139 0.826444 0.312789
outer loop
vertex 0.030000 0.116564 0.012150
vertex 0.030307 0.116564 0.011691
vertex 0.029541 0.116998 0.011691
endloop
endfacet
facet normal 0.468132 0.826431 0.312832
outer loop
vertex 0.030307 0.116564 0.011691
vertex 0.029707 0.116998 0.011443
vertex 0.029541 0.116998 0.011691
endloop
endfacet
facet normal 0.820322 0.548125 0.163190
outer loop
vertex 0.030704 0.116131 0.011150
vertex 0.030307 0.116564 0.011691
vertex 0.030707 0.115915 0.011857
endloop
endfacet
facet normal 0.820330 0.548119 0.163170
outer loop
vertex 0.030307 0.116564 0.011691
vertex 0.030704 0.116131 0.011150
vertex 0.030414 0.116564 0.011150
endloop
endfacet
facet normal 0.109844 0.826456 0.552182
outer loop
vertex 0.029000 0.116854 0.012131
vertex 0.029000 0.116564 0.012564
vertex 0.029541 0.116564 0.012457
endloop
endfacet
facet normal 0.109850 0.826428 0.552223
outer loop
vertex 0.029541 0.116564 0.012457
vertex 0.029293 0.116998 0.011857
vertex 0.029000 0.116854 0.012131
endloop
endfacet
facet normal 0.312804 0.826438 0.468138
outer loop
vertex 0.029541 0.116998 0.011691
vertex 0.029541 0.116564 0.012457
vertex 0.030000 0.116564 0.012150
endloop
endfacet
facet normal 0.312790 0.826435 0.468153
outer loop
vertex 0.029293 0.116998 0.011857
vertex 0.029541 0.116564 0.012457
vertex 0.029541 0.116998 0.011691
endloop
endfacet
facet normal 0.464675 0.548123 0.695442
outer loop
vertex 0.030307 0.115915 0.012457
vertex 0.030000 0.116564 0.012150
vertex 0.029541 0.116564 0.012457
endloop
endfacet
facet normal 0.464685 0.548130 0.695429
outer loop
vertex 0.029707 0.115915 0.012857
vertex 0.030307 0.115915 0.012457
vertex 0.029541 0.116564 0.012457
endloop
endfacet
facet normal 0.163173 0.548135 0.820319
outer loop
vertex 0.029000 0.116131 0.012854
vertex 0.029541 0.116564 0.012457
vertex 0.029000 0.116564 0.012564
endloop
endfacet
facet normal 0.163174 0.548112 0.820334
outer loop
vertex 0.029707 0.115915 0.012857
vertex 0.029541 0.116564 0.012457
vertex 0.029000 0.116131 0.012854
endloop
endfacet
facet normal 0.038778 -0.980047 -0.194944
outer loop
vertex 0.029000 0.103002 -0.011915
vertex 0.029293 0.103002 -0.011857
vertex 0.029000 0.102850 -0.011150
endloop
endfacet
facet normal 0.110428 -0.980045 -0.165281
outer loop
vertex 0.029541 0.103002 -0.011691
vertex 0.029000 0.102850 -0.011150
vertex 0.029293 0.103002 -0.011857
endloop
endfacet
facet normal 0.109840 -0.826431 -0.552220
outer loop
vertex 0.029293 0.103002 -0.011857
vertex 0.029000 0.103002 -0.011915
vertex 0.029541 0.103436 -0.012457
endloop
endfacet
facet normal 0.312793 -0.826441 -0.468141
outer loop
vertex 0.029541 0.103002 -0.011691
vertex 0.029293 0.103002 -0.011857
vertex 0.029541 0.103436 -0.012457
endloop
endfacet
facet normal 0.191481 -0.191480 -0.962637
outer loop
vertex 0.029000 0.104850 -0.013150
vertex 0.029765 0.104850 -0.012998
vertex 0.029000 0.104085 -0.012998
endloop
endfacet
facet normal 0.191480 -0.191480 -0.962637
outer loop
vertex 0.029707 0.104085 -0.012857
vertex 0.029000 0.104085 -0.012998
vertex 0.029765 0.104850 -0.012998
endloop
endfacet
facet normal 0.552212 0.826437 -0.109829
outer loop
vertex 0.030414 0.116564 -0.011150
vertex 0.030307 0.116564 -0.011691
vertex 0.029981 0.116854 -0.011150
endloop
endfacet
facet normal 0.552202 0.826442 -0.109850
outer loop
vertex 0.029707 0.116998 -0.011443
vertex 0.029981 0.116854 -0.011150
vertex 0.030307 0.116564 -0.011691
endloop
endfacet
facet normal 0.468127 0.826423 -0.312860
outer loop
vertex 0.029707 0.116998 -0.011443
vertex 0.030307 0.116564 -0.011691
vertex 0.029541 0.116998 -0.011691
endloop
endfacet
facet normal 0.820330 0.548119 -0.163170
outer loop
vertex 0.030704 0.116131 -0.011150
vertex 0.030307 0.116564 -0.011691
vertex 0.030414 0.116564 -0.011150
endloop
endfacet
facet normal 0.545288 -0.191481 -0.816086
outer loop
vertex 0.029707 0.104085 -0.012857
vertex 0.030414 0.104850 -0.012564
vertex 0.030307 0.104085 -0.012457
endloop
endfacet
facet normal 0.545296 -0.191480 -0.816081
outer loop
vertex 0.029765 0.104850 -0.012998
vertex 0.030414 0.104850 -0.012564
vertex 0.029707 0.104085 -0.012857
endloop
endfacet
facet normal 0.816085 -0.191481 -0.545290
outer loop
vertex 0.030307 0.104085 -0.012457
vertex 0.030414 0.104850 -0.012564
vertex 0.030707 0.104085 -0.011857
endloop
endfacet
facet normal 0.816085 -0.191479 -0.545290
outer loop
vertex 0.030704 0.104850 -0.012131
vertex 0.030707 0.104085 -0.011857
vertex 0.030414 0.104850 -0.012564
endloop
endfacet
facet normal 0.312804 0.826438 -0.468138
outer loop
vertex 0.029541 0.116998 -0.011691
vertex 0.030000 0.116564 -0.012150
vertex 0.029541 0.116564 -0.012457
endloop
endfacet
facet normal 0.468139 0.826444 -0.312789
outer loop
vertex 0.030307 0.116564 -0.011691
vertex 0.030000 0.116564 -0.012150
vertex 0.029541 0.116998 -0.011691
endloop
endfacet
facet normal 0.820331 0.548111 -0.163192
outer loop
vertex 0.030704 0.116131 -0.011150
vertex 0.030848 0.115915 -0.011150
vertex 0.030707 0.115915 -0.011857
endloop
endfacet
facet normal 0.820322 0.548124 -0.163192
outer loop
vertex 0.030307 0.116564 -0.011691
vertex 0.030704 0.116131 -0.011150
vertex 0.030707 0.115915 -0.011857
endloop
endfacet
facet normal 0.962638 0.191482 -0.191475
outer loop
vertex 0.030848 0.115915 -0.011150
vertex 0.031000 0.115150 -0.011150
vertex 0.030707 0.115915 -0.011857
endloop
endfacet
facet normal 0.695440 0.548127 -0.464672
outer loop
vertex 0.030000 0.116564 -0.012150
vertex 0.030307 0.116564 -0.011691
vertex 0.030707 0.115915 -0.011857
endloop
endfacet
facet normal 0.962636 0.191480 -0.191486
outer loop
vertex 0.030707 0.115915 -0.011857
vertex 0.031000 0.115150 -0.011150
vertex 0.030848 0.115150 -0.011915
endloop
endfacet
facet normal 0.695439 0.548118 -0.464684
outer loop
vertex 0.030707 0.115915 -0.011857
vertex 0.030307 0.115915 -0.012457
vertex 0.030000 0.116564 -0.012150
endloop
endfacet
facet normal 0.464683 0.548128 -0.695432
outer loop
vertex 0.030307 0.115915 -0.012457
vertex 0.029707 0.115915 -0.012857
vertex 0.029541 0.116564 -0.012457
endloop
endfacet
facet normal 0.464680 0.548129 -0.695433
outer loop
vertex 0.030000 0.116564 -0.012150
vertex 0.030307 0.115915 -0.012457
vertex 0.029541 0.116564 -0.012457
endloop
endfacet
facet normal 0.816091 0.191481 -0.545280
outer loop
vertex 0.030848 0.115150 -0.011915
vertex 0.030704 0.115150 -0.012131
vertex 0.030707 0.115915 -0.011857
endloop
endfacet
facet normal 0.816085 0.191481 -0.545290
outer loop
vertex 0.030307 0.115915 -0.012457
vertex 0.030707 0.115915 -0.011857
vertex 0.030414 0.115150 -0.012564
endloop
endfacet
facet normal 0.816093 0.191481 -0.545277
outer loop
vertex 0.030704 0.115150 -0.012131
vertex 0.030414 0.115150 -0.012564
vertex 0.030707 0.115915 -0.011857
endloop
endfacet
facet normal 0.545285 0.191477 -0.816088
outer loop
vertex 0.029765 0.115150 -0.012998
vertex 0.029707 0.115915 -0.012857
vertex 0.030414 0.115150 -0.012564
endloop
endfacet
facet normal 0.545288 0.191481 -0.816086
outer loop
vertex 0.030307 0.115915 -0.012457
vertex 0.030414 0.115150 -0.012564
vertex 0.029707 0.115915 -0.012857
endloop
endfacet
facet normal 0.000000 -1.000000 0.000000
outer loop
vertex -0.029000 0.102850 -0.011150
vertex 0.029000 0.102850 -0.011150
vertex -0.029000 0.102850 0.011150
endloop
endfacet
facet normal 0.000000 -1.000000 0.000000
outer loop
vertex -0.029000 0.102850 0.011150
vertex 0.029000 0.102850 -0.011150
vertex 0.029000 0.102850 0.011150
endloop
endfacet
facet normal 0.000000 1.000000 0.000000
outer loop
vertex -0.029000 0.117150 0.011150
vertex 0.029000 0.117150 -0.011150
vertex -0.029000 0.117150 -0.011150
endloop
endfacet
facet normal 0.000000 1.000000 0.000000
outer loop
vertex 0.029000 0.117150 0.011150
vertex 0.029000 0.117150 -0.011150
vertex -0.029000 0.117150 0.011150
endloop
endfacet
facet normal 0.000000 0.000000 1.000000
outer loop
vertex -0.029000 0.104850 0.013150
vertex 0.029000 0.115150 0.013150
vertex -0.029000 0.115150 0.013150
endloop
endfacet
facet normal 0.000000 0.000000 1.000000
outer loop
vertex 0.029000 0.104850 0.013150
vertex 0.029000 0.115150 0.013150
vertex -0.029000 0.104850 0.013150
endloop
endfacet
facet normal 0.195090 0.000000 0.980785
outer loop
vertex 0.029000 0.115150 0.013150
vertex 0.029000 0.104850 0.013150
vertex 0.029765 0.104850 0.012998
endloop
endfacet
facet normal 0.195091 0.000000 0.980785
outer loop
vertex 0.029000 0.115150 0.013150
vertex 0.029765 0.104850 0.012998
vertex 0.029765 0.115150 0.012998
endloop
endfacet
facet normal 0.555569 0.000000 0.831470
outer loop
vertex 0.030414 0.104850 0.012564
vertex 0.030414 0.115150 0.012564
vertex 0.029765 0.104850 0.012998
endloop
endfacet
facet normal 0.555570 0.000000 0.831470
outer loop
vertex 0.029765 0.115150 0.012998
vertex 0.029765 0.104850 0.012998
vertex 0.030414 0.115150 0.012564
endloop
endfacet
facet normal -1.000000 0.000000 0.000000
outer loop
vertex -0.029000 0.116150 0.012882
vertex -0.029000 0.116882 0.012150
vertex -0.029000 0.103118 -0.012150
endloop
endfacet
facet normal -1.000000 0.000000 0.000000
outer loop
vertex -0.029000 0.117150 -0.011150
vertex -0.029000 0.103118 -0.012150
vertex -0.029000 0.117150 0.011150
endloop
endfacet
facet normal -1.000000 0.000000 0.000000
outer loop
vertex -0.029000 0.102850 -0.011150
vertex -0.029000 0.102850 0.011150
vertex -0.029000 0.103118 -0.012150
endloop
endfacet
facet normal -1.000000 -0.000002 0.000000
outer loop
vertex -0.029000 0.103118 -0.012150
vertex -0.029000 0.103118 0.012150
vertex -0.029000 0.103850 0.012882
endloop
endfacet
facet normal -1.000000 0.000000 0.000000
outer loop
vertex -0.029000 0.104850 0.013150
vertex -0.029000 0.115150 0.013150
vertex -0.029000 0.103118 -0.012150
endloop
endfacet
facet normal -1.000000 0.000000 0.000000
outer loop
vertex -0.029000 0.117150 0.011150
vertex -0.029000 0.103118 -0.012150
vertex -0.029000 0.116882 0.012150
endloop
endfacet
facet normal -1.000000 0.000000 0.000000
outer loop
vertex -0.029000 0.115150 -0.013150
vertex -0.029000 0.104850 -0.013150
vertex -0.029000 0.103118 -0.012150
endloop
endfacet
facet normal -1.000000 0.000000 0.000000
outer loop
vertex -0.029000 0.103850 0.012882
vertex -0.029000 0.104850 0.013150
vertex -0.029000 0.103118 -0.012150
endloop
endfacet
facet normal -1.000000 0.000000 0.000000
outer loop
vertex -0.029000 0.116150 0.012882
vertex -0.029000 0.103118 -0.012150
vertex -0.029000 0.115150 0.013150
endloop
endfacet
facet normal -1.000000 -0.000007 0.000000
outer loop
vertex -0.029000 0.103850 -0.012882
vertex -0.029000 0.103118 -0.012150
vertex -0.029000 0.104850 -0.013150
endloop
endfacet
facet normal -1.000000 0.000001 0.000000
outer loop
vertex -0.029000 0.116150 -0.012882
vertex -0.029000 0.115150 -0.013150
vertex -0.029000 0.103118 -0.012150
endloop
endfacet
facet normal -1.000000 0.000000 0.000000
outer loop
vertex -0.029000 0.117150 -0.011150
vertex -0.029000 0.116882 -0.012150
vertex -0.029000 0.103118 -0.012150
endloop
endfacet
facet normal -1.000000 0.000000 0.000000
outer loop
vertex -0.029000 0.116150 -0.012882
vertex -0.029000 0.103118 -0.012150
vertex -0.029000 0.116882 -0.012150
endloop
endfacet
facet normal -1.000000 0.000000 0.000000
outer loop
vertex -0.029000 0.103118 0.012150
vertex -0.029000 0.103118 -0.012150
vertex -0.029000 0.102850 0.011150
endloop
endfacet
facet normal 0.980785 0.000000 0.195090
outer loop
vertex 0.030848 0.115150 0.011915
vertex 0.030848 0.104850 0.011915
vertex 0.031000 0.115150 0.011150
endloop
endfacet
facet normal 0.980785 0.000000 0.195091
outer loop
vertex 0.031000 0.115150 0.011150
vertex 0.030848 0.104850 0.011915
vertex 0.031000 0.104850 0.011150
endloop
endfacet
facet normal 1.000000 0.000000 0.000000
outer loop
vertex 0.031000 0.104850 0.011150
vertex 0.031000 0.115150 -0.011150
vertex 0.031000 0.115150 0.011150
endloop
endfacet
facet normal 1.000000 0.000000 0.000000
outer loop
vertex 0.031000 0.104850 -0.011150
vertex 0.031000 0.115150 -0.011150
vertex 0.031000 0.104850 0.011150
endloop
endfacet
facet normal 0.195096 0.980784 0.000000
outer loop
vertex 0.029765 0.116998 -0.011150
vertex 0.029000 0.117150 -0.011150
vertex 0.029000 0.117150 0.011150
endloop
endfacet
facet normal 0.195095 0.980784 0.000000
outer loop
vertex 0.029765 0.116998 0.011150
vertex 0.029765 0.116998 -0.011150
vertex 0.029000 0.117150 0.011150
endloop
endfacet
facet normal 0.000000 0.000000 -1.000000
outer loop
vertex -0.029000 0.115150 -0.013150
vertex 0.029000 0.104850 -0.013150
vertex -0.029000 0.104850 -0.013150
endloop
endfacet
facet normal 0.000000 0.000000 -1.000000
outer loop
vertex 0.029000 0.115150 -0.013150
vertex 0.029000 0.104850 -0.013150
vertex -0.029000 0.115150 -0.013150
endloop
endfacet
facet normal 0.195096 -0.980784 0.000000
outer loop
vertex 0.029000 0.102850 -0.011150
vertex 0.029765 0.103002 0.011150
vertex 0.029000 0.102850 0.011150
endloop
endfacet
facet normal 0.195095 -0.980784 0.000000
outer loop
vertex 0.029765 0.103002 -0.011150
vertex 0.029765 0.103002 0.011150
vertex 0.029000 0.102850 -0.011150
endloop
endfacet
facet normal 0.980785 -0.195093 0.000000
outer loop
vertex 0.030848 0.104085 -0.011150
vertex 0.031000 0.104850 -0.011150
vertex 0.031000 0.104850 0.011150
endloop
endfacet
facet normal 0.980786 -0.195086 0.000000
outer loop
vertex 0.030848 0.104085 0.011150
vertex 0.030848 0.104085 -0.011150
vertex 0.031000 0.104850 0.011150
endloop
endfacet
facet normal 0.831475 -0.555562 0.000000
outer loop
vertex 0.030848 0.104085 0.011150
vertex 0.030704 0.103869 0.011150
vertex 0.030848 0.104085 -0.011150
endloop
endfacet
facet normal 0.831475 -0.555562 0.000000
outer loop
vertex 0.030848 0.104085 -0.011150
vertex 0.030704 0.103869 0.011150
vertex 0.030704 0.103869 -0.011150
endloop
endfacet
facet normal 0.831470 0.000000 0.555570
outer loop
vertex 0.030414 0.104850 0.012564
vertex 0.030704 0.104850 0.012131
vertex 0.030414 0.115150 0.012564
endloop
endfacet
facet normal 0.831471 0.000000 0.555568
outer loop
vertex 0.030414 0.115150 0.012564
vertex 0.030704 0.104850 0.012131
vertex 0.030704 0.115150 0.012131
endloop
endfacet
facet normal 0.831471 0.000000 0.555568
outer loop
vertex 0.030848 0.104850 0.011915
vertex 0.030848 0.115150 0.011915
vertex 0.030704 0.104850 0.012131
endloop
endfacet
facet normal 0.831475 0.000000 0.555562
outer loop
vertex 0.030704 0.115150 0.012131
vertex 0.030704 0.104850 0.012131
vertex 0.030848 0.115150 0.011915
endloop
endfacet
facet normal 0.980785 0.195093 0.000000
outer loop
vertex 0.031000 0.115150 -0.011150
vertex 0.030848 0.115915 -0.011150
vertex 0.031000 0.115150 0.011150
endloop
endfacet
facet normal 0.980786 0.195086 0.000000
outer loop
vertex 0.031000 0.115150 0.011150
vertex 0.030848 0.115915 -0.011150
vertex 0.030848 0.115915 0.011150
endloop
endfacet
facet normal 0.555555 0.831480 0.000000
outer loop
vertex 0.029981 0.116854 0.011150
vertex 0.029765 0.116998 -0.011150
vertex 0.029765 0.116998 0.011150
endloop
endfacet
facet normal 0.555555 0.831480 0.000000
outer loop
vertex 0.029765 0.116998 -0.011150
vertex 0.029981 0.116854 0.011150
vertex 0.029981 0.116854 -0.011150
endloop
endfacet
facet normal 0.831473 -0.555565 0.000000
outer loop
vertex 0.030704 0.103869 0.011150
vertex 0.030414 0.103436 0.011150
vertex 0.030704 0.103869 -0.011150
endloop
endfacet
facet normal 0.831468 -0.555572 0.000000
outer loop
vertex 0.030414 0.103436 -0.011150
vertex 0.030704 0.103869 -0.011150
vertex 0.030414 0.103436 0.011150
endloop
endfacet
facet normal 0.555568 -0.831471 0.000000
outer loop
vertex 0.030414 0.103436 0.011150
vertex 0.029765 0.103002 0.011150
vertex 0.029765 0.103002 -0.011150
endloop
endfacet
facet normal 0.555564 -0.831473 0.000000
outer loop
vertex 0.030414 0.103436 -0.011150
vertex 0.030414 0.103436 0.011150
vertex 0.029765 0.103002 -0.011150
endloop
endfacet
facet normal 0.555574 0.831467 0.000000
outer loop
vertex 0.029981 0.116854 0.011150
vertex 0.030414 0.116564 -0.011150
vertex 0.029981 0.116854 -0.011150
endloop
endfacet
facet normal 0.555569 0.831470 0.000000
outer loop
vertex 0.029981 0.116854 0.011150
vertex 0.030414 0.116564 0.011150
vertex 0.030414 0.116564 -0.011150
endloop
endfacet
facet normal 0.831475 0.555562 0.000000
outer loop
vertex 0.030848 0.115915 -0.011150
vertex 0.030704 0.116131 -0.011150
vertex 0.030848 0.115915 0.011150
endloop
endfacet
facet normal 0.831475 0.555562 0.000000
outer loop
vertex 0.030848 0.115915 0.011150
vertex 0.030704 0.116131 -0.011150
vertex 0.030704 0.116131 0.011150
endloop
endfacet
facet normal 0.831468 0.555572 0.000000
outer loop
vertex 0.030414 0.116564 -0.011150
vertex 0.030414 0.116564 0.011150
vertex 0.030704 0.116131 -0.011150
endloop
endfacet
facet normal 0.831473 0.555565 0.000000
outer loop
vertex 0.030704 0.116131 0.011150
vertex 0.030704 0.116131 -0.011150
vertex 0.030414 0.116564 0.011150
endloop
endfacet
facet normal 0.195090 0.000000 -0.980785
outer loop
vertex 0.029000 0.104850 -0.013150
vertex 0.029000 0.115150 -0.013150
vertex 0.029765 0.104850 -0.012998
endloop
endfacet
facet normal 0.195091 0.000000 -0.980785
outer loop
vertex 0.029765 0.115150 -0.012998
vertex 0.029765 0.104850 -0.012998
vertex 0.029000 0.115150 -0.013150
endloop
endfacet
facet normal 0.980785 0.000000 -0.195091
outer loop
vertex 0.031000 0.115150 -0.011150
vertex 0.031000 0.104850 -0.011150
vertex 0.030848 0.115150 -0.011915
endloop
endfacet
facet normal 0.980785 0.000000 -0.195091
outer loop
vertex 0.030848 0.104850 -0.011915
vertex 0.030848 0.115150 -0.011915
vertex 0.031000 0.104850 -0.011150
endloop
endfacet
facet normal 0.831472 0.000000 -0.555567
outer loop
vertex 0.030848 0.104850 -0.011915
vertex 0.030704 0.115150 -0.012131
vertex 0.030848 0.115150 -0.011915
endloop
endfacet
facet normal 0.831475 0.000000 -0.555563
outer loop
vertex 0.030704 0.104850 -0.012131
vertex 0.030704 0.115150 -0.012131
vertex 0.030848 0.104850 -0.011915
endloop
endfacet
facet normal 0.831471 0.000000 -0.555568
outer loop
vertex 0.030704 0.115150 -0.012131
vertex 0.030704 0.104850 -0.012131
vertex 0.030414 0.115150 -0.012564
endloop
endfacet
facet normal 0.831470 0.000000 -0.555570
outer loop
vertex 0.030414 0.104850 -0.012564
vertex 0.030414 0.115150 -0.012564
vertex 0.030704 0.104850 -0.012131
endloop
endfacet
facet normal 0.555570 0.000000 -0.831470
outer loop
vertex 0.029765 0.104850 -0.012998
vertex 0.029765 0.115150 -0.012998
vertex 0.030414 0.115150 -0.012564
endloop
endfacet
facet normal 0.555569 0.000000 -0.831470
outer loop
vertex 0.030414 0.115150 -0.012564
vertex 0.030414 0.104850 -0.012564
vertex 0.029765 0.104850 -0.012998
endloop
endfacet
endsolid Exported from Blender-2.93.0
