solid Exported from Blender-2.93.0
facet normal -1.000000 0.000000 0.000000
outer loop
vertex -0.000003 0.000015 0.000003
vertex -0.000003 0.000015 -0.000030
vertex -0.000003 -0.000015 0.000003
endloop
endfacet
facet normal -1.000000 0.000000 0.000000
outer loop
vertex -0.000003 -0.000015 -0.000030
vertex -0.000003 -0.000015 0.000003
vertex -0.000003 0.000015 -0.000030
endloop
endfacet
facet normal 0.906308 0.422619 0.000000
outer loop
vertex 0.000004 0.000010 -0.000030
vertex 0.000002 0.000015 0.000003
vertex 0.000004 0.000010 0.000003
endloop
endfacet
facet normal 0.906308 0.422619 0.000000
outer loop
vertex 0.000002 0.000015 -0.000030
vertex 0.000002 0.000015 0.000003
vertex 0.000004 0.000010 -0.000030
endloop
endfacet
facet normal 0.000000 1.000000 0.000000
outer loop
vertex -0.000003 0.000015 0.000003
vertex 0.000002 0.000015 0.000003
vertex -0.000003 0.000015 -0.000030
endloop
endfacet
facet normal 0.000000 1.000000 0.000000
outer loop
vertex -0.000003 0.000015 -0.000030
vertex 0.000002 0.000015 0.000003
vertex 0.000002 0.000015 -0.000030
endloop
endfacet
facet normal 1.000000 0.000000 0.000000
outer loop
vertex 0.000004 0.000010 0.000003
vertex 0.000004 -0.000010 0.000003
vertex 0.000004 0.000010 -0.000030
endloop
endfacet
facet normal 1.000000 0.000000 0.000000
outer loop
vertex 0.000004 0.000010 -0.000030
vertex 0.000004 -0.000010 0.000003
vertex 0.000004 -0.000010 -0.000030
endloop
endfacet
facet normal 0.000000 0.000000 -1.000000
outer loop
vertex -0.000003 0.000015 -0.000030
vertex 0.000002 -0.000015 -0.000030
vertex -0.000003 -0.000015 -0.000030
endloop
endfacet
facet normal 0.000000 0.000000 -1.000000
outer loop
vertex 0.000002 -0.000015 -0.000030
vertex -0.000003 0.000015 -0.000030
vertex 0.000002 0.000015 -0.000030
endloop
endfacet
facet normal 0.000000 0.000000 -1.000000
outer loop
vertex 0.000004 0.000010 -0.000030
vertex 0.000002 -0.000015 -0.000030
vertex 0.000002 0.000015 -0.000030
endloop
endfacet
facet normal 0.000000 0.000000 -1.000000
outer loop
vertex 0.000004 -0.000010 -0.000030
vertex 0.000002 -0.000015 -0.000030
vertex 0.000004 0.000010 -0.000030
endloop
endfacet
facet normal 0.000000 0.000000 1.000000
outer loop
vertex -0.000003 -0.000015 0.000003
vertex 0.000002 -0.000015 0.000003
vertex -0.000003 0.000015 0.000003
endloop
endfacet
facet normal 0.000000 0.000000 1.000000
outer loop
vertex 0.000002 0.000015 0.000003
vertex 0.000002 -0.000015 0.000003
vertex 0.000004 0.000010 0.000003
endloop
endfacet
facet normal 0.000000 0.000000 1.000000
outer loop
vertex 0.000002 -0.000015 0.000003
vertex 0.000002 0.000015 0.000003
vertex -0.000003 0.000015 0.000003
endloop
endfacet
facet normal 0.000000 0.000000 1.000000
outer loop
vertex 0.000004 -0.000010 0.000003
vertex 0.000004 0.000010 0.000003
vertex 0.000002 -0.000015 0.000003
endloop
endfacet
facet normal 0.906308 -0.422619 0.000000
outer loop
vertex 0.000004 -0.000010 0.000003
vertex 0.000002 -0.000015 0.000003
vertex 0.000004 -0.000010 -0.000030
endloop
endfacet
facet normal 0.906308 -0.422619 0.000000
outer loop
vertex 0.000002 -0.000015 0.000003
vertex 0.000002 -0.000015 -0.000030
vertex 0.000004 -0.000010 -0.000030
endloop
endfacet
facet normal 0.000000 -1.000000 0.000000
outer loop
vertex -0.000003 -0.000015 -0.000030
vertex 0.000002 -0.000015 0.000003
vertex -0.000003 -0.000015 0.000003
endloop
endfacet
facet normal 0.000000 -1.000000 0.000000
outer loop
vertex 0.000002 -0.000015 -0.000030
vertex 0.000002 -0.000015 0.000003
vertex -0.000003 -0.000015 -0.000030
endloop
endfacet
endsolid Exported from Blender-2.93.0
