solid BucketProperCenter
   facet normal 0.000000e+000 1.000000e+000 0.000000e+000
      outer loop
         vertex -2.900000e-001 -9.000000e-002 1.000000e-001
         vertex 2.900000e-001 -9.000000e-002 1.000000e-001
         vertex -2.900000e-001 -9.000000e-002 -3.000000e-001
      endloop
   endfacet
   facet normal 0.000000e+000 1.000000e+000 0.000000e+000
      outer loop
         vertex -2.900000e-001 -9.000000e-002 -3.000000e-001
         vertex 2.900000e-001 -9.000000e-002 1.000000e-001
         vertex 2.900000e-001 -9.000000e-002 -3.000000e-001
      endloop
   endfacet
   facet normal 0.000000e+000 0.000000e+000 -1.000000e+000
      outer loop
         vertex -2.900000e-001 3.000000e-001 1.000000e-001
         vertex 2.900000e-001 3.000000e-001 1.000000e-001
         vertex -2.900000e-001 -9.000000e-002 1.000000e-001
      endloop
   endfacet
   facet normal 0.000000e+000 0.000000e+000 -1.000000e+000
      outer loop
         vertex -2.900000e-001 -9.000000e-002 1.000000e-001
         vertex 2.900000e-001 3.000000e-001 1.000000e-001
         vertex 2.900000e-001 -9.000000e-002 1.000000e-001
      endloop
   endfacet
   facet normal 1.000000e+000 0.000000e+000 0.000000e+000
      outer loop
         vertex 3.000000e-001 -1.000000e-001 -3.000000e-001
         vertex 3.000000e-001 -9.000000e-002 -3.000000e-001
         vertex 3.000000e-001 -1.000000e-001 1.100000e-001
      endloop
   endfacet
   facet normal 1.000000e+000 0.000000e+000 0.000000e+000
      outer loop
         vertex 3.000000e-001 -1.000000e-001 1.100000e-001
         vertex 3.000000e-001 -9.000000e-002 -3.000000e-001
         vertex 3.000000e-001 3.000000e-001 1.000000e-001
      endloop
   endfacet
   facet normal 1.000000e+000 0.000000e+000 0.000000e+000
      outer loop
         vertex 3.000000e-001 -1.000000e-001 1.100000e-001
         vertex 3.000000e-001 3.000000e-001 1.000000e-001
         vertex 3.000000e-001 3.000000e-001 1.100000e-001
      endloop
   endfacet
   facet normal 0.000000e+000 0.000000e+000 -1.000000e+000
      outer loop
         vertex -3.000000e-001 -1.000000e-001 -3.000000e-001
         vertex -3.000000e-001 -9.000000e-002 -3.000000e-001
         vertex -2.900000e-001 -9.000000e-002 -3.000000e-001
      endloop
   endfacet
   facet normal 0.000000e+000 0.000000e+000 -1.000000e+000
      outer loop
         vertex -3.000000e-001 -1.000000e-001 -3.000000e-001
         vertex -2.900000e-001 -9.000000e-002 -3.000000e-001
         vertex 3.000000e-001 -1.000000e-001 -3.000000e-001
      endloop
   endfacet
   facet normal 0.000000e+000 0.000000e+000 -1.000000e+000
      outer loop
         vertex 3.000000e-001 -1.000000e-001 -3.000000e-001
         vertex -2.900000e-001 -9.000000e-002 -3.000000e-001
         vertex 2.900000e-001 -9.000000e-002 -3.000000e-001
      endloop
   endfacet
   facet normal 0.000000e+000 0.000000e+000 -1.000000e+000
      outer loop
         vertex 3.000000e-001 -1.000000e-001 -3.000000e-001
         vertex 2.900000e-001 -9.000000e-002 -3.000000e-001
         vertex 3.000000e-001 -9.000000e-002 -3.000000e-001
      endloop
   endfacet
   facet normal -1.000000e+000 0.000000e+000 0.000000e+000
      outer loop
         vertex -3.000000e-001 -9.000000e-002 -3.000000e-001
         vertex -3.000000e-001 -1.000000e-001 -3.000000e-001
         vertex -3.000000e-001 3.000000e-001 1.000000e-001
      endloop
   endfacet
   facet normal -1.000000e+000 0.000000e+000 0.000000e+000
      outer loop
         vertex -3.000000e-001 3.000000e-001 1.000000e-001
         vertex -3.000000e-001 -1.000000e-001 -3.000000e-001
         vertex -3.000000e-001 -1.000000e-001 1.100000e-001
      endloop
   endfacet
   facet normal -1.000000e+000 0.000000e+000 0.000000e+000
      outer loop
         vertex -3.000000e-001 3.000000e-001 1.000000e-001
         vertex -3.000000e-001 -1.000000e-001 1.100000e-001
         vertex -3.000000e-001 3.000000e-001 1.100000e-001
      endloop
   endfacet
   facet normal 0.000000e+000 -1.000000e+000 0.000000e+000
      outer loop
         vertex -3.000000e-001 -1.000000e-001 1.100000e-001
         vertex -3.000000e-001 -1.000000e-001 -3.000000e-001
         vertex 3.000000e-001 -1.000000e-001 1.100000e-001
      endloop
   endfacet
   facet normal 0.000000e+000 -1.000000e+000 0.000000e+000
      outer loop
         vertex 3.000000e-001 -1.000000e-001 1.100000e-001
         vertex -3.000000e-001 -1.000000e-001 -3.000000e-001
         vertex 3.000000e-001 -1.000000e-001 -3.000000e-001
      endloop
   endfacet
   facet normal -1.850372e-016 1.000000e+000 0.000000e+000
      outer loop
         vertex 3.000000e-001 3.000000e-001 1.100000e-001
         vertex 3.000000e-001 3.000000e-001 1.000000e-001
         vertex 2.900000e-001 3.000000e-001 1.000000e-001
      endloop
   endfacet
   facet normal -1.850372e-016 1.000000e+000 0.000000e+000
      outer loop
         vertex 3.000000e-001 3.000000e-001 1.100000e-001
         vertex 2.900000e-001 3.000000e-001 1.000000e-001
         vertex -3.000000e-001 3.000000e-001 1.100000e-001
      endloop
   endfacet
   facet normal -1.850372e-016 1.000000e+000 0.000000e+000
      outer loop
         vertex -3.000000e-001 3.000000e-001 1.100000e-001
         vertex 2.900000e-001 3.000000e-001 1.000000e-001
         vertex -2.900000e-001 3.000000e-001 1.000000e-001
      endloop
   endfacet
   facet normal -1.850372e-016 1.000000e+000 0.000000e+000
      outer loop
         vertex -3.000000e-001 3.000000e-001 1.100000e-001
         vertex -2.900000e-001 3.000000e-001 1.000000e-001
         vertex -3.000000e-001 3.000000e-001 1.000000e-001
      endloop
   endfacet
   facet normal 0.000000e+000 0.000000e+000 1.000000e+000
      outer loop
         vertex 3.000000e-001 -1.000000e-001 1.100000e-001
         vertex 3.000000e-001 3.000000e-001 1.100000e-001
         vertex -3.000000e-001 -1.000000e-001 1.100000e-001
      endloop
   endfacet
   facet normal 0.000000e+000 0.000000e+000 1.000000e+000
      outer loop
         vertex -3.000000e-001 -1.000000e-001 1.100000e-001
         vertex 3.000000e-001 3.000000e-001 1.100000e-001
         vertex -3.000000e-001 3.000000e-001 1.100000e-001
      endloop
   endfacet
   facet normal 0.000000e+000 7.160001e-001 -6.981001e-001
      outer loop
         vertex 2.900000e-001 -9.000000e-002 -3.000000e-001
         vertex 2.900000e-001 3.000000e-001 1.000000e-001
         vertex 3.000000e-001 -9.000000e-002 -3.000000e-001
      endloop
   endfacet
   facet normal 0.000000e+000 7.160001e-001 -6.981001e-001
      outer loop
         vertex 3.000000e-001 -9.000000e-002 -3.000000e-001
         vertex 2.900000e-001 3.000000e-001 1.000000e-001
         vertex 3.000000e-001 3.000000e-001 1.000000e-001
      endloop
   endfacet
   facet normal -1.000000e+000 0.000000e+000 0.000000e+000
      outer loop
         vertex 2.900000e-001 3.000000e-001 1.000000e-001
         vertex 2.900000e-001 -9.000000e-002 -3.000000e-001
         vertex 2.900000e-001 -9.000000e-002 1.000000e-001
      endloop
   endfacet
   facet normal 0.000000e+000 7.160001e-001 -6.981001e-001
      outer loop
         vertex -2.900000e-001 3.000000e-001 1.000000e-001
         vertex -2.900000e-001 -9.000000e-002 -3.000000e-001
         vertex -3.000000e-001 3.000000e-001 1.000000e-001
      endloop
   endfacet
   facet normal 0.000000e+000 7.160001e-001 -6.981001e-001
      outer loop
         vertex -3.000000e-001 3.000000e-001 1.000000e-001
         vertex -2.900000e-001 -9.000000e-002 -3.000000e-001
         vertex -3.000000e-001 -9.000000e-002 -3.000000e-001
      endloop
   endfacet
   facet normal 1.000000e+000 0.000000e+000 0.000000e+000
      outer loop
         vertex -2.900000e-001 3.000000e-001 1.000000e-001
         vertex -2.900000e-001 -9.000000e-002 1.000000e-001
         vertex -2.900000e-001 -9.000000e-002 -3.000000e-001
      endloop
   endfacet
endsolid