solid Frame3
   facet normal 1.000000e+000 0.000000e+000 0.000000e+000
      outer loop
         vertex 6.000000e-001 1.500000e-001 1.000000e-001
         vertex 6.000000e-001 2.980232e-008 1.000000e-001
         vertex 6.000000e-001 2.980232e-008 0.000000e+000
      endloop
   endfacet
   facet normal 1.000000e+000 0.000000e+000 0.000000e+000
      outer loop
         vertex 6.000000e-001 4.500000e-001 2.000000e-001
         vertex 6.000000e-001 6.000000e-001 2.000000e-001
         vertex 6.000000e-001 6.000000e-001 3.000000e-001
      endloop
   endfacet
   facet normal 1.000000e+000 0.000000e+000 0.000000e+000
      outer loop
         vertex 6.000000e-001 6.000000e-001 0.000000e+000
         vertex 6.000000e-001 6.000000e-001 1.000000e-001
         vertex 6.000000e-001 4.500000e-001 1.000000e-001
      endloop
   endfacet
   facet normal 1.000000e+000 0.000000e+000 0.000000e+000
      outer loop
         vertex 6.000000e-001 2.980232e-008 3.000000e-001
         vertex 6.000000e-001 2.980232e-008 2.000000e-001
         vertex 6.000000e-001 1.500000e-001 2.000000e-001
      endloop
   endfacet
   facet normal 1.000000e+000 0.000000e+000 0.000000e+000
      outer loop
         vertex 6.000000e-001 2.980232e-008 0.000000e+000
         vertex 6.000000e-001 6.000000e-001 0.000000e+000
         vertex 6.000000e-001 1.500000e-001 1.000000e-001
      endloop
   endfacet
   facet normal 1.000000e+000 0.000000e+000 0.000000e+000
      outer loop
         vertex 6.000000e-001 1.500000e-001 1.000000e-001
         vertex 6.000000e-001 6.000000e-001 0.000000e+000
         vertex 6.000000e-001 4.500000e-001 1.000000e-001
      endloop
   endfacet
   facet normal 1.000000e+000 0.000000e+000 0.000000e+000
      outer loop
         vertex 6.000000e-001 1.500000e-001 1.000000e-001
         vertex 6.000000e-001 4.500000e-001 1.000000e-001
         vertex 6.000000e-001 1.500000e-001 2.000000e-001
      endloop
   endfacet
   facet normal 1.000000e+000 0.000000e+000 0.000000e+000
      outer loop
         vertex 6.000000e-001 1.500000e-001 2.000000e-001
         vertex 6.000000e-001 4.500000e-001 1.000000e-001
         vertex 6.000000e-001 4.500000e-001 2.000000e-001
      endloop
   endfacet
   facet normal 1.000000e+000 0.000000e+000 0.000000e+000
      outer loop
         vertex 6.000000e-001 1.500000e-001 2.000000e-001
         vertex 6.000000e-001 4.500000e-001 2.000000e-001
         vertex 6.000000e-001 2.980232e-008 3.000000e-001
      endloop
   endfacet
   facet normal 1.000000e+000 0.000000e+000 0.000000e+000
      outer loop
         vertex 6.000000e-001 2.980232e-008 3.000000e-001
         vertex 6.000000e-001 4.500000e-001 2.000000e-001
         vertex 6.000000e-001 6.000000e-001 3.000000e-001
      endloop
   endfacet
   facet normal 0.000000e+000 1.000000e+000 0.000000e+000
      outer loop
         vertex 6.000000e-001 6.000000e-001 0.000000e+000
         vertex 2.980232e-008 6.000000e-001 0.000000e+000
         vertex 1.500000e-001 6.000000e-001 1.000000e-001
      endloop
   endfacet
   facet normal 0.000000e+000 1.000000e+000 0.000000e+000
      outer loop
         vertex 1.500000e-001 6.000000e-001 1.000000e-001
         vertex 2.980232e-008 6.000000e-001 0.000000e+000
         vertex 2.980232e-008 6.000000e-001 1.000000e-001
      endloop
   endfacet
   facet normal 0.000000e+000 1.000000e+000 0.000000e+000
      outer loop
         vertex 6.000000e-001 6.000000e-001 3.000000e-001
         vertex 6.000000e-001 6.000000e-001 2.000000e-001
         vertex 4.500000e-001 6.000000e-001 2.000000e-001
      endloop
   endfacet
   facet normal 0.000000e+000 1.000000e+000 0.000000e+000
      outer loop
         vertex 2.980232e-008 6.000000e-001 1.125000e+000
         vertex 5.000004e-002 6.000000e-001 1.125000e+000
         vertex 2.980232e-008 6.000000e-001 2.000000e-001
      endloop
   endfacet
   facet normal 0.000000e+000 1.000000e+000 0.000000e+000
      outer loop
         vertex 2.980232e-008 6.000000e-001 2.000000e-001
         vertex 5.000004e-002 6.000000e-001 1.125000e+000
         vertex 5.000004e-002 6.000000e-001 3.000000e-001
      endloop
   endfacet
   facet normal 0.000000e+000 1.000000e+000 0.000000e+000
      outer loop
         vertex 2.980232e-008 6.000000e-001 2.000000e-001
         vertex 5.000004e-002 6.000000e-001 3.000000e-001
         vertex 1.500000e-001 6.000000e-001 2.000000e-001
      endloop
   endfacet
   facet normal 0.000000e+000 1.000000e+000 0.000000e+000
      outer loop
         vertex 6.000000e-001 6.000000e-001 1.000000e-001
         vertex 6.000000e-001 6.000000e-001 0.000000e+000
         vertex 4.500000e-001 6.000000e-001 1.000000e-001
      endloop
   endfacet
   facet normal 0.000000e+000 1.000000e+000 0.000000e+000
      outer loop
         vertex 4.500000e-001 6.000000e-001 1.000000e-001
         vertex 6.000000e-001 6.000000e-001 0.000000e+000
         vertex 1.500000e-001 6.000000e-001 1.000000e-001
      endloop
   endfacet
   facet normal 0.000000e+000 1.000000e+000 0.000000e+000
      outer loop
         vertex 4.500000e-001 6.000000e-001 1.000000e-001
         vertex 1.500000e-001 6.000000e-001 1.000000e-001
         vertex 4.500000e-001 6.000000e-001 2.000000e-001
      endloop
   endfacet
   facet normal 0.000000e+000 1.000000e+000 0.000000e+000
      outer loop
         vertex 4.500000e-001 6.000000e-001 2.000000e-001
         vertex 1.500000e-001 6.000000e-001 1.000000e-001
         vertex 1.500000e-001 6.000000e-001 2.000000e-001
      endloop
   endfacet
   facet normal 0.000000e+000 1.000000e+000 0.000000e+000
      outer loop
         vertex 4.500000e-001 6.000000e-001 2.000000e-001
         vertex 1.500000e-001 6.000000e-001 2.000000e-001
         vertex 6.000000e-001 6.000000e-001 3.000000e-001
      endloop
   endfacet
   facet normal 0.000000e+000 1.000000e+000 0.000000e+000
      outer loop
         vertex 6.000000e-001 6.000000e-001 3.000000e-001
         vertex 1.500000e-001 6.000000e-001 2.000000e-001
         vertex 5.000004e-002 6.000000e-001 3.000000e-001
      endloop
   endfacet
   facet normal -1.000000e+000 0.000000e+000 0.000000e+000
      outer loop
         vertex 2.980232e-008 4.500000e-001 1.000000e-001
         vertex 2.980232e-008 6.000000e-001 1.000000e-001
         vertex 2.980232e-008 6.000000e-001 0.000000e+000
      endloop
   endfacet
   facet normal -1.000000e+000 0.000000e+000 0.000000e+000
      outer loop
         vertex 2.980232e-008 2.500004e-002 3.000000e-001
         vertex 2.980232e-008 5.750000e-001 3.000000e-001
         vertex 2.980232e-008 4.500000e-001 2.000000e-001
      endloop
   endfacet
   facet normal -1.000000e+000 0.000000e+000 0.000000e+000
      outer loop
         vertex 2.980232e-008 4.500000e-001 2.000000e-001
         vertex 2.980232e-008 5.750000e-001 3.000000e-001
         vertex 2.980232e-008 6.000000e-001 2.000000e-001
      endloop
   endfacet
   facet normal -1.000000e+000 0.000000e+000 0.000000e+000
      outer loop
         vertex 2.980232e-008 2.980232e-008 0.000000e+000
         vertex 2.980232e-008 2.980232e-008 1.000000e-001
         vertex 2.980232e-008 1.500000e-001 1.000000e-001
      endloop
   endfacet
   facet normal -1.000000e+000 0.000000e+000 0.000000e+000
      outer loop
         vertex 2.980232e-008 6.000000e-001 2.000000e-001
         vertex 2.980232e-008 5.750000e-001 3.000000e-001
         vertex 2.980232e-008 6.000000e-001 1.125000e+000
      endloop
   endfacet
   facet normal -1.000000e+000 0.000000e+000 0.000000e+000
      outer loop
         vertex 2.980232e-008 6.000000e-001 1.125000e+000
         vertex 2.980232e-008 5.750000e-001 3.000000e-001
         vertex 2.980232e-008 5.750000e-001 1.100000e+000
      endloop
   endfacet
   facet normal -1.000000e+000 0.000000e+000 0.000000e+000
      outer loop
         vertex 2.980232e-008 6.000000e-001 1.125000e+000
         vertex 2.980232e-008 5.750000e-001 1.100000e+000
         vertex 2.980232e-008 2.980232e-008 1.125000e+000
      endloop
   endfacet
   facet normal -1.000000e+000 0.000000e+000 0.000000e+000
      outer loop
         vertex 2.980232e-008 2.980232e-008 1.125000e+000
         vertex 2.980232e-008 5.750000e-001 1.100000e+000
         vertex 2.980232e-008 2.500004e-002 1.100000e+000
      endloop
   endfacet
   facet normal -1.000000e+000 0.000000e+000 0.000000e+000
      outer loop
         vertex 2.980232e-008 2.980232e-008 1.125000e+000
         vertex 2.980232e-008 2.500004e-002 1.100000e+000
         vertex 2.980232e-008 2.500004e-002 3.000000e-001
      endloop
   endfacet
   facet normal -1.000000e+000 0.000000e+000 0.000000e+000
      outer loop
         vertex 2.980232e-008 6.000000e-001 0.000000e+000
         vertex 2.980232e-008 2.980232e-008 0.000000e+000
         vertex 2.980232e-008 4.500000e-001 1.000000e-001
      endloop
   endfacet
   facet normal -1.000000e+000 0.000000e+000 0.000000e+000
      outer loop
         vertex 2.980232e-008 4.500000e-001 1.000000e-001
         vertex 2.980232e-008 2.980232e-008 0.000000e+000
         vertex 2.980232e-008 1.500000e-001 1.000000e-001
      endloop
   endfacet
   facet normal -1.000000e+000 0.000000e+000 0.000000e+000
      outer loop
         vertex 2.980232e-008 4.500000e-001 1.000000e-001
         vertex 2.980232e-008 1.500000e-001 1.000000e-001
         vertex 2.980232e-008 4.500000e-001 2.000000e-001
      endloop
   endfacet
   facet normal -1.000000e+000 0.000000e+000 0.000000e+000
      outer loop
         vertex 2.980232e-008 4.500000e-001 2.000000e-001
         vertex 2.980232e-008 1.500000e-001 1.000000e-001
         vertex 2.980232e-008 1.500000e-001 2.000000e-001
      endloop
   endfacet
   facet normal -1.000000e+000 0.000000e+000 0.000000e+000
      outer loop
         vertex 2.980232e-008 4.500000e-001 2.000000e-001
         vertex 2.980232e-008 1.500000e-001 2.000000e-001
         vertex 2.980232e-008 2.500004e-002 3.000000e-001
      endloop
   endfacet
   facet normal -1.000000e+000 0.000000e+000 0.000000e+000
      outer loop
         vertex 2.980232e-008 2.500004e-002 3.000000e-001
         vertex 2.980232e-008 1.500000e-001 2.000000e-001
         vertex 2.980232e-008 2.980232e-008 2.000000e-001
      endloop
   endfacet
   facet normal -1.000000e+000 0.000000e+000 0.000000e+000
      outer loop
         vertex 2.980232e-008 2.500004e-002 3.000000e-001
         vertex 2.980232e-008 2.980232e-008 2.000000e-001
         vertex 2.980232e-008 2.980232e-008 1.125000e+000
      endloop
   endfacet
   facet normal 1.850372e-016 -1.000000e+000 0.000000e+000
      outer loop
         vertex 1.500000e-001 2.980232e-008 1.000000e-001
         vertex 2.980232e-008 2.980232e-008 1.000000e-001
         vertex 2.980232e-008 2.980232e-008 0.000000e+000
      endloop
   endfacet
   facet normal 1.850372e-016 -1.000000e+000 0.000000e+000
      outer loop
         vertex 6.000000e-001 2.980232e-008 0.000000e+000
         vertex 6.000000e-001 2.980232e-008 1.000000e-001
         vertex 4.500000e-001 2.980232e-008 1.000000e-001
      endloop
   endfacet
   facet normal 1.850372e-016 -1.000000e+000 0.000000e+000
      outer loop
         vertex 2.980232e-008 2.980232e-008 0.000000e+000
         vertex 6.000000e-001 2.980232e-008 0.000000e+000
         vertex 1.500000e-001 2.980232e-008 1.000000e-001
      endloop
   endfacet
   facet normal 1.850372e-016 -1.000000e+000 0.000000e+000
      outer loop
         vertex 1.500000e-001 2.980232e-008 1.000000e-001
         vertex 6.000000e-001 2.980232e-008 0.000000e+000
         vertex 4.500000e-001 2.980232e-008 1.000000e-001
      endloop
   endfacet
   facet normal 1.850372e-016 -1.000000e+000 0.000000e+000
      outer loop
         vertex 1.500000e-001 2.980232e-008 1.000000e-001
         vertex 4.500000e-001 2.980232e-008 1.000000e-001
         vertex 1.500000e-001 2.980232e-008 2.000000e-001
      endloop
   endfacet
   facet normal 1.850372e-016 -1.000000e+000 0.000000e+000
      outer loop
         vertex 5.000004e-002 2.980232e-008 3.000000e-001
         vertex 5.000004e-002 2.980232e-008 1.125000e+000
         vertex 2.980232e-008 2.980232e-008 1.125000e+000
      endloop
   endfacet
   facet normal 1.850372e-016 -1.000000e+000 0.000000e+000
      outer loop
         vertex 6.000000e-001 2.980232e-008 2.000000e-001
         vertex 6.000000e-001 2.980232e-008 3.000000e-001
         vertex 4.500000e-001 2.980232e-008 2.000000e-001
      endloop
   endfacet
   facet normal 1.850372e-016 -1.000000e+000 0.000000e+000
      outer loop
         vertex 4.500000e-001 2.980232e-008 2.000000e-001
         vertex 6.000000e-001 2.980232e-008 3.000000e-001
         vertex 5.000004e-002 2.980232e-008 3.000000e-001
      endloop
   endfacet
   facet normal 1.850372e-016 -1.000000e+000 0.000000e+000
      outer loop
         vertex 4.500000e-001 2.980232e-008 1.000000e-001
         vertex 4.500000e-001 2.980232e-008 2.000000e-001
         vertex 1.500000e-001 2.980232e-008 2.000000e-001
      endloop
   endfacet
   facet normal 1.850372e-016 -1.000000e+000 0.000000e+000
      outer loop
         vertex 1.500000e-001 2.980232e-008 2.000000e-001
         vertex 4.500000e-001 2.980232e-008 2.000000e-001
         vertex 5.000004e-002 2.980232e-008 3.000000e-001
      endloop
   endfacet
   facet normal 1.850372e-016 -1.000000e+000 0.000000e+000
      outer loop
         vertex 1.500000e-001 2.980232e-008 2.000000e-001
         vertex 5.000004e-002 2.980232e-008 3.000000e-001
         vertex 2.980232e-008 2.980232e-008 2.000000e-001
      endloop
   endfacet
   facet normal 1.850372e-016 -1.000000e+000 0.000000e+000
      outer loop
         vertex 2.980232e-008 2.980232e-008 2.000000e-001
         vertex 5.000004e-002 2.980232e-008 3.000000e-001
         vertex 2.980232e-008 2.980232e-008 1.125000e+000
      endloop
   endfacet
   facet normal 0.000000e+000 0.000000e+000 1.000000e+000
      outer loop
         vertex 6.000000e-001 6.000000e-001 3.000000e-001
         vertex 5.000004e-002 6.000000e-001 3.000000e-001
         vertex 6.000000e-001 2.980232e-008 3.000000e-001
      endloop
   endfacet
   facet normal 0.000000e+000 0.000000e+000 1.000000e+000
      outer loop
         vertex 6.000000e-001 2.980232e-008 3.000000e-001
         vertex 5.000004e-002 6.000000e-001 3.000000e-001
         vertex 5.000004e-002 5.750000e-001 3.000000e-001
      endloop
   endfacet
   facet normal 0.000000e+000 0.000000e+000 1.000000e+000
      outer loop
         vertex 5.000004e-002 2.980232e-008 3.000000e-001
         vertex 6.000000e-001 2.980232e-008 3.000000e-001
         vertex 5.000004e-002 2.500004e-002 3.000000e-001
      endloop
   endfacet
   facet normal 0.000000e+000 0.000000e+000 1.000000e+000
      outer loop
         vertex 5.000004e-002 2.500004e-002 3.000000e-001
         vertex 6.000000e-001 2.980232e-008 3.000000e-001
         vertex 5.000004e-002 5.750000e-001 3.000000e-001
      endloop
   endfacet
   facet normal 0.000000e+000 0.000000e+000 1.000000e+000
      outer loop
         vertex 5.000004e-002 2.500004e-002 3.000000e-001
         vertex 5.000004e-002 5.750000e-001 3.000000e-001
         vertex 2.980232e-008 2.500004e-002 3.000000e-001
      endloop
   endfacet
   facet normal 0.000000e+000 0.000000e+000 1.000000e+000
      outer loop
         vertex 2.980232e-008 2.500004e-002 3.000000e-001
         vertex 5.000004e-002 5.750000e-001 3.000000e-001
         vertex 2.980232e-008 5.750000e-001 3.000000e-001
      endloop
   endfacet
   facet normal 0.000000e+000 0.000000e+000 -1.000000e+000
      outer loop
         vertex 2.980232e-008 2.980232e-008 0.000000e+000
         vertex 2.980232e-008 6.000000e-001 0.000000e+000
         vertex 6.000000e-001 2.980232e-008 0.000000e+000
      endloop
   endfacet
   facet normal 0.000000e+000 0.000000e+000 -1.000000e+000
      outer loop
         vertex 6.000000e-001 2.980232e-008 0.000000e+000
         vertex 2.980232e-008 6.000000e-001 0.000000e+000
         vertex 6.000000e-001 6.000000e-001 0.000000e+000
      endloop
   endfacet
   facet normal 0.000000e+000 -9.251858e-017 1.000000e+000
      outer loop
         vertex 4.500000e-001 6.000000e-001 1.000000e-001
         vertex 4.500000e-001 4.500000e-001 1.000000e-001
         vertex 6.000000e-001 6.000000e-001 1.000000e-001
      endloop
   endfacet
   facet normal 0.000000e+000 -9.251858e-017 1.000000e+000
      outer loop
         vertex 6.000000e-001 6.000000e-001 1.000000e-001
         vertex 4.500000e-001 4.500000e-001 1.000000e-001
         vertex 6.000000e-001 4.500000e-001 1.000000e-001
      endloop
   endfacet
   facet normal 0.000000e+000 1.000000e+000 -2.775558e-016
      outer loop
         vertex 4.500000e-001 4.500000e-001 1.000000e-001
         vertex 4.500000e-001 4.500000e-001 2.000000e-001
         vertex 6.000000e-001 4.500000e-001 1.000000e-001
      endloop
   endfacet
   facet normal 0.000000e+000 1.000000e+000 -2.775558e-016
      outer loop
         vertex 6.000000e-001 4.500000e-001 1.000000e-001
         vertex 4.500000e-001 4.500000e-001 2.000000e-001
         vertex 6.000000e-001 4.500000e-001 2.000000e-001
      endloop
   endfacet
   facet normal 0.000000e+000 0.000000e+000 -1.000000e+000
      outer loop
         vertex 4.500000e-001 4.500000e-001 2.000000e-001
         vertex 4.500000e-001 6.000000e-001 2.000000e-001
         vertex 6.000000e-001 4.500000e-001 2.000000e-001
      endloop
   endfacet
   facet normal 0.000000e+000 0.000000e+000 -1.000000e+000
      outer loop
         vertex 6.000000e-001 4.500000e-001 2.000000e-001
         vertex 4.500000e-001 6.000000e-001 2.000000e-001
         vertex 6.000000e-001 6.000000e-001 2.000000e-001
      endloop
   endfacet
   facet normal 1.000000e+000 0.000000e+000 0.000000e+000
      outer loop
         vertex 4.500000e-001 6.000000e-001 2.000000e-001
         vertex 4.500000e-001 4.500000e-001 2.000000e-001
         vertex 4.500000e-001 6.000000e-001 1.000000e-001
      endloop
   endfacet
   facet normal 1.000000e+000 0.000000e+000 0.000000e+000
      outer loop
         vertex 4.500000e-001 6.000000e-001 1.000000e-001
         vertex 4.500000e-001 4.500000e-001 2.000000e-001
         vertex 4.500000e-001 4.500000e-001 1.000000e-001
      endloop
   endfacet
   facet normal 0.000000e+000 0.000000e+000 1.000000e+000
      outer loop
         vertex 4.500000e-001 1.500000e-001 1.000000e-001
         vertex 4.500000e-001 2.980232e-008 1.000000e-001
         vertex 6.000000e-001 1.500000e-001 1.000000e-001
      endloop
   endfacet
   facet normal 0.000000e+000 0.000000e+000 1.000000e+000
      outer loop
         vertex 6.000000e-001 1.500000e-001 1.000000e-001
         vertex 4.500000e-001 2.980232e-008 1.000000e-001
         vertex 6.000000e-001 2.980232e-008 1.000000e-001
      endloop
   endfacet
   facet normal 0.000000e+000 0.000000e+000 -1.000000e+000
      outer loop
         vertex 4.500000e-001 2.980232e-008 2.000000e-001
         vertex 4.500000e-001 1.500000e-001 2.000000e-001
         vertex 6.000000e-001 2.980232e-008 2.000000e-001
      endloop
   endfacet
   facet normal 0.000000e+000 0.000000e+000 -1.000000e+000
      outer loop
         vertex 6.000000e-001 2.980232e-008 2.000000e-001
         vertex 4.500000e-001 1.500000e-001 2.000000e-001
         vertex 6.000000e-001 1.500000e-001 2.000000e-001
      endloop
   endfacet
   facet normal 0.000000e+000 -1.000000e+000 2.775558e-016
      outer loop
         vertex 4.500000e-001 1.500000e-001 2.000000e-001
         vertex 4.500000e-001 1.500000e-001 1.000000e-001
         vertex 6.000000e-001 1.500000e-001 2.000000e-001
      endloop
   endfacet
   facet normal 0.000000e+000 -1.000000e+000 2.775558e-016
      outer loop
         vertex 6.000000e-001 1.500000e-001 2.000000e-001
         vertex 4.500000e-001 1.500000e-001 1.000000e-001
         vertex 6.000000e-001 1.500000e-001 1.000000e-001
      endloop
   endfacet
   facet normal 1.000000e+000 0.000000e+000 0.000000e+000
      outer loop
         vertex 4.500000e-001 1.500000e-001 2.000000e-001
         vertex 4.500000e-001 2.980232e-008 2.000000e-001
         vertex 4.500000e-001 1.500000e-001 1.000000e-001
      endloop
   endfacet
   facet normal 1.000000e+000 0.000000e+000 0.000000e+000
      outer loop
         vertex 4.500000e-001 1.500000e-001 1.000000e-001
         vertex 4.500000e-001 2.980232e-008 2.000000e-001
         vertex 4.500000e-001 2.980232e-008 1.000000e-001
      endloop
   endfacet
   facet normal 0.000000e+000 0.000000e+000 1.000000e+000
      outer loop
         vertex 1.500000e-001 2.980232e-008 1.000000e-001
         vertex 1.500000e-001 1.500000e-001 1.000000e-001
         vertex 2.980232e-008 2.980232e-008 1.000000e-001
      endloop
   endfacet
   facet normal 0.000000e+000 0.000000e+000 1.000000e+000
      outer loop
         vertex 2.980232e-008 2.980232e-008 1.000000e-001
         vertex 1.500000e-001 1.500000e-001 1.000000e-001
         vertex 2.980232e-008 1.500000e-001 1.000000e-001
      endloop
   endfacet
   facet normal 0.000000e+000 -1.000000e+000 0.000000e+000
      outer loop
         vertex 1.500000e-001 1.500000e-001 1.000000e-001
         vertex 1.500000e-001 1.500000e-001 2.000000e-001
         vertex 2.980232e-008 1.500000e-001 1.000000e-001
      endloop
   endfacet
   facet normal 0.000000e+000 -1.000000e+000 0.000000e+000
      outer loop
         vertex 2.980232e-008 1.500000e-001 1.000000e-001
         vertex 1.500000e-001 1.500000e-001 2.000000e-001
         vertex 2.980232e-008 1.500000e-001 2.000000e-001
      endloop
   endfacet
   facet normal 0.000000e+000 0.000000e+000 -1.000000e+000
      outer loop
         vertex 1.500000e-001 1.500000e-001 2.000000e-001
         vertex 1.500000e-001 2.980232e-008 2.000000e-001
         vertex 2.980232e-008 1.500000e-001 2.000000e-001
      endloop
   endfacet
   facet normal 0.000000e+000 0.000000e+000 -1.000000e+000
      outer loop
         vertex 2.980232e-008 1.500000e-001 2.000000e-001
         vertex 1.500000e-001 2.980232e-008 2.000000e-001
         vertex 2.980232e-008 2.980232e-008 2.000000e-001
      endloop
   endfacet
   facet normal -1.000000e+000 0.000000e+000 0.000000e+000
      outer loop
         vertex 1.500000e-001 2.980232e-008 2.000000e-001
         vertex 1.500000e-001 1.500000e-001 2.000000e-001
         vertex 1.500000e-001 2.980232e-008 1.000000e-001
      endloop
   endfacet
   facet normal -1.000000e+000 0.000000e+000 0.000000e+000
      outer loop
         vertex 1.500000e-001 2.980232e-008 1.000000e-001
         vertex 1.500000e-001 1.500000e-001 2.000000e-001
         vertex 1.500000e-001 1.500000e-001 1.000000e-001
      endloop
   endfacet
   facet normal 0.000000e+000 9.251858e-017 1.000000e+000
      outer loop
         vertex 1.500000e-001 4.500000e-001 1.000000e-001
         vertex 1.500000e-001 6.000000e-001 1.000000e-001
         vertex 2.980232e-008 4.500000e-001 1.000000e-001
      endloop
   endfacet
   facet normal 0.000000e+000 9.251858e-017 1.000000e+000
      outer loop
         vertex 2.980232e-008 4.500000e-001 1.000000e-001
         vertex 1.500000e-001 6.000000e-001 1.000000e-001
         vertex 2.980232e-008 6.000000e-001 1.000000e-001
      endloop
   endfacet
   facet normal 0.000000e+000 0.000000e+000 -1.000000e+000
      outer loop
         vertex 1.500000e-001 6.000000e-001 2.000000e-001
         vertex 1.500000e-001 4.500000e-001 2.000000e-001
         vertex 2.980232e-008 6.000000e-001 2.000000e-001
      endloop
   endfacet
   facet normal 0.000000e+000 0.000000e+000 -1.000000e+000
      outer loop
         vertex 2.980232e-008 6.000000e-001 2.000000e-001
         vertex 1.500000e-001 4.500000e-001 2.000000e-001
         vertex 2.980232e-008 4.500000e-001 2.000000e-001
      endloop
   endfacet
   facet normal 0.000000e+000 1.000000e+000 0.000000e+000
      outer loop
         vertex 1.500000e-001 4.500000e-001 2.000000e-001
         vertex 1.500000e-001 4.500000e-001 1.000000e-001
         vertex 2.980232e-008 4.500000e-001 2.000000e-001
      endloop
   endfacet
   facet normal 0.000000e+000 1.000000e+000 0.000000e+000
      outer loop
         vertex 2.980232e-008 4.500000e-001 2.000000e-001
         vertex 1.500000e-001 4.500000e-001 1.000000e-001
         vertex 2.980232e-008 4.500000e-001 1.000000e-001
      endloop
   endfacet
   facet normal -1.000000e+000 0.000000e+000 0.000000e+000
      outer loop
         vertex 1.500000e-001 4.500000e-001 2.000000e-001
         vertex 1.500000e-001 6.000000e-001 2.000000e-001
         vertex 1.500000e-001 4.500000e-001 1.000000e-001
      endloop
   endfacet
   facet normal -1.000000e+000 0.000000e+000 0.000000e+000
      outer loop
         vertex 1.500000e-001 4.500000e-001 1.000000e-001
         vertex 1.500000e-001 6.000000e-001 2.000000e-001
         vertex 1.500000e-001 6.000000e-001 1.000000e-001
      endloop
   endfacet
   facet normal 1.000000e+000 1.850372e-016 0.000000e+000
      outer loop
         vertex 5.000004e-002 5.750000e-001 3.000000e-001
         vertex 5.000004e-002 6.000000e-001 3.000000e-001
         vertex 5.000004e-002 5.750000e-001 1.100000e+000
      endloop
   endfacet
   facet normal 1.000000e+000 1.850372e-016 0.000000e+000
      outer loop
         vertex 5.000004e-002 5.750000e-001 1.100000e+000
         vertex 5.000004e-002 6.000000e-001 3.000000e-001
         vertex 5.000004e-002 6.000000e-001 1.125000e+000
      endloop
   endfacet
   facet normal 1.000000e+000 1.850372e-016 0.000000e+000
      outer loop
         vertex 5.000004e-002 5.750000e-001 1.100000e+000
         vertex 5.000004e-002 6.000000e-001 1.125000e+000
         vertex 5.000004e-002 2.500004e-002 1.100000e+000
      endloop
   endfacet
   facet normal 1.000000e+000 1.850372e-016 0.000000e+000
      outer loop
         vertex 5.000004e-002 2.500004e-002 1.100000e+000
         vertex 5.000004e-002 6.000000e-001 1.125000e+000
         vertex 5.000004e-002 2.980232e-008 1.125000e+000
      endloop
   endfacet
   facet normal 1.000000e+000 1.850372e-016 0.000000e+000
      outer loop
         vertex 5.000004e-002 2.500004e-002 1.100000e+000
         vertex 5.000004e-002 2.980232e-008 1.125000e+000
         vertex 5.000004e-002 2.500004e-002 3.000000e-001
      endloop
   endfacet
   facet normal 1.000000e+000 1.850372e-016 0.000000e+000
      outer loop
         vertex 5.000004e-002 2.500004e-002 3.000000e-001
         vertex 5.000004e-002 2.980232e-008 1.125000e+000
         vertex 5.000004e-002 2.980232e-008 3.000000e-001
      endloop
   endfacet
   facet normal 0.000000e+000 1.000000e+000 0.000000e+000
      outer loop
         vertex 2.980232e-008 2.500004e-002 1.100000e+000
         vertex 5.000004e-002 2.500004e-002 1.100000e+000
         vertex 2.980232e-008 2.500004e-002 3.000000e-001
      endloop
   endfacet
   facet normal 0.000000e+000 1.000000e+000 0.000000e+000
      outer loop
         vertex 2.980232e-008 2.500004e-002 3.000000e-001
         vertex 5.000004e-002 2.500004e-002 1.100000e+000
         vertex 5.000004e-002 2.500004e-002 3.000000e-001
      endloop
   endfacet
   facet normal 0.000000e+000 -1.000000e+000 0.000000e+000
      outer loop
         vertex 5.000004e-002 5.750000e-001 3.000000e-001
         vertex 5.000004e-002 5.750000e-001 1.100000e+000
         vertex 2.980232e-008 5.750000e-001 3.000000e-001
      endloop
   endfacet
   facet normal 0.000000e+000 -1.000000e+000 0.000000e+000
      outer loop
         vertex 2.980232e-008 5.750000e-001 3.000000e-001
         vertex 5.000004e-002 5.750000e-001 1.100000e+000
         vertex 2.980232e-008 5.750000e-001 1.100000e+000
      endloop
   endfacet
   facet normal 0.000000e+000 0.000000e+000 -1.000000e+000
      outer loop
         vertex 2.980232e-008 5.750000e-001 1.100000e+000
         vertex 5.000004e-002 5.750000e-001 1.100000e+000
         vertex 2.980232e-008 2.500004e-002 1.100000e+000
      endloop
   endfacet
   facet normal 0.000000e+000 0.000000e+000 -1.000000e+000
      outer loop
         vertex 2.980232e-008 2.500004e-002 1.100000e+000
         vertex 5.000004e-002 5.750000e-001 1.100000e+000
         vertex 5.000004e-002 2.500004e-002 1.100000e+000
      endloop
   endfacet
   facet normal 0.000000e+000 0.000000e+000 1.000000e+000
      outer loop
         vertex 2.980232e-008 6.000000e-001 1.125000e+000
         vertex 2.980232e-008 2.980232e-008 1.125000e+000
         vertex 5.000004e-002 6.000000e-001 1.125000e+000
      endloop
   endfacet
   facet normal 0.000000e+000 0.000000e+000 1.000000e+000
      outer loop
         vertex 5.000004e-002 6.000000e-001 1.125000e+000
         vertex 2.980232e-008 2.980232e-008 1.125000e+000
         vertex 5.000004e-002 2.980232e-008 1.125000e+000
      endloop
   endfacet
endsolid