solid SquareWheelPivot
   facet normal 8.673617e-017 0.000000e+000 1.000000e+000
      outer loop
         vertex 2.000000e-002 1.000000e-001 2.000000e-002
         vertex 1.766044e-002 5.642788e-002 2.000000e-002
         vertex 1.866025e-002 5.500000e-002 2.000000e-002
      endloop
   endfacet
   facet normal 8.673617e-017 0.000000e+000 1.000000e+000
      outer loop
         vertex 0.000000e+000 1.000000e-001 2.000000e-002
         vertex 1.000000e-002 6.000000e-002 2.000000e-002
         vertex 2.000000e-002 1.000000e-001 2.000000e-002
      endloop
   endfacet
   facet normal 8.673617e-017 0.000000e+000 1.000000e+000
      outer loop
         vertex 2.000000e-002 1.000000e-001 2.000000e-002
         vertex 1.000000e-002 6.000000e-002 2.000000e-002
         vertex 1.173648e-002 5.984808e-002 2.000000e-002
      endloop
   endfacet
   facet normal 8.673617e-017 0.000000e+000 1.000000e+000
      outer loop
         vertex 2.000000e-002 1.000000e-001 2.000000e-002
         vertex 1.173648e-002 5.984808e-002 2.000000e-002
         vertex 1.342020e-002 5.939693e-002 2.000000e-002
      endloop
   endfacet
   facet normal 8.673617e-017 0.000000e+000 1.000000e+000
      outer loop
         vertex 0.000000e+000 5.000000e-002 2.000000e-002
         vertex 1.519220e-004 5.173648e-002 2.000000e-002
         vertex 0.000000e+000 1.000000e-001 2.000000e-002
      endloop
   endfacet
   facet normal 8.673617e-017 0.000000e+000 1.000000e+000
      outer loop
         vertex 0.000000e+000 1.000000e-001 2.000000e-002
         vertex 1.519220e-004 5.173648e-002 2.000000e-002
         vertex 6.030733e-004 5.342020e-002 2.000000e-002
      endloop
   endfacet
   facet normal 8.673617e-017 0.000000e+000 1.000000e+000
      outer loop
         vertex 0.000000e+000 1.000000e-001 2.000000e-002
         vertex 6.030733e-004 5.342020e-002 2.000000e-002
         vertex 1.339746e-003 5.500000e-002 2.000000e-002
      endloop
   endfacet
   facet normal 8.673617e-017 0.000000e+000 1.000000e+000
      outer loop
         vertex 1.339746e-003 5.500000e-002 2.000000e-002
         vertex 2.339555e-003 5.642788e-002 2.000000e-002
         vertex 0.000000e+000 1.000000e-001 2.000000e-002
      endloop
   endfacet
   facet normal 8.673617e-017 0.000000e+000 1.000000e+000
      outer loop
         vertex 0.000000e+000 1.000000e-001 2.000000e-002
         vertex 2.339555e-003 5.642788e-002 2.000000e-002
         vertex 3.572124e-003 5.766045e-002 2.000000e-002
      endloop
   endfacet
   facet normal 8.673617e-017 0.000000e+000 1.000000e+000
      outer loop
         vertex 0.000000e+000 1.000000e-001 2.000000e-002
         vertex 3.572124e-003 5.766045e-002 2.000000e-002
         vertex 5.000000e-003 5.866025e-002 2.000000e-002
      endloop
   endfacet
   facet normal 8.673617e-017 0.000000e+000 1.000000e+000
      outer loop
         vertex 1.342020e-002 5.939693e-002 2.000000e-002
         vertex 1.500000e-002 5.866025e-002 2.000000e-002
         vertex 2.000000e-002 1.000000e-001 2.000000e-002
      endloop
   endfacet
   facet normal 8.673617e-017 0.000000e+000 1.000000e+000
      outer loop
         vertex 2.000000e-002 1.000000e-001 2.000000e-002
         vertex 1.500000e-002 5.866025e-002 2.000000e-002
         vertex 1.642788e-002 5.766045e-002 2.000000e-002
      endloop
   endfacet
   facet normal 8.673617e-017 0.000000e+000 1.000000e+000
      outer loop
         vertex 2.000000e-002 1.000000e-001 2.000000e-002
         vertex 1.642788e-002 5.766045e-002 2.000000e-002
         vertex 1.766044e-002 5.642788e-002 2.000000e-002
      endloop
   endfacet
   facet normal 8.673617e-017 0.000000e+000 1.000000e+000
      outer loop
         vertex 1.866025e-002 5.500000e-002 2.000000e-002
         vertex 1.939693e-002 5.342020e-002 2.000000e-002
         vertex 2.000000e-002 1.000000e-001 2.000000e-002
      endloop
   endfacet
   facet normal 8.673617e-017 0.000000e+000 1.000000e+000
      outer loop
         vertex 2.000000e-002 1.000000e-001 2.000000e-002
         vertex 1.939693e-002 5.342020e-002 2.000000e-002
         vertex 1.984808e-002 5.173648e-002 2.000000e-002
      endloop
   endfacet
   facet normal 8.673617e-017 0.000000e+000 1.000000e+000
      outer loop
         vertex 2.000000e-002 1.000000e-001 2.000000e-002
         vertex 1.984808e-002 5.173648e-002 2.000000e-002
         vertex 2.000000e-002 5.000000e-002 2.000000e-002
      endloop
   endfacet
   facet normal 8.673617e-017 0.000000e+000 1.000000e+000
      outer loop
         vertex 5.000000e-003 5.866025e-002 2.000000e-002
         vertex 6.579799e-003 5.939693e-002 2.000000e-002
         vertex 0.000000e+000 1.000000e-001 2.000000e-002
      endloop
   endfacet
   facet normal 8.673617e-017 0.000000e+000 1.000000e+000
      outer loop
         vertex 0.000000e+000 1.000000e-001 2.000000e-002
         vertex 6.579799e-003 5.939693e-002 2.000000e-002
         vertex 8.263518e-003 5.984808e-002 2.000000e-002
      endloop
   endfacet
   facet normal 8.673617e-017 0.000000e+000 1.000000e+000
      outer loop
         vertex 0.000000e+000 1.000000e-001 2.000000e-002
         vertex 8.263518e-003 5.984808e-002 2.000000e-002
         vertex 1.000000e-002 6.000000e-002 2.000000e-002
      endloop
   endfacet
   facet normal 8.673617e-017 0.000000e+000 1.000000e+000
      outer loop
         vertex 1.519220e-004 4.826352e-002 2.000000e-002
         vertex 0.000000e+000 5.000000e-002 2.000000e-002
         vertex 0.000000e+000 0.000000e+000 2.000000e-002
      endloop
   endfacet
   facet normal 8.673617e-017 0.000000e+000 1.000000e+000
      outer loop
         vertex 2.000000e-002 0.000000e+000 2.000000e-002
         vertex 1.500000e-002 4.133975e-002 2.000000e-002
         vertex 1.342020e-002 4.060308e-002 2.000000e-002
      endloop
   endfacet
   facet normal 8.673617e-017 0.000000e+000 1.000000e+000
      outer loop
         vertex 2.000000e-002 5.000000e-002 2.000000e-002
         vertex 1.984808e-002 4.826352e-002 2.000000e-002
         vertex 2.000000e-002 0.000000e+000 2.000000e-002
      endloop
   endfacet
   facet normal 8.673617e-017 0.000000e+000 1.000000e+000
      outer loop
         vertex 2.000000e-002 0.000000e+000 2.000000e-002
         vertex 1.984808e-002 4.826352e-002 2.000000e-002
         vertex 1.939693e-002 4.657980e-002 2.000000e-002
      endloop
   endfacet
   facet normal 8.673617e-017 0.000000e+000 1.000000e+000
      outer loop
         vertex 2.000000e-002 0.000000e+000 2.000000e-002
         vertex 1.939693e-002 4.657980e-002 2.000000e-002
         vertex 1.866025e-002 4.500000e-002 2.000000e-002
      endloop
   endfacet
   facet normal 8.673617e-017 0.000000e+000 1.000000e+000
      outer loop
         vertex 1.342020e-002 4.060308e-002 2.000000e-002
         vertex 1.173648e-002 4.015192e-002 2.000000e-002
         vertex 2.000000e-002 0.000000e+000 2.000000e-002
      endloop
   endfacet
   facet normal 8.673617e-017 0.000000e+000 1.000000e+000
      outer loop
         vertex 2.000000e-002 0.000000e+000 2.000000e-002
         vertex 1.173648e-002 4.015192e-002 2.000000e-002
         vertex 1.000000e-002 4.000000e-002 2.000000e-002
      endloop
   endfacet
   facet normal 8.673617e-017 0.000000e+000 1.000000e+000
      outer loop
         vertex 2.000000e-002 0.000000e+000 2.000000e-002
         vertex 1.000000e-002 4.000000e-002 2.000000e-002
         vertex 0.000000e+000 0.000000e+000 2.000000e-002
      endloop
   endfacet
   facet normal 8.673617e-017 0.000000e+000 1.000000e+000
      outer loop
         vertex 0.000000e+000 0.000000e+000 2.000000e-002
         vertex 1.000000e-002 4.000000e-002 2.000000e-002
         vertex 8.263518e-003 4.015192e-002 2.000000e-002
      endloop
   endfacet
   facet normal 8.673617e-017 0.000000e+000 1.000000e+000
      outer loop
         vertex 0.000000e+000 0.000000e+000 2.000000e-002
         vertex 8.263518e-003 4.015192e-002 2.000000e-002
         vertex 6.579799e-003 4.060308e-002 2.000000e-002
      endloop
   endfacet
   facet normal 8.673617e-017 0.000000e+000 1.000000e+000
      outer loop
         vertex 6.579799e-003 4.060308e-002 2.000000e-002
         vertex 5.000000e-003 4.133975e-002 2.000000e-002
         vertex 0.000000e+000 0.000000e+000 2.000000e-002
      endloop
   endfacet
   facet normal 8.673617e-017 0.000000e+000 1.000000e+000
      outer loop
         vertex 0.000000e+000 0.000000e+000 2.000000e-002
         vertex 5.000000e-003 4.133975e-002 2.000000e-002
         vertex 3.572124e-003 4.233956e-002 2.000000e-002
      endloop
   endfacet
   facet normal 8.673617e-017 0.000000e+000 1.000000e+000
      outer loop
         vertex 0.000000e+000 0.000000e+000 2.000000e-002
         vertex 3.572124e-003 4.233956e-002 2.000000e-002
         vertex 2.339555e-003 4.357212e-002 2.000000e-002
      endloop
   endfacet
   facet normal 8.673617e-017 0.000000e+000 1.000000e+000
      outer loop
         vertex 1.866025e-002 4.500000e-002 2.000000e-002
         vertex 1.766044e-002 4.357212e-002 2.000000e-002
         vertex 2.000000e-002 0.000000e+000 2.000000e-002
      endloop
   endfacet
   facet normal 8.673617e-017 0.000000e+000 1.000000e+000
      outer loop
         vertex 2.000000e-002 0.000000e+000 2.000000e-002
         vertex 1.766044e-002 4.357212e-002 2.000000e-002
         vertex 1.642788e-002 4.233956e-002 2.000000e-002
      endloop
   endfacet
   facet normal 8.673617e-017 0.000000e+000 1.000000e+000
      outer loop
         vertex 2.000000e-002 0.000000e+000 2.000000e-002
         vertex 1.642788e-002 4.233956e-002 2.000000e-002
         vertex 1.500000e-002 4.133975e-002 2.000000e-002
      endloop
   endfacet
   facet normal 8.673617e-017 0.000000e+000 1.000000e+000
      outer loop
         vertex 2.339555e-003 4.357212e-002 2.000000e-002
         vertex 1.339746e-003 4.500000e-002 2.000000e-002
         vertex 0.000000e+000 0.000000e+000 2.000000e-002
      endloop
   endfacet
   facet normal 8.673617e-017 0.000000e+000 1.000000e+000
      outer loop
         vertex 0.000000e+000 0.000000e+000 2.000000e-002
         vertex 1.339746e-003 4.500000e-002 2.000000e-002
         vertex 6.030733e-004 4.657980e-002 2.000000e-002
      endloop
   endfacet
   facet normal 8.673617e-017 0.000000e+000 1.000000e+000
      outer loop
         vertex 0.000000e+000 0.000000e+000 2.000000e-002
         vertex 6.030733e-004 4.657980e-002 2.000000e-002
         vertex 1.519220e-004 4.826352e-002 2.000000e-002
      endloop
   endfacet
   facet normal -1.000000e+000 0.000000e+000 0.000000e+000
      outer loop
         vertex 0.000000e+000 1.000000e-001 2.000000e-002
         vertex 0.000000e+000 1.000000e-001 0.000000e+000
         vertex 0.000000e+000 5.000000e-002 2.000000e-002
      endloop
   endfacet
   facet normal -1.000000e+000 0.000000e+000 0.000000e+000
      outer loop
         vertex 0.000000e+000 5.000000e-002 2.000000e-002
         vertex 0.000000e+000 1.000000e-001 0.000000e+000
         vertex 0.000000e+000 0.000000e+000 0.000000e+000
      endloop
   endfacet
   facet normal -1.000000e+000 0.000000e+000 0.000000e+000
      outer loop
         vertex 0.000000e+000 5.000000e-002 2.000000e-002
         vertex 0.000000e+000 0.000000e+000 0.000000e+000
         vertex 0.000000e+000 0.000000e+000 2.000000e-002
      endloop
   endfacet
   facet normal -8.673617e-017 0.000000e+000 -1.000000e+000
      outer loop
         vertex 2.000000e-002 1.000000e-001 0.000000e+000
         vertex 2.000000e-002 0.000000e+000 0.000000e+000
         vertex 0.000000e+000 1.000000e-001 0.000000e+000
      endloop
   endfacet
   facet normal -8.673617e-017 0.000000e+000 -1.000000e+000
      outer loop
         vertex 0.000000e+000 1.000000e-001 0.000000e+000
         vertex 2.000000e-002 0.000000e+000 0.000000e+000
         vertex 0.000000e+000 0.000000e+000 0.000000e+000
      endloop
   endfacet
   facet normal 1.000000e+000 0.000000e+000 0.000000e+000
      outer loop
         vertex 2.000000e-002 0.000000e+000 2.000000e-002
         vertex 2.000000e-002 0.000000e+000 0.000000e+000
         vertex 2.000000e-002 5.000000e-002 2.000000e-002
      endloop
   endfacet
   facet normal 1.000000e+000 0.000000e+000 0.000000e+000
      outer loop
         vertex 2.000000e-002 5.000000e-002 2.000000e-002
         vertex 2.000000e-002 0.000000e+000 0.000000e+000
         vertex 2.000000e-002 1.000000e-001 0.000000e+000
      endloop
   endfacet
   facet normal 1.000000e+000 0.000000e+000 0.000000e+000
      outer loop
         vertex 2.000000e-002 5.000000e-002 2.000000e-002
         vertex 2.000000e-002 1.000000e-001 0.000000e+000
         vertex 2.000000e-002 1.000000e-001 2.000000e-002
      endloop
   endfacet
   facet normal 0.000000e+000 -1.000000e+000 0.000000e+000
      outer loop
         vertex 2.000000e-002 0.000000e+000 0.000000e+000
         vertex 2.000000e-002 0.000000e+000 2.000000e-002
         vertex 0.000000e+000 0.000000e+000 0.000000e+000
      endloop
   endfacet
   facet normal 0.000000e+000 -1.000000e+000 0.000000e+000
      outer loop
         vertex 0.000000e+000 0.000000e+000 0.000000e+000
         vertex 2.000000e-002 0.000000e+000 2.000000e-002
         vertex 0.000000e+000 0.000000e+000 2.000000e-002
      endloop
   endfacet
   facet normal 0.000000e+000 1.000000e+000 0.000000e+000
      outer loop
         vertex 2.000000e-002 1.000000e-001 2.000000e-002
         vertex 2.000000e-002 1.000000e-001 0.000000e+000
         vertex 0.000000e+000 1.000000e-001 2.000000e-002
      endloop
   endfacet
   facet normal 0.000000e+000 1.000000e+000 0.000000e+000
      outer loop
         vertex 0.000000e+000 1.000000e-001 2.000000e-002
         vertex 2.000000e-002 1.000000e-001 0.000000e+000
         vertex 0.000000e+000 1.000000e-001 0.000000e+000
      endloop
   endfacet
   facet normal -9.983119e-001 5.807913e-002 0.000000e+000
      outer loop
         vertex 1.519220e-004 5.173648e-002 2.100000e-001
         vertex 0.000000e+000 5.000000e-002 2.000000e-002
         vertex 0.000000e+000 5.000000e-002 2.100000e-001
      endloop
   endfacet
   facet normal -9.983119e-001 -5.807913e-002 0.000000e+000
      outer loop
         vertex 0.000000e+000 5.000000e-002 2.100000e-001
         vertex 0.000000e+000 5.000000e-002 2.000000e-002
         vertex 1.519220e-004 4.826352e-002 2.000000e-002
      endloop
   endfacet
   facet normal -9.932307e-001 -1.161583e-001 0.000000e+000
      outer loop
         vertex 0.000000e+000 5.000000e-002 2.100000e-001
         vertex 1.519220e-004 4.826352e-002 2.000000e-002
         vertex 1.519220e-004 4.826352e-002 2.100000e-001
      endloop
   endfacet
   facet normal -9.730600e-001 -2.305519e-001 0.000000e+000
      outer loop
         vertex 1.519220e-004 4.826352e-002 2.100000e-001
         vertex 1.519220e-004 4.826352e-002 2.000000e-002
         vertex 6.030733e-004 4.657980e-002 2.000000e-002
      endloop
   endfacet
   facet normal -9.579706e-001 -2.868663e-001 0.000000e+000
      outer loop
         vertex 1.519220e-004 4.826352e-002 2.100000e-001
         vertex 6.030733e-004 4.657980e-002 2.000000e-002
         vertex 6.030733e-004 4.657980e-002 2.100000e-001
      endloop
   endfacet
   facet normal -9.182422e-001 -3.960194e-001 0.000000e+000
      outer loop
         vertex 6.030733e-004 4.657980e-002 2.100000e-001
         vertex 6.030733e-004 4.657980e-002 2.000000e-002
         vertex 1.339746e-003 4.500000e-002 2.000000e-002
      endloop
   endfacet
   facet normal -8.936031e-001 -4.488580e-001 0.000000e+000
      outer loop
         vertex 6.030733e-004 4.657980e-002 2.100000e-001
         vertex 1.339746e-003 4.500000e-002 2.000000e-002
         vertex 1.339746e-003 4.500000e-002 2.100000e-001
      endloop
   endfacet
   facet normal -8.355240e-001 -5.494540e-001 0.000000e+000
      outer loop
         vertex 1.339746e-003 4.500000e-002 2.100000e-001
         vertex 1.339746e-003 4.500000e-002 2.000000e-002
         vertex 2.339555e-003 4.357212e-002 2.000000e-002
      endloop
   endfacet
   facet normal -8.020838e-001 -5.972114e-001 0.000000e+000
      outer loop
         vertex 1.339746e-003 4.500000e-002 2.100000e-001
         vertex 2.339555e-003 4.357212e-002 2.000000e-002
         vertex 2.339555e-003 4.357212e-002 2.100000e-001
      endloop
   endfacet
   facet normal -7.274188e-001 -6.861938e-001 0.000000e+000
      outer loop
         vertex 2.339555e-003 4.357212e-002 2.100000e-001
         vertex 2.339555e-003 4.357212e-002 2.000000e-002
         vertex 3.572124e-003 4.233956e-002 2.000000e-002
      endloop
   endfacet
   facet normal -6.861938e-001 -7.274188e-001 0.000000e+000
      outer loop
         vertex 2.339555e-003 4.357212e-002 2.100000e-001
         vertex 3.572124e-003 4.233956e-002 2.000000e-002
         vertex 3.572124e-003 4.233956e-002 2.100000e-001
      endloop
   endfacet
   facet normal -5.972114e-001 -8.020838e-001 0.000000e+000
      outer loop
         vertex 3.572124e-003 4.233956e-002 2.100000e-001
         vertex 3.572124e-003 4.233956e-002 2.000000e-002
         vertex 5.000000e-003 4.133975e-002 2.000000e-002
      endloop
   endfacet
   facet normal -5.494540e-001 -8.355240e-001 0.000000e+000
      outer loop
         vertex 3.572124e-003 4.233956e-002 2.100000e-001
         vertex 5.000000e-003 4.133975e-002 2.000000e-002
         vertex 5.000000e-003 4.133975e-002 2.100000e-001
      endloop
   endfacet
   facet normal -4.488580e-001 -8.936031e-001 0.000000e+000
      outer loop
         vertex 5.000000e-003 4.133975e-002 2.100000e-001
         vertex 5.000000e-003 4.133975e-002 2.000000e-002
         vertex 6.579799e-003 4.060308e-002 2.000000e-002
      endloop
   endfacet
   facet normal -3.960194e-001 -9.182422e-001 0.000000e+000
      outer loop
         vertex 5.000000e-003 4.133975e-002 2.100000e-001
         vertex 6.579799e-003 4.060308e-002 2.000000e-002
         vertex 6.579799e-003 4.060308e-002 2.100000e-001
      endloop
   endfacet
   facet normal -2.868663e-001 -9.579706e-001 0.000000e+000
      outer loop
         vertex 6.579799e-003 4.060308e-002 2.100000e-001
         vertex 6.579799e-003 4.060308e-002 2.000000e-002
         vertex 8.263518e-003 4.015192e-002 2.000000e-002
      endloop
   endfacet
   facet normal -2.305519e-001 -9.730600e-001 0.000000e+000
      outer loop
         vertex 6.579799e-003 4.060308e-002 2.100000e-001
         vertex 8.263518e-003 4.015192e-002 2.000000e-002
         vertex 8.263518e-003 4.015192e-002 2.100000e-001
      endloop
   endfacet
   facet normal -1.161583e-001 -9.932307e-001 0.000000e+000
      outer loop
         vertex 8.263518e-003 4.015192e-002 2.100000e-001
         vertex 8.263518e-003 4.015192e-002 2.000000e-002
         vertex 1.000000e-002 4.000000e-002 2.000000e-002
      endloop
   endfacet
   facet normal -5.807913e-002 -9.983119e-001 0.000000e+000
      outer loop
         vertex 8.263518e-003 4.015192e-002 2.100000e-001
         vertex 1.000000e-002 4.000000e-002 2.000000e-002
         vertex 1.000000e-002 4.000000e-002 2.100000e-001
      endloop
   endfacet
   facet normal 5.807913e-002 -9.983119e-001 0.000000e+000
      outer loop
         vertex 1.000000e-002 4.000000e-002 2.100000e-001
         vertex 1.000000e-002 4.000000e-002 2.000000e-002
         vertex 1.173648e-002 4.015192e-002 2.000000e-002
      endloop
   endfacet
   facet normal 1.161583e-001 -9.932307e-001 0.000000e+000
      outer loop
         vertex 1.000000e-002 4.000000e-002 2.100000e-001
         vertex 1.173648e-002 4.015192e-002 2.000000e-002
         vertex 1.173648e-002 4.015192e-002 2.100000e-001
      endloop
   endfacet
   facet normal 2.305519e-001 -9.730600e-001 0.000000e+000
      outer loop
         vertex 1.173648e-002 4.015192e-002 2.100000e-001
         vertex 1.173648e-002 4.015192e-002 2.000000e-002
         vertex 1.342020e-002 4.060308e-002 2.000000e-002
      endloop
   endfacet
   facet normal 2.868663e-001 -9.579706e-001 0.000000e+000
      outer loop
         vertex 1.173648e-002 4.015192e-002 2.100000e-001
         vertex 1.342020e-002 4.060308e-002 2.000000e-002
         vertex 1.342020e-002 4.060308e-002 2.100000e-001
      endloop
   endfacet
   facet normal 3.960194e-001 -9.182422e-001 0.000000e+000
      outer loop
         vertex 1.342020e-002 4.060308e-002 2.100000e-001
         vertex 1.342020e-002 4.060308e-002 2.000000e-002
         vertex 1.500000e-002 4.133975e-002 2.000000e-002
      endloop
   endfacet
   facet normal 4.488580e-001 -8.936031e-001 0.000000e+000
      outer loop
         vertex 1.342020e-002 4.060308e-002 2.100000e-001
         vertex 1.500000e-002 4.133975e-002 2.000000e-002
         vertex 1.500000e-002 4.133975e-002 2.100000e-001
      endloop
   endfacet
   facet normal 5.494540e-001 -8.355240e-001 0.000000e+000
      outer loop
         vertex 1.500000e-002 4.133975e-002 2.100000e-001
         vertex 1.500000e-002 4.133975e-002 2.000000e-002
         vertex 1.642788e-002 4.233956e-002 2.000000e-002
      endloop
   endfacet
   facet normal 5.972114e-001 -8.020838e-001 0.000000e+000
      outer loop
         vertex 1.500000e-002 4.133975e-002 2.100000e-001
         vertex 1.642788e-002 4.233956e-002 2.000000e-002
         vertex 1.642788e-002 4.233956e-002 2.100000e-001
      endloop
   endfacet
   facet normal 6.861938e-001 -7.274188e-001 0.000000e+000
      outer loop
         vertex 1.642788e-002 4.233956e-002 2.100000e-001
         vertex 1.642788e-002 4.233956e-002 2.000000e-002
         vertex 1.766044e-002 4.357212e-002 2.000000e-002
      endloop
   endfacet
   facet normal 7.274188e-001 -6.861938e-001 0.000000e+000
      outer loop
         vertex 1.642788e-002 4.233956e-002 2.100000e-001
         vertex 1.766044e-002 4.357212e-002 2.000000e-002
         vertex 1.766044e-002 4.357212e-002 2.100000e-001
      endloop
   endfacet
   facet normal 8.020838e-001 -5.972114e-001 0.000000e+000
      outer loop
         vertex 1.766044e-002 4.357212e-002 2.100000e-001
         vertex 1.766044e-002 4.357212e-002 2.000000e-002
         vertex 1.866025e-002 4.500000e-002 2.000000e-002
      endloop
   endfacet
   facet normal 8.355240e-001 -5.494540e-001 0.000000e+000
      outer loop
         vertex 1.766044e-002 4.357212e-002 2.100000e-001
         vertex 1.866025e-002 4.500000e-002 2.000000e-002
         vertex 1.866025e-002 4.500000e-002 2.100000e-001
      endloop
   endfacet
   facet normal 8.936031e-001 -4.488580e-001 0.000000e+000
      outer loop
         vertex 1.866025e-002 4.500000e-002 2.100000e-001
         vertex 1.866025e-002 4.500000e-002 2.000000e-002
         vertex 1.939693e-002 4.657980e-002 2.000000e-002
      endloop
   endfacet
   facet normal 9.182422e-001 -3.960194e-001 0.000000e+000
      outer loop
         vertex 1.866025e-002 4.500000e-002 2.100000e-001
         vertex 1.939693e-002 4.657980e-002 2.000000e-002
         vertex 1.939693e-002 4.657980e-002 2.100000e-001
      endloop
   endfacet
   facet normal 9.579706e-001 -2.868663e-001 0.000000e+000
      outer loop
         vertex 1.939693e-002 4.657980e-002 2.100000e-001
         vertex 1.939693e-002 4.657980e-002 2.000000e-002
         vertex 1.984808e-002 4.826352e-002 2.000000e-002
      endloop
   endfacet
   facet normal 9.730600e-001 -2.305519e-001 0.000000e+000
      outer loop
         vertex 1.939693e-002 4.657980e-002 2.100000e-001
         vertex 1.984808e-002 4.826352e-002 2.000000e-002
         vertex 1.984808e-002 4.826352e-002 2.100000e-001
      endloop
   endfacet
   facet normal 9.932307e-001 -1.161583e-001 0.000000e+000
      outer loop
         vertex 1.984808e-002 4.826352e-002 2.100000e-001
         vertex 1.984808e-002 4.826352e-002 2.000000e-002
         vertex 2.000000e-002 5.000000e-002 2.000000e-002
      endloop
   endfacet
   facet normal 9.983119e-001 -5.807913e-002 0.000000e+000
      outer loop
         vertex 1.984808e-002 4.826352e-002 2.100000e-001
         vertex 2.000000e-002 5.000000e-002 2.000000e-002
         vertex 2.000000e-002 5.000000e-002 2.100000e-001
      endloop
   endfacet
   facet normal 9.983119e-001 5.807913e-002 0.000000e+000
      outer loop
         vertex 2.000000e-002 5.000000e-002 2.100000e-001
         vertex 2.000000e-002 5.000000e-002 2.000000e-002
         vertex 1.984808e-002 5.173648e-002 2.000000e-002
      endloop
   endfacet
   facet normal 9.932307e-001 1.161583e-001 0.000000e+000
      outer loop
         vertex 2.000000e-002 5.000000e-002 2.100000e-001
         vertex 1.984808e-002 5.173648e-002 2.000000e-002
         vertex 1.984808e-002 5.173648e-002 2.100000e-001
      endloop
   endfacet
   facet normal 9.730600e-001 2.305519e-001 0.000000e+000
      outer loop
         vertex 1.984808e-002 5.173648e-002 2.100000e-001
         vertex 1.984808e-002 5.173648e-002 2.000000e-002
         vertex 1.939693e-002 5.342020e-002 2.000000e-002
      endloop
   endfacet
   facet normal 9.579706e-001 2.868663e-001 0.000000e+000
      outer loop
         vertex 1.984808e-002 5.173648e-002 2.100000e-001
         vertex 1.939693e-002 5.342020e-002 2.000000e-002
         vertex 1.939693e-002 5.342020e-002 2.100000e-001
      endloop
   endfacet
   facet normal 9.182422e-001 3.960194e-001 0.000000e+000
      outer loop
         vertex 1.939693e-002 5.342020e-002 2.100000e-001
         vertex 1.939693e-002 5.342020e-002 2.000000e-002
         vertex 1.866025e-002 5.500000e-002 2.000000e-002
      endloop
   endfacet
   facet normal 8.936031e-001 4.488580e-001 0.000000e+000
      outer loop
         vertex 1.939693e-002 5.342020e-002 2.100000e-001
         vertex 1.866025e-002 5.500000e-002 2.000000e-002
         vertex 1.866025e-002 5.500000e-002 2.100000e-001
      endloop
   endfacet
   facet normal 8.355240e-001 5.494540e-001 0.000000e+000
      outer loop
         vertex 1.866025e-002 5.500000e-002 2.100000e-001
         vertex 1.866025e-002 5.500000e-002 2.000000e-002
         vertex 1.766044e-002 5.642788e-002 2.000000e-002
      endloop
   endfacet
   facet normal 8.020838e-001 5.972114e-001 0.000000e+000
      outer loop
         vertex 1.866025e-002 5.500000e-002 2.100000e-001
         vertex 1.766044e-002 5.642788e-002 2.000000e-002
         vertex 1.766044e-002 5.642788e-002 2.100000e-001
      endloop
   endfacet
   facet normal 7.274188e-001 6.861938e-001 0.000000e+000
      outer loop
         vertex 1.766044e-002 5.642788e-002 2.100000e-001
         vertex 1.766044e-002 5.642788e-002 2.000000e-002
         vertex 1.642788e-002 5.766045e-002 2.000000e-002
      endloop
   endfacet
   facet normal 6.861938e-001 7.274188e-001 0.000000e+000
      outer loop
         vertex 1.766044e-002 5.642788e-002 2.100000e-001
         vertex 1.642788e-002 5.766045e-002 2.000000e-002
         vertex 1.642788e-002 5.766045e-002 2.100000e-001
      endloop
   endfacet
   facet normal 5.972114e-001 8.020838e-001 0.000000e+000
      outer loop
         vertex 1.642788e-002 5.766045e-002 2.100000e-001
         vertex 1.642788e-002 5.766045e-002 2.000000e-002
         vertex 1.500000e-002 5.866025e-002 2.000000e-002
      endloop
   endfacet
   facet normal 5.494540e-001 8.355240e-001 0.000000e+000
      outer loop
         vertex 1.642788e-002 5.766045e-002 2.100000e-001
         vertex 1.500000e-002 5.866025e-002 2.000000e-002
         vertex 1.500000e-002 5.866025e-002 2.100000e-001
      endloop
   endfacet
   facet normal 4.488580e-001 8.936031e-001 0.000000e+000
      outer loop
         vertex 1.500000e-002 5.866025e-002 2.100000e-001
         vertex 1.500000e-002 5.866025e-002 2.000000e-002
         vertex 1.342020e-002 5.939693e-002 2.000000e-002
      endloop
   endfacet
   facet normal 3.960194e-001 9.182422e-001 0.000000e+000
      outer loop
         vertex 1.500000e-002 5.866025e-002 2.100000e-001
         vertex 1.342020e-002 5.939693e-002 2.000000e-002
         vertex 1.342020e-002 5.939693e-002 2.100000e-001
      endloop
   endfacet
   facet normal 2.868663e-001 9.579706e-001 0.000000e+000
      outer loop
         vertex 1.342020e-002 5.939693e-002 2.100000e-001
         vertex 1.342020e-002 5.939693e-002 2.000000e-002
         vertex 1.173648e-002 5.984808e-002 2.000000e-002
      endloop
   endfacet
   facet normal 2.305519e-001 9.730600e-001 0.000000e+000
      outer loop
         vertex 1.342020e-002 5.939693e-002 2.100000e-001
         vertex 1.173648e-002 5.984808e-002 2.000000e-002
         vertex 1.173648e-002 5.984808e-002 2.100000e-001
      endloop
   endfacet
   facet normal 1.161583e-001 9.932307e-001 0.000000e+000
      outer loop
         vertex 1.173648e-002 5.984808e-002 2.100000e-001
         vertex 1.173648e-002 5.984808e-002 2.000000e-002
         vertex 1.000000e-002 6.000000e-002 2.000000e-002
      endloop
   endfacet
   facet normal 5.807913e-002 9.983119e-001 0.000000e+000
      outer loop
         vertex 1.173648e-002 5.984808e-002 2.100000e-001
         vertex 1.000000e-002 6.000000e-002 2.000000e-002
         vertex 1.000000e-002 6.000000e-002 2.100000e-001
      endloop
   endfacet
   facet normal -5.807913e-002 9.983119e-001 0.000000e+000
      outer loop
         vertex 1.000000e-002 6.000000e-002 2.100000e-001
         vertex 1.000000e-002 6.000000e-002 2.000000e-002
         vertex 8.263518e-003 5.984808e-002 2.000000e-002
      endloop
   endfacet
   facet normal -1.161583e-001 9.932307e-001 0.000000e+000
      outer loop
         vertex 1.000000e-002 6.000000e-002 2.100000e-001
         vertex 8.263518e-003 5.984808e-002 2.000000e-002
         vertex 8.263518e-003 5.984808e-002 2.100000e-001
      endloop
   endfacet
   facet normal -2.305519e-001 9.730600e-001 0.000000e+000
      outer loop
         vertex 8.263518e-003 5.984808e-002 2.100000e-001
         vertex 8.263518e-003 5.984808e-002 2.000000e-002
         vertex 6.579799e-003 5.939693e-002 2.000000e-002
      endloop
   endfacet
   facet normal -2.868663e-001 9.579706e-001 0.000000e+000
      outer loop
         vertex 8.263518e-003 5.984808e-002 2.100000e-001
         vertex 6.579799e-003 5.939693e-002 2.000000e-002
         vertex 6.579799e-003 5.939693e-002 2.100000e-001
      endloop
   endfacet
   facet normal -3.960194e-001 9.182422e-001 0.000000e+000
      outer loop
         vertex 6.579799e-003 5.939693e-002 2.100000e-001
         vertex 6.579799e-003 5.939693e-002 2.000000e-002
         vertex 5.000000e-003 5.866025e-002 2.000000e-002
      endloop
   endfacet
   facet normal -4.488580e-001 8.936031e-001 0.000000e+000
      outer loop
         vertex 6.579799e-003 5.939693e-002 2.100000e-001
         vertex 5.000000e-003 5.866025e-002 2.000000e-002
         vertex 5.000000e-003 5.866025e-002 2.100000e-001
      endloop
   endfacet
   facet normal -5.494540e-001 8.355240e-001 0.000000e+000
      outer loop
         vertex 5.000000e-003 5.866025e-002 2.100000e-001
         vertex 5.000000e-003 5.866025e-002 2.000000e-002
         vertex 3.572124e-003 5.766045e-002 2.000000e-002
      endloop
   endfacet
   facet normal -5.972114e-001 8.020838e-001 0.000000e+000
      outer loop
         vertex 5.000000e-003 5.866025e-002 2.100000e-001
         vertex 3.572124e-003 5.766045e-002 2.000000e-002
         vertex 3.572124e-003 5.766045e-002 2.100000e-001
      endloop
   endfacet
   facet normal -6.861938e-001 7.274188e-001 0.000000e+000
      outer loop
         vertex 3.572124e-003 5.766045e-002 2.100000e-001
         vertex 3.572124e-003 5.766045e-002 2.000000e-002
         vertex 2.339555e-003 5.642788e-002 2.000000e-002
      endloop
   endfacet
   facet normal -7.274188e-001 6.861938e-001 0.000000e+000
      outer loop
         vertex 3.572124e-003 5.766045e-002 2.100000e-001
         vertex 2.339555e-003 5.642788e-002 2.000000e-002
         vertex 2.339555e-003 5.642788e-002 2.100000e-001
      endloop
   endfacet
   facet normal -8.020838e-001 5.972114e-001 0.000000e+000
      outer loop
         vertex 2.339555e-003 5.642788e-002 2.100000e-001
         vertex 2.339555e-003 5.642788e-002 2.000000e-002
         vertex 1.339746e-003 5.500000e-002 2.000000e-002
      endloop
   endfacet
   facet normal -8.355240e-001 5.494540e-001 0.000000e+000
      outer loop
         vertex 2.339555e-003 5.642788e-002 2.100000e-001
         vertex 1.339746e-003 5.500000e-002 2.000000e-002
         vertex 1.339746e-003 5.500000e-002 2.100000e-001
      endloop
   endfacet
   facet normal -8.936031e-001 4.488580e-001 0.000000e+000
      outer loop
         vertex 1.339746e-003 5.500000e-002 2.100000e-001
         vertex 1.339746e-003 5.500000e-002 2.000000e-002
         vertex 6.030733e-004 5.342020e-002 2.000000e-002
      endloop
   endfacet
   facet normal -9.182422e-001 3.960194e-001 0.000000e+000
      outer loop
         vertex 1.339746e-003 5.500000e-002 2.100000e-001
         vertex 6.030733e-004 5.342020e-002 2.000000e-002
         vertex 6.030733e-004 5.342020e-002 2.100000e-001
      endloop
   endfacet
   facet normal -9.579706e-001 2.868663e-001 0.000000e+000
      outer loop
         vertex 6.030733e-004 5.342020e-002 2.100000e-001
         vertex 6.030733e-004 5.342020e-002 2.000000e-002
         vertex 1.519220e-004 5.173648e-002 2.000000e-002
      endloop
   endfacet
   facet normal -9.730600e-001 2.305519e-001 0.000000e+000
      outer loop
         vertex 6.030733e-004 5.342020e-002 2.100000e-001
         vertex 1.519220e-004 5.173648e-002 2.000000e-002
         vertex 1.519220e-004 5.173648e-002 2.100000e-001
      endloop
   endfacet
   facet normal -9.932307e-001 1.161583e-001 0.000000e+000
      outer loop
         vertex 1.519220e-004 5.173648e-002 2.100000e-001
         vertex 1.519220e-004 5.173648e-002 2.000000e-002
         vertex 0.000000e+000 5.000000e-002 2.000000e-002
      endloop
   endfacet
   facet normal 0.000000e+000 0.000000e+000 1.000000e+000
      outer loop
         vertex 1.866025e-002 5.500000e-002 2.100000e-001
         vertex 6.030733e-004 4.657980e-002 2.100000e-001
         vertex 1.939693e-002 5.342020e-002 2.100000e-001
      endloop
   endfacet
   facet normal 0.000000e+000 0.000000e+000 1.000000e+000
      outer loop
         vertex 1.939693e-002 5.342020e-002 2.100000e-001
         vertex 6.030733e-004 4.657980e-002 2.100000e-001
         vertex 1.339746e-003 4.500000e-002 2.100000e-001
      endloop
   endfacet
   facet normal 0.000000e+000 0.000000e+000 1.000000e+000
      outer loop
         vertex 1.939693e-002 5.342020e-002 2.100000e-001
         vertex 1.339746e-003 4.500000e-002 2.100000e-001
         vertex 2.339555e-003 4.357212e-002 2.100000e-001
      endloop
   endfacet
   facet normal 0.000000e+000 0.000000e+000 1.000000e+000
      outer loop
         vertex 1.866025e-002 5.500000e-002 2.100000e-001
         vertex 1.766044e-002 5.642788e-002 2.100000e-001
         vertex 6.030733e-004 4.657980e-002 2.100000e-001
      endloop
   endfacet
   facet normal 0.000000e+000 0.000000e+000 1.000000e+000
      outer loop
         vertex 6.030733e-004 4.657980e-002 2.100000e-001
         vertex 1.766044e-002 5.642788e-002 2.100000e-001
         vertex 1.642788e-002 5.766045e-002 2.100000e-001
      endloop
   endfacet
   facet normal 0.000000e+000 0.000000e+000 1.000000e+000
      outer loop
         vertex 6.030733e-004 4.657980e-002 2.100000e-001
         vertex 1.642788e-002 5.766045e-002 2.100000e-001
         vertex 1.500000e-002 5.866025e-002 2.100000e-001
      endloop
   endfacet
   facet normal 0.000000e+000 0.000000e+000 1.000000e+000
      outer loop
         vertex 2.339555e-003 4.357212e-002 2.100000e-001
         vertex 3.572124e-003 4.233956e-002 2.100000e-001
         vertex 1.939693e-002 5.342020e-002 2.100000e-001
      endloop
   endfacet
   facet normal 0.000000e+000 0.000000e+000 1.000000e+000
      outer loop
         vertex 1.939693e-002 5.342020e-002 2.100000e-001
         vertex 3.572124e-003 4.233956e-002 2.100000e-001
         vertex 5.000000e-003 4.133975e-002 2.100000e-001
      endloop
   endfacet
   facet normal 0.000000e+000 0.000000e+000 1.000000e+000
      outer loop
         vertex 1.939693e-002 5.342020e-002 2.100000e-001
         vertex 5.000000e-003 4.133975e-002 2.100000e-001
         vertex 6.579799e-003 4.060308e-002 2.100000e-001
      endloop
   endfacet
   facet normal 0.000000e+000 0.000000e+000 1.000000e+000
      outer loop
         vertex 1.500000e-002 5.866025e-002 2.100000e-001
         vertex 1.342020e-002 5.939693e-002 2.100000e-001
         vertex 6.030733e-004 4.657980e-002 2.100000e-001
      endloop
   endfacet
   facet normal 0.000000e+000 0.000000e+000 1.000000e+000
      outer loop
         vertex 6.030733e-004 4.657980e-002 2.100000e-001
         vertex 1.342020e-002 5.939693e-002 2.100000e-001
         vertex 1.173648e-002 5.984808e-002 2.100000e-001
      endloop
   endfacet
   facet normal 0.000000e+000 0.000000e+000 1.000000e+000
      outer loop
         vertex 6.030733e-004 4.657980e-002 2.100000e-001
         vertex 1.173648e-002 5.984808e-002 2.100000e-001
         vertex 1.000000e-002 6.000000e-002 2.100000e-001
      endloop
   endfacet
   facet normal 0.000000e+000 0.000000e+000 1.000000e+000
      outer loop
         vertex 1.173648e-002 4.015192e-002 2.100000e-001
         vertex 1.342020e-002 4.060308e-002 2.100000e-001
         vertex 1.939693e-002 5.342020e-002 2.100000e-001
      endloop
   endfacet
   facet normal 0.000000e+000 0.000000e+000 1.000000e+000
      outer loop
         vertex 1.939693e-002 5.342020e-002 2.100000e-001
         vertex 1.342020e-002 4.060308e-002 2.100000e-001
         vertex 1.500000e-002 4.133975e-002 2.100000e-001
      endloop
   endfacet
   facet normal 0.000000e+000 0.000000e+000 1.000000e+000
      outer loop
         vertex 1.939693e-002 5.342020e-002 2.100000e-001
         vertex 1.500000e-002 4.133975e-002 2.100000e-001
         vertex 1.642788e-002 4.233956e-002 2.100000e-001
      endloop
   endfacet
   facet normal 0.000000e+000 0.000000e+000 1.000000e+000
      outer loop
         vertex 6.579799e-003 4.060308e-002 2.100000e-001
         vertex 8.263518e-003 4.015192e-002 2.100000e-001
         vertex 1.939693e-002 5.342020e-002 2.100000e-001
      endloop
   endfacet
   facet normal 0.000000e+000 0.000000e+000 1.000000e+000
      outer loop
         vertex 1.939693e-002 5.342020e-002 2.100000e-001
         vertex 8.263518e-003 4.015192e-002 2.100000e-001
         vertex 1.000000e-002 4.000000e-002 2.100000e-001
      endloop
   endfacet
   facet normal 0.000000e+000 0.000000e+000 1.000000e+000
      outer loop
         vertex 1.939693e-002 5.342020e-002 2.100000e-001
         vertex 1.000000e-002 4.000000e-002 2.100000e-001
         vertex 1.173648e-002 4.015192e-002 2.100000e-001
      endloop
   endfacet
   facet normal 0.000000e+000 0.000000e+000 1.000000e+000
      outer loop
         vertex 1.642788e-002 4.233956e-002 2.100000e-001
         vertex 1.766044e-002 4.357212e-002 2.100000e-001
         vertex 1.939693e-002 5.342020e-002 2.100000e-001
      endloop
   endfacet
   facet normal 0.000000e+000 0.000000e+000 1.000000e+000
      outer loop
         vertex 1.939693e-002 5.342020e-002 2.100000e-001
         vertex 1.766044e-002 4.357212e-002 2.100000e-001
         vertex 1.866025e-002 4.500000e-002 2.100000e-001
      endloop
   endfacet
   facet normal 0.000000e+000 0.000000e+000 1.000000e+000
      outer loop
         vertex 1.939693e-002 5.342020e-002 2.100000e-001
         vertex 1.866025e-002 4.500000e-002 2.100000e-001
         vertex 1.939693e-002 4.657980e-002 2.100000e-001
      endloop
   endfacet
   facet normal 0.000000e+000 0.000000e+000 1.000000e+000
      outer loop
         vertex 1.000000e-002 6.000000e-002 2.100000e-001
         vertex 8.263518e-003 5.984808e-002 2.100000e-001
         vertex 6.030733e-004 4.657980e-002 2.100000e-001
      endloop
   endfacet
   facet normal 0.000000e+000 0.000000e+000 1.000000e+000
      outer loop
         vertex 6.030733e-004 4.657980e-002 2.100000e-001
         vertex 8.263518e-003 5.984808e-002 2.100000e-001
         vertex 6.579799e-003 5.939693e-002 2.100000e-001
      endloop
   endfacet
   facet normal 0.000000e+000 0.000000e+000 1.000000e+000
      outer loop
         vertex 6.030733e-004 4.657980e-002 2.100000e-001
         vertex 6.579799e-003 5.939693e-002 2.100000e-001
         vertex 5.000000e-003 5.866025e-002 2.100000e-001
      endloop
   endfacet
   facet normal 0.000000e+000 0.000000e+000 1.000000e+000
      outer loop
         vertex 5.000000e-003 5.866025e-002 2.100000e-001
         vertex 3.572124e-003 5.766045e-002 2.100000e-001
         vertex 6.030733e-004 4.657980e-002 2.100000e-001
      endloop
   endfacet
   facet normal 0.000000e+000 0.000000e+000 1.000000e+000
      outer loop
         vertex 6.030733e-004 4.657980e-002 2.100000e-001
         vertex 3.572124e-003 5.766045e-002 2.100000e-001
         vertex 2.339555e-003 5.642788e-002 2.100000e-001
      endloop
   endfacet
   facet normal 0.000000e+000 0.000000e+000 1.000000e+000
      outer loop
         vertex 6.030733e-004 4.657980e-002 2.100000e-001
         vertex 2.339555e-003 5.642788e-002 2.100000e-001
         vertex 1.339746e-003 5.500000e-002 2.100000e-001
      endloop
   endfacet
   facet normal 0.000000e+000 0.000000e+000 1.000000e+000
      outer loop
         vertex 1.984808e-002 4.826352e-002 2.100000e-001
         vertex 2.000000e-002 5.000000e-002 2.100000e-001
         vertex 1.939693e-002 4.657980e-002 2.100000e-001
      endloop
   endfacet
   facet normal 0.000000e+000 0.000000e+000 1.000000e+000
      outer loop
         vertex 1.939693e-002 4.657980e-002 2.100000e-001
         vertex 2.000000e-002 5.000000e-002 2.100000e-001
         vertex 1.984808e-002 5.173648e-002 2.100000e-001
      endloop
   endfacet
   facet normal 0.000000e+000 0.000000e+000 1.000000e+000
      outer loop
         vertex 1.939693e-002 4.657980e-002 2.100000e-001
         vertex 1.984808e-002 5.173648e-002 2.100000e-001
         vertex 1.939693e-002 5.342020e-002 2.100000e-001
      endloop
   endfacet
   facet normal 0.000000e+000 0.000000e+000 1.000000e+000
      outer loop
         vertex 1.339746e-003 5.500000e-002 2.100000e-001
         vertex 6.030733e-004 5.342020e-002 2.100000e-001
         vertex 6.030733e-004 4.657980e-002 2.100000e-001
      endloop
   endfacet
   facet normal 0.000000e+000 0.000000e+000 1.000000e+000
      outer loop
         vertex 6.030733e-004 4.657980e-002 2.100000e-001
         vertex 6.030733e-004 5.342020e-002 2.100000e-001
         vertex 1.519220e-004 5.173648e-002 2.100000e-001
      endloop
   endfacet
   facet normal 0.000000e+000 0.000000e+000 1.000000e+000
      outer loop
         vertex 6.030733e-004 4.657980e-002 2.100000e-001
         vertex 1.519220e-004 5.173648e-002 2.100000e-001
         vertex 1.519220e-004 4.826352e-002 2.100000e-001
      endloop
   endfacet
   facet normal 0.000000e+000 0.000000e+000 1.000000e+000
      outer loop
         vertex 1.519220e-004 4.826352e-002 2.100000e-001
         vertex 1.519220e-004 5.173648e-002 2.100000e-001
         vertex 0.000000e+000 5.000000e-002 2.100000e-001
      endloop
   endfacet
endsolid