{
	"asset":
	{
		"version": "2.0",
		"generator": "Unreal Engine 5.2.0"
	},
	"scene": 0,
	"accessors": [
		{
			"bufferView": 0,
			"count": 12630,
			"type": "SCALAR",
			"componentType": 5123
		},
		{
			"bufferView": 1,
			"count": 3000,
			"type": "VEC3",
			"componentType": 5126,
			"min": [ -0.837865829, -0.00104034424, -0.243097544 ],
			"max": [ 0.837866127, 0.539359272, 0.273004591 ]
		},
		{
			"bufferView": 2,
			"count": 3000,
			"type": "VEC3",
			"componentType": 5126
		},
		{
			"bufferView": 3,
			"count": 3000,
			"type": "VEC4",
			"componentType": 5126
		},
		{
			"bufferView": 4,
			"count": 3000,
			"type": "VEC2",
			"componentType": 5126
		},
		{
			"bufferView": 5,
			"count": 3000,
			"type": "VEC2",
			"componentType": 5126
		},
		{
			"bufferView": 6,
			"count": 2376,
			"type": "SCALAR",
			"componentType": 5123
		},
		{
			"bufferView": 7,
			"count": 453,
			"type": "VEC3",
			"componentType": 5126,
			"min": [ -0.00237785326, -0.218851835, 1.32552111e-17 ],
			"max": [ 0.392851323, 0.218851835, 0.0605391674 ]
		},
		{
			"bufferView": 8,
			"count": 453,
			"type": "VEC3",
			"componentType": 5126
		},
		{
			"bufferView": 9,
			"count": 453,
			"type": "VEC4",
			"componentType": 5126
		},
		{
			"bufferView": 10,
			"count": 453,
			"type": "VEC2",
			"componentType": 5126
		},
		{
			"bufferView": 11,
			"count": 453,
			"type": "VEC2",
			"componentType": 5126
		},
		{
			"bufferView": 12,
			"count": 453,
			"type": "VEC2",
			"componentType": 5126
		},
		{
			"bufferView": 13,
			"count": 2376,
			"type": "SCALAR",
			"componentType": 5123
		},
		{
			"bufferView": 14,
			"count": 453,
			"type": "VEC3",
			"componentType": 5126,
			"min": [ -0.395229191, -0.218851835, -0.00949966442 ],
			"max": [ 0, 0.218851835, 0.051039502 ]
		},
		{
			"bufferView": 15,
			"count": 453,
			"type": "VEC3",
			"componentType": 5126
		},
		{
			"bufferView": 16,
			"count": 453,
			"type": "VEC4",
			"componentType": 5126
		},
		{
			"bufferView": 17,
			"count": 453,
			"type": "VEC2",
			"componentType": 5126
		},
		{
			"bufferView": 18,
			"count": 453,
			"type": "VEC2",
			"componentType": 5126
		},
		{
			"bufferView": 19,
			"count": 2376,
			"type": "SCALAR",
			"componentType": 5123
		},
		{
			"bufferView": 20,
			"count": 453,
			"type": "VEC3",
			"componentType": 5126,
			"min": [ 0, -0.218851835, -0.00949966442 ],
			"max": [ 0.395229191, 0.218851835, 0.051039502 ]
		},
		{
			"bufferView": 21,
			"count": 453,
			"type": "VEC3",
			"componentType": 5126
		},
		{
			"bufferView": 22,
			"count": 453,
			"type": "VEC4",
			"componentType": 5126
		},
		{
			"bufferView": 23,
			"count": 453,
			"type": "VEC2",
			"componentType": 5126
		},
		{
			"bufferView": 24,
			"count": 453,
			"type": "VEC2",
			"componentType": 5126
		},
		{
			"bufferView": 25,
			"count": 2376,
			"type": "SCALAR",
			"componentType": 5123
		},
		{
			"bufferView": 26,
			"count": 453,
			"type": "VEC3",
			"componentType": 5126,
			"min": [ -0.395229191, -0.218851835, -0.00237777713 ],
			"max": [ 0, 0.218851835, 0.0581613891 ]
		},
		{
			"bufferView": 27,
			"count": 453,
			"type": "VEC3",
			"componentType": 5126
		},
		{
			"bufferView": 28,
			"count": 453,
			"type": "VEC4",
			"componentType": 5126
		},
		{
			"bufferView": 29,
			"count": 453,
			"type": "VEC2",
			"componentType": 5126
		},
		{
			"bufferView": 30,
			"count": 453,
			"type": "VEC2",
			"componentType": 5126
		},
		{
			"bufferView": 31,
			"count": 453,
			"type": "VEC2",
			"componentType": 5126
		}
	],
	"buffers": [
		{
			"uri": "Cabinet.bin",
			"byteLength": 320988
		}
	],
	"bufferViews": [
		{
			"buffer": 0,
			"byteLength": 25260,
			"target": 34963
		},
		{
			"buffer": 0,
			"byteLength": 36000,
			"byteOffset": 25260,
			"target": 34962
		},
		{
			"buffer": 0,
			"byteLength": 36000,
			"byteOffset": 61260,
			"target": 34962
		},
		{
			"buffer": 0,
			"byteLength": 48000,
			"byteOffset": 97260,
			"target": 34962
		},
		{
			"buffer": 0,
			"byteLength": 24000,
			"byteOffset": 145260,
			"target": 34962
		},
		{
			"buffer": 0,
			"byteLength": 24000,
			"byteOffset": 169260,
			"target": 34962
		},
		{
			"buffer": 0,
			"byteLength": 4752,
			"byteOffset": 193260,
			"target": 34963
		},
		{
			"buffer": 0,
			"byteLength": 5436,
			"byteOffset": 198012,
			"target": 34962
		},
		{
			"buffer": 0,
			"byteLength": 5436,
			"byteOffset": 203448,
			"target": 34962
		},
		{
			"buffer": 0,
			"byteLength": 7248,
			"byteOffset": 208884,
			"target": 34962
		},
		{
			"buffer": 0,
			"byteLength": 3624,
			"byteOffset": 216132,
			"target": 34962
		},
		{
			"buffer": 0,
			"byteLength": 3624,
			"byteOffset": 219756,
			"target": 34962
		},
		{
			"buffer": 0,
			"byteLength": 3624,
			"byteOffset": 223380,
			"target": 34962
		},
		{
			"buffer": 0,
			"byteLength": 4752,
			"byteOffset": 227004,
			"target": 34963
		},
		{
			"buffer": 0,
			"byteLength": 5436,
			"byteOffset": 231756,
			"target": 34962
		},
		{
			"buffer": 0,
			"byteLength": 5436,
			"byteOffset": 237192,
			"target": 34962
		},
		{
			"buffer": 0,
			"byteLength": 7248,
			"byteOffset": 242628,
			"target": 34962
		},
		{
			"buffer": 0,
			"byteLength": 3624,
			"byteOffset": 249876,
			"target": 34962
		},
		{
			"buffer": 0,
			"byteLength": 3624,
			"byteOffset": 253500,
			"target": 34962
		},
		{
			"buffer": 0,
			"byteLength": 4752,
			"byteOffset": 257124,
			"target": 34963
		},
		{
			"buffer": 0,
			"byteLength": 5436,
			"byteOffset": 261876,
			"target": 34962
		},
		{
			"buffer": 0,
			"byteLength": 5436,
			"byteOffset": 267312,
			"target": 34962
		},
		{
			"buffer": 0,
			"byteLength": 7248,
			"byteOffset": 272748,
			"target": 34962
		},
		{
			"buffer": 0,
			"byteLength": 3624,
			"byteOffset": 279996,
			"target": 34962
		},
		{
			"buffer": 0,
			"byteLength": 3624,
			"byteOffset": 283620,
			"target": 34962
		},
		{
			"buffer": 0,
			"byteLength": 4752,
			"byteOffset": 287244,
			"target": 34963
		},
		{
			"buffer": 0,
			"byteLength": 5436,
			"byteOffset": 291996,
			"target": 34962
		},
		{
			"buffer": 0,
			"byteLength": 5436,
			"byteOffset": 297432,
			"target": 34962
		},
		{
			"buffer": 0,
			"byteLength": 7248,
			"byteOffset": 302868,
			"target": 34962
		},
		{
			"buffer": 0,
			"byteLength": 3624,
			"byteOffset": 310116,
			"target": 34962
		},
		{
			"buffer": 0,
			"byteLength": 3624,
			"byteOffset": 313740,
			"target": 34962
		},
		{
			"buffer": 0,
			"byteLength": 3624,
			"byteOffset": 317364,
			"target": 34962
		}
	],
	"materials": [
		{
			"name": "MI_Cabinet_Vase_Mirror",
			"pbrMetallicRoughness":
			{
			}
		}
	],
	"meshes": [
		{
			"name": "SM_Cabinet",
			"primitives": [
				{
					"attributes":
					{
						"POSITION": 1,
						"NORMAL": 2,
						"TANGENT": 3,
						"TEXCOORD_0": 4,
						"TEXCOORD_1": 5
					},
					"indices": 0,
					"material": 0
				}
			]
		},
		{
			"name": "SM_Cabinet_Door_01",
			"primitives": [
				{
					"attributes":
					{
						"POSITION": 7,
						"NORMAL": 8,
						"TANGENT": 9,
						"TEXCOORD_0": 10,
						"TEXCOORD_1": 11,
						"TEXCOORD_2": 12
					},
					"indices": 6,
					"material": 0
				}
			]
		},
		{
			"name": "SM_Cabinet_Door_02",
			"primitives": [
				{
					"attributes":
					{
						"POSITION": 14,
						"NORMAL": 15,
						"TANGENT": 16,
						"TEXCOORD_0": 17,
						"TEXCOORD_1": 18
					},
					"indices": 13,
					"material": 0
				}
			]
		},
		{
			"name": "SM_Cabinet_Door_03",
			"primitives": [
				{
					"attributes":
					{
						"POSITION": 20,
						"NORMAL": 21,
						"TANGENT": 22,
						"TEXCOORD_0": 23,
						"TEXCOORD_1": 24
					},
					"indices": 19,
					"material": 0
				}
			]
		},
		{
			"name": "SM_Cabinet_Door_04",
			"primitives": [
				{
					"attributes":
					{
						"POSITION": 26,
						"NORMAL": 27,
						"TANGENT": 28,
						"TEXCOORD_0": 29,
						"TEXCOORD_1": 30,
						"TEXCOORD_2": 31
					},
					"indices": 25,
					"material": 0
				}
			]
		}
	],
	"nodes": [
		{
			"name": "Cabinet",
			"translation": [ -1.8932209, 0.271087855, 6.16038418 ],
			"rotation": [ 4.96052405e-16, -1, -4.96052405e-16, 1.21679653e-08 ],
			"scale": [ 1.5, 1.5, 1.5 ],
			"children": [ 1, 2, 3, 4, 5, 6, 7, 8, 9 ]
		},
		{
			"name": "PhysicsConstraint_door_01",
			"translation": [ -0.803633451, 0.281232297, 0.222132951 ],
			"rotation": [ 0.5, 0.5, 0.5, 0.5 ]
		},
		{
			"name": "PhysicsConstraint_door_02",
			"translation": [ -0.00858460087, 0.281943321, 0.225279137 ],
			"rotation": [ -0.5, -0.5, 0.5, 0.5 ]
		},
		{
			"name": "PhysicsConstraint_door_03",
			"translation": [ 0.00899515208, 0.281943321, 0.225279137 ],
			"rotation": [ 0.5, 0.5, 0.5, 0.5 ]
		},
		{
			"name": "PhysicsConstraint_door_04",
			"translation": [ 0.805127084, 0.281943321, 0.222132996 ],
			"rotation": [ -0.5, -0.5, 0.5, 0.5 ]
		},
		{
			"name": "Cabinet_Base",
			"translation": [ -7.0365852e-11, -2.86861046e-18, 0.00289143878 ],
			"mesh": 0
		},
		{
			"name": "Door_01",
			"translation": [ -0.803633451, 0.281232297, 0.222132951 ],
			"mesh": 1
		},
		{
			"name": "Door_02",
			"translation": [ -0.00858460087, 0.281943321, 0.225279137 ],
			"mesh": 2
		},
		{
			"name": "Door_03",
			"translation": [ 0.00899515208, 0.281943321, 0.225279137 ],
			"mesh": 3
		},
		{
			"name": "Door_04",
			"translation": [ 0.805127084, 0.281943321, 0.222132996 ],
			"mesh": 4
		}
	],
	"scenes": [
		{
			"name": "apartment_0000",
			"nodes": [ 0 ]
		}
	]
}