{
	"asset":
	{
		"version": "2.0",
		"generator": "Unreal Engine 5.2.0"
	},
	"scene": 0,
	"accessors": [
		{
			"bufferView": 0,
			"count": 5916,
			"type": "SCALAR",
			"componentType": 5123
		},
		{
			"bufferView": 1,
			"count": 1334,
			"type": "VEC3",
			"componentType": 5126,
			"min": [ -0.0730743408, -0.0664266944, 0.0661517158 ],
			"max": [ 0.240738526, 3.49757624, 3.46808076 ]
		},
		{
			"bufferView": 2,
			"count": 1334,
			"type": "VEC3",
			"componentType": 5126
		},
		{
			"bufferView": 3,
			"count": 1334,
			"type": "VEC4",
			"componentType": 5126
		},
		{
			"bufferView": 4,
			"count": 1334,
			"type": "VEC2",
			"componentType": 5126
		},
		{
			"bufferView": 5,
			"count": 1334,
			"type": "VEC2",
			"componentType": 5126
		},
		{
			"bufferView": 6,
			"count": 240,
			"type": "SCALAR",
			"componentType": 5121
		},
		{
			"bufferView": 7,
			"count": 49,
			"type": "VEC3",
			"componentType": 5126,
			"min": [ 0.124971308, 0.0213556662, 0.166075259 ],
			"max": [ 0.129085079, 3.38705778, 3.39579511 ]
		},
		{
			"bufferView": 8,
			"count": 49,
			"type": "VEC3",
			"componentType": 5126
		},
		{
			"bufferView": 9,
			"count": 49,
			"type": "VEC4",
			"componentType": 5126
		},
		{
			"bufferView": 10,
			"count": 49,
			"type": "VEC2",
			"componentType": 5126
		},
		{
			"bufferView": 11,
			"count": 49,
			"type": "VEC2",
			"componentType": 5126
		}
	],
	"buffers": [
		{
			"uri": "Casement_SlidePart_01.bin",
			"byteLength": 89520
		}
	],
	"bufferViews": [
		{
			"buffer": 0,
			"byteLength": 11832,
			"target": 34963
		},
		{
			"buffer": 0,
			"byteLength": 16008,
			"byteOffset": 11832,
			"target": 34962
		},
		{
			"buffer": 0,
			"byteLength": 16008,
			"byteOffset": 27840,
			"target": 34962
		},
		{
			"buffer": 0,
			"byteLength": 21344,
			"byteOffset": 43848,
			"target": 34962
		},
		{
			"buffer": 0,
			"byteLength": 10672,
			"byteOffset": 65192,
			"target": 34962
		},
		{
			"buffer": 0,
			"byteLength": 10672,
			"byteOffset": 75864,
			"target": 34962
		},
		{
			"buffer": 0,
			"byteLength": 240,
			"byteOffset": 86536,
			"target": 34963
		},
		{
			"buffer": 0,
			"byteLength": 588,
			"byteOffset": 86776,
			"target": 34962
		},
		{
			"buffer": 0,
			"byteLength": 588,
			"byteOffset": 87364,
			"target": 34962
		},
		{
			"buffer": 0,
			"byteLength": 784,
			"byteOffset": 87952,
			"target": 34962
		},
		{
			"buffer": 0,
			"byteLength": 392,
			"byteOffset": 88736,
			"target": 34962
		},
		{
			"buffer": 0,
			"byteLength": 392,
			"byteOffset": 89128,
			"target": 34962
		}
	],
	"materials": [
		{
			"name": "MI_Casement",
			"pbrMetallicRoughness":
			{
			}
		},
		{
			"name": "MI_Casement_Glass",
			"pbrMetallicRoughness":
			{
				"baseColorFactor": [ 0, 0.00120199996, 0.003303, 0.349999994 ],
				"metallicFactor": 0,
				"roughnessFactor": 0
			},
			"alphaMode": "BLEND"
		}
	],
	"meshes": [
		{
			"name": "SM_Casement_SlidePart_01",
			"primitives": [
				{
					"attributes":
					{
						"POSITION": 1,
						"NORMAL": 2,
						"TANGENT": 3,
						"TEXCOORD_0": 4,
						"TEXCOORD_1": 5
					},
					"indices": 0,
					"material": 0
				},
				{
					"attributes":
					{
						"POSITION": 7,
						"NORMAL": 8,
						"TANGENT": 9,
						"TEXCOORD_0": 10,
						"TEXCOORD_1": 11
					},
					"indices": 6,
					"material": 1
				}
			]
		}
	],
	"nodes": [
		{
			"name": "Casement_SlidePart_01",
			"translation": [ 5.44944191, 0.278754145, -0.239163801 ],
			"mesh": 0
		}
	],
	"scenes": [
		{
			"name": "apartment_0000",
			"nodes": [ 0 ]
		}
	]
}