{
	"asset":
	{
		"version": "2.0",
		"generator": "Unreal Engine 5.2.0"
	},
	"scene": 0,
	"accessors": [
		{
			"bufferView": 0,
			"count": 12636,
			"type": "SCALAR",
			"componentType": 5123
		},
		{
			"bufferView": 1,
			"count": 2742,
			"type": "VEC3",
			"componentType": 5126,
			"min": [ -0.536754429, -0.640835106, -0.141805649 ],
			"max": [ 0.536016524, -0.469787508, 0.145871654 ]
		},
		{
			"bufferView": 2,
			"count": 2742,
			"type": "VEC3",
			"componentType": 5126
		},
		{
			"bufferView": 3,
			"count": 2742,
			"type": "VEC4",
			"componentType": 5126
		},
		{
			"bufferView": 4,
			"count": 2742,
			"type": "VEC2",
			"componentType": 5126
		},
		{
			"bufferView": 5,
			"count": 2742,
			"type": "VEC2",
			"componentType": 5126
		},
		{
			"bufferView": 6,
			"count": 10044,
			"type": "SCALAR",
			"componentType": 5123
		},
		{
			"bufferView": 7,
			"count": 1932,
			"type": "VEC3",
			"componentType": 5126,
			"min": [ -0.571771324, -0.675412118, -0.176139101 ],
			"max": [ 0.571771324, -0.445493847, 0.176139101 ]
		},
		{
			"bufferView": 8,
			"count": 1932,
			"type": "VEC3",
			"componentType": 5126
		},
		{
			"bufferView": 9,
			"count": 1932,
			"type": "VEC4",
			"componentType": 5126
		},
		{
			"bufferView": 10,
			"count": 1932,
			"type": "VEC2",
			"componentType": 5126
		},
		{
			"bufferView": 11,
			"count": 1932,
			"type": "VEC2",
			"componentType": 5126
		},
		{
			"bufferView": 12,
			"count": 15654,
			"type": "SCALAR",
			"componentType": 5123
		},
		{
			"bufferView": 13,
			"count": 3618,
			"type": "VEC3",
			"componentType": 5126,
			"min": [ -0.473815978, -0.577686727, -0.0796365589 ],
			"max": [ 0.473915666, 2.48409514e-18, 0.0803655386 ]
		},
		{
			"bufferView": 14,
			"count": 3618,
			"type": "VEC3",
			"componentType": 5126
		},
		{
			"bufferView": 15,
			"count": 3618,
			"type": "VEC4",
			"componentType": 5126
		},
		{
			"bufferView": 16,
			"count": 3618,
			"type": "VEC2",
			"componentType": 5126
		},
		{
			"bufferView": 17,
			"count": 3618,
			"type": "VEC2",
			"componentType": 5126
		}
	],
	"buffers": [
		{
			"uri": "Ceiling_LivingRoom_Lights.bin",
			"byteLength": 541020
		}
	],
	"bufferViews": [
		{
			"buffer": 0,
			"byteLength": 25272,
			"target": 34963
		},
		{
			"buffer": 0,
			"byteLength": 32904,
			"byteOffset": 25272,
			"target": 34962
		},
		{
			"buffer": 0,
			"byteLength": 32904,
			"byteOffset": 58176,
			"target": 34962
		},
		{
			"buffer": 0,
			"byteLength": 43872,
			"byteOffset": 91080,
			"target": 34962
		},
		{
			"buffer": 0,
			"byteLength": 21936,
			"byteOffset": 134952,
			"target": 34962
		},
		{
			"buffer": 0,
			"byteLength": 21936,
			"byteOffset": 156888,
			"target": 34962
		},
		{
			"buffer": 0,
			"byteLength": 20088,
			"byteOffset": 178824,
			"target": 34963
		},
		{
			"buffer": 0,
			"byteLength": 23184,
			"byteOffset": 198912,
			"target": 34962
		},
		{
			"buffer": 0,
			"byteLength": 23184,
			"byteOffset": 222096,
			"target": 34962
		},
		{
			"buffer": 0,
			"byteLength": 30912,
			"byteOffset": 245280,
			"target": 34962
		},
		{
			"buffer": 0,
			"byteLength": 15456,
			"byteOffset": 276192,
			"target": 34962
		},
		{
			"buffer": 0,
			"byteLength": 15456,
			"byteOffset": 291648,
			"target": 34962
		},
		{
			"buffer": 0,
			"byteLength": 31308,
			"byteOffset": 307104,
			"target": 34963
		},
		{
			"buffer": 0,
			"byteLength": 43416,
			"byteOffset": 338412,
			"target": 34962
		},
		{
			"buffer": 0,
			"byteLength": 43416,
			"byteOffset": 381828,
			"target": 34962
		},
		{
			"buffer": 0,
			"byteLength": 57888,
			"byteOffset": 425244,
			"target": 34962
		},
		{
			"buffer": 0,
			"byteLength": 28944,
			"byteOffset": 483132,
			"target": 34962
		},
		{
			"buffer": 0,
			"byteLength": 28944,
			"byteOffset": 512076,
			"target": 34962
		}
	],
	"materials": [
		{
			"name": "MI_Emissive",
			"pbrMetallicRoughness":
			{
				"baseColorFactor": [ 0, 0, 0, 1 ],
				"metallicFactor": 0,
				"roughnessFactor": 0.5
			},
			"alphaMode": "BLEND",
			"doubleSided": true
		},
		{
			"name": "MI_Glass",
			"pbrMetallicRoughness":
			{
				"baseColorFactor": [ 0, 0.00120199996, 0.003303, 0.349999994 ],
				"metallicFactor": 0,
				"roughnessFactor": 0
			},
			"alphaMode": "BLEND"
		},
		{
			"name": "MI_Ceiling_LivingRoom_Lamp",
			"pbrMetallicRoughness":
			{
			}
		}
	],
	"meshes": [
		{
			"name": "SM_Ceiling_LivingRoom_Lamp",
			"primitives": [
				{
					"attributes":
					{
						"POSITION": 1,
						"NORMAL": 2,
						"TANGENT": 3,
						"TEXCOORD_0": 4,
						"TEXCOORD_1": 5
					},
					"indices": 0,
					"material": 0
				},
				{
					"attributes":
					{
						"POSITION": 7,
						"NORMAL": 8,
						"TANGENT": 9,
						"TEXCOORD_0": 10,
						"TEXCOORD_1": 11
					},
					"indices": 6,
					"material": 1
				},
				{
					"attributes":
					{
						"POSITION": 13,
						"NORMAL": 14,
						"TANGENT": 15,
						"TEXCOORD_0": 16,
						"TEXCOORD_1": 17
					},
					"indices": 12,
					"material": 2
				}
			]
		}
	],
	"nodes": [
		{
			"name": "Ceiling_LivingRoom_Lights",
			"children": [ 1, 2, 3, 4, 5, 6, 7 ]
		},
		{
			"name": "PointLight_01",
			"translation": [ 1.51456726, 2.99770617, 2.8209722 ]
		},
		{
			"name": "PointLight_02",
			"translation": [ 1.87718213, 2.63625669, 2.87878203 ]
		},
		{
			"name": "PointLight_03",
			"translation": [ 2.12968707, 2.98754692, 3.14007401 ]
		},
		{
			"name": "PointLight_04",
			"translation": [ 2.82299829, 2.63625669, 2.87878203 ]
		},
		{
			"name": "PointLight_05",
			"translation": [ 3.31651115, 2.99770617, 2.8209722 ]
		},
		{
			"name": "PointLight_06",
			"translation": [ 2.61067629, 3.00837517, 2.49443364 ]
		},
		{
			"name": "Ceiling_LivingRoom_Lamp",
			"translation": [ 2.35692406, 3.74796104, 2.81995344 ],
			"scale": [ 1.5, 1.5, 1.5 ],
			"mesh": 0
		}
	],
	"scenes": [
		{
			"name": "apartment_0000",
			"nodes": [ 0 ]
		}
	]
}