{
	"asset":
	{
		"version": "2.0",
		"generator": "Unreal Engine 5.2.0"
	},
	"scene": 0,
	"accessors": [
		{
			"bufferView": 0,
			"count": 3840,
			"type": "SCALAR",
			"componentType": 5123
		},
		{
			"bufferView": 1,
			"count": 698,
			"type": "VEC3",
			"componentType": 5126,
			"min": [ -0.209806204, -0.065570578, -0.209804296 ],
			"max": [ 0.209805906, 1.26412297e-17, 0.209804296 ]
		},
		{
			"bufferView": 2,
			"count": 698,
			"type": "VEC3",
			"componentType": 5126
		},
		{
			"bufferView": 3,
			"count": 698,
			"type": "VEC4",
			"componentType": 5126
		},
		{
			"bufferView": 4,
			"count": 698,
			"type": "VEC2",
			"componentType": 5126
		},
		{
			"bufferView": 5,
			"count": 698,
			"type": "VEC2",
			"componentType": 5126
		},
		{
			"bufferView": 6,
			"count": 2040,
			"type": "SCALAR",
			"componentType": 5123
		},
		{
			"bufferView": 7,
			"count": 361,
			"type": "VEC3",
			"componentType": 5126,
			"min": [ -0.139009699, -0.0656207129, -0.139009401 ],
			"max": [ 0.13900879, -0.0297258999, 0.139009371 ]
		},
		{
			"bufferView": 8,
			"count": 361,
			"type": "VEC3",
			"componentType": 5126
		},
		{
			"bufferView": 9,
			"count": 361,
			"type": "VEC4",
			"componentType": 5126
		},
		{
			"bufferView": 10,
			"count": 361,
			"type": "VEC2",
			"componentType": 5126
		},
		{
			"bufferView": 11,
			"count": 361,
			"type": "VEC2",
			"componentType": 5126
		},
		{
			"bufferView": 12,
			"count": 840,
			"type": "SCALAR",
			"componentType": 5123
		},
		{
			"bufferView": 13,
			"count": 281,
			"type": "VEC3",
			"componentType": 5126,
			"min": [ -0.131561577, -0.0547240227, -0.131561443 ],
			"max": [ 0.131560966, -0.0357597545, 0.131561443 ]
		},
		{
			"bufferView": 14,
			"count": 281,
			"type": "VEC3",
			"componentType": 5126
		},
		{
			"bufferView": 15,
			"count": 281,
			"type": "VEC4",
			"componentType": 5126
		},
		{
			"bufferView": 16,
			"count": 281,
			"type": "VEC2",
			"componentType": 5126
		},
		{
			"bufferView": 17,
			"count": 281,
			"type": "VEC2",
			"componentType": 5126
		}
	],
	"buffers": [
		{
			"uri": "Ceiling_Kitchen_Lights.bin",
			"byteLength": 88480
		}
	],
	"bufferViews": [
		{
			"buffer": 0,
			"byteLength": 7680,
			"target": 34963
		},
		{
			"buffer": 0,
			"byteLength": 8376,
			"byteOffset": 7680,
			"target": 34962
		},
		{
			"buffer": 0,
			"byteLength": 8376,
			"byteOffset": 16056,
			"target": 34962
		},
		{
			"buffer": 0,
			"byteLength": 11168,
			"byteOffset": 24432,
			"target": 34962
		},
		{
			"buffer": 0,
			"byteLength": 5584,
			"byteOffset": 35600,
			"target": 34962
		},
		{
			"buffer": 0,
			"byteLength": 5584,
			"byteOffset": 41184,
			"target": 34962
		},
		{
			"buffer": 0,
			"byteLength": 4080,
			"byteOffset": 46768,
			"target": 34963
		},
		{
			"buffer": 0,
			"byteLength": 4332,
			"byteOffset": 50848,
			"target": 34962
		},
		{
			"buffer": 0,
			"byteLength": 4332,
			"byteOffset": 55180,
			"target": 34962
		},
		{
			"buffer": 0,
			"byteLength": 5776,
			"byteOffset": 59512,
			"target": 34962
		},
		{
			"buffer": 0,
			"byteLength": 2888,
			"byteOffset": 65288,
			"target": 34962
		},
		{
			"buffer": 0,
			"byteLength": 2888,
			"byteOffset": 68176,
			"target": 34962
		},
		{
			"buffer": 0,
			"byteLength": 1680,
			"byteOffset": 71064,
			"target": 34963
		},
		{
			"buffer": 0,
			"byteLength": 3372,
			"byteOffset": 72744,
			"target": 34962
		},
		{
			"buffer": 0,
			"byteLength": 3372,
			"byteOffset": 76116,
			"target": 34962
		},
		{
			"buffer": 0,
			"byteLength": 4496,
			"byteOffset": 79488,
			"target": 34962
		},
		{
			"buffer": 0,
			"byteLength": 2248,
			"byteOffset": 83984,
			"target": 34962
		},
		{
			"buffer": 0,
			"byteLength": 2248,
			"byteOffset": 86232,
			"target": 34962
		}
	],
	"materials": [
		{
			"name": "MI_Ceiling_Kitchen_Lamp",
			"pbrMetallicRoughness":
			{
			}
		},
		{
			"name": "MI_Ceiling_Kitchen_Lamp_Glass",
			"pbrMetallicRoughness":
			{
				"baseColorFactor": [ 0, 0.00120199996, 0.003303, 0.800000012 ],
				"metallicFactor": 0,
				"roughnessFactor": 0.100000001
			},
			"alphaMode": "BLEND"
		},
		{
			"name": "MI_Ceiling_Kitchen_Lamp_Emissive",
			"pbrMetallicRoughness":
			{
				"baseColorFactor": [ 0, 0, 0, 1 ],
				"metallicFactor": 0,
				"roughnessFactor": 0.5
			},
			"alphaMode": "BLEND",
			"doubleSided": true
		}
	],
	"meshes": [
		{
			"name": "SM_Ceiling_Kitchen_Lamp",
			"primitives": [
				{
					"attributes":
					{
						"POSITION": 1,
						"NORMAL": 2,
						"TANGENT": 3,
						"TEXCOORD_0": 4,
						"TEXCOORD_1": 5
					},
					"indices": 0,
					"material": 0
				},
				{
					"attributes":
					{
						"POSITION": 7,
						"NORMAL": 8,
						"TANGENT": 9,
						"TEXCOORD_0": 10,
						"TEXCOORD_1": 11
					},
					"indices": 6,
					"material": 1
				},
				{
					"attributes":
					{
						"POSITION": 13,
						"NORMAL": 14,
						"TANGENT": 15,
						"TEXCOORD_0": 16,
						"TEXCOORD_1": 17
					},
					"indices": 12,
					"material": 2
				}
			]
		}
	],
	"nodes": [
		{
			"name": "Ceiling_Kitchen_Lights",
			"children": [ 1, 2, 3, 4, 5, 6, 7, 8, 9, 10, 11, 12, 13, 14, 15, 16 ]
		},
		{
			"name": "SpotLight_01",
			"translation": [ -3.86485314, 3.73150253, 5.28951263 ],
			"rotation": [ -0, -0, -0.707106829, 0.707106829 ]
		},
		{
			"name": "SpotLight_02",
			"translation": [ -1.96947515, 3.63945436, 5.28951263 ],
			"rotation": [ -0, -0, -0.707106829, 0.707106829 ]
		},
		{
			"name": "SpotLight_03",
			"translation": [ -3.86485314, 3.63945436, 2.56756616 ],
			"rotation": [ -0, -0, -0.707106829, 0.707106829 ]
		},
		{
			"name": "SpotLight_04",
			"translation": [ -1.96947515, 3.63945436, 2.56756616 ],
			"rotation": [ -0, -0, -0.707106829, 0.707106829 ]
		},
		{
			"name": "SpotLight_05",
			"translation": [ -3.87473226, 3.74934387, -0.468372136 ],
			"rotation": [ -0, -0, -0.707106829, 0.707106829 ]
		},
		{
			"name": "SpotLight_06",
			"translation": [ -1.96947515, 3.63945436, -0.460308135 ],
			"rotation": [ -0, -0, -0.707106829, 0.707106829 ]
		},
		{
			"name": "SpotLight_07",
			"translation": [ -3.86485314, 3.63945436, -3.7055006 ],
			"rotation": [ -0, -0, -0.707106829, 0.707106829 ]
		},
		{
			"name": "SpotLight_08",
			"translation": [ -1.96947515, 3.63945436, -3.7055006 ],
			"rotation": [ -0, -0, -0.707106829, 0.707106829 ]
		},
		{
			"name": "Ceiling_Light_01",
			"translation": [ -3.87473202, 3.74934387, 5.28153563 ],
			"scale": [ 0.399163991, 0.399163991, 0.399163991 ],
			"mesh": 0
		},
		{
			"name": "Ceiling_Light_02",
			"translation": [ -1.96895814, 3.74934387, 5.28153563 ],
			"scale": [ 0.399163991, 0.399163991, 0.399163991 ],
			"mesh": 0
		},
		{
			"name": "Ceiling_Light_03",
			"translation": [ -3.87473226, 3.74934387, 2.56519794 ],
			"scale": [ 0.399163991, 0.399163991, 0.399163991 ],
			"mesh": 0
		},
		{
			"name": "Ceiling_Light_04",
			"translation": [ -1.96895838, 3.74934387, 2.56519794 ],
			"scale": [ 0.399163991, 0.399163991, 0.399163991 ],
			"mesh": 0
		},
		{
			"name": "Ceiling_Light_05",
			"translation": [ -3.87473226, 3.74934387, -0.468372136 ],
			"scale": [ 0.399163991, 0.399163991, 0.399163991 ],
			"mesh": 0
		},
		{
			"name": "Ceiling_Light_06",
			"translation": [ -1.96895838, 3.74934387, -0.468372077 ],
			"scale": [ 0.399163991, 0.399163991, 0.399163991 ],
			"mesh": 0
		},
		{
			"name": "Ceiling_Light_07",
			"translation": [ -3.87473226, 3.74934387, -3.71356463 ],
			"scale": [ 0.399163991, 0.399163991, 0.399163991 ],
			"mesh": 0
		},
		{
			"name": "Ceiling_Light_08",
			"translation": [ -1.96895838, 3.74934387, -3.71356463 ],
			"scale": [ 0.399163991, 0.399163991, 0.399163991 ],
			"mesh": 0
		}
	],
	"scenes": [
		{
			"name": "apartment_0000",
			"nodes": [ 0 ]
		}
	]
}