{
	"asset":
	{
		"version": "2.0",
		"generator": "Unreal Engine 5.2.0"
	},
	"scene": 0,
	"accessors": [
		{
			"bufferView": 0,
			"count": 29592,
			"type": "SCALAR",
			"componentType": 5123
		},
		{
			"bufferView": 1,
			"count": 5188,
			"type": "VEC3",
			"componentType": 5126,
			"min": [ -0.0941430628, -0.029716948, -3.40803218 ],
			"max": [ 0.0941430628, 3.59444427, 3.40803218 ]
		},
		{
			"bufferView": 2,
			"count": 5188,
			"type": "VEC3",
			"componentType": 5126
		},
		{
			"bufferView": 3,
			"count": 5188,
			"type": "VEC4",
			"componentType": 5126
		},
		{
			"bufferView": 4,
			"count": 5188,
			"type": "VEC2",
			"componentType": 5126
		},
		{
			"bufferView": 5,
			"count": 5188,
			"type": "VEC2",
			"componentType": 5126
		}
	],
	"buffers": [
		{
			"uri": "Curtains_01.bin",
			"byteLength": 349712
		}
	],
	"bufferViews": [
		{
			"buffer": 0,
			"byteLength": 59184,
			"target": 34963
		},
		{
			"buffer": 0,
			"byteLength": 62256,
			"byteOffset": 59184,
			"target": 34962
		},
		{
			"buffer": 0,
			"byteLength": 62256,
			"byteOffset": 121440,
			"target": 34962
		},
		{
			"buffer": 0,
			"byteLength": 83008,
			"byteOffset": 183696,
			"target": 34962
		},
		{
			"buffer": 0,
			"byteLength": 41504,
			"byteOffset": 266704,
			"target": 34962
		},
		{
			"buffer": 0,
			"byteLength": 41504,
			"byteOffset": 308208,
			"target": 34962
		}
	],
	"materials": [
		{
			"name": "MI_Curtains_01",
			"pbrMetallicRoughness":
			{
			}
		}
	],
	"meshes": [
		{
			"name": "SM_Curtains_01",
			"primitives": [
				{
					"attributes":
					{
						"POSITION": 1,
						"NORMAL": 2,
						"TANGENT": 3,
						"TEXCOORD_0": 4,
						"TEXCOORD_1": 5
					},
					"indices": 0,
					"material": 0
				}
			]
		}
	],
	"nodes": [
		{
			"name": "Curtains_01",
			"translation": [ 5.29484081, 0.287009358, 3.1408484 ],
			"scale": [ 1, 0.949999988, 1.00000012 ],
			"mesh": 0
		}
	],
	"scenes": [
		{
			"name": "apartment_0000",
			"nodes": [ 0 ]
		}
	]
}