{
	"asset":
	{
		"version": "2.0",
		"generator": "Unreal Engine 5.2.0"
	},
	"scene": 0,
	"accessors": [
		{
			"bufferView": 0,
			"count": 11220,
			"type": "SCALAR",
			"componentType": 5123
		},
		{
			"bufferView": 1,
			"count": 1976,
			"type": "VEC3",
			"componentType": 5126,
			"min": [ -0.307990134, -0.0264050812, -0.125725776 ],
			"max": [ 0.309164047, 0.592898905, 0.125540987 ]
		},
		{
			"bufferView": 2,
			"count": 1976,
			"type": "VEC3",
			"componentType": 5126
		},
		{
			"bufferView": 3,
			"count": 1976,
			"type": "VEC4",
			"componentType": 5126
		},
		{
			"bufferView": 4,
			"count": 1976,
			"type": "VEC2",
			"componentType": 5126
		},
		{
			"bufferView": 5,
			"count": 1976,
			"type": "VEC2",
			"componentType": 5126
		}
	],
	"buffers": [
		{
			"uri": "Cushion_02.bin",
			"byteLength": 133096
		}
	],
	"bufferViews": [
		{
			"buffer": 0,
			"byteLength": 22440,
			"target": 34963
		},
		{
			"buffer": 0,
			"byteLength": 23712,
			"byteOffset": 22440,
			"target": 34962
		},
		{
			"buffer": 0,
			"byteLength": 23712,
			"byteOffset": 46152,
			"target": 34962
		},
		{
			"buffer": 0,
			"byteLength": 31616,
			"byteOffset": 69864,
			"target": 34962
		},
		{
			"buffer": 0,
			"byteLength": 15808,
			"byteOffset": 101480,
			"target": 34962
		},
		{
			"buffer": 0,
			"byteLength": 15808,
			"byteOffset": 117288,
			"target": 34962
		}
	],
	"materials": [
		{
			"name": "MI_Cushions",
			"pbrMetallicRoughness":
			{
			}
		}
	],
	"meshes": [
		{
			"name": "SM_Cushion_02",
			"primitives": [
				{
					"attributes":
					{
						"POSITION": 1,
						"NORMAL": 2,
						"TANGENT": 3,
						"TEXCOORD_0": 4,
						"TEXCOORD_1": 5
					},
					"indices": 0,
					"material": 0
				}
			]
		}
	],
	"nodes": [
		{
			"name": "Cushion_02",
			"translation": [ 2.49593973, 0.829371989, 0.353135288 ],
			"rotation": [ -2.11294515e-09, -0.984807849, 0.173648193, 1.19831078e-08 ],
			"scale": [ 1.10000002, 1.10000002, 1.10000002 ],
			"mesh": 0
		}
	],
	"scenes": [
		{
			"name": "apartment_0000",
			"nodes": [ 0 ]
		}
	]
}