{
	"asset":
	{
		"version": "2.0",
		"generator": "Unreal Engine 5.2.0"
	},
	"scene": 0,
	"accessors": [
		{
			"bufferView": 0,
			"count": 11700,
			"type": "SCALAR",
			"componentType": 5123
		},
		{
			"bufferView": 1,
			"count": 2052,
			"type": "VEC3",
			"componentType": 5126,
			"min": [ -0.307660282, -0.0222096965, -0.128063053 ],
			"max": [ 0.307435751, 0.588644505, 0.128452748 ]
		},
		{
			"bufferView": 2,
			"count": 2052,
			"type": "VEC3",
			"componentType": 5126
		},
		{
			"bufferView": 3,
			"count": 2052,
			"type": "VEC4",
			"componentType": 5126
		},
		{
			"bufferView": 4,
			"count": 2052,
			"type": "VEC2",
			"componentType": 5126
		},
		{
			"bufferView": 5,
			"count": 2052,
			"type": "VEC2",
			"componentType": 5126
		}
	],
	"buffers": [
		{
			"uri": "Cushion_04.bin",
			"byteLength": 138312
		}
	],
	"bufferViews": [
		{
			"buffer": 0,
			"byteLength": 23400,
			"target": 34963
		},
		{
			"buffer": 0,
			"byteLength": 24624,
			"byteOffset": 23400,
			"target": 34962
		},
		{
			"buffer": 0,
			"byteLength": 24624,
			"byteOffset": 48024,
			"target": 34962
		},
		{
			"buffer": 0,
			"byteLength": 32832,
			"byteOffset": 72648,
			"target": 34962
		},
		{
			"buffer": 0,
			"byteLength": 16416,
			"byteOffset": 105480,
			"target": 34962
		},
		{
			"buffer": 0,
			"byteLength": 16416,
			"byteOffset": 121896,
			"target": 34962
		}
	],
	"materials": [
		{
			"name": "MI_Cushions",
			"pbrMetallicRoughness":
			{
			}
		}
	],
	"meshes": [
		{
			"name": "SM_Cushion_01",
			"primitives": [
				{
					"attributes":
					{
						"POSITION": 1,
						"NORMAL": 2,
						"TANGENT": 3,
						"TEXCOORD_0": 4,
						"TEXCOORD_1": 5
					},
					"indices": 0,
					"material": 0
				}
			]
		}
	],
	"nodes": [
		{
			"name": "Cushion_04",
			"translation": [ 3.35044217, 0.881699681, 0.48576206 ],
			"rotation": [ 0.0613846891, 0.922920763, -0.277368844, 0.259837896 ],
			"scale": [ 1.10000002, 1.10000002, 1.10000002 ],
			"mesh": 0
		}
	],
	"scenes": [
		{
			"name": "apartment_0000",
			"nodes": [ 0 ]
		}
	]
}