{
	"asset":
	{
		"version": "2.0",
		"generator": "Unreal Engine 5.2.0"
	},
	"scene": 0,
	"accessors": [
		{
			"bufferView": 0,
			"count": 1440,
			"type": "SCALAR",
			"componentType": 5123
		},
		{
			"bufferView": 1,
			"count": 341,
			"type": "VEC3",
			"componentType": 5126,
			"min": [ -0.511970401, -2.58415723e-16, -0.0445189178 ],
			"max": [ 0.521933377, 2.1596849, 0.0442373268 ]
		},
		{
			"bufferView": 2,
			"count": 341,
			"type": "VEC3",
			"componentType": 5126
		},
		{
			"bufferView": 3,
			"count": 341,
			"type": "VEC4",
			"componentType": 5126
		},
		{
			"bufferView": 4,
			"count": 341,
			"type": "VEC2",
			"componentType": 5126
		},
		{
			"bufferView": 5,
			"count": 341,
			"type": "VEC2",
			"componentType": 5126
		}
	],
	"buffers": [
		{
			"uri": "Door_Frame.bin",
			"byteLength": 21976
		}
	],
	"bufferViews": [
		{
			"buffer": 0,
			"byteLength": 2880,
			"target": 34963
		},
		{
			"buffer": 0,
			"byteLength": 4092,
			"byteOffset": 2880,
			"target": 34962
		},
		{
			"buffer": 0,
			"byteLength": 4092,
			"byteOffset": 6972,
			"target": 34962
		},
		{
			"buffer": 0,
			"byteLength": 5456,
			"byteOffset": 11064,
			"target": 34962
		},
		{
			"buffer": 0,
			"byteLength": 2728,
			"byteOffset": 16520,
			"target": 34962
		},
		{
			"buffer": 0,
			"byteLength": 2728,
			"byteOffset": 19248,
			"target": 34962
		}
	],
	"materials": [
		{
			"name": "MI_Door",
			"pbrMetallicRoughness":
			{
			}
		}
	],
	"meshes": [
		{
			"name": "SM_Door_Frame",
			"primitives": [
				{
					"attributes":
					{
						"POSITION": 1,
						"NORMAL": 2,
						"TANGENT": 3,
						"TEXCOORD_0": 4,
						"TEXCOORD_1": 5
					},
					"indices": 0,
					"material": 0
				}
			]
		}
	],
	"nodes": [
		{
			"name": "Door_Frame",
			"translation": [ -0.45452106, 0.269672483, -1.59018183 ],
			"rotation": [ -0, -0.707106829, 0, 0.707106829 ],
			"mesh": 0
		}
	],
	"scenes": [
		{
			"name": "apartment_0000",
			"nodes": [ 0 ]
		}
	]
}