{
	"asset":
	{
		"version": "2.0",
		"generator": "Unreal Engine 5.2.0"
	},
	"scene": 0,
	"accessors": [
		{
			"bufferView": 0,
			"count": 6624,
			"type": "SCALAR",
			"componentType": 5123
		},
		{
			"bufferView": 1,
			"count": 1369,
			"type": "VEC3",
			"componentType": 5126,
			"min": [ -0.426000059, -1.02854915e-18, -0.0175001137 ],
			"max": [ 0.425999939, 2.06999993, 0.120702513 ]
		},
		{
			"bufferView": 2,
			"count": 1369,
			"type": "VEC3",
			"componentType": 5126
		},
		{
			"bufferView": 3,
			"count": 1369,
			"type": "VEC4",
			"componentType": 5126
		},
		{
			"bufferView": 4,
			"count": 1369,
			"type": "VEC2",
			"componentType": 5126
		},
		{
			"bufferView": 5,
			"count": 1369,
			"type": "VEC2",
			"componentType": 5126
		}
	],
	"buffers": [
		{
			"uri": "Door.bin",
			"byteLength": 89912
		}
	],
	"bufferViews": [
		{
			"buffer": 0,
			"byteLength": 13248,
			"target": 34963
		},
		{
			"buffer": 0,
			"byteLength": 16428,
			"byteOffset": 13248,
			"target": 34962
		},
		{
			"buffer": 0,
			"byteLength": 16428,
			"byteOffset": 29676,
			"target": 34962
		},
		{
			"buffer": 0,
			"byteLength": 21904,
			"byteOffset": 46104,
			"target": 34962
		},
		{
			"buffer": 0,
			"byteLength": 10952,
			"byteOffset": 68008,
			"target": 34962
		},
		{
			"buffer": 0,
			"byteLength": 10952,
			"byteOffset": 78960,
			"target": 34962
		}
	],
	"materials": [
		{
			"name": "MI_Door",
			"pbrMetallicRoughness":
			{
			}
		}
	],
	"meshes": [
		{
			"name": "SM_Door",
			"primitives": [
				{
					"attributes":
					{
						"POSITION": 1,
						"NORMAL": 2,
						"TANGENT": 3,
						"TEXCOORD_0": 4,
						"TEXCOORD_1": 5
					},
					"indices": 0,
					"material": 0
				}
			]
		}
	],
	"nodes": [
		{
			"name": "Door",
			"translation": [ -0.45452106, 0.269672483, -1.59018183 ],
			"rotation": [ -0, -0.707106829, 0, 0.707106829 ],
			"mesh": 0
		}
	],
	"scenes": [
		{
			"name": "apartment_0000",
			"nodes": [ 0 ]
		}
	]
}