{
	"asset":
	{
		"version": "2.0",
		"generator": "Unreal Engine 5.2.0"
	},
	"scene": 0,
	"accessors": [
		{
			"bufferView": 0,
			"count": 45624,
			"type": "SCALAR",
			"componentType": 5123
		},
		{
			"bufferView": 1,
			"count": 12042,
			"type": "VEC3",
			"componentType": 5126,
			"min": [ -1.41398859, -9.85854864e-18, -0.277030736 ],
			"max": [ 1.41398847, 3.47585106, 0.253922671 ]
		},
		{
			"bufferView": 2,
			"count": 12042,
			"type": "VEC3",
			"componentType": 5126
		},
		{
			"bufferView": 3,
			"count": 12042,
			"type": "VEC4",
			"componentType": 5126
		},
		{
			"bufferView": 4,
			"count": 12042,
			"type": "VEC2",
			"componentType": 5126
		},
		{
			"bufferView": 5,
			"count": 12042,
			"type": "VEC2",
			"componentType": 5126
		},
		{
			"bufferView": 6,
			"count": 150,
			"type": "SCALAR",
			"componentType": 5121
		},
		{
			"bufferView": 7,
			"count": 31,
			"type": "VEC3",
			"componentType": 5126,
			"min": [ -0.631587029, 0.103643313, -0.0362666249 ],
			"max": [ 0.631587029, 0.946350634, -0.0305678528 ]
		},
		{
			"bufferView": 8,
			"count": 31,
			"type": "VEC3",
			"componentType": 5126
		},
		{
			"bufferView": 9,
			"count": 31,
			"type": "VEC4",
			"componentType": 5126
		},
		{
			"bufferView": 10,
			"count": 31,
			"type": "VEC2",
			"componentType": 5126
		},
		{
			"bufferView": 11,
			"count": 31,
			"type": "VEC2",
			"componentType": 5126
		}
	],
	"buffers": [
		{
			"uri": "Fireplace.bin",
			"byteLength": 767488
		}
	],
	"bufferViews": [
		{
			"buffer": 0,
			"byteLength": 91248,
			"target": 34963
		},
		{
			"buffer": 0,
			"byteLength": 144504,
			"byteOffset": 91248,
			"target": 34962
		},
		{
			"buffer": 0,
			"byteLength": 144504,
			"byteOffset": 235752,
			"target": 34962
		},
		{
			"buffer": 0,
			"byteLength": 192672,
			"byteOffset": 380256,
			"target": 34962
		},
		{
			"buffer": 0,
			"byteLength": 96336,
			"byteOffset": 572928,
			"target": 34962
		},
		{
			"buffer": 0,
			"byteLength": 96336,
			"byteOffset": 669264,
			"target": 34962
		},
		{
			"buffer": 0,
			"byteLength": 150,
			"byteOffset": 765600,
			"target": 34963
		},
		{
			"buffer": 0,
			"byteLength": 372,
			"byteOffset": 765752,
			"target": 34962
		},
		{
			"buffer": 0,
			"byteLength": 372,
			"byteOffset": 766124,
			"target": 34962
		},
		{
			"buffer": 0,
			"byteLength": 496,
			"byteOffset": 766496,
			"target": 34962
		},
		{
			"buffer": 0,
			"byteLength": 248,
			"byteOffset": 766992,
			"target": 34962
		},
		{
			"buffer": 0,
			"byteLength": 248,
			"byteOffset": 767240,
			"target": 34962
		}
	],
	"materials": [
		{
			"name": "MI_Fireplace",
			"pbrMetallicRoughness":
			{
			}
		},
		{
			"name": "MI_Fireplace_Glass",
			"pbrMetallicRoughness":
			{
				"baseColorFactor": [ 0, 0, 0, 0.670000017 ],
				"metallicFactor": 0,
				"roughnessFactor": 0.0500000007
			},
			"alphaMode": "BLEND"
		}
	],
	"meshes": [
		{
			"name": "SM_Fireplace",
			"primitives": [
				{
					"attributes":
					{
						"POSITION": 1,
						"NORMAL": 2,
						"TANGENT": 3,
						"TEXCOORD_0": 4,
						"TEXCOORD_1": 5
					},
					"indices": 0,
					"material": 0
				},
				{
					"attributes":
					{
						"POSITION": 7,
						"NORMAL": 8,
						"TANGENT": 9,
						"TEXCOORD_0": 10,
						"TEXCOORD_1": 11
					},
					"indices": 6,
					"material": 1
				}
			]
		}
	],
	"nodes": [
		{
			"name": "Fireplace",
			"translation": [ 2.16623092, 0.270012677, 6.29250956 ],
			"mesh": 0
		}
	],
	"scenes": [
		{
			"name": "apartment_0000",
			"nodes": [ 0 ]
		}
	]
}