{
	"asset":
	{
		"version": "2.0",
		"generator": "Unreal Engine 5.2.0"
	},
	"scene": 0,
	"accessors": [
		{
			"bufferView": 0,
			"count": 1524,
			"type": "SCALAR",
			"componentType": 5123
		},
		{
			"bufferView": 1,
			"count": 388,
			"type": "VEC3",
			"componentType": 5126,
			"min": [ -3.06946575e-08, -0.265684515, -0.402860254 ],
			"max": [ 0.040264558, 0.265684545, 1.61426927e-17 ]
		},
		{
			"bufferView": 2,
			"count": 388,
			"type": "VEC3",
			"componentType": 5126
		},
		{
			"bufferView": 3,
			"count": 388,
			"type": "VEC4",
			"componentType": 5126
		},
		{
			"bufferView": 4,
			"count": 388,
			"type": "VEC2",
			"componentType": 5126
		},
		{
			"bufferView": 5,
			"count": 388,
			"type": "VEC2",
			"componentType": 5126
		},
		{
			"bufferView": 6,
			"count": 388,
			"type": "VEC2",
			"componentType": 5126
		},
		{
			"bufferView": 7,
			"count": 1524,
			"type": "SCALAR",
			"componentType": 5123
		},
		{
			"bufferView": 8,
			"count": 388,
			"type": "VEC3",
			"componentType": 5126,
			"min": [ 3.81469704e-07, -0.265684515, -1.61426977e-17 ],
			"max": [ 0.0402649678, 0.265684545, 0.392571568 ]
		},
		{
			"bufferView": 9,
			"count": 388,
			"type": "VEC3",
			"componentType": 5126
		},
		{
			"bufferView": 10,
			"count": 388,
			"type": "VEC4",
			"componentType": 5126
		},
		{
			"bufferView": 11,
			"count": 388,
			"type": "VEC2",
			"componentType": 5126
		},
		{
			"bufferView": 12,
			"count": 388,
			"type": "VEC2",
			"componentType": 5126
		},
		{
			"bufferView": 13,
			"count": 388,
			"type": "VEC2",
			"componentType": 5126
		},
		{
			"bufferView": 14,
			"count": 1524,
			"type": "SCALAR",
			"componentType": 5123
		},
		{
			"bufferView": 15,
			"count": 388,
			"type": "VEC3",
			"componentType": 5126,
			"min": [ 3.05175774e-07, -0.265684515, -1.61426977e-17 ],
			"max": [ 0.0402648933, 0.265684545, 0.395143718 ]
		},
		{
			"bufferView": 16,
			"count": 388,
			"type": "VEC3",
			"componentType": 5126
		},
		{
			"bufferView": 17,
			"count": 388,
			"type": "VEC4",
			"componentType": 5126
		},
		{
			"bufferView": 18,
			"count": 388,
			"type": "VEC2",
			"componentType": 5126
		},
		{
			"bufferView": 19,
			"count": 388,
			"type": "VEC2",
			"componentType": 5126
		},
		{
			"bufferView": 20,
			"count": 388,
			"type": "VEC2",
			"componentType": 5126
		},
		{
			"bufferView": 21,
			"count": 1668,
			"type": "SCALAR",
			"componentType": 5123
		},
		{
			"bufferView": 22,
			"count": 434,
			"type": "VEC3",
			"componentType": 5126,
			"min": [ 0, -0.205203205, -0.535497129 ],
			"max": [ 0.0446353145, 0.205203235, 0.00392940501 ]
		},
		{
			"bufferView": 23,
			"count": 434,
			"type": "VEC3",
			"componentType": 5126
		},
		{
			"bufferView": 24,
			"count": 434,
			"type": "VEC4",
			"componentType": 5126
		},
		{
			"bufferView": 25,
			"count": 434,
			"type": "VEC2",
			"componentType": 5126
		},
		{
			"bufferView": 26,
			"count": 434,
			"type": "VEC2",
			"componentType": 5126
		},
		{
			"bufferView": 27,
			"count": 434,
			"type": "VEC2",
			"componentType": 5126
		},
		{
			"bufferView": 28,
			"count": 1668,
			"type": "SCALAR",
			"componentType": 5123
		},
		{
			"bufferView": 29,
			"count": 432,
			"type": "VEC3",
			"componentType": 5126,
			"min": [ 0, -0.205203235, -0.00392940501 ],
			"max": [ 0.0446353145, 0.205203235, 0.53096801 ]
		},
		{
			"bufferView": 30,
			"count": 432,
			"type": "VEC3",
			"componentType": 5126
		},
		{
			"bufferView": 31,
			"count": 432,
			"type": "VEC4",
			"componentType": 5126
		},
		{
			"bufferView": 32,
			"count": 432,
			"type": "VEC2",
			"componentType": 5126
		},
		{
			"bufferView": 33,
			"count": 432,
			"type": "VEC2",
			"componentType": 5126
		},
		{
			"bufferView": 34,
			"count": 432,
			"type": "VEC2",
			"componentType": 5126
		},
		{
			"bufferView": 35,
			"count": 1524,
			"type": "SCALAR",
			"componentType": 5123
		},
		{
			"bufferView": 36,
			"count": 388,
			"type": "VEC3",
			"componentType": 5126,
			"min": [ 0, -0.337125689, -0.397399068 ],
			"max": [ 0.0456445292, 0.337125689, 0.00307388301 ]
		},
		{
			"bufferView": 37,
			"count": 388,
			"type": "VEC3",
			"componentType": 5126
		},
		{
			"bufferView": 38,
			"count": 388,
			"type": "VEC4",
			"componentType": 5126
		},
		{
			"bufferView": 39,
			"count": 388,
			"type": "VEC2",
			"componentType": 5126
		},
		{
			"bufferView": 40,
			"count": 388,
			"type": "VEC2",
			"componentType": 5126
		},
		{
			"bufferView": 41,
			"count": 388,
			"type": "VEC2",
			"componentType": 5126
		},
		{
			"bufferView": 42,
			"count": 1524,
			"type": "SCALAR",
			"componentType": 5123
		},
		{
			"bufferView": 43,
			"count": 389,
			"type": "VEC3",
			"componentType": 5126,
			"min": [ 0, -0.337125689, -0.00307388301 ],
			"max": [ 0.0456445292, 0.337125689, 0.401891172 ]
		},
		{
			"bufferView": 44,
			"count": 389,
			"type": "VEC3",
			"componentType": 5126
		},
		{
			"bufferView": 45,
			"count": 389,
			"type": "VEC4",
			"componentType": 5126
		},
		{
			"bufferView": 46,
			"count": 389,
			"type": "VEC2",
			"componentType": 5126
		},
		{
			"bufferView": 47,
			"count": 389,
			"type": "VEC2",
			"componentType": 5126
		},
		{
			"bufferView": 48,
			"count": 389,
			"type": "VEC2",
			"componentType": 5126
		},
		{
			"bufferView": 49,
			"count": 1524,
			"type": "SCALAR",
			"componentType": 5123
		},
		{
			"bufferView": 50,
			"count": 442,
			"type": "VEC3",
			"componentType": 5126,
			"min": [ -0.319826335, -2.47660407e-17, -0.407265931 ],
			"max": [ 0.316033304, 0.136833563, 0.407265931 ]
		},
		{
			"bufferView": 51,
			"count": 442,
			"type": "VEC3",
			"componentType": 5126
		},
		{
			"bufferView": 52,
			"count": 442,
			"type": "VEC4",
			"componentType": 5126
		},
		{
			"bufferView": 53,
			"count": 442,
			"type": "VEC2",
			"componentType": 5126
		},
		{
			"bufferView": 54,
			"count": 442,
			"type": "VEC2",
			"componentType": 5126
		},
		{
			"bufferView": 55,
			"count": 1524,
			"type": "SCALAR",
			"componentType": 5123
		},
		{
			"bufferView": 56,
			"count": 442,
			"type": "VEC3",
			"componentType": 5126,
			"min": [ -0.319826335, -2.47660407e-17, -0.407265931 ],
			"max": [ 0.316033304, 0.136833563, 0.407265931 ]
		},
		{
			"bufferView": 57,
			"count": 442,
			"type": "VEC3",
			"componentType": 5126
		},
		{
			"bufferView": 58,
			"count": 442,
			"type": "VEC4",
			"componentType": 5126
		},
		{
			"bufferView": 59,
			"count": 442,
			"type": "VEC2",
			"componentType": 5126
		},
		{
			"bufferView": 60,
			"count": 442,
			"type": "VEC2",
			"componentType": 5126
		},
		{
			"bufferView": 61,
			"count": 1560,
			"type": "SCALAR",
			"componentType": 5123
		},
		{
			"bufferView": 62,
			"count": 474,
			"type": "VEC3",
			"componentType": 5126,
			"min": [ -0.278135985, -0.00439521763, -0.406019568 ],
			"max": [ 0.279076219, 0.262708575, 0.406019747 ]
		},
		{
			"bufferView": 63,
			"count": 474,
			"type": "VEC3",
			"componentType": 5126
		},
		{
			"bufferView": 64,
			"count": 474,
			"type": "VEC4",
			"componentType": 5126
		},
		{
			"bufferView": 65,
			"count": 474,
			"type": "VEC2",
			"componentType": 5126
		},
		{
			"bufferView": 66,
			"count": 474,
			"type": "VEC2",
			"componentType": 5126
		},
		{
			"bufferView": 67,
			"count": 1560,
			"type": "SCALAR",
			"componentType": 5123
		},
		{
			"bufferView": 68,
			"count": 476,
			"type": "VEC3",
			"componentType": 5126,
			"min": [ -0.278135985, -2.4593777e-17, -0.406019568 ],
			"max": [ 0.279076219, 0.267103791, 0.406019747 ]
		},
		{
			"bufferView": 69,
			"count": 476,
			"type": "VEC3",
			"componentType": 5126
		},
		{
			"bufferView": 70,
			"count": 476,
			"type": "VEC4",
			"componentType": 5126
		},
		{
			"bufferView": 71,
			"count": 476,
			"type": "VEC2",
			"componentType": 5126
		},
		{
			"bufferView": 72,
			"count": 476,
			"type": "VEC2",
			"componentType": 5126
		},
		{
			"bufferView": 73,
			"count": 42258,
			"type": "SCALAR",
			"componentType": 5123
		},
		{
			"bufferView": 74,
			"count": 8930,
			"type": "VEC3",
			"componentType": 5126,
			"min": [ -0.646754146, -0.00550438138, -2.24271297 ],
			"max": [ 0.703371584, 1.50250375, 2.24271297 ]
		},
		{
			"bufferView": 75,
			"count": 8930,
			"type": "VEC3",
			"componentType": 5126
		},
		{
			"bufferView": 76,
			"count": 8930,
			"type": "VEC4",
			"componentType": 5126
		},
		{
			"bufferView": 77,
			"count": 8930,
			"type": "VEC2",
			"componentType": 5126
		},
		{
			"bufferView": 78,
			"count": 8930,
			"type": "VEC2",
			"componentType": 5126
		},
		{
			"bufferView": 79,
			"count": 10788,
			"type": "SCALAR",
			"componentType": 5123
		},
		{
			"bufferView": 80,
			"count": 2114,
			"type": "VEC3",
			"componentType": 5126,
			"min": [ 0.00105443946, 0.582329571, -0.547287047 ],
			"max": [ 0.684410751, 0.836190403, 0.557245374 ]
		},
		{
			"bufferView": 81,
			"count": 2114,
			"type": "VEC3",
			"componentType": 5126
		},
		{
			"bufferView": 82,
			"count": 2114,
			"type": "VEC4",
			"componentType": 5126
		},
		{
			"bufferView": 83,
			"count": 2114,
			"type": "VEC2",
			"componentType": 5126
		},
		{
			"bufferView": 84,
			"count": 2114,
			"type": "VEC2",
			"componentType": 5126
		}
	],
	"buffers": [
		{
			"uri": "Kitchen_Sink.bin",
			"byteLength": 1041156
		}
	],
	"bufferViews": [
		{
			"buffer": 0,
			"byteLength": 3048,
			"target": 34963
		},
		{
			"buffer": 0,
			"byteLength": 4656,
			"byteOffset": 3048,
			"target": 34962
		},
		{
			"buffer": 0,
			"byteLength": 4656,
			"byteOffset": 7704,
			"target": 34962
		},
		{
			"buffer": 0,
			"byteLength": 6208,
			"byteOffset": 12360,
			"target": 34962
		},
		{
			"buffer": 0,
			"byteLength": 3104,
			"byteOffset": 18568,
			"target": 34962
		},
		{
			"buffer": 0,
			"byteLength": 3104,
			"byteOffset": 21672,
			"target": 34962
		},
		{
			"buffer": 0,
			"byteLength": 3104,
			"byteOffset": 24776,
			"target": 34962
		},
		{
			"buffer": 0,
			"byteLength": 3048,
			"byteOffset": 27880,
			"target": 34963
		},
		{
			"buffer": 0,
			"byteLength": 4656,
			"byteOffset": 30928,
			"target": 34962
		},
		{
			"buffer": 0,
			"byteLength": 4656,
			"byteOffset": 35584,
			"target": 34962
		},
		{
			"buffer": 0,
			"byteLength": 6208,
			"byteOffset": 40240,
			"target": 34962
		},
		{
			"buffer": 0,
			"byteLength": 3104,
			"byteOffset": 46448,
			"target": 34962
		},
		{
			"buffer": 0,
			"byteLength": 3104,
			"byteOffset": 49552,
			"target": 34962
		},
		{
			"buffer": 0,
			"byteLength": 3104,
			"byteOffset": 52656,
			"target": 34962
		},
		{
			"buffer": 0,
			"byteLength": 3048,
			"byteOffset": 55760,
			"target": 34963
		},
		{
			"buffer": 0,
			"byteLength": 4656,
			"byteOffset": 58808,
			"target": 34962
		},
		{
			"buffer": 0,
			"byteLength": 4656,
			"byteOffset": 63464,
			"target": 34962
		},
		{
			"buffer": 0,
			"byteLength": 6208,
			"byteOffset": 68120,
			"target": 34962
		},
		{
			"buffer": 0,
			"byteLength": 3104,
			"byteOffset": 74328,
			"target": 34962
		},
		{
			"buffer": 0,
			"byteLength": 3104,
			"byteOffset": 77432,
			"target": 34962
		},
		{
			"buffer": 0,
			"byteLength": 3104,
			"byteOffset": 80536,
			"target": 34962
		},
		{
			"buffer": 0,
			"byteLength": 3336,
			"byteOffset": 83640,
			"target": 34963
		},
		{
			"buffer": 0,
			"byteLength": 5208,
			"byteOffset": 86976,
			"target": 34962
		},
		{
			"buffer": 0,
			"byteLength": 5208,
			"byteOffset": 92184,
			"target": 34962
		},
		{
			"buffer": 0,
			"byteLength": 6944,
			"byteOffset": 97392,
			"target": 34962
		},
		{
			"buffer": 0,
			"byteLength": 3472,
			"byteOffset": 104336,
			"target": 34962
		},
		{
			"buffer": 0,
			"byteLength": 3472,
			"byteOffset": 107808,
			"target": 34962
		},
		{
			"buffer": 0,
			"byteLength": 3472,
			"byteOffset": 111280,
			"target": 34962
		},
		{
			"buffer": 0,
			"byteLength": 3336,
			"byteOffset": 114752,
			"target": 34963
		},
		{
			"buffer": 0,
			"byteLength": 5184,
			"byteOffset": 118088,
			"target": 34962
		},
		{
			"buffer": 0,
			"byteLength": 5184,
			"byteOffset": 123272,
			"target": 34962
		},
		{
			"buffer": 0,
			"byteLength": 6912,
			"byteOffset": 128456,
			"target": 34962
		},
		{
			"buffer": 0,
			"byteLength": 3456,
			"byteOffset": 135368,
			"target": 34962
		},
		{
			"buffer": 0,
			"byteLength": 3456,
			"byteOffset": 138824,
			"target": 34962
		},
		{
			"buffer": 0,
			"byteLength": 3456,
			"byteOffset": 142280,
			"target": 34962
		},
		{
			"buffer": 0,
			"byteLength": 3048,
			"byteOffset": 145736,
			"target": 34963
		},
		{
			"buffer": 0,
			"byteLength": 4656,
			"byteOffset": 148784,
			"target": 34962
		},
		{
			"buffer": 0,
			"byteLength": 4656,
			"byteOffset": 153440,
			"target": 34962
		},
		{
			"buffer": 0,
			"byteLength": 6208,
			"byteOffset": 158096,
			"target": 34962
		},
		{
			"buffer": 0,
			"byteLength": 3104,
			"byteOffset": 164304,
			"target": 34962
		},
		{
			"buffer": 0,
			"byteLength": 3104,
			"byteOffset": 167408,
			"target": 34962
		},
		{
			"buffer": 0,
			"byteLength": 3104,
			"byteOffset": 170512,
			"target": 34962
		},
		{
			"buffer": 0,
			"byteLength": 3048,
			"byteOffset": 173616,
			"target": 34963
		},
		{
			"buffer": 0,
			"byteLength": 4668,
			"byteOffset": 176664,
			"target": 34962
		},
		{
			"buffer": 0,
			"byteLength": 4668,
			"byteOffset": 181332,
			"target": 34962
		},
		{
			"buffer": 0,
			"byteLength": 6224,
			"byteOffset": 186000,
			"target": 34962
		},
		{
			"buffer": 0,
			"byteLength": 3112,
			"byteOffset": 192224,
			"target": 34962
		},
		{
			"buffer": 0,
			"byteLength": 3112,
			"byteOffset": 195336,
			"target": 34962
		},
		{
			"buffer": 0,
			"byteLength": 3112,
			"byteOffset": 198448,
			"target": 34962
		},
		{
			"buffer": 0,
			"byteLength": 3048,
			"byteOffset": 201560,
			"target": 34963
		},
		{
			"buffer": 0,
			"byteLength": 5304,
			"byteOffset": 204608,
			"target": 34962
		},
		{
			"buffer": 0,
			"byteLength": 5304,
			"byteOffset": 209912,
			"target": 34962
		},
		{
			"buffer": 0,
			"byteLength": 7072,
			"byteOffset": 215216,
			"target": 34962
		},
		{
			"buffer": 0,
			"byteLength": 3536,
			"byteOffset": 222288,
			"target": 34962
		},
		{
			"buffer": 0,
			"byteLength": 3536,
			"byteOffset": 225824,
			"target": 34962
		},
		{
			"buffer": 0,
			"byteLength": 3048,
			"byteOffset": 229360,
			"target": 34963
		},
		{
			"buffer": 0,
			"byteLength": 5304,
			"byteOffset": 232408,
			"target": 34962
		},
		{
			"buffer": 0,
			"byteLength": 5304,
			"byteOffset": 237712,
			"target": 34962
		},
		{
			"buffer": 0,
			"byteLength": 7072,
			"byteOffset": 243016,
			"target": 34962
		},
		{
			"buffer": 0,
			"byteLength": 3536,
			"byteOffset": 250088,
			"target": 34962
		},
		{
			"buffer": 0,
			"byteLength": 3536,
			"byteOffset": 253624,
			"target": 34962
		},
		{
			"buffer": 0,
			"byteLength": 3120,
			"byteOffset": 257160,
			"target": 34963
		},
		{
			"buffer": 0,
			"byteLength": 5688,
			"byteOffset": 260280,
			"target": 34962
		},
		{
			"buffer": 0,
			"byteLength": 5688,
			"byteOffset": 265968,
			"target": 34962
		},
		{
			"buffer": 0,
			"byteLength": 7584,
			"byteOffset": 271656,
			"target": 34962
		},
		{
			"buffer": 0,
			"byteLength": 3792,
			"byteOffset": 279240,
			"target": 34962
		},
		{
			"buffer": 0,
			"byteLength": 3792,
			"byteOffset": 283032,
			"target": 34962
		},
		{
			"buffer": 0,
			"byteLength": 3120,
			"byteOffset": 286824,
			"target": 34963
		},
		{
			"buffer": 0,
			"byteLength": 5712,
			"byteOffset": 289944,
			"target": 34962
		},
		{
			"buffer": 0,
			"byteLength": 5712,
			"byteOffset": 295656,
			"target": 34962
		},
		{
			"buffer": 0,
			"byteLength": 7616,
			"byteOffset": 301368,
			"target": 34962
		},
		{
			"buffer": 0,
			"byteLength": 3808,
			"byteOffset": 308984,
			"target": 34962
		},
		{
			"buffer": 0,
			"byteLength": 3808,
			"byteOffset": 312792,
			"target": 34962
		},
		{
			"buffer": 0,
			"byteLength": 84516,
			"byteOffset": 316600,
			"target": 34963
		},
		{
			"buffer": 0,
			"byteLength": 107160,
			"byteOffset": 401116,
			"target": 34962
		},
		{
			"buffer": 0,
			"byteLength": 107160,
			"byteOffset": 508276,
			"target": 34962
		},
		{
			"buffer": 0,
			"byteLength": 142880,
			"byteOffset": 615436,
			"target": 34962
		},
		{
			"buffer": 0,
			"byteLength": 71440,
			"byteOffset": 758316,
			"target": 34962
		},
		{
			"buffer": 0,
			"byteLength": 71440,
			"byteOffset": 829756,
			"target": 34962
		},
		{
			"buffer": 0,
			"byteLength": 21576,
			"byteOffset": 901196,
			"target": 34963
		},
		{
			"buffer": 0,
			"byteLength": 25368,
			"byteOffset": 922772,
			"target": 34962
		},
		{
			"buffer": 0,
			"byteLength": 25368,
			"byteOffset": 948140,
			"target": 34962
		},
		{
			"buffer": 0,
			"byteLength": 33824,
			"byteOffset": 973508,
			"target": 34962
		},
		{
			"buffer": 0,
			"byteLength": 16912,
			"byteOffset": 1007332,
			"target": 34962
		},
		{
			"buffer": 0,
			"byteLength": 16912,
			"byteOffset": 1024244,
			"target": 34962
		}
	],
	"materials": [
		{
			"name": "MI_Kitchen_Sink_Drawers",
			"pbrMetallicRoughness":
			{
			}
		},
		{
			"name": "MI_Kitchen_Sink_Base",
			"pbrMetallicRoughness":
			{
			}
		}
	],
	"meshes": [
		{
			"name": "SM_Kitchen_Sink_Door_01",
			"primitives": [
				{
					"attributes":
					{
						"POSITION": 1,
						"NORMAL": 2,
						"TANGENT": 3,
						"TEXCOORD_0": 4,
						"TEXCOORD_1": 5,
						"TEXCOORD_2": 6
					},
					"indices": 0,
					"material": 0
				}
			]
		},
		{
			"name": "SM_Kitchen_Sink_Door_02",
			"primitives": [
				{
					"attributes":
					{
						"POSITION": 8,
						"NORMAL": 9,
						"TANGENT": 10,
						"TEXCOORD_0": 11,
						"TEXCOORD_1": 12,
						"TEXCOORD_2": 13
					},
					"indices": 7,
					"material": 0
				}
			]
		},
		{
			"name": "SM_Kitchen_Sink_Door_04",
			"primitives": [
				{
					"attributes":
					{
						"POSITION": 15,
						"NORMAL": 16,
						"TANGENT": 17,
						"TEXCOORD_0": 18,
						"TEXCOORD_1": 19,
						"TEXCOORD_2": 20
					},
					"indices": 14,
					"material": 0
				}
			]
		},
		{
			"name": "SM_Kitchen_Sink_Door_05",
			"primitives": [
				{
					"attributes":
					{
						"POSITION": 22,
						"NORMAL": 23,
						"TANGENT": 24,
						"TEXCOORD_0": 25,
						"TEXCOORD_1": 26,
						"TEXCOORD_2": 27
					},
					"indices": 21,
					"material": 0
				}
			]
		},
		{
			"name": "SM_Kitchen_Sink_Door_06",
			"primitives": [
				{
					"attributes":
					{
						"POSITION": 29,
						"NORMAL": 30,
						"TANGENT": 31,
						"TEXCOORD_0": 32,
						"TEXCOORD_1": 33,
						"TEXCOORD_2": 34
					},
					"indices": 28,
					"material": 0
				}
			]
		},
		{
			"name": "SM_Kitchen_Sink_Door_07",
			"primitives": [
				{
					"attributes":
					{
						"POSITION": 36,
						"NORMAL": 37,
						"TANGENT": 38,
						"TEXCOORD_0": 39,
						"TEXCOORD_1": 40,
						"TEXCOORD_2": 41
					},
					"indices": 35,
					"material": 0
				}
			]
		},
		{
			"name": "SM_Kitchen_Sink_Door_08",
			"primitives": [
				{
					"attributes":
					{
						"POSITION": 43,
						"NORMAL": 44,
						"TANGENT": 45,
						"TEXCOORD_0": 46,
						"TEXCOORD_1": 47,
						"TEXCOORD_2": 48
					},
					"indices": 42,
					"material": 0
				}
			]
		},
		{
			"name": "SM_Kitchen_Sink_Drawer_01",
			"primitives": [
				{
					"attributes":
					{
						"POSITION": 50,
						"NORMAL": 51,
						"TANGENT": 52,
						"TEXCOORD_0": 53,
						"TEXCOORD_1": 54
					},
					"indices": 49,
					"material": 0
				}
			]
		},
		{
			"name": "SM_Kitchen_Sink_Drawer_02",
			"primitives": [
				{
					"attributes":
					{
						"POSITION": 56,
						"NORMAL": 57,
						"TANGENT": 58,
						"TEXCOORD_0": 59,
						"TEXCOORD_1": 60
					},
					"indices": 55,
					"material": 0
				}
			]
		},
		{
			"name": "SM_Kitchen_Sink_Drawer_03",
			"primitives": [
				{
					"attributes":
					{
						"POSITION": 62,
						"NORMAL": 63,
						"TANGENT": 64,
						"TEXCOORD_0": 65,
						"TEXCOORD_1": 66
					},
					"indices": 61,
					"material": 0
				}
			]
		},
		{
			"name": "SM_Kitchen_Sink_Drawer_04",
			"primitives": [
				{
					"attributes":
					{
						"POSITION": 68,
						"NORMAL": 69,
						"TANGENT": 70,
						"TEXCOORD_0": 71,
						"TEXCOORD_1": 72
					},
					"indices": 67,
					"material": 0
				}
			]
		},
		{
			"name": "SM_Kitchen_Sink_Body",
			"primitives": [
				{
					"attributes":
					{
						"POSITION": 74,
						"NORMAL": 75,
						"TANGENT": 76,
						"TEXCOORD_0": 77,
						"TEXCOORD_1": 78
					},
					"indices": 73,
					"material": 1
				},
				{
					"attributes":
					{
						"POSITION": 80,
						"NORMAL": 81,
						"TANGENT": 82,
						"TEXCOORD_0": 83,
						"TEXCOORD_1": 84
					},
					"indices": 79,
					"material": 0
				}
			]
		}
	],
	"nodes": [
		{
			"name": "Kitchen_Sink",
			"translation": [ -3.08145261, 0.267545342, 2.50758672 ],
			"rotation": [ -2.12372442e-15, -1, 8.45902688e-17, 6.0839831e-08 ],
			"children": [ 1, 2, 3, 4, 5, 6, 7, 8, 9, 10, 11, 12, 13, 14, 15, 16, 17, 18, 19, 20, 21, 22, 23, 24, 25 ]
		},
		{
			"name": "PhysicsConstraint_door_01",
			"translation": [ 0.638378024, 0.413661152, 2.19962263 ],
			"rotation": [ 0.707106829, -0.707106829, -0, 0 ]
		},
		{
			"name": "PhysicsConstraint_door_02",
			"translation": [ 0.638377845, 0.413661152, 1.40049446 ],
			"rotation": [ -0, -0, 0.707106829, -0.707106829 ]
		},
		{
			"name": "PhysicsConstraint_door_03",
			"translation": [ 0.638377845, 0.41422838, 1.37038636 ],
			"rotation": [ 0.707106829, -0.707106829, -0, 0 ]
		},
		{
			"name": "PhysicsConstraint_door_04",
			"translation": [ 0.638377905, 0.41422838, 0.571164906 ],
			"rotation": [ -2.98023259e-08, 2.98023259e-08, -0.707106829, 0.707106829 ]
		},
		{
			"name": "PhysicsConstraint_door_05",
			"translation": [ 0.638377905, 0.357176632, 0.540102303 ],
			"rotation": [ 0.707106829, -0.707106829, -0, 0 ]
		},
		{
			"name": "PhysicsConstraint_door_06",
			"translation": [ 0.638378024, 0.357176632, -0.527167439 ],
			"rotation": [ -5.96046519e-08, 5.96046519e-08, 0.707106829, -0.707106829 ]
		},
		{
			"name": "PhysicsConstraint_door_07",
			"translation": [ 0.638378024, 0.490344942, -0.568577051 ],
			"rotation": [ 0.707106829, -0.707106829, -0, 0 ]
		},
		{
			"name": "PhysicsConstraint_door_08",
			"translation": [ 0.638377845, 0.490344942, -1.36889946 ],
			"rotation": [ -5.96046519e-08, 5.96046519e-08, 0.707106829, -0.707106829 ]
		},
		{
			"name": "PhysicsConstraint_drawer_01",
			"translation": [ 0.690227747, 0.750751495, 1.81249177 ]
		},
		{
			"name": "PhysicsConstraint_drawer_02",
			"translation": [ 0.690227807, 0.76600951, 0.98764503 ]
		},
		{
			"name": "PhysicsConstraint_drawer_03",
			"translation": [ 0.687857866, 0.575789988, -1.78891206 ]
		},
		{
			"name": "PhysicsConstraint_drawer_04",
			"translation": [ 0.687857866, 0.29915756, -1.78392792 ]
		},
		{
			"name": "Door_01",
			"translation": [ 0.638378024, 0.413661152, 2.19962263 ],
			"mesh": 0
		},
		{
			"name": "Door_02",
			"translation": [ 0.638377845, 0.413661152, 1.40049446 ],
			"mesh": 1
		},
		{
			"name": "Door_03",
			"translation": [ 0.638377845, 0.41422838, 1.37038636 ],
			"mesh": 0
		},
		{
			"name": "Door_04",
			"translation": [ 0.638377905, 0.41422838, 0.571164906 ],
			"mesh": 2
		},
		{
			"name": "Door_05",
			"translation": [ 0.638377905, 0.357176632, 0.540102303 ],
			"mesh": 3
		},
		{
			"name": "Door_06",
			"translation": [ 0.638378024, 0.357176632, -0.527167439 ],
			"mesh": 4
		},
		{
			"name": "Door_07",
			"translation": [ 0.638378024, 0.490344942, -0.568577051 ],
			"mesh": 5
		},
		{
			"name": "Door_08",
			"translation": [ 0.638377845, 0.490344942, -1.36889946 ],
			"mesh": 6
		},
		{
			"name": "Drawer_01",
			"translation": [ 0.36332953, 0.683622599, 1.79501295 ],
			"mesh": 7
		},
		{
			"name": "Drawer_02",
			"translation": [ 0.364019036, 0.683746755, 0.969327748 ],
			"mesh": 8
		},
		{
			"name": "Drawer_03",
			"translation": [ 0.404763699, 0.442529559, -1.7907865 ],
			"mesh": 9
		},
		{
			"name": "Drawer_04",
			"translation": [ 0.402260661, 0.162020713, -1.79157364 ],
			"mesh": 10
		},
		{
			"name": "Kitchen_Sink_Base",
			"mesh": 11
		}
	],
	"scenes": [
		{
			"name": "apartment_0000",
			"nodes": [ 0 ]
		}
	]
}