{
	"asset":
	{
		"version": "2.0",
		"generator": "Unreal Engine 5.2.0"
	},
	"scene": 0,
	"accessors": [
		{
			"bufferView": 0,
			"count": 34800,
			"type": "SCALAR",
			"componentType": 5123
		},
		{
			"bufferView": 1,
			"count": 6780,
			"type": "VEC3",
			"componentType": 5126,
			"min": [ -0.279616207, -2.62588264e-06, -0.265272409 ],
			"max": [ 0.279616207, 1.38324821, 0.265272409 ]
		},
		{
			"bufferView": 2,
			"count": 6780,
			"type": "VEC3",
			"componentType": 5126
		},
		{
			"bufferView": 3,
			"count": 6780,
			"type": "VEC4",
			"componentType": 5126
		},
		{
			"bufferView": 4,
			"count": 6780,
			"type": "VEC2",
			"componentType": 5126
		},
		{
			"bufferView": 5,
			"count": 6780,
			"type": "VEC2",
			"componentType": 5126
		}
	],
	"buffers": [
		{
			"uri": "Kitchen_Chair_03.bin",
			"byteLength": 449280
		}
	],
	"bufferViews": [
		{
			"buffer": 0,
			"byteLength": 69600,
			"target": 34963
		},
		{
			"buffer": 0,
			"byteLength": 81360,
			"byteOffset": 69600,
			"target": 34962
		},
		{
			"buffer": 0,
			"byteLength": 81360,
			"byteOffset": 150960,
			"target": 34962
		},
		{
			"buffer": 0,
			"byteLength": 108480,
			"byteOffset": 232320,
			"target": 34962
		},
		{
			"buffer": 0,
			"byteLength": 54240,
			"byteOffset": 340800,
			"target": 34962
		},
		{
			"buffer": 0,
			"byteLength": 54240,
			"byteOffset": 395040,
			"target": 34962
		}
	],
	"materials": [
		{
			"name": "MI_Kitchen_Chair",
			"pbrMetallicRoughness":
			{
			}
		}
	],
	"meshes": [
		{
			"name": "SM_Kitchen_Chair",
			"primitives": [
				{
					"attributes":
					{
						"POSITION": 1,
						"NORMAL": 2,
						"TANGENT": 3,
						"TEXCOORD_0": 4,
						"TEXCOORD_1": 5
					},
					"indices": 0,
					"material": 0
				}
			]
		}
	],
	"nodes": [
		{
			"name": "Kitchen_Chair_03",
			"translation": [ -2.055722, 0.272781372, 2.11922359 ],
			"rotation": [ -0, -0.965925932, 0, 0.258819073 ],
			"scale": [ 0.899999976, 0.899999976, 0.899999976 ],
			"mesh": 0
		}
	],
	"scenes": [
		{
			"name": "apartment_0000",
			"nodes": [ 0 ]
		}
	]
}