{
	"asset":
	{
		"version": "2.0",
		"generator": "Unreal Engine 5.2.0"
	},
	"scene": 0,
	"accessors": [
		{
			"bufferView": 0,
			"count": 9444,
			"type": "SCALAR",
			"componentType": 5123
		},
		{
			"bufferView": 1,
			"count": 1989,
			"type": "VEC3",
			"componentType": 5126,
			"min": [ -0.898503304, -5.48307489e-17, -0.898503304 ],
			"max": [ 0.898503304, 0.359999985, 0.898503304 ]
		},
		{
			"bufferView": 2,
			"count": 1989,
			"type": "VEC3",
			"componentType": 5126
		},
		{
			"bufferView": 3,
			"count": 1989,
			"type": "VEC4",
			"componentType": 5126
		},
		{
			"bufferView": 4,
			"count": 1989,
			"type": "VEC2",
			"componentType": 5126
		},
		{
			"bufferView": 5,
			"count": 1989,
			"type": "VEC2",
			"componentType": 5126
		}
	],
	"buffers": [
		{
			"uri": "LivingRoom_Table.bin",
			"byteLength": 130272
		}
	],
	"bufferViews": [
		{
			"buffer": 0,
			"byteLength": 18888,
			"target": 34963
		},
		{
			"buffer": 0,
			"byteLength": 23868,
			"byteOffset": 18888,
			"target": 34962
		},
		{
			"buffer": 0,
			"byteLength": 23868,
			"byteOffset": 42756,
			"target": 34962
		},
		{
			"buffer": 0,
			"byteLength": 31824,
			"byteOffset": 66624,
			"target": 34962
		},
		{
			"buffer": 0,
			"byteLength": 15912,
			"byteOffset": 98448,
			"target": 34962
		},
		{
			"buffer": 0,
			"byteLength": 15912,
			"byteOffset": 114360,
			"target": 34962
		}
	],
	"materials": [
		{
			"name": "MI_LivingRoom_Table",
			"pbrMetallicRoughness":
			{
			}
		}
	],
	"meshes": [
		{
			"name": "SM_LivingRoom_Table",
			"primitives": [
				{
					"attributes":
					{
						"POSITION": 1,
						"NORMAL": 2,
						"TANGENT": 3,
						"TEXCOORD_0": 4,
						"TEXCOORD_1": 5
					},
					"indices": 0,
					"material": 0
				}
			]
		}
	],
	"nodes": [
		{
			"name": "LivingRoom_Table",
			"translation": [ 2.35371518, 0.286378503, 2.73274398 ],
			"rotation": [ -0, -0.707107246, 0, 0.707106292 ],
			"mesh": 0
		}
	],
	"scenes": [
		{
			"name": "apartment_0000",
			"nodes": [ 0 ]
		}
	]
}