{
	"asset":
	{
		"version": "2.0",
		"generator": "Unreal Engine 5.2.0"
	},
	"scene": 0,
	"accessors": [
		{
			"bufferView": 0,
			"count": 19938,
			"type": "SCALAR",
			"componentType": 5123
		},
		{
			"bufferView": 1,
			"count": 3783,
			"type": "VEC3",
			"componentType": 5126,
			"min": [ -0.45145613, 0.00280603161, -0.454214156 ],
			"max": [ 0.451456368, 1.34987426, 0.454214156 ]
		},
		{
			"bufferView": 2,
			"count": 3783,
			"type": "VEC3",
			"componentType": 5126
		},
		{
			"bufferView": 3,
			"count": 3783,
			"type": "VEC4",
			"componentType": 5126
		},
		{
			"bufferView": 4,
			"count": 3783,
			"type": "VEC2",
			"componentType": 5126
		},
		{
			"bufferView": 5,
			"count": 3783,
			"type": "VEC2",
			"componentType": 5126
		}
	],
	"buffers": [
		{
			"uri": "LivingRoom_Chair_02.bin",
			"byteLength": 251724
		}
	],
	"bufferViews": [
		{
			"buffer": 0,
			"byteLength": 39876,
			"target": 34963
		},
		{
			"buffer": 0,
			"byteLength": 45396,
			"byteOffset": 39876,
			"target": 34962
		},
		{
			"buffer": 0,
			"byteLength": 45396,
			"byteOffset": 85272,
			"target": 34962
		},
		{
			"buffer": 0,
			"byteLength": 60528,
			"byteOffset": 130668,
			"target": 34962
		},
		{
			"buffer": 0,
			"byteLength": 30264,
			"byteOffset": 191196,
			"target": 34962
		},
		{
			"buffer": 0,
			"byteLength": 30264,
			"byteOffset": 221460,
			"target": 34962
		}
	],
	"materials": [
		{
			"name": "MI_LivingRoom_Chair",
			"pbrMetallicRoughness":
			{
			}
		}
	],
	"meshes": [
		{
			"name": "SM_LivingRoom_Chair",
			"primitives": [
				{
					"attributes":
					{
						"POSITION": 1,
						"NORMAL": 2,
						"TANGENT": 3,
						"TEXCOORD_0": 4,
						"TEXCOORD_1": 5
					},
					"indices": 0,
					"material": 0
				}
			]
		}
	],
	"nodes": [
		{
			"name": "LivingRoom_Chair_02",
			"translation": [ 0.640138984, 0.265677661, 4.75460577 ],
			"rotation": [ 0, 0.906307995, -0, 0.422617763 ],
			"mesh": 0
		}
	],
	"scenes": [
		{
			"name": "apartment_0000",
			"nodes": [ 0 ]
		}
	]
}