{
	"asset":
	{
		"version": "2.0",
		"generator": "Unreal Engine 5.2.0"
	},
	"scene": 0,
	"accessors": [
		{
			"bufferView": 0,
			"count": 6042,
			"type": "SCALAR",
			"componentType": 5123
		},
		{
			"bufferView": 1,
			"count": 1256,
			"type": "VEC3",
			"componentType": 5126,
			"min": [ -0.29472962, -0.348109663, -0.00964315422 ],
			"max": [ 0.29472962, 0.348109722, 0.037853051 ]
		},
		{
			"bufferView": 2,
			"count": 1256,
			"type": "VEC3",
			"componentType": 5126
		},
		{
			"bufferView": 3,
			"count": 1256,
			"type": "VEC4",
			"componentType": 5126
		},
		{
			"bufferView": 4,
			"count": 1256,
			"type": "VEC2",
			"componentType": 5126
		},
		{
			"bufferView": 5,
			"count": 1256,
			"type": "VEC2",
			"componentType": 5126
		}
	],
	"buffers": [
		{
			"uri": "Mirror.bin",
			"byteLength": 82420
		}
	],
	"bufferViews": [
		{
			"buffer": 0,
			"byteLength": 12084,
			"target": 34963
		},
		{
			"buffer": 0,
			"byteLength": 15072,
			"byteOffset": 12084,
			"target": 34962
		},
		{
			"buffer": 0,
			"byteLength": 15072,
			"byteOffset": 27156,
			"target": 34962
		},
		{
			"buffer": 0,
			"byteLength": 20096,
			"byteOffset": 42228,
			"target": 34962
		},
		{
			"buffer": 0,
			"byteLength": 10048,
			"byteOffset": 62324,
			"target": 34962
		},
		{
			"buffer": 0,
			"byteLength": 10048,
			"byteOffset": 72372,
			"target": 34962
		}
	],
	"materials": [
		{
			"name": "MI_Cabinet_Vase_Mirror",
			"pbrMetallicRoughness":
			{
			}
		}
	],
	"meshes": [
		{
			"name": "SM_Mirror",
			"primitives": [
				{
					"attributes":
					{
						"POSITION": 1,
						"NORMAL": 2,
						"TANGENT": 3,
						"TEXCOORD_0": 4,
						"TEXCOORD_1": 5
					},
					"indices": 0,
					"material": 0
				}
			]
		}
	],
	"nodes": [
		{
			"name": "Mirror",
			"translation": [ -1.90207303, 2.81630063, 6.54187727 ],
			"rotation": [ -0, -1, 0, 1.21679644e-08 ],
			"scale": [ 2, 2, 2 ],
			"mesh": 0
		}
	],
	"scenes": [
		{
			"name": "apartment_0000",
			"nodes": [ 0 ]
		}
	]
}