{
	"asset":
	{
		"version": "2.0",
		"generator": "Unreal Engine 5.2.0"
	},
	"scene": 0,
	"accessors": [
		{
			"bufferView": 0,
			"count": 8280,
			"type": "SCALAR",
			"componentType": 5123
		},
		{
			"bufferView": 1,
			"count": 1920,
			"type": "VEC3",
			"componentType": 5126,
			"min": [ -0.554974496, -0.275577515, -1.67995883e-17 ],
			"max": [ 0.554974496, 0.275577545, 0.0179228224 ]
		},
		{
			"bufferView": 2,
			"count": 1920,
			"type": "VEC3",
			"componentType": 5126
		},
		{
			"bufferView": 3,
			"count": 1920,
			"type": "VEC4",
			"componentType": 5126
		},
		{
			"bufferView": 4,
			"count": 1920,
			"type": "VEC2",
			"componentType": 5126
		},
		{
			"bufferView": 5,
			"count": 1920,
			"type": "VEC2",
			"componentType": 5126
		}
	],
	"buffers": [
		{
			"uri": "Picture_Set.bin",
			"byteLength": 124080
		}
	],
	"bufferViews": [
		{
			"buffer": 0,
			"byteLength": 16560,
			"target": 34963
		},
		{
			"buffer": 0,
			"byteLength": 23040,
			"byteOffset": 16560,
			"target": 34962
		},
		{
			"buffer": 0,
			"byteLength": 23040,
			"byteOffset": 39600,
			"target": 34962
		},
		{
			"buffer": 0,
			"byteLength": 30720,
			"byteOffset": 62640,
			"target": 34962
		},
		{
			"buffer": 0,
			"byteLength": 15360,
			"byteOffset": 93360,
			"target": 34962
		},
		{
			"buffer": 0,
			"byteLength": 15360,
			"byteOffset": 108720,
			"target": 34962
		}
	],
	"materials": [
		{
			"name": "MI_Pictures",
			"pbrMetallicRoughness":
			{
			}
		}
	],
	"meshes": [
		{
			"name": "SM_Picture_Set",
			"primitives": [
				{
					"attributes":
					{
						"POSITION": 1,
						"NORMAL": 2,
						"TANGENT": 3,
						"TEXCOORD_0": 4,
						"TEXCOORD_1": 5
					},
					"indices": 0,
					"material": 0
				}
			]
		}
	],
	"nodes": [
		{
			"name": "Picture_Set",
			"translation": [ -0.406613618, 2.15535712, -4.40341854 ],
			"rotation": [ -0, -0.707105994, 0, 0.707107544 ],
			"scale": [ 2.4000001, 2.4000001, 2.5999999 ],
			"mesh": 0
		}
	],
	"scenes": [
		{
			"name": "apartment_0000",
			"nodes": [ 0 ]
		}
	]
}