{
	"asset":
	{
		"version": "2.0",
		"generator": "Unreal Engine 5.2.0"
	},
	"scene": 0,
	"accessors": [
		{
			"bufferView": 0,
			"count": 32208,
			"type": "SCALAR",
			"componentType": 5123
		},
		{
			"bufferView": 1,
			"count": 6342,
			"type": "VEC3",
			"componentType": 5126,
			"min": [ -0.0821615234, -0.000355834956, -0.0563711673 ],
			"max": [ 0.0821615234, 0.107838288, 0.0563711673 ]
		},
		{
			"bufferView": 2,
			"count": 6342,
			"type": "VEC3",
			"componentType": 5126
		},
		{
			"bufferView": 3,
			"count": 6342,
			"type": "VEC4",
			"componentType": 5126
		},
		{
			"bufferView": 4,
			"count": 6342,
			"type": "VEC2",
			"componentType": 5126
		},
		{
			"bufferView": 5,
			"count": 6342,
			"type": "VEC2",
			"componentType": 5126
		}
	],
	"buffers": [
		{
			"uri": "Prop_05.bin",
			"byteLength": 419568
		}
	],
	"bufferViews": [
		{
			"buffer": 0,
			"byteLength": 64416,
			"target": 34963
		},
		{
			"buffer": 0,
			"byteLength": 76104,
			"byteOffset": 64416,
			"target": 34962
		},
		{
			"buffer": 0,
			"byteLength": 76104,
			"byteOffset": 140520,
			"target": 34962
		},
		{
			"buffer": 0,
			"byteLength": 101472,
			"byteOffset": 216624,
			"target": 34962
		},
		{
			"buffer": 0,
			"byteLength": 50736,
			"byteOffset": 318096,
			"target": 34962
		},
		{
			"buffer": 0,
			"byteLength": 50736,
			"byteOffset": 368832,
			"target": 34962
		}
	],
	"materials": [
		{
			"name": "MI_Props",
			"pbrMetallicRoughness":
			{
			}
		}
	],
	"meshes": [
		{
			"name": "SM_Prop_05",
			"primitives": [
				{
					"attributes":
					{
						"POSITION": 1,
						"NORMAL": 2,
						"TANGENT": 3,
						"TEXCOORD_0": 4,
						"TEXCOORD_1": 5
					},
					"indices": 0,
					"material": 0
				}
			]
		}
	],
	"nodes": [
		{
			"name": "Prop_05",
			"translation": [ 2.06342316, 0.648091137, 2.58890486 ],
			"scale": [ 2, 2, 2 ],
			"mesh": 0
		}
	],
	"scenes": [
		{
			"name": "apartment_0000",
			"nodes": [ 0 ]
		}
	]
}