{
	"asset":
	{
		"version": "2.0",
		"generator": "Unreal Engine 5.2.0"
	},
	"scene": 0,
	"accessors": [
		{
			"bufferView": 0,
			"count": 2850,
			"type": "SCALAR",
			"componentType": 5123
		},
		{
			"bufferView": 1,
			"count": 808,
			"type": "VEC3",
			"componentType": 5126,
			"min": [ -0.200100094, -0.000278164138, -0.149999991 ],
			"max": [ 0.200100094, 0.625237823, 0.149999991 ]
		},
		{
			"bufferView": 2,
			"count": 808,
			"type": "VEC3",
			"componentType": 5126
		},
		{
			"bufferView": 3,
			"count": 808,
			"type": "VEC4",
			"componentType": 5126
		},
		{
			"bufferView": 4,
			"count": 808,
			"type": "VEC2",
			"componentType": 5126
		},
		{
			"bufferView": 5,
			"count": 808,
			"type": "VEC2",
			"componentType": 5126
		}
	],
	"buffers": [
		{
			"uri": "Side_Table_02.bin",
			"byteLength": 50948
		}
	],
	"bufferViews": [
		{
			"buffer": 0,
			"byteLength": 5700,
			"target": 34963
		},
		{
			"buffer": 0,
			"byteLength": 9696,
			"byteOffset": 5700,
			"target": 34962
		},
		{
			"buffer": 0,
			"byteLength": 9696,
			"byteOffset": 15396,
			"target": 34962
		},
		{
			"buffer": 0,
			"byteLength": 12928,
			"byteOffset": 25092,
			"target": 34962
		},
		{
			"buffer": 0,
			"byteLength": 6464,
			"byteOffset": 38020,
			"target": 34962
		},
		{
			"buffer": 0,
			"byteLength": 6464,
			"byteOffset": 44484,
			"target": 34962
		}
	],
	"materials": [
		{
			"name": "MI_Side_Table",
			"pbrMetallicRoughness":
			{
			}
		}
	],
	"meshes": [
		{
			"name": "SM_Side_Table",
			"primitives": [
				{
					"attributes":
					{
						"POSITION": 1,
						"NORMAL": 2,
						"TANGENT": 3,
						"TEXCOORD_0": 4,
						"TEXCOORD_1": 5
					},
					"indices": 0,
					"material": 0
				}
			]
		}
	],
	"nodes": [
		{
			"name": "Side_Table_02",
			"translation": [ 4.70489597, 0.269367218, -0.000300939922 ],
			"rotation": [ 0, 0.707106054, -0, 0.707107544 ],
			"scale": [ 1.20000005, 1.20000005, 1.20000005 ],
			"mesh": 0
		}
	],
	"scenes": [
		{
			"name": "apartment_0000",
			"nodes": [ 0 ]
		}
	]
}