{
	"asset":
	{
		"version": "2.0",
		"generator": "Unreal Engine 5.2.0"
	},
	"scene": 0,
	"accessors": [
		{
			"bufferView": 0,
			"count": 206496,
			"type": "SCALAR",
			"componentType": 5123
		},
		{
			"bufferView": 1,
			"count": 40159,
			"type": "VEC3",
			"componentType": 5126,
			"min": [ -0.506616652, 0.000721490011, -1.43087089 ],
			"max": [ 0.504161298, 0.0391741432, 1.3733151 ]
		},
		{
			"bufferView": 2,
			"count": 40159,
			"type": "VEC3",
			"componentType": 5126
		},
		{
			"bufferView": 3,
			"count": 40159,
			"type": "VEC4",
			"componentType": 5126
		},
		{
			"bufferView": 4,
			"count": 40159,
			"type": "VEC2",
			"componentType": 5126
		},
		{
			"bufferView": 5,
			"count": 40159,
			"type": "VEC2",
			"componentType": 5126
		}
	],
	"buffers": [
		{
			"uri": "Small_Carpet.bin",
			"byteLength": 2661896
		}
	],
	"bufferViews": [
		{
			"buffer": 0,
			"byteLength": 412992,
			"target": 34963
		},
		{
			"buffer": 0,
			"byteLength": 481908,
			"byteOffset": 412992,
			"target": 34962
		},
		{
			"buffer": 0,
			"byteLength": 481908,
			"byteOffset": 894900,
			"target": 34962
		},
		{
			"buffer": 0,
			"byteLength": 642544,
			"byteOffset": 1376808,
			"target": 34962
		},
		{
			"buffer": 0,
			"byteLength": 321272,
			"byteOffset": 2019352,
			"target": 34962
		},
		{
			"buffer": 0,
			"byteLength": 321272,
			"byteOffset": 2340624,
			"target": 34962
		}
	],
	"materials": [
		{
			"name": "MI_Carpet",
			"pbrMetallicRoughness":
			{
			}
		}
	],
	"meshes": [
		{
			"name": "SM_Small_Carpet",
			"primitives": [
				{
					"attributes":
					{
						"POSITION": 1,
						"NORMAL": 2,
						"TANGENT": 3,
						"TEXCOORD_0": 4,
						"TEXCOORD_1": 5
					},
					"indices": 0,
					"material": 0
				}
			]
		}
	],
	"nodes": [
		{
			"name": "Small_Carpet",
			"translation": [ -4.33438396, 0.271107376, 2.19059467 ],
			"mesh": 0
		}
	],
	"scenes": [
		{
			"name": "apartment_0000",
			"nodes": [ 0 ]
		}
	]
}