{
	"asset":
	{
		"version": "2.0",
		"generator": "Unreal Engine 5.2.0"
	},
	"scene": 0,
	"accessors": [
		{
			"bufferView": 0,
			"count": 679296,
			"type": "SCALAR",
			"componentType": 5125
		},
		{
			"bufferView": 1,
			"count": 122760,
			"type": "VEC3",
			"componentType": 5126,
			"min": [ -1.62936318, -0.00071013358, -1.20900345 ],
			"max": [ 1.62936318, 0.99849987, 0.460110605 ]
		},
		{
			"bufferView": 2,
			"count": 122760,
			"type": "VEC3",
			"componentType": 5126
		},
		{
			"bufferView": 3,
			"count": 122760,
			"type": "VEC4",
			"componentType": 5126
		},
		{
			"bufferView": 4,
			"count": 122760,
			"type": "VEC2",
			"componentType": 5126
		},
		{
			"bufferView": 5,
			"count": 122760,
			"type": "VEC2",
			"componentType": 5126
		}
	],
	"buffers": [
		{
			"uri": "Sofa.bin",
			"byteLength": 9591744
		}
	],
	"bufferViews": [
		{
			"buffer": 0,
			"byteLength": 2717184,
			"target": 34963
		},
		{
			"buffer": 0,
			"byteLength": 1473120,
			"byteOffset": 2717184,
			"target": 34962
		},
		{
			"buffer": 0,
			"byteLength": 1473120,
			"byteOffset": 4190304,
			"target": 34962
		},
		{
			"buffer": 0,
			"byteLength": 1964160,
			"byteOffset": 5663424,
			"target": 34962
		},
		{
			"buffer": 0,
			"byteLength": 982080,
			"byteOffset": 7627584,
			"target": 34962
		},
		{
			"buffer": 0,
			"byteLength": 982080,
			"byteOffset": 8609664,
			"target": 34962
		}
	],
	"materials": [
		{
			"name": "MI_Sofa",
			"pbrMetallicRoughness":
			{
			}
		}
	],
	"meshes": [
		{
			"name": "SM_Sofa",
			"primitives": [
				{
					"attributes":
					{
						"POSITION": 1,
						"NORMAL": 2,
						"TANGENT": 3,
						"TEXCOORD_0": 4,
						"TEXCOORD_1": 5
					},
					"indices": 0,
					"material": 0
				}
			]
		}
	],
	"nodes": [
		{
			"name": "Sofa",
			"translation": [ 2.45789552, 0.26902917, 0.24307014 ],
			"rotation": [ -0, -1, 0, 1.21679653e-08 ],
			"scale": [ 1.10000002, 1.10000002, 1.10000002 ],
			"mesh": 0
		}
	],
	"scenes": [
		{
			"name": "apartment_0000",
			"nodes": [ 0 ]
		}
	]
}