{
	"asset":
	{
		"version": "2.0",
		"generator": "Unreal Engine 5.2.0"
	},
	"scene": 0,
	"accessors": [
		{
			"bufferView": 0,
			"count": 15312,
			"type": "SCALAR",
			"componentType": 5123
		},
		{
			"bufferView": 1,
			"count": 2744,
			"type": "VEC3",
			"componentType": 5126,
			"min": [ -0.302158624, -5.96046434e-10, -0.302158624 ],
			"max": [ 0.302158624, 0.920329332, 0.302158624 ]
		},
		{
			"bufferView": 2,
			"count": 2744,
			"type": "VEC3",
			"componentType": 5126
		},
		{
			"bufferView": 3,
			"count": 2744,
			"type": "VEC4",
			"componentType": 5126
		},
		{
			"bufferView": 4,
			"count": 2744,
			"type": "VEC2",
			"componentType": 5126
		},
		{
			"bufferView": 5,
			"count": 2744,
			"type": "VEC2",
			"componentType": 5126
		}
	],
	"buffers": [
		{
			"uri": "Vase_03.bin",
			"byteLength": 184288
		}
	],
	"bufferViews": [
		{
			"buffer": 0,
			"byteLength": 30624,
			"target": 34963
		},
		{
			"buffer": 0,
			"byteLength": 32928,
			"byteOffset": 30624,
			"target": 34962
		},
		{
			"buffer": 0,
			"byteLength": 32928,
			"byteOffset": 63552,
			"target": 34962
		},
		{
			"buffer": 0,
			"byteLength": 43904,
			"byteOffset": 96480,
			"target": 34962
		},
		{
			"buffer": 0,
			"byteLength": 21952,
			"byteOffset": 140384,
			"target": 34962
		},
		{
			"buffer": 0,
			"byteLength": 21952,
			"byteOffset": 162336,
			"target": 34962
		}
	],
	"materials": [
		{
			"name": "MI_Vase_03",
			"pbrMetallicRoughness":
			{
			}
		}
	],
	"meshes": [
		{
			"name": "SM_Vase_03",
			"primitives": [
				{
					"attributes":
					{
						"POSITION": 1,
						"NORMAL": 2,
						"TANGENT": 3,
						"TEXCOORD_0": 4,
						"TEXCOORD_1": 5
					},
					"indices": 0,
					"material": 0
				}
			]
		}
	],
	"nodes": [
		{
			"name": "Vase_03",
			"translation": [ 4.71860933, 0.251117826, 6.05874538 ],
			"scale": [ 1.20000005, 1.20000005, 1.20000005 ],
			"mesh": 0
		}
	],
	"scenes": [
		{
			"name": "apartment_0000",
			"nodes": [ 0 ]
		}
	]
}