{
	"asset":
	{
		"version": "2.0",
		"generator": "Unreal Engine 5.2.0"
	},
	"scene": 0,
	"accessors": [
		{
			"bufferView": 0,
			"count": 12,
			"type": "SCALAR",
			"componentType": 5121
		},
		{
			"bufferView": 1,
			"count": 8,
			"type": "VEC3",
			"componentType": 5126,
			"min": [ -0.101540312, 0.0082948776, 0.000874412712 ],
			"max": [ 0.101540312, 0.286350727, 0.00225464604 ]
		},
		{
			"bufferView": 2,
			"count": 8,
			"type": "VEC3",
			"componentType": 5126
		},
		{
			"bufferView": 3,
			"count": 8,
			"type": "VEC4",
			"componentType": 5126
		},
		{
			"bufferView": 4,
			"count": 8,
			"type": "VEC2",
			"componentType": 5126
		},
		{
			"bufferView": 5,
			"count": 8,
			"type": "VEC2",
			"componentType": 5126
		},
		{
			"bufferView": 6,
			"count": 3336,
			"type": "SCALAR",
			"componentType": 5123
		},
		{
			"bufferView": 7,
			"count": 905,
			"type": "VEC3",
			"componentType": 5126,
			"min": [ -0.108566254, -3.18087678e-19, -0.00639272248 ],
			"max": [ 0.108566254, 0.293742567, 0.00639272248 ]
		},
		{
			"bufferView": 8,
			"count": 905,
			"type": "VEC3",
			"componentType": 5126
		},
		{
			"bufferView": 9,
			"count": 905,
			"type": "VEC4",
			"componentType": 5126
		},
		{
			"bufferView": 10,
			"count": 905,
			"type": "VEC2",
			"componentType": 5126
		},
		{
			"bufferView": 11,
			"count": 905,
			"type": "VEC2",
			"componentType": 5126
		}
	],
	"buffers": [
		{
			"uri": "Vinyl_Frame_02.bin",
			"byteLength": 57812
		}
	],
	"bufferViews": [
		{
			"buffer": 0,
			"byteLength": 12,
			"target": 34963
		},
		{
			"buffer": 0,
			"byteLength": 96,
			"byteOffset": 12,
			"target": 34962
		},
		{
			"buffer": 0,
			"byteLength": 96,
			"byteOffset": 108,
			"target": 34962
		},
		{
			"buffer": 0,
			"byteLength": 128,
			"byteOffset": 204,
			"target": 34962
		},
		{
			"buffer": 0,
			"byteLength": 64,
			"byteOffset": 332,
			"target": 34962
		},
		{
			"buffer": 0,
			"byteLength": 64,
			"byteOffset": 396,
			"target": 34962
		},
		{
			"buffer": 0,
			"byteLength": 6672,
			"byteOffset": 460,
			"target": 34963
		},
		{
			"buffer": 0,
			"byteLength": 10860,
			"byteOffset": 7132,
			"target": 34962
		},
		{
			"buffer": 0,
			"byteLength": 10860,
			"byteOffset": 17992,
			"target": 34962
		},
		{
			"buffer": 0,
			"byteLength": 14480,
			"byteOffset": 28852,
			"target": 34962
		},
		{
			"buffer": 0,
			"byteLength": 7240,
			"byteOffset": 43332,
			"target": 34962
		},
		{
			"buffer": 0,
			"byteLength": 7240,
			"byteOffset": 50572,
			"target": 34962
		}
	],
	"materials": [
		{
			"name": "MI_Glass",
			"pbrMetallicRoughness":
			{
				"baseColorFactor": [ 0, 0.00120199996, 0.003303, 0.349999994 ],
				"metallicFactor": 0,
				"roughnessFactor": 0
			},
			"alphaMode": "BLEND"
		},
		{
			"name": "MI_Vinyl_Frame",
			"pbrMetallicRoughness":
			{
			}
		}
	],
	"meshes": [
		{
			"name": "SM_Vinyl_Frame",
			"primitives": [
				{
					"attributes":
					{
						"POSITION": 1,
						"NORMAL": 2,
						"TANGENT": 3,
						"TEXCOORD_0": 4,
						"TEXCOORD_1": 5
					},
					"indices": 0,
					"material": 0
				},
				{
					"attributes":
					{
						"POSITION": 7,
						"NORMAL": 8,
						"TANGENT": 9,
						"TEXCOORD_0": 10,
						"TEXCOORD_1": 11
					},
					"indices": 6,
					"material": 1
				}
			]
		}
	],
	"nodes": [
		{
			"name": "Vinyl_Frame_02",
			"translation": [ 0.218611166, 2.05830741, 6.52487087 ],
			"rotation": [ -0, -1, 0, 1.21679653e-08 ],
			"scale": [ 4, 4, 4 ],
			"mesh": 0
		}
	],
	"scenes": [
		{
			"name": "apartment_0000",
			"nodes": [ 0 ]
		}
	]
}