{
	"asset":
	{
		"version": "2.0",
		"generator": "Unreal Engine 5.2.0"
	},
	"scene": 0,
	"accessors": [
		{
			"bufferView": 0,
			"count": 1296,
			"type": "SCALAR",
			"componentType": 5123
		},
		{
			"bufferView": 1,
			"count": 300,
			"type": "VEC3",
			"componentType": 5126,
			"min": [ -5.89899158, 0.270095944, -6.9600358 ],
			"max": [ -0.000994508155, 4.11281204, -6.52183199 ]
		},
		{
			"bufferView": 2,
			"count": 300,
			"type": "VEC3",
			"componentType": 5126
		},
		{
			"bufferView": 3,
			"count": 300,
			"type": "VEC4",
			"componentType": 5126
		},
		{
			"bufferView": 4,
			"count": 300,
			"type": "VEC2",
			"componentType": 5126
		},
		{
			"bufferView": 5,
			"count": 300,
			"type": "VEC2",
			"componentType": 5126
		}
	],
	"buffers": [
		{
			"uri": "Wall_03.bin",
			"byteLength": 19392
		}
	],
	"bufferViews": [
		{
			"buffer": 0,
			"byteLength": 2592,
			"target": 34963
		},
		{
			"buffer": 0,
			"byteLength": 3600,
			"byteOffset": 2592,
			"target": 34962
		},
		{
			"buffer": 0,
			"byteLength": 3600,
			"byteOffset": 6192,
			"target": 34962
		},
		{
			"buffer": 0,
			"byteLength": 4800,
			"byteOffset": 9792,
			"target": 34962
		},
		{
			"buffer": 0,
			"byteLength": 2400,
			"byteOffset": 14592,
			"target": 34962
		},
		{
			"buffer": 0,
			"byteLength": 2400,
			"byteOffset": 16992,
			"target": 34962
		}
	],
	"materials": [
		{
			"name": "MI_Walls",
			"pbrMetallicRoughness":
			{
			}
		}
	],
	"meshes": [
		{
			"name": "SM_Wall_03",
			"primitives": [
				{
					"attributes":
					{
						"POSITION": 1,
						"NORMAL": 2,
						"TANGENT": 3,
						"TEXCOORD_0": 4,
						"TEXCOORD_1": 5
					},
					"indices": 0,
					"material": 0
				}
			]
		}
	],
	"nodes": [
		{
			"name": "Wall_03",
			"mesh": 0
		}
	],
	"scenes": [
		{
			"name": "apartment_0000",
			"nodes": [ 0 ]
		}
	]
}